<?xml version="1.0" encoding="UTF-8"?>
<svg id="_Слой_2" data-name="Слой 2" xmlns="http://www.w3.org/2000/svg" viewBox="0 0 800.62 427.88">
  <defs>
    <style>
      .cls-1 {
        fill: #0097a0;
      }
    </style>
  </defs>
  <g id="Layer_1" data-name="Layer 1">
    <path class="cls-1" d="M723.67,350.93L442.66,69.91l-42.34-42.34L372.75,0l-29.4,29.4L313.96,0,101.76,212.21l35.3-11.91L282.66,54.7l17.82,17.82-109.63,109.63,38.7-13.06,113.8-113.8,14.62,14.62,42.34,42.34,214.32,218.18-525.73-1.55L0,427.88H800.62l-76.95-76.95ZM33.49,412.91l63.1-68.62H627.21l72.65,71.33-666.37-2.71Zm128.81-48.23c-4.84,3.79-7.25,9.01-7.25,15.65v21.51h39.67c4.39,0,8.31-.48,11.74-1.43,3.44-.95,6.34-2.35,8.71-4.19,2.37-1.84,4.16-4.08,5.38-6.7,1.22-2.63,1.83-5.61,1.83-8.96v-21.51h-39.67c-8.78,0-15.59,1.88-20.42,5.64m51.31,1.12v14.53c0,5.41-1.43,9.22-4.32,11.44-2.88,2.21-7.83,3.31-14.86,3.31h-30.6v-14.52c0-5.4,1.44-9.22,4.32-11.43,2.88-2.22,7.83-3.33,14.86-3.33h30.59Zm69.61-2.36v-4.4h-22.1c-9.18,0-16.25,2.07-21.23,6.2-4.29,3.52-6.44,7.92-6.44,13.17v23.42h8.79v-21.28c0-5.4,1.44-9.22,4.32-11.43,2.88-2.22,7.83-3.33,14.85-3.33h13.03v35.98h8.78v-21.23c0-5.4,1.44-9.22,4.32-11.43,2.88-2.22,7.83-3.33,14.86-3.33h13.03v36.04h8.79v-42.96l-15.52-.11c-11.32-.03-19.81,1.52-25.47,4.67m-188.45-2.96c-3.44,.96-6.34,2.36-8.71,4.2-2.37,1.84-4.16,4.07-5.38,6.7-1.22,2.63-1.83,5.61-1.83,8.95v21.51h67.35v-6.76h-58.56v-14.52c0-5.4,1.43-9.22,4.32-11.43,2.88-2.22,7.83-3.33,14.86-3.33h39.38v-6.76h-39.68c-4.39,0-8.3,.48-11.75,1.44m333.49,0c-3.44,.96-6.35,2.36-8.72,4.2-2.36,1.84-4.16,4.07-5.38,6.7-1.22,2.63-1.83,5.61-1.83,8.95v21.51h8.78v-18.02h58.56v-24.78h-39.68c-4.39,0-8.31,.48-11.74,1.44m22.99,5.18c1.73,.02,3.91,.05,6.55,.08,1.32,.04,2.56,.05,3.73,.05h9.37v11.26h-49.33c.73-4.91,2.85-8.09,6.37-9.51,3.12-1.28,9.56-1.92,19.32-1.92,.93,0,2.26,.01,4,.03m-100.32,2.39c2.53-1.49,6.81-2.25,12.82-2.25h39.38v-6.76h-39.67c-10.2,0-17.47,2.24-21.81,6.7-3.47,3.68-5.52,9.7-6.15,18.07h58.27c-1.03,4.47-2.93,7.5-5.71,9.07-2.58,1.46-6.88,2.19-12.88,2.19h-39.38v6.76h39.67c10.25,0,17.5-2.23,21.74-6.7,3.41-3.64,5.47-9.66,6.15-18.08h-58.2c1.03-4.39,2.96-7.4,5.78-9.01m228.7-7.57c-3.44,.96-6.34,2.36-8.71,4.2-2.37,1.84-4.16,4.07-5.38,6.7-1.22,2.63-1.83,5.61-1.83,8.95v21.51h67.35v-6.76h-58.56v-14.52c0-5.4,1.44-9.22,4.32-11.43,2.88-2.22,7.83-3.33,14.86-3.33h39.38v-6.76h-39.68c-4.39,0-8.31,.48-11.75,1.44m-83.85,4.2c-4.83,3.79-7.24,9.01-7.24,15.65v21.51h67.34v-6.76h-58.56v-11.26h58.56v-6.76h-58.34c.3-2.02,.86-3.75,1.69-5.18,.83-1.42,2-2.59,3.51-3.49,1.51-.9,3.39-1.56,5.64-1.98,2.24-.42,4.95-.62,8.12-.62h39.38v-6.76h-39.67c-8.78,0-15.6,1.88-20.43,5.64"/>
  </g>
</svg>