<svg xmlns="http://www.w3.org/2000/svg" xml:space="preserve" viewBox="0 0 1024 1024"><path d="M677 1025H1V1h1024v1024H677M318.884 788.934c1.993.076 3.986.153 5.646.855l-3.636.564.078.672h5.34c-.058-.62-.116-1.241.726-2.066 9.94.07 19.882.14 29.506.811l-3.698.462c1.834.03 4.629 4.003 6.176-1.262 9.99.026 19.98.053 29.654.695l-3.62.738.546 1.236c1.465-.86 2.93-1.72 5.327-2.696 7.348.028 14.696.055 21.752.717l-3.765.671.254 1.355c4.28-.886 8.56-1.771 13.767-2.75 4.678.026 9.356.052 14.173.549.306-.157.612-.315 1.843-.551 4.672.027 9.344.054 14.156.553.307-.158.614-.315 1.852-.553 7.299.076 14.598.152 21.568.842l-4.437.497c5.6 1.577 5.6 1.577 6.938-1.308 4.657.027 9.313.054 13.611.735l-4.63.547c1.856.743 3.69.805 5.508.658.208-.017.32-1.209 1.344-1.97 2.038.026 4.076.05 6.25.545.303-.157.606-.313 1.84-.55 7.303.078 14.604.155 21.593.83l-3.135.64.106.437h12.564l.001-.33c-2.645-.452-5.291-.904-7.04-1.547 4.648.015 9.297.03 14.075.514.298-.156.597-.312 1.764-.548 2.036.026 4.071.053 6.236.547.298-.155.597-.311 1.828-.547 7.353.039 14.706.078 21.694.744l-3.678.753.632 1.266c1.465-.878 2.929-1.756 5.263-2.754 2.046.038 4.092.075 5.813.744-.644.088-1.291.159-1.932.267-.613.104-1.219.247-2.743.561 5.914 1.138 5.914 1.138 6.94-1.568 7.35.023 14.7.046 22.181.537.3-.156.6-.313 1.769-.549 2.034.027 4.068.053 6.232.548.3-.156.599-.312 1.83-.548 10.016.04 20.032.08 29.716.729l-2.507.475c.421-.463 3.853 4.275 4.777-1.192 9.975.074 19.95.148 29.59.795l-4.212.679c5.066 1.435 5.066 1.435 6.66-1.447 2.006.027 4.013.054 5.703.705l-4.46.803c5.224.754 5.224.754 6.65-1.531 2.014.033 4.028.067 5.763.75l-4.47.847 5.8 1.305c.06-1.215.099-2.008.767-2.898.421.032.843.064 1.347.856.452.388.887 1.09 1.359 1.114 3.33.176 6.689.478 9.992.192 1.91-.165 3.73-1.349 6.494-2.167 3.028.019 6.057.038 8.927.634-.56.284-1.12.568-1.678.858 4.766 1.475 4.766 1.475 5.726-1.498 2.028.026 4.056.05 6.221.547.305-.157.61-.314 1.78-.551 2.03.026 4.06.051 6.223.546.302-.156.604-.313 1.773-.547 2.03.026 4.06.053 6.226.549.303-.157.606-.313 1.84-.549 8.676-.06 17.351-.12 26.741-.038 10.893-3.825 12.3-11.826 10.926-20.445a77.805 77.805 0 0 1-.663-5.374c-.713-8.038-1.288-16.09-2.11-24.118-1.207-11.79-2.645-23.555-3.862-35.343-.81-7.85-1.33-15.73-2.115-23.583-1.242-12.415-2.645-24.813-3.89-37.228-.787-7.86-1.293-15.75-2.135-23.603-1.191-11.098-2.697-22.162-3.841-33.264-.879-8.519-1.307-17.083-2.116-25.61-1.224-12.915-2.648-25.81-3.904-38.722-.764-7.856-1.237-15.742-2.084-23.589-1.195-11.077-2.74-22.117-3.898-33.198-.89-8.508-1.335-17.063-2.121-25.584-1.237-13.408-2.621-26.803-3.888-40.209-.76-8.03-1.323-16.079-2.135-24.103-1.224-12.075-2.674-24.128-3.864-36.206-.84-8.525-1.348-17.082-2.11-25.615-.908-10.151-2.377-20.274-2.775-30.442-.414-10.581-6.69-17.596-17.126-17.597-91.468-.017-182.936-.027-274.405.008-6.688.002-12.511 1.857-15.776 8.507-1.876 3.823-4.135 7.456-6.084 11.246-8.755 17.033-17.44 34.103-26.193 51.138a2071.066 2071.066 0 0 1-13.222 25.294c-.498.937-1.534 1.589-2.888 2.938-.26.937-.5 3.184-1.466 5.055-7.869 15.233-15.855 30.406-23.844 45.576-5.487 10.42-11.063 20.792-16.551 31.21-7.325 13.906-14.558 27.861-21.91 41.752-13.958 26.366-28.013 52.68-41.948 79.057-8.015 15.172-15.871 30.429-23.808 45.643-8.811 16.89-17.684 33.75-26.436 50.671a12902.504 12902.504 0 0 0-33.775 65.713c-6.78 13.295-13.805 26.493-19.887 40.107-4.073 9.116 1.1 17.263 12.127 19.865 3.024.055 6.047.11 9.2.633.298-.156.597-.312 1.828-.548 18.01.03 36.019.058 54.166.56.305-.158.61-.315 1.782-.55 2.026.026 4.052.052 6.217.55.306-.158.612-.315 1.848-.551 10.006.026 20.011.052 30.067.634l.35.816c.216-.457.433-.915 1.517-1.451 2.028.026 4.057.052 6.22.547.304-.157.607-.313 1.836-.55 4.674.028 9.347.057 14.161.556.307-.157.614-.315 1.775-.552z"/><path fill="#4A949C" d="M187.023 788.696c-10.133-2.458-15.306-10.605-11.233-19.721 6.082-13.614 13.107-26.812 19.887-40.107a12902.504 12902.504 0 0 1 33.775-65.713c8.752-16.921 17.625-33.78 26.436-50.671 7.937-15.214 15.793-30.47 23.808-45.643 13.935-26.377 27.99-52.69 41.947-79.057 7.353-13.89 14.586-27.846 21.91-41.752 5.489-10.418 11.065-20.79 16.552-31.21 7.99-15.17 15.975-30.343 23.844-45.576.966-1.87 1.205-4.118 1.466-5.055 1.354-1.35 2.39-2 2.888-2.938a2071.066 2071.066 0 0 0 13.222-25.294c8.752-17.035 17.438-34.105 26.193-51.138 1.949-3.79 4.208-7.423 6.084-11.246 3.265-6.65 9.088-8.505 15.776-8.507 91.469-.035 182.937-.025 274.405-.008 10.436.001 16.712 7.016 17.126 17.597.398 10.168 1.867 20.29 2.774 30.442.763 8.533 1.272 17.09 2.111 25.615 1.19 12.078 2.64 24.13 3.864 36.206.812 8.024 1.376 16.073 2.135 24.103 1.267 13.406 2.651 26.8 3.888 40.21.786 8.52 1.231 17.075 2.121 25.583 1.159 11.081 2.703 22.121 3.898 33.198.847 7.847 1.32 15.733 2.084 23.589 1.256 12.912 2.68 25.807 3.904 38.722.809 8.527 1.237 17.091 2.116 25.61 1.144 11.102 2.65 22.166 3.84 33.264.843 7.854 1.35 15.743 2.137 23.603 1.244 12.415 2.647 24.813 3.889 37.228.785 7.853 1.305 15.733 2.115 23.583 1.217 11.788 2.655 23.554 3.862 35.343.822 8.027 1.397 16.08 2.11 24.118.16 1.797.38 3.593.663 5.374 1.375 8.619-.033 16.62-11.525 20.095-3.166-.747-5.732-1.488-8.298-1.49-96.3-.06-192.6-.051-288.9-.05-95.133 0-190.266-.01-285.4.076-2.492.002-4.983 1.054-7.474 1.617m508.942-25.229c-.012-.192-.025-.384-.227-1.225-.653-9.806-1.412-19.606-1.926-29.42-.42-7.994-.49-16.006-.818-24.006-.344-8.388-.764-16.773-1.233-25.155-.772-13.792-1.784-27.573-2.363-41.373-.413-9.835-.204-19.694-.414-29.54-.233-10.943-.59-21.884-.964-32.823-.277-8.105-.632-16.207-1.017-24.307-.976-20.528-1.887-41.06-3.025-61.58-.693-12.487-1.929-24.944-2.596-37.432-.426-7.997-.084-16.032-.398-24.038-.525-13.384-1.379-26.753-1.948-40.135-.752-17.694-1.395-35.393-2.024-53.092-.388-10.934-.552-21.877-1.036-32.805-.238-5.372-.973-10.722-1.434-15.562h-5.531c-55.653.01-111.306.065-166.958-.065-3.903-.009-5.848 1.124-7.451 4.705-5.344 11.936-10.975 23.748-16.704 35.506-14.53 29.82-29.19 59.577-43.765 89.375-16.135 32.986-32.215 65.998-48.357 98.98-9.08 18.55-18.23 37.067-27.357 55.595-11.975 24.31-23.963 48.612-35.936 72.922-9.844 19.988-19.632 40.004-29.524 59.968-9.257 18.681-18.619 37.31-27.501 56.592 2.69.482 5.381 1.384 8.072 1.385 122.05.07 244.101.062 366.152.063 17.15 0 34.3.052 51.45-.086 1.62-.013 3.232-1.218 4.833-2.447m5.041-445.657c.662 15.534 1.298 31.069 1.994 46.601.63 14.085 1.32 28.166 1.996 42.248.665 13.87 1.4 27.737 2.004 41.61.714 16.372 1.246 32.752 2 49.122.545 11.87 1.376 23.728 1.983 35.595.726 14.194 1.324 28.395 2.024 42.59.634 12.866 1.371 25.726 1.99 38.593.714 14.862 1.457 29.724 1.983 44.594.476 13.43.675 26.869 1 40.304.015.666.039 1.333.098 1.996.77 8.643 1.85 17.27 2.248 25.93.508 11.062.51 22.149.631 33.225.03 2.76 1.158 3.86 3.906 3.844 10.886-.066 21.775-.126 32.66.044 3.372.053 4.527-1.658 4.44-4.446-.143-4.477-.557-8.95-.972-13.413-1.362-14.67-2.776-29.334-4.17-44l-.52-.04c-.17 1.465-.34 2.93-.512 4.396-.954-.506-1.36-1.136-1.292-1.71.452-3.864 1.617-7.753 1.39-11.565-.4-6.764-1.9-13.382-2.103-20.273-.318-10.791-2.168-21.537-3.369-32.303-1.506-.773-2.295-1.778-2.173-2.656.123-.888 1.74-1.694 1.685-2.462-.384-5.308-1.018-10.598-1.6-15.891-.874-7.944-1.895-15.875-2.617-23.832-.489-5.379-.363-10.814-.878-16.189-1.138-11.868-2.57-23.708-3.76-35.571-.803-7.992-1.308-16.014-2.113-24.005-.879-8.715-2.047-17.401-2.91-26.117-.81-8.178-1.332-16.384-2.078-24.569-1.226-13.437-3.436-26.778-3.942-40.287-.03-.83-.055-1.663-.154-2.486-.607-5.045-1.368-10.077-1.826-15.136-.787-8.684-1.3-17.393-2.087-26.077-1.223-13.496-4.668-26.775-3.939-40.464.053-.994.012-2.003-.092-2.994-.95-8.968-1.944-17.931-2.884-26.9-.837-7.982-1.62-15.97-2.47-24.368H699.98c0 4.214-.117 8.018.03 11.812.184 4.773.583 9.538.996 15.25M396.943 439.384l72.599-147.574c-5.558-.304-10.132-.698-14.707-.703-1.132 0-2.681.997-3.322 1.995-2.03 3.167-3.803 6.508-5.533 9.856-15.792 30.564-31.479 61.184-47.348 91.708-14.278 27.46-28.773 54.807-43.093 82.246-1.576 3.019-2.335 6.475-3.987 9.442-4.026 7.233-8.611 14.16-12.508 21.457-8.322 15.585-16.275 31.366-24.515 46.996-15.021 28.493-30.197 56.905-45.198 85.41-8.99 17.082-17.726 34.299-26.659 51.412-11.078 21.22-22.255 42.39-33.352 63.6-1.428 2.73-2.632 5.575-4.148 8.81 8.505 0 16.403.061 24.3-.02 5.617-.059 10.024-1.54 12.107-7.828 1.935-5.845 5.04-11.313 7.749-16.889 10.499-21.617 21.04-43.213 31.576-64.812 8.824-18.09 17.605-36.202 26.505-54.255 14.357-29.122 28.806-58.2 43.198-87.305 15.313-30.97 30.605-61.949 46.336-93.546z"/><path fill="#529FA7" d="M187.47 788.768c2.044-.635 4.535-1.687 7.027-1.69 95.134-.085 190.267-.075 285.4-.075 96.3-.001 192.6-.01 288.9.05 2.566.002 5.132.743 7.94 1.42-8.433.339-17.108.399-26.51.488l-1.25.05c-2.03-.027-4.06-.054-6.784-.051l-1.212.049c-2.03-.026-4.06-.051-6.786-.047-.87.037-1.046.043-1.22.05-2.029-.025-4.057-.05-6.745-.191-1.517-.018-2.373.08-3.23.178-3.028-.02-6.057-.038-9.898-.21-6.247-.018-11.68.118-17.114.254a16.804 16.804 0 0 0-1.877-.045c-.81.05-1.008.047-1.207.045a310.097 310.097 0 0 0-6.723-.058c-.852.05-1.022.056-1.19.063-2.008-.028-4.015-.055-6.758.046-.949.108-1.162.088-1.375.067a6485.86 6485.86 0 0 0-30.643-.178c-.886.05-1.054.058-1.222.065-10.015-.04-20.03-.08-30.77-.092l-1.238.05a441.57 441.57 0 0 0-6.793-.05l-1.207.051c-7.35-.022-14.701-.045-22.769-.024-.886.05-1.054.058-1.222.065-2.046-.038-4.092-.075-6.818-.068-.68.044-1.172.064-1.172.064-7.353-.04-14.706-.08-22.782-.089l-1.234.05c-2.036-.026-4.071-.053-6.797-.05-.861.037-1.032.044-1.203.05-4.649-.014-9.298-.03-14.716.082-.983.11-1.198.092-1.413.076-7.302-.078-14.603-.155-22.632-.203l-1.25.05c-2.038-.025-4.076-.05-6.796-.03-.683.044-1.182.066-1.182.066-4.656-.027-9.312-.054-14.735.047-.98.109-1.192.089-1.405.07-7.3-.077-14.599-.153-22.629-.198-.907.037-1.084.043-1.261.05-4.672-.027-9.344-.054-14.743-.051l-1.255.05c-4.678-.026-9.356-.052-14.836-.225-3.588-.02-6.375.108-9.162.237-7.348-.028-14.696-.055-22.76-.04-.885.05-1.053.057-1.221.063-9.99-.026-19.98-.053-30.735.053-.975.11-1.185.088-1.395.066-9.942-.07-19.883-.14-30.593-.08-.981.112-1.194.094-1.407.076-1.992-.077-3.985-.154-6.67-.2-.87.037-1.046.044-1.223.05-4.674-.027-9.347-.056-14.745-.054l-1.246.05c-2.029-.025-4.058-.051-6.782-.048l-1.221.05c-10.006-.026-20.011-.052-30.746-.048l-1.257.05c-2.027-.027-4.053-.053-6.776-.05-.872.036-1.047.042-1.223.049-18.01-.03-36.019-.059-54.75-.058l-1.235.05c-3.024-.055-6.047-.11-9.518-.237z"/><path fill="#468B90" d="M696.029 789.423c5.392-.516 10.826-.652 16.621-.588-1.498.925-3.32 2.109-5.229 2.274-3.303.286-6.663-.016-9.992-.192-.472-.025-.907-.726-1.4-1.494zM412.827 789.343c2.933-.446 5.72-.574 8.845-.508-3.942 1.08-8.222 1.965-12.502 2.85l-.254-1.354c1.255-.224 2.51-.447 3.91-.988zM524.703 789.462c.37-.283.586-.266 1.121-.28 2.967.421 5.613.873 8.258 1.325v.33h-12.565l-.106-.438c1.045-.212 2.09-.425 3.292-.937zM722.921 789.287c.936-.386 1.792-.484 2.876-.421.133 3.043.133 3.043-4.634 1.565.559-.287 1.12-.571 1.758-1.144zM476.694 789.469c.378-.287.59-.267 1.123-.272-.124 2.653-.124 2.653-5.725 1.076 1.869-.21 3.153-.354 4.602-.804zM676.69 789.448c.381-.266.594-.246 1.126-.25-.44 2.65-.44 2.65-5.506 1.215 1.815-.293 3.014-.486 4.38-.965zM492.82 789.373c.18-.327.678-.35.927-.336.093.66-.02 1.85-.228 1.868-1.818.147-3.652.085-5.509-.658 1.544-.183 3.088-.365 4.81-.874zM692.765 789.368c.338-.323.536-.32 1.031-.321.259.79.22 1.583.16 2.798l-5.8-1.305c2.012-.381 3.241-.614 4.61-1.172zM580.831 789.364c.331-.323.5-.33.92-.325.157 2.606.157 2.606-5.757 1.468 1.524-.314 2.13-.457 2.743-.56.64-.11 1.288-.18 2.094-.583zM644.828 789.352c.333-.311.501-.318.921-.312.26 5.366-3.173.628-3.594 1.091a16.48 16.48 0 0 0 2.673-.78zM684.832 789.36c.327-.319.497-.326.92-.32-.315 2.188-.315 2.188-5.538 1.434 1.97-.354 3.214-.578 4.618-1.114zM356.703 789.47c.369-.28.58-.258 1.106-.255-.334 5.02-3.129 1.047-4.963 1.017 1.233-.154 2.465-.308 3.857-.763zM324.696 789.477c.38-.295.592-.277 1.123-.287.377.594.435 1.214.493 1.835h-5.34l-.078-.672c1.212-.188 2.424-.376 3.802-.876zM388.834 789.357c.326-.314.494-.32.913-.312-1.215.874-2.68 1.734-4.145 2.594l-.547-1.236c1.207-.246 2.414-.492 3.779-1.046zM572.821 789.357c.183-.313.675-.333.92-.317-1.22.893-2.683 1.771-4.148 2.649-.21-.422-.42-.844-.632-1.266 1.226-.25 2.452-.502 3.86-1.066zM293 789.29c.15-.285.325-.292.763-.289.045.468-.172.926-.389 1.383-.116-.272-.233-.544-.374-1.094zM541.053 789.24c.106-.241.277-.248.703-.245-.042.167-.34.323-.703.245zM749.045 789.245c.106-.241.28-.248.716-.245-.042.167-.345.323-.716.245zM501.045 789.245c.107-.241.28-.248.716-.245-.042.167-.345.323-.716.245zM605.05 789.241c.106-.24.278-.248.708-.244-.043.166-.343.323-.708.244zM549.052 789.24c.106-.241.277-.249.704-.245-.042.167-.34.323-.704.245zM741.047 789.243c.107-.241.28-.248.713-.244-.042.166-.344.323-.713.244zM733.043 789.247c.106-.242.282-.248.72-.245-.043.167-.347.324-.72.245zM613.05 789.24c.107-.24.278-.247.707-.244-.042.167-.342.323-.706.245zM453.039 789.25c.107-.242.284-.248.726-.245-.042.167-.349.324-.726.246zM197.052 789.24c.107-.242.277-.249.704-.245-.042.166-.34.322-.704.245zM253.042 789.248c.107-.242.282-.248.722-.245-.042.167-.348.324-.722.245zM261.041 789.249c.107-.242.283-.25.722-.246-.041.167-.347.324-.722.246zM301.045 789.245c.107-.241.28-.248.715-.245-.041.167-.344.323-.715.245zM317.04 789.25c.106-.242.283-.249.724-.246-.041.167-.348.325-.725.246zM437.04 789.25c.107-.243.283-.25.724-.247-.042.167-.348.325-.724.246z"/><path d="M265.025 763.922c9.315-18.652 18.677-37.28 27.934-55.962 9.892-19.964 19.68-39.98 29.524-59.968 11.973-24.31 23.961-48.613 35.936-72.922 9.127-18.528 18.278-37.044 27.357-55.596 16.142-32.981 32.222-65.993 48.357-98.979 14.576-29.798 29.235-59.555 43.765-89.375 5.729-11.758 11.36-23.57 16.704-35.506 1.603-3.58 3.548-4.714 7.45-4.705 55.653.13 111.306.075 166.959.065h5.531c.46 4.84 1.196 10.19 1.434 15.562.484 10.928.648 21.871 1.036 32.805.63 17.699 1.272 35.398 2.024 53.092.57 13.382 1.423 26.751 1.948 40.135.314 8.006-.028 16.041.398 24.038.667 12.488 1.903 24.945 2.596 37.432 1.138 20.52 2.049 41.052 3.025 61.58.385 8.1.74 16.202 1.017 24.307.374 10.94.73 21.88.964 32.823.21 9.846.001 19.705.414 29.54.579 13.8 1.59 27.58 2.363 41.373.469 8.382.89 16.767 1.233 25.155.328 8 .399 16.012.818 24.006.514 9.814 1.273 19.614 1.785 29.845-.304.714-.467 1.004-.94 1.34-.727.012-1.143-.022-1.637-.32-.424-.087-.77.089-1.577.318-33.112.023-65.764-.008-98.483-.276-.374-.079-.68.08-1.453.286-10.472.024-20.48 0-30.554-.258-.368-.079-.67.078-1.438.276-7.81.014-15.154-.013-22.563-.275-.367-.078-.668.078-1.435.276-10.437-.043-20.407-.127-30.386-.506-.29-.548-.572-.802-.854-1.055-.139.45-.278.9-.866 1.457-29.095.083-57.74.06-86.452-.2-.37-.079-.676.08-1.446.29-13.14.016-25.814-.019-38.554-.29-.371-.08-.677.079-1.448.288-7.782.012-15.1-.026-22.493-.329-.42-.087-.765.09-1.57.321-10.443-.01-20.426-.077-30.513-.425-.72-.06-1.334.159-2.317.427-1.107.024-1.846-.002-2.656-.263-.378-.079-.686.078-1.444.277-3.462.007-6.475-.027-9.556-.298-.376-.078-.683.08-1.4.287-1.785.016-3.158-.017-4.6-.287-.376-.079-.684.08-1.453.286-5.145.005-9.827-.04-14.645-.38-1.047-.082-1.958.133-3.269.387-1.466-.007-2.532-.054-3.776-.42-1.732-.101-3.287.117-5.264.39-2.125.012-3.828-.028-5.53-.069M536.052 564.79c1.297-5.569 2.947-11.084 3.809-16.72 1.326-8.68-2.239-13.742-9.948-15.105-6.577-1.162-12.098 2.752-13.777 10.285a3238.678 3238.678 0 0 0-11.022 51.307c-1.319 6.407-2.46 12.904-2.948 19.415-.462 6.183 3.837 11.045 9.491 11.96 5.62.91 11.478-2.417 13.153-8.072 1.526-5.151 2.446-10.485 3.556-15.755 2.56-12.149 5.073-24.308 7.686-37.315m19.794-93.701c3.5-15.929 6.835-31.896 10.592-47.764 1.257-5.306-.058-9.464-3.715-12.97-3.792-3.636-8.323-4.232-13.204-2.167-1.32.56-2.746.872-4.172 1.313.07.295.383.82.263 1.213-2.649 8.61-5.79 17.099-7.918 25.834-2.639 10.832-4.49 21.858-6.596 32.816-2.019 10.499 6.412 15.288 13.533 14.598 7.381-.715 9.332-6.215 11.217-12.873m-68.915 219.274c-3.284 14.44-6.985 28.809-9.512 43.381-.53 3.056 2.413 8.033 5.238 10.09 6.928 5.044 17.096 2.695 19.352-9.62 1.938-10.582 4.49-21.05 6.57-31.608.94-4.778 2.324-9.75 1.83-14.46-.6-5.732-7.372-10.332-12.674-10.083-5.17.243-9.13 4.488-10.804 12.3m74.125-359.706c-.855 3.812-1.783 7.609-2.547 11.439-1.102 5.526-2.893 11.074-2.91 16.617-.022 6.662 5.081 10.768 11.98 11.289 4.776.36 10.96-5.082 12.281-10.843 2.948-12.848 5.837-25.71 8.836-38.546 1.714-7.338-2.46-14.668-9.567-16.517-5.278-1.373-11.947 3.067-13.903 9.616-1.583 5.3-2.742 10.725-4.17 16.945zM700.953 317.338c-.36-5.24-.76-10.005-.944-14.778-.146-3.794-.03-7.598-.03-11.812h16.599c.848 8.398 1.632 16.386 2.469 24.368.94 8.969 1.934 17.932 2.884 26.9.104.991.145 2 .092 2.994-.729 13.69 2.716 26.968 3.939 40.464.787 8.684 1.3 17.393 2.087 26.077.458 5.06 1.219 10.09 1.826 15.137.099.822.123 1.656.154 2.485.506 13.509 2.716 26.85 3.942 40.287.746 8.185 1.268 16.391 2.078 24.569.863 8.716 2.031 17.402 2.91 26.117.805 7.991 1.31 16.013 2.113 24.005 1.19 11.863 2.622 23.703 3.76 35.571.515 5.375.39 10.81.878 16.189.722 7.957 1.743 15.888 2.617 23.832.582 5.293 1.216 10.583 1.6 15.89.055.769-1.562 1.575-1.685 2.463-.122.878.667 1.883 2.173 2.656 1.201 10.766 3.051 21.512 3.369 32.303.202 6.89 1.703 13.509 2.104 20.273.226 3.812-.939 7.7-1.391 11.564-.068.575.338 1.205 1.292 1.71l.513-4.395.519.04c1.394 14.666 2.808 29.33 4.17 44 .415 4.464.83 8.936.971 13.413.088 2.788-1.067 4.499-4.44 4.446-10.884-.17-21.773-.11-32.66-.044-2.747.016-3.875-1.083-3.905-3.844-.12-11.076-.123-22.163-.63-33.225-.399-8.66-1.478-17.287-2.249-25.93-.059-.663-.083-1.33-.099-1.996-.324-13.435-.523-26.875-.999-40.304-.526-14.87-1.27-29.732-1.983-44.594-.619-12.867-1.356-25.727-1.99-38.593-.7-14.195-1.298-28.396-2.024-42.59-.607-11.867-1.438-23.724-1.984-35.595-.753-16.37-1.285-32.75-2-49.122-.604-13.873-1.338-27.74-2.003-41.61-.675-14.082-1.365-28.163-1.996-42.248-.696-15.532-1.332-31.067-2.047-47.073zM396.728 439.695c-15.516 31.286-30.808 62.266-46.12 93.235-14.393 29.105-28.842 58.183-43.199 87.305-8.9 18.053-17.681 36.164-26.505 54.255-10.535 21.599-21.077 43.195-31.576 64.812-2.709 5.576-5.814 11.044-7.75 16.889-2.082 6.289-6.49 7.769-12.106 7.827-7.897.082-15.795.021-24.3.021 1.516-3.235 2.72-6.08 4.148-8.81 11.097-21.21 22.274-42.38 33.352-63.6 8.933-17.113 17.669-34.33 26.659-51.413 15.001-28.504 30.177-56.916 45.198-85.409 8.24-15.63 16.193-31.41 24.515-46.996 3.897-7.297 8.482-14.224 12.508-21.457 1.652-2.967 2.411-6.423 3.987-9.442 14.32-27.439 28.815-54.786 43.093-82.246 15.87-30.524 31.556-61.144 47.348-91.708 1.73-3.348 3.503-6.69 5.533-9.856.64-.998 2.19-1.996 3.322-1.995 4.575.005 9.149.399 14.707.703-24.475 49.75-48.537 98.662-72.814 147.885z"/><path fill="#519EA7" d="M561.02 763.991c10.007.024 20.015.048 30.75.035l1.257-.06c32.652.031 65.304.062 98.715.042a27.249 27.249 0 0 1 1.356-.057c.416.034.832.068 1.811.083.732-.01.901 0 1.07.01-1.615.652-3.226 1.857-4.847 1.87-17.15.138-34.3.086-51.45.086-122.05 0-244.101.008-366.152-.063-2.69-.001-5.381-.903-8.289-1.7 1.486-.274 3.189-.234 5.6-.065 2.193.003 3.674-.124 5.156-.251 1.066.046 2.132.093 3.827.258 1.478-.004 2.327-.126 3.176-.249 4.682.045 9.364.089 14.773.096.903-.045 1.08-.053 1.257-.06 1.374.032 2.747.065 4.796.06.85-.045 1.027-.053 1.204-.06 3.013.033 6.026.067 9.754.07l1.248-.051c.74.025 1.48.05 2.777.154 1.115-.039 1.672-.156 2.23-.273 9.983.067 19.966.133 30.706.147.953-.055 1.15-.057 1.348-.06 7.318.039 14.636.077 22.68.077.902-.047 1.077-.055 1.252-.063 12.674.034 25.349.069 38.75.064a226.69 226.69 0 0 1 1.25-.063c28.646.022 57.291.045 86.706-.07.982-.117 1.195-.096 1.408-.075 9.97.084 19.941.168 30.637.222l1.241-.053c7.344.028 14.688.055 22.758.052l1.244-.053z"/><path fill="#42878F" d="M695.972 763.756c-.162.278-.33.268-.752.232-.09-.317.073-.607.472-.997.248.092.26.284.28.765z"/><path fill="#49939B" d="M536.011 565.215a6337.937 6337.937 0 0 1-7.645 36.89c-1.11 5.269-2.03 10.603-3.556 15.754-1.675 5.655-7.532 8.983-13.153 8.073-5.654-.916-9.953-5.778-9.49-11.961.487-6.511 1.628-13.008 2.947-19.415a3238.678 3238.678 0 0 1 11.022-51.307c1.679-7.533 7.2-11.447 13.777-10.285 7.71 1.363 11.274 6.425 9.948 15.105-.862 5.636-2.512 11.151-3.85 17.146z"/><path fill="#49939C" d="M555.683 471.468c-1.722 6.278-3.673 11.778-11.054 12.493-7.121.69-15.552-4.099-13.533-14.598 2.107-10.958 3.957-21.984 6.596-32.816 2.127-8.735 5.27-17.223 7.918-25.834.12-.393-.192-.918-.263-1.213 1.426-.441 2.851-.754 4.172-1.313 4.881-2.065 9.412-1.469 13.204 2.167 3.657 3.506 4.972 7.664 3.715 12.97-3.757 15.868-7.092 31.835-10.755 48.144zM486.98 689.95c1.626-7.4 5.586-11.645 10.755-11.888 5.302-.25 12.074 4.35 12.674 10.084.494 4.709-.89 9.68-1.83 14.46-2.08 10.557-4.632 21.025-6.57 31.606-2.256 12.316-12.424 14.665-19.352 9.62-2.825-2.056-5.768-7.033-5.238-10.089 2.527-14.572 6.228-28.94 9.561-43.792zM561.096 330.23c1.388-5.794 2.547-11.22 4.13-16.519 1.956-6.549 8.625-10.99 13.903-9.616 7.107 1.85 11.281 9.18 9.567 16.517-2.999 12.836-5.888 25.698-8.836 38.546-1.321 5.76-7.505 11.203-12.28 10.843-6.9-.52-12.003-4.627-11.981-11.289.017-5.543 1.808-11.09 2.91-16.617.764-3.83 1.692-7.627 2.587-11.864z"/><path fill="#42878F" d="M275.82 763.601c-1.305.447-2.786.574-4.555.518 1.267-.4 2.822-.62 4.554-.518zM282.864 763.634c-.713.419-1.562.541-2.64.506.682-.373 1.593-.588 2.64-.506zM320.935 763.585c-.454.398-1.01.515-1.758.505.424-.346 1.039-.565 1.758-.505zM505.13 763.528c-.204.274-.417.253-.95.264-.18-.419-.042-.869.097-1.319.282.253.564.507.854 1.055zM592.96 763.73c-.11.244-.285.252-.725.248.044-.17.351-.328.725-.249zM298.962 763.728c-.11.245-.286.253-.727.249.043-.17.351-.328.727-.249zM304.962 763.728c-.109.245-.285.253-.726.25.043-.17.35-.328.726-.25zM315.962 763.749c-.107.243-.284.25-.728.246.042-.168.35-.325.728-.246zM353.018 763.69c-.123.266-.32.268-.813.268.048-.18.393-.356.813-.269zM376.96 763.73c-.11.245-.285.253-.722.25.044-.171.35-.33.721-.25zM416.959 763.73c-.109.246-.284.254-.72.25.044-.17.35-.329.72-.25zM536.952 763.758c-.107.242-.28.25-.71.245.042-.167.343-.323.71-.245zM560.953 763.757c-.107.242-.28.25-.712.246.042-.168.344-.325.712-.246zM693.02 763.687c-.122.266-.32.268-.818.267.048-.178.394-.354.818-.267z"/></svg>