<svg xmlns="http://www.w3.org/2000/svg" xml:space="preserve" viewBox="0 0 1024 1024"><path d="M673 1025H1V1h1024v1024H673M165.984 715.012s-.099.12.098.606c.313.108.625.215 1.241.894.51.873 1.02 1.745 1.705 3.115.3.162.6.324 1.127.915.21.273.487.43.97.973.303.138.605.277 1.15.972.644.464 1.287.928 1.799 2.115 1.017.73 2.034 1.459 3.27 2.743.574.535 1.147 1.07 1.845 2.225.913.832 1.827 1.664 3.039 3.106.986.415 1.973.83 2.935 1.766.265.201.53.403.836.558 0 0-.04.048.143.711a814.102 814.102 0 0 1 8.87 5.21s.056.021.136.73c.986.363 1.973.726 3.589 1.342.813.173 1.627.346 2.472 1.24.644.18 1.288.36 2.039 1.18.607.185 1.215.37 1.838 1.108.319.1.637.2 1.444.324 0 0 .46.168.585.778.579.131 1.158.262 1.81 1.1.676.384 1.351.768 2.871 1.236 2.46.187 4.92.374 7.845.719 0 0 .424.249.676 1.006 1.578.103 3.157.206 4.929.97.893.08 1.787.16 3.52.33.81-.198 1.619-.398 3.208-.404 1.994.442 3.988.883 6.752 1.473.779-.056 1.558-.111 3.167-.108 2.02-.315 4.04-.63 6.852-.996.79-.035 1.58-.07 3.104-.006.984-.533 1.968-1.066 3.653-1.23.52.06 1.04.118 2.1.422.45-.38.9-.76 2.079-1.192.484-.042.967-.084 2.188-.004 1.716-.647 3.433-1.294 5.849-1.904.75-.35 1.499-.7 2.744-1.162.169-.004.338-.008 1.06.045.147-.312.293-.624.484-.954 0 0-.045-.02.677.024.758-.345 1.516-.69 2.894-1.169.464-.288.928-.577 2.11-.881 1.46-.615 2.923-1.23 4.952-2.144.809-.595 1.617-1.19 3.049-1.74.477-.304.954-.608 1.878-1.159.149-.294.297-.588 1.08-.846.484-.303.968-.605 1.941-1.217.456-.326.912-.652 1.906-.876.212-.278.424-.556.556-.936 0 0 .095.088.685-.14.66-1.021 1.32-2.043 2.71-3.131 3.21-2.908 6.421-5.815 9.569-8.745 0 0 .016.065.631-.213 1.1-1.64 2.2-3.28 3.833-4.907.191-.28.383-.56.523-.884 0 0 .051.045.678-.113.781-1.235 1.562-2.47 2.944-4.013.77-1.286 1.538-2.572 2.392-4.346 0 0 .02-.495.595-.743.08-.608.161-1.216.971-1.894.388-.998.776-1.996 1.436-3.609.286-.788.572-1.577 1.388-2.383.156-.284.312-.569.786-1.412.282-.752.564-1.504 1.443-2.596.428-.934.856-1.868 1.614-2.181 1.63 2.699 3.259 5.397 5.051 8.81.228.858.457 1.718.7 2.486 0 0-.092-.016-.01.665.73 1.082 1.462 2.165 2.12 3.944 1.602 2.15 3.204 4.301 4.86 6.39 0 0-.04.069.144.558.312.11.624.218 1.048.864-.005.183-.01.366-.124 1.081.273.214.545.428 1.07 1.101.293.179.586.358 1.08 1.092.65.364 1.301.727 2.233 1.642.255.542.51 1.084.616 2.133.256.215.512.43.778.707 0 0 .061.011.204.48.195.298.47.457.904.422 0 0-.057.08.093.56.28.166.561.332 1.05.941.2.272.456.47.902 1.08.273.176.546.353 1.238 1.065 1.558 1.125 3.116 2.25 4.754 3.808.14.295.371.455 1.021.943.327.142.654.285 1.507.5.177 0 .354-.003.511.015 0 0 .024-.009.065.52.28.195.56.39.916.54 0 0-.063.064.249.681 2.625 2.894 5.874 4.635 9.974 5.843.6.141 1.201.282 1.984 1.092 1.26.445 2.52.89 4.071 1.978.92.116 1.838.232 3.007 1.06 5.592 1.43 11.184 2.861 16.967 4.957.895.073 1.791.146 3.401.345 1.159.272 2.318.543 4.234.949 1.026-.02 2.052-.04 4.007.093 5.41-.405 10.819-.81 16.909-1.118.75-.312 1.5-.623 2.94-.947.458-.046.915-.093 2.05-.034.74-.319 1.482-.638 2.983-.944 1.08-.33 2.16-.66 3.918-1.153.759-.289 1.518-.578 3.055-.854 3.09-1.333 6.179-2.667 9.728-4.16 0 0 .483-.049 1.025.02.142-.303.284-.606.932-1.056.176-.006.351-.012 1.074.076.143-.308.286-.615 1.04-1.086.472-.272.945-.544 1.478-.874 0 0-.057-.062.444-.114.168.008.335.017 1.051.122.194-.294.388-.588 1.126-1.218.83-.568 1.66-1.137 3.057-2.012.016-.415.032-.83.778-1.075 3.759-2.632 7.931-4.834 11.202-7.975 11.42-10.968 20.544-23.438 23.882-39.397.191-.917 1.792-1.54 2.949-1.469.99.072 1.982.208 2.973.208 36.95.014 73.902.014 110.854.02 17.143.003 34.287.014 51.43.021 2.077.001 4.153.002 6.275.769 5.914 15.993 14.104 30.35 27.706 41.307 7.085 5.707 14.178 11.085 22.659 14.614 8.603 3.58 17.367 6.277 26.663 7.169 2.905.279 5.802 1.06 8.693 1.01 15.976-.28 31.072-3.978 45.225-11.612 12.79-6.9 24.018-15.612 31.99-27.83 4.982-7.634 8.998-15.898 13.796-24.503 17.325 0 35.652.151 53.973-.1 4.992-.068 10.145-.761 14.915-2.194 10.305-3.097 15.846-12.073 16.158-22.086.317-10.152.165-20.328-.12-30.484-.143-5.07-1.121-10.096-6.676-12.412-3.954-1.648-7.943-3.21-11.975-5.69-.526-2.978-1.052-5.956-1.596-9.637-.002-.47-.003-.938.703-1.894-.235-4.468-.47-8.935-.72-14.18.005-.777.009-1.554.658-2.665a190.713 190.713 0 0 1-.679-5.368c-.003-.328 0-.656.378-1.135-.118-.352-.236-.703-.361-1.832.006-.777.013-1.555.68-2.704-.23-1.946-.459-3.891-.699-6.328-.004-.328 0-.656.4-1.11-.129-.471-.258-.943-.395-1.902-.003-.325.002-.65.572-1.254.679-2.169 2.593-4.452-.599-6.881 0-.617-.001-1.234.383-1.972a12.881 12.881 0 0 1-.393-1.885c-.003-.33.002-.66.4-1.111-.128-.466-.256-.932-.403-2.28.024-4.965.05-9.93.596-15.128-.173-.56-.347-1.12-.531-2.454.009-.773.018-1.545.675-2.651-.23-1.628-.46-3.256-.712-5.667.004-1.566.007-3.132.493-4.904-.165-.77-.33-1.538-.51-3.003.005-.927.01-1.855.671-2.9.223-1.02.445-2.04-.152-3.647-.155-4.85-.31-9.7.23-14.985-.212-2.49-.426-4.98-.609-8.396.446-6.91-.521-13.082-4.128-19.578-7.571-13.633-13.6-28.117-20.4-42.185-6.899-14.275-14.059-28.425-20.924-42.716-5.515-11.482-10.635-23.154-16.212-34.605-1.429-2.932-3.924-5.345-6.04-8.498-.304-.1-.609-.2-1.024-.37 0 0-.129.031.061-.619-.232-.557-.464-1.115-.99-2.213-.913-.814-1.826-1.627-2.889-2.943-.29-.173-.582-.346-1.21-1.112-1.32-.713-2.64-1.427-4.048-2.833-1.29-.815-2.578-1.63-3.945-3.002-.251-.281-.503-.562-1.06-1.323-.559-.049-1.118-.097-1.924-.712-.594-.135-1.188-.27-2.018-1.096a712 712 0 0 0-11.664-2.847c-.705-.108-1.411-.217-2.574-1.036-5.078-.455-10.158-1.317-15.233-1.28-11.047.081-22.088.761-33.136.91-5.087.07-10.183-.532-16.182-1.01-9.972-.04-19.945-.146-29.917-.07-2.325.017-4.645.65-7.7.707-2.663.15-5.332.497-7.987.41-4.724-.155-9.438-.83-14.156-.827-11.27.005-22.54.226-33.806.496-1.817.043-3.617.783-5.88 1.367 0 0-.485.022-1.03-.065-.183.295-.367.59-.496.926 0 0-.049-.05-.54.14-.084.317-.168.634-.292 1.128 0 0 .059.17-.538-.107-.217-.028-.435-.057-1.257-.078-.27.296-.54.592-1.372 1.202-.256.951-.513 1.902-1.346 2.849-.289.242-.578.485-1.367.898-.122.314-.244.628-.347 1.36 0 0 .097.408-.627.836.127 9.833.255 19.666-.084 29.628 0 0-.397.276-1.029.815-.07 23.047-.183 46.095-.202 69.142-.026 32.291.003 64.583.072 96.874.003 1.689.594 3.376 1.239 5.38 0 0 .42.179.389 1.085-.202 11.657-.404 23.314-1.554 34.896-80.21-.04-160.42-.086-240.63-.063-1.495 0-2.99.829-5.248 1.326-.76-.039-1.522-.077-2.725-.866-10.873-.094-21.746-.189-33.047-.357 0 0-.432.03-1.37-.096-6.734.045-13.469.09-21.126.06-27.978.014-55.956.028-84.754-.078-1.1.04-2.2.08-4.228.05-11.983.024-23.965.05-36.877-.05-4.064.039-8.128.077-13.066.042-2.336.028-4.672.056-7.785-.2-.142-5.464-.283-10.929.47-16.427 1.665-.03 3.33-.087 4.996-.088 101.624-.02 203.25-.059 304.874-.037 22.318.005 44.635.225 66.787.494l.163.094s-.097-.247.855-.34c2.806.073 5.611.145 9.077.49 1.2-.59 2.398-1.178 4.126-2.169 1.37-1.94 2.742-3.88 4.693-6.2.085-.642.17-1.284.368-2.468.076-.17.151-.338 1.06-.678.073-1.322.211-2.644.212-3.966.014-27.452.026-54.903.011-82.355-.03-55.068-.075-110.136.74-165.437.885-.029 1.77-.058 2.567.222l.324.092s-.028-.42.92-.476c2.173.204 4.345.407 6.588 1.053.278-.145.556-.29 1.483-.821.248-.037.497-.073.675.213l.345.113s.043-.439 1-.509c3.144.18 6.29.362 9.496.991.273-.149.546-.298 1.332-.92.213-.093.426-.185.837.26.537-.182 1.073-.363 2.433-.463.274.026.548.053.654.287l.207.104s-.104-.314.912-.345c.677.01 1.354.018 1.867.255l.223.106s-.101-.337.913-.365c.677.01 1.353.02 1.864.263l.228.108s-.098-.345.837-.356c1.209.213 2.417.426 3.696 1.08.275-.146.55-.292 1.556-.868.275-.065.55-.13.668.06l.246.108s-.091-.367.87-.388c2.53.131 5.061.262 7.893 1.15 3.244-.303 6.487-.606 10.472-.783 1.029-.323 2.058-.645 3.753-1.08.802-.323 1.603-.647 2.947-.879.204-.288.407-.576.54-.864 0 0 .001.07.517-.112.185-.303.37-.606 1.005-1.066.281-.19.443-.454 1.123-1.143 3.424-5.516 4.05-11.098.19-17.265-.305-.139-.61-.278-1.127-1.087-1.943-1.042-3.887-2.085-6.495-3.39-1.135-.292-2.27-.584-3.473-1.26-.23.128-.459.256-1.458.416-.251-.052-.503-.105-1.04-.921-21.74-.076-43.48-.16-65.219-.185-.612 0-1.224.643-2.65 1.244-.568-.008-1.136-.016-1.689-.364-.165.114-.33.229-1.418.438-2.753 0-5.507 0-8.957-.233-3.635 3.01-7.27 6.02-11.121 9.123 0 0-.08.222-.732.13-.726.911-1.452 1.823-2.347 2.78 0 0-.045.168-.734.089-.927.997-1.853 1.994-3.492 3.117-.925 1.072-1.851 2.143-3.356 3.043-.366.572-.732 1.145-1.71 2.016-1.258 1.296-2.516 2.592-4.469 3.85-1.258 1.327-2.516 2.654-3.997 4.187 0 0-.187.24-.803-.145-1.742 1.937-3.483 3.874-5.412 5.89 0 0-.058.194-.719.15a71.53 71.53 0 0 1-2.332 1.883s.03.192-.653-.023c-2.952 3.013-5.904 6.027-9.114 9.175 0 0-.174.233-.816-.137-1.727 1.95-3.455 3.901-5.699 6.174-.25.316-.499.633-1.431.87-.972.98-1.944 1.96-3.162 2.898 0 0-.183.171-.634.066l-.336.32s.113.45-.435.852c-.934.62-1.867 1.239-3.693 1.547-.832-.029-1.664-.082-2.496-.082-101.935.017-203.87.024-305.805.068-28.309.012-56.617.131-85.367.25-.262.162-.447.387-1.223.686-.535.336-1.071.672-2.197 1.309-2.043 2.491-4.086 4.983-6.784 8.08-.065 28.869-.13 57.738-.334 87.395.054.793.109 1.587.1 3.158a63.53 63.53 0 0 0 .04 3.824c5.579 10.454 11.213 20.878 16.72 31.369a2625.357 2625.357 0 0 1 16.44 31.837c5.48 10.795 11.387 21.421 16.078 32.555 4.49 10.658 11.382 19.979 15.706 31.55.007 5.315.014 10.63-.116 16.316 0 0 .022.395-.539.741-.775.354-1.55.708-3.101 1.065-1.258.247-2.745.15-3.727.808-2.43 1.629-4.63 3.603-7.068 5.604 0 0-.174.136-.83-.258-.778.96-1.558 1.92-2.52 3.396-.304.413-.608.826-1.247 1.838a172.567 172.567 0 0 0-.193 4.448c.038 3.945.076 7.89-.157 12 .088.419.177.838.2 2.166.011 24.28.022 48.56-.33 73.29-.088.561-.176 1.123-.402 2.371.32.789.64 1.577.938 2.813 0 0 .12.43.05 1.137.664.393 1.328.785 2.222 1.856 1.12 1.269 2.001 3.127 3.404 3.694 3.942 1.592 8.1 2.651 12.434 4.363.306.12.612.241.92.802 0 0-.008.44-.605.801.866 1.615 1.732 3.23 2.578 5.472.346.419.692.838 1.21 1.723 0 0 .04.496-.033 1.038.31.118.62.236 1.153.359 0 0 .213-.064-.072.67.858 2.21 1.717 4.42 2.913 7.106.35.444.698.888.95 1.873.292.184.585.368.905.506 0 0-.036.043-.05.676.309.482.618.963 1.237 1.932.319.455.638.91.845 1.904.283.205.566.41.958.502z"/><path fill="#3A8697" d="M910.387 516.267c-.005.927-.01 1.855-.111 3.545-.023 1.324.05 1.885.123 2.446-.003 1.566-.006 3.132-.137 5.452-.022 2.252.085 3.749.191 5.246-.009.773-.018 1.545-.155 2.87-.04 1.08.049 1.607.137 2.135-.025 4.965-.05 9.93-.131 15.716-.014 1.074.03 1.327.073 1.58-.011.33-.016.66-.075 1.615-.018.877.026 1.129.07 1.38 0 .618.001 1.235-.13 2.615-.03 2.64.07 4.519.172 6.397-.011.325-.016.65-.076 1.604-.02.885.024 1.142.068 1.4-.01.327-.014.655-.145 1.61-.032 2.443.07 4.258.173 6.073-.006.777-.013 1.555-.121 2.912-.173.887-.107 1.162.096 1.404-.01.327-.014.655-.144 1.59-.034 2.104.066 3.6.167 5.096a27.557 27.557 0 0 1-.164 3.086c-.047 5.14.058 9.526.163 13.91.002.47.003.939-.14 2.12-.22 3.427-.374 6.144-.275 8.85.013.344 1.35.638 2.074.955 3.974 1.6 7.963 3.162 11.917 4.81 5.555 2.316 6.533 7.342 6.675 12.412.286 10.156.438 20.332.121 30.484-.312 10.013-5.853 18.99-16.158 22.086-4.77 1.433-9.923 2.126-14.915 2.194-18.321.251-36.648.1-53.973.1-4.798 8.605-8.814 16.869-13.795 24.503-7.973 12.218-19.2 20.93-31.991 27.83-14.153 7.634-29.249 11.333-45.225 11.612-2.89.05-5.788-.731-8.693-1.01-9.296-.892-18.06-3.588-26.663-7.169-8.48-3.529-15.574-8.907-22.659-14.614-13.602-10.957-21.792-25.314-27.745-41.907-.039-.6-.027-1.034-.114-1.315-1.194-.507-2.3-.929-3.406-.929-54.09-.013-108.179 0-162.268.07-1.751.002-3.501.632-5.42.978-.167.01-.497-.052-.497-.052-.945.76-2.546 1.382-2.737 2.3-3.338 15.958-12.462 28.428-23.882 39.396-3.27 3.141-7.443 5.343-11.746 7.822-.63.41-.716.972-.802 1.535-.83.568-1.66 1.137-2.958 1.992-.698.49-.943.673-1.205.834-.168-.008-.335-.017-.763-.127-.354-.117-.447-.13-.541-.144l.296.418c-.472.272-.945.544-1.895 1.025-.675.413-.886.605-1.11.783-.175.006-.35.012-.956.211-.634.395-.838.595-1.044.794 0 0-.483.048-.949-.108-3.657 1.33-6.849 2.818-10.04 4.304-.76.29-1.518.578-2.908.716-1.606-.195-2.644-.481-3.547-.247-16.862 4.366-33.406 3.061-49.763-2.54-1.101-.378-2.472.033-3.717.078-.92-.116-1.839-.232-2.648-.729-1.382-1.009-2.872-1.637-4.363-2.266-.6-.14-1.201-.282-1.75-.922-3.412-2.32-6.875-4.14-10.338-5.96 0 0 .063-.065-.083-.256-.33-.457-.552-.685-.811-.878 0 0-.024.01-.1-.337-1.066-.746-2.055-1.145-3.043-1.545-1.558-1.125-3.116-2.25-5.028-3.824-.562-.68-.782-.897-1.017-1.1-.313-.126-.569-.324-1.012-1.005-.456-.64-.694-.841-.957-1.012 0 0 .057-.08-.122-.23-.388-.372-.617-.569-.868-.741 0 0-.06-.011-.166-.235-.27-.466-.41-.721-.525-.99-.255-.542-.51-1.084-.917-2.175-.862-.916-1.571-1.282-2.28-1.648-.294-.18-.587-.358-1.116-.967-.424-.671-.588-.929-.725-1.202.005-.184.01-.367-.195-.998-.431-.688-.702-.84-1.023-.905 0 0 .041-.069.068-.415-1.587-2.478-3.2-4.609-4.814-6.74-.731-1.083-1.462-2.166-2.023-3.501.17-.253.62-.172.747-.075.228-.154.33-.406.336-.852-.485.073-.871.34-1.258.606-.228-.86-.457-1.719-.734-3.315-1.451-4.084-2.853-7.43-4.269-11.038-.417-.671-.82-1.08-1.223-1.49-.254.581-.507 1.162-.836 1.766-.075.022-.071.224-.071.224s.153-.241.486-.253c.778-.005 1.223 0 1.591.297-.388.794-.7 1.298-1.01 1.801-.428.934-.856 1.868-1.653 2.736-1.008 1.02-1.648 2.106-2.276 3.18.01-.01.028-.036-.101.066-.342.44-.268.701.062.88a.29.29 0 0 1-.075-.035c-.286.789-.572 1.578-1.27 2.735-.86 1.349-1.306 2.33-1.753 3.31-.08.608-.161 1.216-.711 1.906-.383.437-.297.793-.21 1.148-.77 1.287-1.539 2.573-2.816 3.812-1.36 1.375-2.211 2.796-3.063 4.218 0 0-.051-.045-.245.062-.459.283-.681.502-.861.765-1.1 1.64-2.2 3.28-3.617 4.942-.317.023-.632.05-.632.05l.38.163c-3.21 2.907-6.421 5.814-10.33 8.817-1.334 1.152-1.968 2.208-2.602 3.264 0 0-.095-.088-.259.072-.407.35-.663.521-.93.674-.456.326-.912.652-1.825.97-1.01.392-1.564.79-2.118 1.19-.149.293-.297.587-.86.814-1.007-.073-1.602-.079-2.196-.084l.109 1.266c-.809.595-1.617 1.19-2.967 1.742-2.07.706-3.6 1.454-5.128 2.201-.465.289-.929.578-1.907.712-1.376.323-2.239.801-3.102 1.28 0 0 .045.02-.146.172-.39.37-.61.567-.846.745-.17.003-.338.007-.959-.15-1.298.321-2.145.803-2.992 1.286-1.716.647-3.433 1.294-5.374 1.701-.132-.37-.016-.489.045-.632.059-.138.061-.3.088-.45-2.325.575-4.65 1.15-6.975 1.727-.985.533-1.969 1.066-3.168 1.354-.091-.543.063-.834.134-1.144.019-.082-.226-.329-.339-.322-5.24.327-10.478.673-16.605 1.075l3.132 1.598c-1.994-.442-3.988-.883-6.619-1.665-4.182-.664-7.727-.989-11.272-1.313 0 0-.424-.25-.844-.61-2.927-1.12-5.434-1.88-8.165-2.844-1.505-.29-2.786-.375-4.066-.46 0 0-.46-.168-.868-.32-.6-.37-.814-.56-1.052-.725-.607-.185-1.215-.37-1.915-1.107-.721-.818-1.35-1.083-1.978-1.35-.813-.172-1.627-.345-2.846-.968-1.358-.834-2.31-1.217-3.263-1.6 0 0-.056-.022-.064-.374-3.02-2.075-6.033-3.798-9.046-5.521 0 0 .041-.048-.044-.25-.24-.483-.454-.708-.726-.876-.987-.416-1.974-.83-3.083-1.903-1.096-1.461-2.068-2.265-3.04-3.068-.574-.536-1.147-1.071-1.88-2.2-1.1-1.354-2.04-2.113-2.98-2.872-.643-.464-1.286-.928-2.18-1.872-.458-.737-.722-.909-1.041-.996-.342-.04-.619-.196-1.096-.874-.492-.646-.748-.847-1.035-1.007a110.24 110.24 0 0 0-1.847-3.07c-.55-.671-.818-.83-1.121-.927 0 0 .099-.12-.078-.258-.372-.372-.537-.628-.67-.904-.318-.455-.637-.91-.974-1.826-.413-1.01-.81-1.557-1.205-2.104 0 0 .036-.043-.093-.213a10.272 10.272 0 0 1-.679-.877c-.349-.444-.698-.888-1.018-1.846-.867-2.785-1.762-5.056-2.657-7.326 0 0-.213.064-.45-.104-.432-.362-.635-.55-.843-.733 0 0-.04-.496.066-.927-.112-1.272-.33-2.112-.547-2.952l-.75 1.034c-.865-1.616-1.731-3.23-2.081-4.946.516-.1.971-.007 1.047.057.076.064.406-.03.406-.03s-.145-.362-.18-.562c-.42-.335-.803-.47-1.186-.606-.306-.12-.612-.241-1.122-.957-1.084-1.349-1.965-2.751-2.844-2.75-5.443.008-9.256-2.787-12.67-7.006a669.046 669.046 0 0 0-2.564-6.333c-.012-24.28-.023-48.56.05-73.65.05-1.047.019-1.284-.013-1.522-.038-3.944-.076-7.89.153-12.45.266-1.888.264-3.16.262-4.432.303-.412.607-.825 1.314-1.484 1.194-1.082 1.983-1.919 2.773-2.756 0 0 .174-.136.56-.323 4.96-1.91 9.536-3.634 14.424-5.579 2.64-9.229 3.117-18.128-1.29-26.724-19.756-38.545-39.581-77.055-59.174-115.684-1.724-3.4-2.697-7.554-2.737-11.372-.256-24.162.022-48.33-.258-72.491-.1-8.742-.058-17.042 8.174-22.82-.045-.425-.06-.595-.076-.765.109-.288.294-.513.762-.527.205.148.192.494.503.795 2.283.48 4.255.816 6.227.818 62.128.055 124.255.052 186.383.114 49.622.05 99.245.18 148.867.26 15.296.025 30.593.075 45.888-.064 2.177-.02 4.346-1.05 6.532-1.71.014-.098-.046-.286-.046-.286l3.218-2.137c.594-.412.724-.582.805-.788 0 0 .183-.171.586-.21 1.416-.952 2.429-1.866 3.442-2.78.25-.316.499-.633 1.313-1.2 2.302-2.018 4.039-3.785 5.776-5.553 0 0 .174-.233.611-.374 3.412-3.034 6.386-5.926 9.36-8.82 0 0-.03-.191.347-.26 1.122-.635 1.87-1.202 2.616-1.77 0 0 .058-.194.457-.33 2.142-1.88 3.885-3.624 5.629-5.37 0 0 .187-.239.587-.413 1.698-1.441 2.995-2.708 4.291-3.975 1.259-1.296 2.517-2.592 4.307-4.113.94-.689 1.349-1.154 1.757-1.62.926-1.07 1.852-2.142 3.415-3.336 1.606-1.054 2.575-1.985 3.543-2.916 0 0 .045-.168.407-.273 1.12-.931 1.879-1.757 2.638-2.583 0 0 .079-.222.497-.366 4.079-3.01 7.74-5.878 11.4-8.745 2.753 0 5.507 0 8.842.02.582.02.822-.119.822-.119.567.008 1.135.016 2.251-.137.55-.161.84-.183 1.159.115 1.292.484 2.265.83 3.238.832 19.66.051 39.321.087 58.981.03 1.395-.004 2.787-.748 4.208-1.159.027-.01.02.048.02.048.252.052.504.105 1.33.195.573.038.952-.07.952-.07 1.135.292 2.27.584 3.878 1.291 2.3 1.92 4.127 3.422 6.029 5.317.258 4.155.496 7.916.6 11.681.044 1.556-.197 3.12-.31 4.681-.041.337-.203.6-.914 1.024-.65.493-.87.754-1.09 1.016 0 0-.002-.07-.17.042-.41.304-.66.486-.914.66-.802.323-1.603.647-2.98.848-1.705-.023-2.833.076-4.407.172-3.48.35-6.512.703-9.544 1.056-2.53-.131-5.062-.262-8.072-.37-.48.022-.48.003-.48.003-.274.065-.55.13-1.413.394-.59.199-1.037.227-1.037.227-1.209-.213-2.417-.426-4.084-.61-.46.028-.442-.014-.442-.014-.676-.01-1.352-.02-2.525.009-.496.039-.475-.008-.475-.008a50.765 50.765 0 0 0-2.524.018c-.491.044-.459-.012-.459-.012-.274-.026-.548-.053-1.384-.262-1.064-.086-1.566.011-2.068.109-.214.092-.427.184-1.117.493a3.127 3.127 0 0 1-.916.255c-3.145-.18-6.29-.361-9.994-.57-.557-.027-.715.102-.715.102-.249.036-.498.072-1.297.287-.55.179-1.002.201-1.002.201a493.92 493.92 0 0 0-7.047-.624c-.53-.013-.626.089-.626.089-.885.028-1.77.057-3.21.196-.554.11-.808.11-1.093.234-.504 4.406-.723 8.686-.973 13.432-.043 78.017-.062 155.568-.026 233.12 0 1.573.633 3.147.937 4.798-.034.077-.087.236-.087.236-.076.168-.151.337-.53.862-.418 1.068-.531 1.78-.645 2.492-1.371 1.94-2.742 3.88-4.628 5.844-1.766.64-3.019 1.257-4.271 1.873-2.806-.073-5.611-.145-8.87-.142-.451.076-.399.023-.399.023-22.318-.122-44.635-.342-66.953-.347-101.625-.022-203.25.016-304.874.037-1.666 0-3.33.057-5.756-.01-1.505 1.64-2.893 3.378-2.894 5.116-.003 14.868-2.071 13.525 13.071 13.534 61.984.039 123.967.031 185.95-.006 2.287-.001 4.572-.482 6.858-.74.761.04 1.523.077 3.026.277 14.233.267 27.722.461 41.212.464 65.663.013 131.327-.004 196.99-.118 2.628-.005 5.254-1.105 7.88-1.695.203-11.657.405-23.314.738-35.898.19-2.588.3-4.249.3-5.91.003-44.732.02-89.465-.033-134.198-.013-10.797-.261-21.593-.4-32.39-.128-9.833-.256-19.666-.102-29.67.28-.17.33.005.38.228.245.577.439.931.632 1.285l1.011-1.655c-.044-.426-.182-.7-.483-1.228-.225-.444-.286-.635-.347-.826.29-.242.578-.485 1.472-.751 1.726-1.24 2.846-2.456 3.967-3.672 0 0-.059-.17.14-.41.427-.472.556-.752.584-1.078 0 0 .049.05.213-.09.387-.347.624-.533.877-.7 0 0 .484-.021 1.061.131 1.728.279 2.878.513 4.029.514 51.655.036 103.311.059 154.967.04 1.627-.001 3.255-.456 4.883-.7a15.31 15.31 0 0 1 2.694.629c4.16 1.279 7.74 2.257 11.322 3.235.594.136 1.188.27 1.92.999.675 1.178 1.211 1.763 1.98 2.587 1.787 1.008 3.344 1.78 4.9 2.55 1.32.713 2.639 1.427 4.266 2.637.521.745.77.952 1.053 1.117.913.814 1.826 1.627 2.712 2.908.258 1.11.543 1.753.827 2.396 0 0 .129-.03.31.19.387.457.645.6.954.65 2.005 2.652 4.5 5.065 5.929 7.997 5.577 11.45 10.697 23.123 16.212 34.605 6.865 14.291 14.025 28.44 20.924 42.716 6.8 14.068 12.829 28.552 20.4 42.185 3.607 6.496 4.574 12.669 3.951 20.37-.088 3.207.001 5.623.09 8.038.156 4.85.31 9.7.466 14.96-.169 1.392-.336 2.374-.504 3.356M363.034 622.024s.094.111-.303.38c-.253.198-.47.431-.88 1.146-.28.174-.56.347-1.23.163-.998.982-1.997 1.964-3.2 3.21-.189.315-.16.588.254 1.536-.555 1.226-1.11 2.452-2.084 3.345-.571 1.01-1.142 2.018-1.908 3.524-.011.177-.023.354-.69.726-1.11 2.88-2.22 5.76-3.484 8.885.23.093.459.186.992.218 0 0 .3-.076.414.513-.273.466-.545.931-1.507 1.656-.614 1.493-1.564 2.936-1.79 4.485-1.907 13.09-.965 25.888 4.521 38.809.878 1.172 1.756 2.345 2.716 3.508 0 0 .035.074.095.434.086.244.247.419.747 1.163a107.212 107.212 0 0 1 2.387 3.798c.145.234.336.422.749 1.154.343.507.687 1.013 1.067 2.143.628.767 1.257 1.534 2.468 2.638 3.186 2.938 6.372 5.877 9.857 9.134.215.209.468.348 1.191.667.268.218.443.496.768 1.418.903.467 1.805.934 3.207 1.595.178.021.355.042.81.375.21.192.453.325.794.4 0 0-.055.036.156.695 4.586 1.88 9.171 3.759 14.38 5.77.423.045.846.09 1.726.651 3.39.483 6.778.966 10.837 1.376 1.352.019 2.705.037 4.78.354 13.076 1.029 24.29-4.079 34.982-10.755.984-.615 1.44-2.074 2.144-3.138l.715.002c2.794-2.614 5.588-5.228 8.71-8.232.26-.218.52-.436 1.35-.874.488-.837.977-1.675 1.773-3.103.344-.565.688-1.13 1.336-1.83.19-.145.287-.337.48-.68 0 0 .208-.044.686-.44.094-.759.188-1.517.321-2.408 0 0 .133-.043.846.076 2.134-5.31 4.268-10.62 6.406-16.445.04-.341.081-.682.57-1.604.17-.938.339-1.876.47-3.348.034-.355.066-.71.562-1.77.244-5.076.604-10.152.633-15.23.006-1.014-1.253-2.036-2.482-3.316-.094-.584-.189-1.168.266-1.719.383-.555 1.223-1.299 1.083-1.639-3.016-7.312-6.14-14.579-9.493-22.45-1-.7-2.001-1.4-3.17-2.694-.71-.731-1.42-1.463-2.434-2.568-.227-.232-.486-.42-.668-.71 0 0-.123.138-.096-.615-.892-3.712-2.848-6.23-7.533-6.52-.474-.592-.948-1.184-1.642-2.205-.19-.265-.415-.493-1.195-.95-.46-.324-.92-.648-1.417-1.674-2.83-1.383-5.66-2.765-8.589-4.13 0 0-.097-.025-.207-.755-7.703-6.362-16.714-7.774-27.056-6.894a33.843 33.843 0 0 1-3.861-.273c-5.812 1.627-11.624 3.254-17.574 5.502-.612.106-1.225.212-2.133-.07-.533.527-1.066 1.053-1.843 2.17-.614.129-1.229.257-2.195.645-.206.207-.43.394-1.34.8-1.813.949-3.625 1.897-6.043 3.003-.366.684-.732 1.367-1.203 1.96 0 0 .093.102-.279.407-.237.218-.436.467-.8 1.188-.196.273-.455.46-1.167.85-.25.214-.45.467-1.001 1.324-1.668 1.39-3.336 2.779-5.206 4.567-.18.24-.326.498-.546.676M227.585 520.326s.026-.256.266-.809c-.072-.587-.144-1.173-.2-2.46 0-.935 0-1.869.254-3.705-.09-1.544-.18-3.088-.261-5.252-.26-.73-.518-1.46-.692-2.598 0 0-.079-.408.46-1.039.087-3.747.174-7.495.488-12.087-.072-.864-.144-1.728-.21-3.106-.004-.343-.01-.686.22-1.91a127.828 127.828 0 0 1-.223-4.314c-.014-.935-.028-1.87.215-3.738a2043 2043 0 0 1-.209-12.306c-.012-1.256-.024-2.513.196-4.622a63.977 63.977 0 0 1-.217-3.245c-.007-.63-.014-1.26.164-2.722a27.64 27.64 0 0 1-.208-2.167c.003-.326 0-.65.257-1.91-.091-3.542-.183-7.083-.265-11.366-.006-1.236-.013-2.471.115-4.468-.04-.255-.081-.51-.105-1.389.002-.624.004-1.249.266-2.804-.087-4.75-.175-9.5-.249-15.03-.006-.78-.012-1.56.176-2.72.064-.3-.001-.568-.184-1.302.005-.331.003-.663.195-1.828a28.692 28.692 0 0 1-.18-2.442c-.011-1.248-.022-2.495.231-4.683-.085-11.855-.17-23.71-.242-36.468-.013-5.548-.026-11.095.073-17.42-1.76-.798-3.517-2.287-5.28-2.294-33.4-.131-66.802-.102-100.202-.039-1.77.003-3.538.607-5.232.919 0 0 .014-.075-.35.525-.14 1.15-.28 2.302-.546 4.385-.02 20.327-.04 40.654-.033 61.612.486.878.972 1.756 1.664 2.661 0 0 .102.18.102.711a72.1 72.1 0 0 1 1.632 2.918c.122.241.244.482.408 1.4 1.508 2.656 3.016 5.312 4.805 8.003 0 0 .225.174.31.425.09.161.224.27.666 1.013.861 1.979 1.722 3.958 2.613 6.539.419.657.838 1.314 1.46 1.988 0 0 .12.166.182.875 5.155 10.372 10.197 20.804 15.51 31.095 3.177 6.155 6.779 12.091 10.369 18.666.317.465.634.93 1.013 1.976.505.786 1.01 1.571 2.273 2.47.737 2.08 1.475 4.159 2.235 6.99 2.104 4.3 4.051 8.686 6.359 12.873 1.882 3.414 4.195 6.591 7.255 9.926 15.559.054 31.118.159 46.676.093 1.771-.007 3.54-.966 5.322-1.695 0 0 .088-.192.434-1.088.047-.958.095-1.916.077-2.839 0 0 .06.044.147-.198m607.477 98.876c.218.231.435.664.655.665 14.934.104 29.869.224 44.802.112.862-.007 1.71-1.934 2.776-3.883.048-4.165.095-8.33.229-12.591 0 0-.08-.1-.038-1.052-.134-2.515-.269-5.03-.529-8.02a28.002 28.002 0 0 0-2.62-.778c-.455-.01-.91-.02-1.899-.385-3.962-.64-3.962-.64-4.092 1.764-1.352-.506-2.703-1.011-4.387-1.988l-3.502-.494c.13.427.262.854-.383 1.389-12.825-3.559-24.027-9.395-28.463-23.019-2.051-6.302-4.112-13.126-3.694-19.552.383-5.888 3.945-11.623 6.383-17.307 2.703-6.303 7.416-10.794 13.487-13.956 8.759-4.56 18.197-5.383 27.94-5.623-.945-.24-1.89-.478-3.166-.8 4.037-1.698 4.673-10.306 1.142-17.608-8.533-.898-17.067-1.796-26.218-2.654-.411.012-.823.025-1.767-.467-10.137-1.357-20.26-2.837-30.418-4.009-4.047-.467-8.172-.252-12.873-.32-.408.001-.816.002-1.63-.521a241.927 241.927 0 0 0-6.307-.683c-.412.006-.823.012-1.734-.526-5.206-.547-10.412-1.094-16.256-1.586-.422.066-.844.132-1.736-.353-9.901-2.8-19.802-5.601-30.435-8.286-3.674-1.941-7.814-3.321-10.944-5.918-15.968-13.246-23.251-30.648-23.397-51.202-.065-9.152-.235-18.313.084-27.455.161-4.647.835-9.394 2.119-13.854 1.486-5.16 5.409-8.259 10.776-9.246 0 0 .008.033.648.576 1.48.12 2.96.34 4.44.342 30.614.026 61.228.027 92.146-.511.048-.618.096-1.235.626-2.172-1.877-3.457-3.754-6.913-5.673-10.335 0 0-.012-.054-.064-.752-3.36-6.57-9.329-8.01-15.958-8.016-42.95-.037-85.898-.05-128.847-.068-3.163-.001-6.365-.278-9.47.148-1.324.182-2.445 1.844-3.737 3.762-.034 74.51-.075 149.02-.057 223.53 0 1.555.67 3.11 1.01 4.924 0 0-.065.252-.395 1.051-.869 2.666-1.199 5.702-2.723 7.917-2.859 4.153-7.654 4.394-12.431 4.648 0 0-.191-.002-.885-.566-1.808-.197-3.617-.563-5.425-.565a92439.65 92439.65 0 0 0-155.903.008c-1.736.002-3.472.686-5.755 1.23-.177.075-.354.149-1.044-.304-.24-.052-.48-.104-.967-.305 0 0-.252.142-1.157.03-2.114.096-4.228.193-6.806-.099-1.143.364-2.286.728-2.857 1.625 2.8 2.844 5.673 5.62 8.385 8.545 6.092 6.573 11.297 13.944 14.706 22.111 4.536 10.867 7.643 22.267 7.102 34.345-.05 1.113 1.87 3.288 2.93 3.324 8.27.278 16.553.154 25.268.154 0-9.635.02-18.613-.006-27.59-.028-9.199 6.41-16.205 15.67-16.69 3.8-.198 7.628.244 11.442.212 29.428-.252 58.857-.522 88.285-.845 10.818-.118 21.639-.296 32.448-.712 1.497-.058 3.311-1.347 4.33-2.596 3.039-3.729 5.367-8.092 8.672-11.539 9.22-9.617 19.096-18.108 31.478-24.07 12.384-5.962 25.418-7.533 38.387-8.24 11.085-.605 22.405 2.064 32.823 6.788 10.684 4.844 20.876 10.737 29.077 19.114 6.1 6.23 10.92 13.712 16.372 20.894l.01.903m-401.661-270.72c-.811-.142-1.622-.408-2.433-.41-22.888-.027-45.776-.046-68.664.025-1.117.003-2.231.837-3.356 1.515 0 0 .006.233-.224 1.166-.062 14.41-.124 28.82-.521 43.555.116.558.231 1.115.323 2.602l.782 12.565s-.032.47-.568 1.232l.589 6.768s-.035.472-.572 1.275c-.095 1.32-.274 2.64-.273 3.96.014 33.346.048 66.691-.182 100.367.146.36.291.72.942 1.838 1.629.187 3.257.528 4.887.537 12.637.07 25.274.078 38.297.4.516-.202 1.031-.403 2.466-.398 4.715-.241 9.43-.482 14.606-.721 0 0 .46.009 1.25.55 3.768.091 7.536.182 11.828.498.675-.695 1.35-1.39 2.056-2.93.007-2.545.013-5.089.263-8.578.038-53.7.083-107.398.07-161.097 0-1.412-.644-2.824-.958-4.2 0 0 .043.017-.608-.519m118.774 177c4.642-.637 2.711-4.345 2.715-6.627.11-69.756.086-139.513.028-209.269-.001-1.523-.644-3.046-1.495-4.561-.169 0-.338 0-1.144.195-9.211 8.522-18.44 17.025-27.626 25.575-5.302 4.934-10.452 10.034-15.844 14.864-1.637 1.466-3.856 2.28-6.415 2.888-12.048.052-24.101.338-36.14.04-4.709-.118-6.116 1.325-4.897 6.493-.002 1.884-.004 3.768-.238 6.527.087.89.174 1.781.26 3.154-.003.322-.01.643-.155 1.737.04.258.08.516.129 1.262.003.325.003.65-.24 1.844.085.888.169 1.776.254 3.358-.004.925-.007 1.85-.253 3.645.086.889.171 1.777.26 3.474-.007 1.885-.014 3.77-.232 6.485.065.563.13 1.126.194 2.47.012 1.562.025 3.125-.168 5.527.064.57.128 1.139.191 2.452-.003 1.24-.007 2.48-.253 4.59.084.888.168 1.776.251 3.407a66.157 66.157 0 0 1-.127 4.49c.043.26.086.518.133 1.585-.006 1.885-.011 3.77-.255 6.518.076.882.153 1.765.233 3.427.012 1.559.025 3.118-.088 5.471.042.265.085.53.127 1.57-.01 1.554-.021 3.108-.238 5.497.068.565.136 1.13.204 2.504 0 1.884 0 3.77-.121 6.43.043.257.087.515.136 1.581-.008 1.886-.015 3.772-.227 6.484.064.56.127 1.12.193 2.464.011 1.566.022 3.132-.17 5.537.07.567.138 1.134.208 2.587-.003 3.855-.006 7.71-.14 12.345.042.26.083.52.124 1.61-.012 2.213-.024 4.426-.237 7.464.069.558.138 1.116.211 2.457.007 1.565.013 3.13-.107 5.468.042.257.083.514.127 1.674 0 6.85 0 13.702-.126 21.325.042.258.083.516.128 1.578.143 2.373.285 4.746.294 7.42 0 0 .127.303.046 1.037.059.489.118.978-.052 1.533l.071.41s.283-.279 1.036-.068c.776.078 1.552.157 2.644.533a20.655 20.655 0 0 1 2.143-.34c.384-.007.768-.014 1.73.447 4.69-.146 9.38-.292 14.655-.442.584.01 1.168.02 2.216.456 3.736-.142 7.472-.283 12.101-.442 8.814-.003 17.627-.007 27.025.449 4.682-.191 9.364-.382 14.645-.576.599.006 1.197.012 2.109.452a79.05 79.05 0 0 1 4.165-.426c1.706-.156 3.411-.312 5.304-.53 0 0 .197-.019.698.492m-374.037 68.693c-4.292-.195-8.6-.22-12.87-.632-4.223-.407-5.036 1.789-5.052 5.345-.023 5.123-.419 10.244-.55 15.37-.039 1.527.278 3.064.415 4.431 6.719-7.85 13.203-15.427 20.129-23.402l-.06-1.378c-.467.275-.935.549-2.012.266M881.28 541.56c-2.768-.246-5.574-.906-8.296-.654-6.009.556-11.225 5.309-12.076 10.444-1.16 6.997 1.003 13.536 6.892 15.63 4.562 1.623 9.961.892 15.84 1.26 0-8.122 0-15.564.249-23.617-.564-.923 1.848-3.994-2.61-3.063m-549.375-182.3c.021-2.148.437-4.392-.057-6.414-.423-1.73-1.888-3.204-3.823-4.817-23.976.038-47.952.075-72.617.428-.446 1.534-1.152 3.047-1.279 4.608-.216 2.65-.07 5.328-.07 7.995-.005 52.831 0 105.663-.03 158.494-.003 3.915-.024 7.357 5.508 7.327 22.164-.12 44.33-.05 66.496-.04 4.036.001 6.419-1.55 5.873-6.92-.023-50.903-.047-101.807.003-153.587-.025-1.171-.05-2.343-.048-4.17-.012-.655-.025-1.31.044-2.904m515.172 286.515c-.044 3.407-.098 6.814-.13 10.222-.05 5.674 1.535 7.32 7.143 7.327 10.655.012 21.31-.01 31.966-.015 5.451-.002 10.902 0 16.906 0 0-6.43 0-12.372.523-17.669v15.256l1.634.018c0-3.561.023-7.123-.005-10.684-.05-6.342-.51-6.95-6.735-6.985-16.126-.087-32.252-.046-48.378-.024-1.14.001-2.28.26-3.42.4.167.46.334.918.496 2.154m-86.59-46.188c-22.503-.055-41.261 8.054-54.77 26.33-11.086 14.999-14.575 31.785-10.925 50.369 3.582 18.233 13.478 31.947 28.747 41.434 14.947 9.288 31.896 11.952 48.802 7.073 22.717-6.555 38.615-20.905 45.622-44.37 3.758-12.584 2.606-24.565-1.552-36.6-4.629-13.4-13.018-24.003-24.697-31.845-4.898-3.288-10.256-6.053-15.719-8.287-4.664-1.907-9.777-2.713-15.507-4.104m-527.424.768c-3.77.754-7.578 1.355-11.301 2.293-8.038 2.028-14.349 6.949-20.964 11.759-8.167 5.938-13.641 13.845-17.554 22.431-5.576 12.237-7.27 25.356-4.406 38.982 2.276 10.83 6.049 20.974 13.5 28.946 12.783 13.679 28.217 21.997 47.831 21.343 13.181-.44 25.09-3.402 36.042-11.061 15.741-11.009 23.183-26.825 26.149-44.842 1.913-11.624-2.486-22.694-6.895-33.38-4.922-11.927-14.146-20.385-24.525-27.103-11.059-7.157-23.676-10.55-37.877-9.368m602.52-204.957c-28.817-.041-57.633-.04-86.448-.179-3.37-.016-4.474 1.465-4.37 4.458.367 10.53.186 21.12 1.324 31.566.776 7.129 5.261 12.727 11.295 16.933 12.765 8.897 27.452 10.749 42.37 11.913 3.55.277 7.09.74 10.625 1.186 8.011 1.01 15.997 2.26 24.03 3.042 8.25.804 16.542 1.16 24.813 1.746.46.032.881.501 1.35.571 4.354.652 8.714 1.26 14.22 2.045-12.108-24.703-23.453-47.916-34.938-71.058-.525-1.058-2.316-1.486-4.272-2.223M607.5 644.66c-13.983-.005-27.967-.013-41.95-.014-13.828 0-13.725 0-13.354 13.904.097 3.624 1.26 4.929 4.962 4.89 13.984-.146 27.97-.009 41.955-.003 18.81.008 37.623-.116 56.433.021 14.533.106 12.089-1.418 11.61-13.833-.137-3.526-1.848-5.074-5.72-5.033-17.644.184-35.29.069-53.936.068m-282.307-12.488c5.128-13.067 13.292-24.177 22.492-34.66l-2.42-.922 2.428-1.69c-.762-.549-1.157-1.081-1.555-1.084-14.305-.095-28.612-.276-42.914-.08-2.914.04-3.273 2.31-1.366 4.51 1.626 1.875 3.64 3.485 4.948 5.55 6.031 9.525 11.876 19.168 18.387 28.376M882.563 496.5s-.11.058 0 0z"/><path fill="#1B4D5B" d="M635.619 569.082c-2.153.628-4.779 1.728-7.406 1.733-65.664.114-131.328.131-196.991.118-13.49-.003-26.98-.197-40.831-.491 1.133-.631 2.629-1.46 4.125-1.46 80.21-.023 160.42.024 241.103.1z"/><path fill="#215867" d="M99.06 321.931c-8.261 5.524-8.304 13.824-8.203 22.566.28 24.161.002 48.33.258 72.491.04 3.818 1.013 7.973 2.737 11.372 19.593 38.629 39.418 77.14 59.175 115.684 4.406 8.596 3.929 17.495 1.293 26.734-.308.232-.295.25-.26-.137-.01-.9-.054-1.415-.097-1.93 0 0-.022-.395.235-.94.145-5.928.032-11.312-.08-16.695-4.385-10.647-11.277-19.968-15.767-30.626-4.69-11.134-10.598-21.76-16.078-32.555a2625.357 2625.357 0 0 0-16.44-31.837c-5.507-10.491-11.141-20.915-16.581-31.96.053-1.73-.031-2.87-.116-4.01-.054-.794-.109-1.588.093-3.134.41-2.894.694-5.033.697-7.173.036-26.692.03-53.383.036-80.075 2.043-2.491 4.086-4.983 6.82-7.597 1.22-.142 1.75-.16 2.278-.178z"/><path fill="#326D7B" d="M493.625 320.156c.446.156.506.344.021.537a109.65 109.65 0 0 1-8.477.319c-65.293.001-130.586.009-195.879-.015-63.127-.022-126.254-.077-189.38-.118 0 0 .012-.346.027-.518 28.324-.243 56.632-.362 84.941-.374 101.935-.044 203.87-.05 305.805-.068.832 0 1.664.053 2.942.237z"/><path fill="#215867" d="M809.752 321.788c-1.4.598-3.027 1.053-4.654 1.053-51.656.02-103.312-.003-154.967-.039-1.151 0-2.301-.235-3.8-.596 1.458-.654 3.258-1.394 5.075-1.437 11.266-.27 22.537-.49 33.806-.496 4.718-.002 9.432.672 14.156.827 2.655.087 5.324-.26 8.816-.282 6.583.085 12.337.097 18.089-.017 6.537-.13 13.07-.374 19.606-.568 5.092.298 10.188.9 15.275.83 11.048-.149 22.09-.829 33.136-.91 5.075-.037 10.155.825 15.462 1.635z"/><path fill="#1B4D5B" d="M386.763 569.818c-2.065.632-4.35 1.113-6.637 1.114-61.983.037-123.966.045-185.95.006-15.142-.01-13.074 1.334-13.07-13.534 0-1.738 1.388-3.477 2.446-5.1.454 5.58.595 11.045 1.454 16.825 3.125.196 5.533.077 7.942-.043 4.064-.038 8.128-.076 13.023.121 8.945.427 17.057.742 25.17.752 3.934.005 7.869-.56 11.803-.868 1.1-.04 2.201-.08 4.078.116 2.084.424 3.392.775 4.7.776 25.114.03 50.228.035 75.342-.021 1.62-.004 3.239-.546 4.858-.838 6.734-.045 13.469-.09 20.778-.042.574.093.898.125.898.125l.324-.049c10.874.095 21.747.19 32.841.66z"/><path fill="#388293" d="M581.341 541.57c-.416.086-.363-.073-.346-.652.025-23.727.051-46.875.038-70.024-.034-55.955-.086-111.91-.078-168.328.17-4.515.287-8.568.404-12.62 0 0 .254 0 .38.007.167 55.074.213 110.142.242 165.21.015 27.452.003 54.903-.011 82.355 0 1.322-.139 2.644-.629 4.052z"/><path fill="#4F9BA8" d="M497.387 688.372c-.106-.415.224-.354.866-.387 18.763-.022 36.884-.023 55.005.002 38.567.054 77.134.122 115.7.184 0 0-.01.435.005.651-2.06.216-4.136.215-6.212.214-17.144-.007-34.288-.018-51.431-.02-36.952-.007-73.903-.007-110.854-.02-.991-.001-1.982-.137-3.079-.624zM635.982 532.748c-.317-1.688-.908-3.375-.911-5.064-.069-32.291-.098-64.583-.072-96.874.019-23.047.131-46.095.525-68.95.34 20.823.357 41.455.374 62.086l.084 108.802z"/><path fill="#1B4D5B" d="M636.146 532.906c-.192-36.425-.22-72.692-.248-108.96-.017-20.631-.035-41.263-.059-62.355-.006-.462.39-.738.624-.803.373 10.733.621 21.53.634 32.326.052 44.733.036 89.466.034 134.198 0 1.661-.111 3.322-.286 5.457-.115.474-.535.296-.699.137z"/><path fill="#215867" d="M377.138 747.354c1.12-.4 2.492-.81 3.593-.434 16.357 5.602 32.9 6.907 49.763 2.54.903-.233 1.94.053 3.208.33-.789.562-1.868.892-3.635 1.242-1.45.287-2.211.553-2.973.819-.458.046-.915.093-2.027.173a21.874 21.874 0 0 0-2.967.815c-5.41.405-10.819.81-16.937.97-1.824-.158-2.94-.07-4.056.019a64.081 64.081 0 0 1-4.076-1.066 32.37 32.37 0 0 0-2.992-.759c-5.592-1.43-11.184-2.862-16.9-4.649z"/><path fill="#388293" d="M89.635 330.009c.322 26.389.327 53.08.29 79.772-.002 2.14-.286 4.28-.626 6.78-.122-28.51-.057-57.38.336-86.552z"/><path fill="#255E6E" d="M331.46 569.087c-1.157.329-2.776.871-4.396.875-25.114.056-50.228.051-75.342.021-1.308-.001-2.616-.352-4.29-.716 27.61-.19 55.589-.204 84.028-.18z"/><path fill="#4492A3" d="M640.451 261.628c.144.382.15.324-.387.331-22.437.006-44.337.004-66.236.002 0 0-.29.022-.433.054.47-.311 1.083-.954 1.695-.954 21.74.024 43.479.109 65.361.567z"/><path fill="#326D7B" d="M653.393 284.93c-.207-1.385.034-2.95-.01-4.506-.104-3.765-.342-7.526-.451-11.848.074-.56.373-.893.579-.833.206.06.602.227.602.227 3.65 5.685 3.023 11.267-.72 16.96z"/><path fill="#215867" d="M137.47 679.637c3.301 3.88 7.114 6.674 12.557 6.666.88-.001 1.76 1.401 2.713 2.529-4-.896-8.157-1.955-12.1-3.547-1.402-.567-2.283-2.425-3.605-4.2-.203-.506-.324-.862-.134-1.009l.568-.44z"/><path fill="#4F9BA8" d="M745.426 320.143c-6.082.284-12.616.527-19.153.658-5.752.114-11.506.102-17.723.164 1.86-.331 4.18-.965 6.505-.982 9.972-.076 19.945.03 30.37.16z"/><path fill="#255E6E" d="M242.48 569.056c-3.47.342-7.405.908-11.34.903-8.112-.01-16.224-.325-24.704-.69 11.616-.199 23.598-.224 36.045-.213z"/><path fill="#326D7B" d="M560.724 262.263c-3.312 2.984-6.972 5.851-10.943 8.815 3.325-2.912 6.96-5.922 10.943-8.815z"/><path fill="#143E4A" d="M910.785 605.706c-.459-4.141-.564-8.526-.51-13.279.394 4.1.63 8.568.51 13.28z"/><path fill="#215867" d="M154.008 571c-4.58 1.713-9.155 3.437-14.043 5.264 1.98-1.731 4.179-3.705 6.609-5.334.982-.658 2.47-.561 4.342-.584 1.447.377 2.278.53 3.11.682 0 0-.014-.018-.018-.028zM238.34 753.979c-1.114-.446-1.843-.818-3.516-1.672 6.127-.402 11.365-.748 16.605-1.075.113-.007.358.24.339.322-.071.31-.225.6-.5 1.095-.943.23-1.733.265-3.32.34-2.826.326-4.855.612-6.885.897-.78.056-1.558.111-2.722.093z"/><path fill="#326D7B" d="M518.84 298.343c-2.632 3-5.606 5.893-8.889 8.86 2.644-2.94 5.596-5.954 8.89-8.86z"/><path fill="#215867" d="M358.07 737.43a92.417 92.417 0 0 1 10.058 5.364c-4.027-.421-7.276-2.162-10.057-5.364zM437.338 748.999c2.802-1.493 5.994-2.98 9.421-4.23-2.853 1.569-5.943 2.903-9.421 4.23z"/><path fill="#143E4A" d="M912.06 617.433c-.693.124-2.031-.17-2.044-.513-.099-2.707.055-5.424.285-8.498.68 2.616 1.205 5.594 1.76 9.011z"/><path fill="#215867" d="M186.05 735.38c2.92 1.391 5.933 3.114 8.983 5.181-2.939-1.387-5.915-3.119-8.983-5.182zM823.879 325.661c-3.463-.633-7.045-1.611-10.85-2.839 3.428.665 7.08 1.58 10.85 2.84zM325.994 692.006c1.402 3.346 2.804 6.692 4.173 10.42-1.661-2.319-3.29-5.017-5.085-8.026.146-.814.457-1.318.843-2.11.075-.29.07-.284.07-.284zM220.19 751.305c3.42-.054 6.965.271 10.757.839-.562.442-1.371.642-2.843.606-1.459-.409-2.255-.583-3.051-.758-1.579-.102-3.158-.205-4.862-.687z"/><path fill="#3A8697" d="M154.087 551.538c.143 4.921.256 10.305.18 16.048-.196-4.956-.203-10.271-.18-16.048z"/><path fill="#1B4D5B" d="M633.205 290.301c2.881-.731 5.914-1.084 9.404-1.209a.847.847 0 0 1 .477.68c-3.244.302-6.487.605-9.881.53z"/><path fill="#326D7B" d="M527.923 290.528c-1.436 1.938-3.179 3.682-5.227 5.523 1.436-1.841 3.177-3.778 5.227-5.523z"/><path fill="#215867" d="M211.28 747.678c2.507.76 5.014 1.518 7.708 2.56-2.273.095-4.732-.092-7.594-.62-.426-.739-.45-1.137-.384-1.636l.27-.304z"/><path fill="#326D7B" d="M508.89 307.459c-1.416 1.953-3.153 3.72-5.197 5.577 1.421-1.86 3.149-3.812 5.197-5.577z"/><path fill="#143E4A" d="M910.773 497.734c-.437-2.198-.526-4.614-.453-7.358.375 2.162.589 4.651.453 7.358z"/><path fill="#326D7B" d="M652.857 268.184c-1.976-1.336-3.803-2.839-5.772-4.626 1.803.758 3.747 1.8 5.886 3.326.195.483.334.799.334.799l-.448.501z"/><path fill="#215867" d="M333.145 710.267c1.65 1.783 3.263 3.914 4.823 6.423-1.656-1.774-3.258-3.925-4.823-6.423zM158.368 700.146c1.038 1.903 1.933 4.174 2.63 6.72-1.055-1.933-1.914-4.143-2.63-6.72zM255.152 751.528c1.975-.76 4.3-1.336 6.625-1.912-.027.151-.029.313-.088.451-.061.143-.177.263-.413.572-.628.22-1.111.262-2.222.386-1.082.344-1.536.605-1.991.866a10.61 10.61 0 0 1-1.911-.363z"/><path fill="#143E4A" d="M910.764 577.765c-.432-1.629-.535-3.444-.497-5.64.369 1.563.598 3.508.497 5.64z"/><path fill="#215867" d="M134.61 673.189c1 1.773 1.817 3.77 2.747 6.108.112.34-.266.633-.656.624-.798-.303-1.207-.598-1.616-.892 0 0-.12-.431-.138-.976-.272-1.348-.527-2.15-.782-2.954.088-.562.176-1.124.446-1.91z"/><path fill="#326D7B" d="M532.762 286.313c-.95 1.286-2.246 2.553-3.832 3.89.969-1.255 2.227-2.582 3.832-3.89z"/><path fill="#143E4A" d="M910.694 567.125c-.381-1.74-.483-3.617-.442-5.95 3.314 1.358 1.4 3.641.442 5.95zM910.754 588.785c-.423-1.328-.523-2.824-.484-4.682.362 1.264.584 2.89.484 4.682zM910.777 532.79c-.43-1.331-.537-2.828-.504-4.689.368 1.266.598 2.894.504 4.688z"/><path fill="#215867" d="M135.077 581.21c.17.972.172 2.244-.092 3.673-.203-1.019-.14-2.196.092-3.673zM311.365 717.966a14.444 14.444 0 0 1 2.448-3.986c-.573 1.436-1.354 2.672-2.448 3.986zM832.752 331.795c-1.511-.424-3.068-1.195-4.698-2.363-.074-.397.243-.716.388-.662.146.054.398.235.398.235 1.29.815 2.579 1.63 3.912 2.79zM370.094 744.338c1.4.295 2.89.923 4.126 1.611-1.514-.386-2.775-.831-4.126-1.61z"/><path fill="#326D7B" d="M501.78 314.358c-.671.953-1.684 1.867-2.977 2.84.692-.92 1.664-1.9 2.977-2.84zM545.786 274.307c-.623.971-1.592 1.902-2.842 2.893.645-.938 1.571-1.935 2.842-2.893z"/><path fill="#255E6E" d="M192.51 569.05a71.58 71.58 0 0 1-7.116.22c2.008-.201 4.344-.23 7.117-.22z"/><path fill="#215867" d="M277.328 744.945c1.17-.74 2.7-1.487 4.486-2.043-1.204.806-2.666 1.42-4.486 2.043zM642.928 324.297c-.822 1.354-1.942 2.57-3.38 3.812-.06-.925.197-1.876 1.004-3.09.842-.491 1.134-.719 1.426-.946.217.028.435.057.95.224zM320.977 700.017c.64-1.086 1.279-2.172 1.988-3.022-.211.988-.493 1.74-1.158 2.758-.383.265-.83.264-.83.264z"/><path fill="#326D7B" d="M548.85 271.444c-.433.873-1.192 1.699-2.228 2.608.449-.83 1.175-1.742 2.228-2.608z"/><path fill="#1B4D5B" d="M571.181 552.863c.922-.752 2.175-1.369 3.677-1.808-.949.766-2.148 1.355-3.677 1.808z"/><path fill="#215867" d="M174.139 724.24c1.006.398 1.946 1.157 2.936 2.233-.967-.412-1.984-1.142-2.936-2.232zM267.368 749.016c.497-.5 1.344-.983 2.395-1.248-.546.566-1.296.917-2.395 1.248z"/><path fill="#326D7B" d="M643.457 289.834c-.371-.063-.39-.513-.401-.739 1.116-.324 2.244-.423 3.615-.343-.786.5-1.815.822-3.214 1.082z"/><path fill="#3A8697" d="M241.478 753.916c1.615-.315 3.644-.6 6.074-.9-1.62.3-3.64.614-6.074.9z"/><path fill="#215867" d="M139.004 576.473c-.462 1.034-1.251 1.871-2.353 2.695.467-.972 1.247-1.932 2.353-2.695zM179.127 729.26c.91.494 1.882 1.298 2.829 2.454-.94-.48-1.854-1.312-2.83-2.454zM293.44 735.994c.338-.942.972-1.998 1.94-3.116-.326.96-.986 1.98-1.94 3.116zM318.216 706.926c.082-.946.528-1.926 1.251-2.968-.11.937-.499 1.935-1.251 2.968z"/><path fill="#143E4A" d="M910.715 516.208c-.16-.923.007-1.905.586-3.003.187.905-.035 1.924-.586 3.003z"/><path fill="#215867" d="M207.052 747.318c1.218-.22 2.499-.135 4.004.155.224.205.044.408-.39.495a14.19 14.19 0 0 1-1.814.048c-.58-.131-1.158-.262-1.8-.698zM155.978 696.41c.26-.658.51-1.002.76-1.347.217.84.434 1.68.46 2.718-.538-.22-.884-.64-1.22-1.371zM341.086 721.423c.609.089 1.318.455 2.04 1.095-.639-.09-1.29-.453-2.04-1.095zM195.108 741.297c.913.029 1.865.412 2.909 1.12-.896-.04-1.883-.403-2.909-1.12zM272.322 746.966c.502-.5 1.365-.978 2.431-1.235-.554.567-1.312.912-2.431 1.235z"/><path fill="#326D7B" d="M521.815 296.398c-.417.59-1.164 1.157-2.2 1.749.43-.574 1.15-1.173 2.2-1.75z"/><path fill="#3A8697" d="M401.486 753.895c.737-.156 1.853-.244 3.213-.163-.782.19-1.808.21-3.213.163zM208.889 748.37c.423-.341.883-.329 1.687-.301.368.412.392.81.396 1.508-.696-.086-1.371-.47-2.083-1.208z"/><path fill="#215867" d="M353.918 734.323c.948.183 1.937.582 3.012 1.318-.09.338-.267.34-.881.1-.756-.401-1.075-.563-1.394-.724-.326-.023-.558-.183-.737-.694zM201.193 743.872c.613-.094 1.24.171 1.908.669-.604.051-1.248-.129-1.908-.669zM458.398 738.857c-.198-.41-.112-.972.153-1.467.163.483.147.898-.153 1.467zM285.376 741.032c-.347-.444-.384-.866-.42-1.288.594.005 1.189.011 1.974.208-.288.494-.765.798-1.554 1.08z"/><path fill="#388293" d="M89.104 420.476c.117.751.201 1.891.106 3.272-.166-.8-.152-1.842-.106-3.272z"/><path fill="#1B4D5B" d="M608.19 289.675c.403-.366.905-.463 1.557-.417-.386.323-.922.504-1.558.417z"/><path fill="#215867" d="M827.822 329.195c-.694-.427-1.23-1.012-1.78-1.907.543-.26 1.102-.213 1.922.345.285.7.309.892.333 1.083l-.475.479z"/><path fill="#326D7B" d="M538.884 280.514c-.12.55-.528 1.016-1.162 1.556.14-.497.506-1.07 1.162-1.556z"/><path fill="#143E4A" d="M910.64 522.155c-.314-.458-.387-1.02-.357-1.995.27.354.434 1.123.358 1.995z"/><path fill="#3A8697" d="M154.06 570.641c-.866.234-1.697.082-2.756-.296.549-.58 1.323-.934 2.378-1.46.324.341.368.855.377 1.756z"/><path fill="#143E4A" d="M580.04 544.82c-.176-.522-.063-1.234.298-2.03.163.556.077 1.198-.298 2.03zM910.696 537.844c-.35-.41-.438-.938-.393-1.631.307.394.48.954.393 1.631z"/><path fill="#215867" d="M841.75 340.875c-.38-.318-.664-.961-.775-1.801.406.361.638.919.775 1.801zM162.951 710.358c.403.23.799.777 1.057 1.542-.446-.263-.755-.744-1.057-1.542z"/><path fill="#3A8697" d="M134.096 675.442c.324.46.579 1.263.862 2.387-.29-.467-.61-1.255-.862-2.387zM135.05 679.382c.444-.059.853.236 1.461.685.2.156.321.512.408.678-.576-.225-1.24-.617-1.869-1.363z"/><path fill="#215867" d="M288.329 739.03c.237-.415.79-.814 1.556-1.05-.271.464-.755.766-1.556 1.05z"/><path fill="#3A8697" d="M422.44 752.888c.431-.31 1.202-.57 2.282-.858-.442.284-1.191.595-2.281.858zM225.15 752.323c.699-.156 1.495.018 2.534.381-.65.11-1.545.03-2.535-.38zM427.432 751.904c.424-.32 1.186-.585 2.255-.878-.434.292-1.175.611-2.255.878zM394.134 752.336c.702-.163 1.5.006 2.54.363-.653.115-1.549.042-2.54-.363zM257.333 752.013c.185-.383.64-.644 1.357-.961-.187.324-.638.704-1.357.961z"/><path fill="#143E4A" d="M910.601 570.204c-.239-.194-.282-.45-.259-1.093.196.087.325.559.26 1.093z"/><path fill="#215867" d="M316.972 709.771c-.129-.111-.215-.467-.12-.78.183.042.162.537.12.78z"/><path fill="#326D7B" d="M99.031 321.677c-.5.272-1.029.29-1.954.28.14-.362.676-.698 1.545-1.04.349.165.364.335.41.76z"/><path fill="#215867" d="M638.298 329.937c.138.274.276.55-.081.977-.76.151-1.027.148-1.293.145 0 0-.048-.176.033-.219.08-.043-.016-.45.318-.683.564-.229.794-.224 1.023-.22zM154.877 691.144s-.455-.093-.673-.174c-.217-.08-.21-.52-.21-.74.382-.084.766.051 1.1.468-.05.281-.217.446-.217.446z"/><path fill="#143E4A" d="M910.592 582.19c-.386-.165-.452-.44-.275-.939.223.16.34.512.275.94zM910.57 555.196c-.237-.192-.28-.445-.257-1.078.195.086.323.552.257 1.078zM910.565 558.192c-.237-.191-.281-.443-.259-1.073.194.086.323.55.259 1.073z"/><path fill="#215867" d="M134.695 597.875c.167.155.199.392.18.985-.14-.064-.228-.483-.18-.985z"/><path fill="#164451" d="M642.841 261.943c.035.193-.344.3-.533.246.04-.182.27-.31.533-.246z"/><path fill="#215867" d="M345.94 727.406c.187-.07.425.13.776.55-.14.02-.421-.145-.777-.55z"/><path fill="#1B4D5B" d="M638.135 329.684c-.066.249-.296.244-.87.264-.221-.29-.1-.605.273-1.005.311.106.372.297.597.741z"/><path fill="#215867" d="M347.9 729.423c.168-.038.388.18.74.592-.128.004-.4-.173-.74-.592z"/><path fill="#3A8697" d="M828.442 328.77c-.17-.245-.193-.436-.325-.897.143.012.395.293.685.853.038.28-.214.098-.36.044z"/><path fill="#215867" d="M344.945 726.429c.18-.063.409.134.757.534-.216.157-.49-.002-.757-.534z"/><path fill="#3A8697" d="M653.511 267.743c-.206-.06-.345-.376-.433-.524.215-.009.52.13.93.51.105.24-.291.075-.497.014z"/><path fill="#215867" d="M185.175 734.182c.285-.092.5.133.72.639-.201.024-.467-.178-.72-.64zM344.109 725.222c.189.016.33.271.594.706-.156-.022-.412-.237-.594-.706zM838.041 335.645c-.208.086-.457-.121-.809-.57.152-.027.443.146.809.57z"/><path fill="#3A8697" d="M354.817 735.25c.157-.072.476.09.97.455-.154.062-.48-.08-.97-.455z"/><path fill="#215867" d="M171.055 721.263c.248-.165.512.007.849.466-.174.063-.476-.076-.85-.466zM842.864 341.79c-.254.2-.512.057-.844-.364.18-.086.484.013.844.364zM339.09 719.242c.192.008.356.266.654.708-.163-.014-.435-.228-.654-.708zM168.94 719.379c.2-.089.456.112.834.543-.147.029-.446-.133-.834-.543z"/><path fill="#164451" d="M570.744 262.111c-.007.17-.247.309-.367.241.045-.182.21-.297.367-.241z"/><path fill="#1B4D5B" d="M606.089 290.38c-.03-.225.41-.263.63-.243-.054.169-.327.318-.63.243z"/><path fill="#215867" d="M454.225 741.884c-.012-.209.233-.391.659-.714.003.175-.191.47-.66.714z"/><path fill="#1B4D5B" d="M622.087 290.398c-.035-.22.412-.249.636-.234-.051.162-.326.308-.636.234z"/><path fill="#215867" d="M450.212 743.838c-.05-.225.16-.417.531-.749.029.18-.114.488-.53.749z"/><path fill="#1B4D5B" d="M617.444 289.67c.082-.117.065-.075.056-.098-.009-.023.089.322.089.322s-.228-.108-.145-.225z"/><path fill="#326D7B" d="M497.869 317.334c.144.26.014.429-.306.64-.143.077-.256-.372-.256-.372s.336-.32.562-.268z"/><path fill="#1B4D5B" d="M614.443 289.668c.083-.114.062-.067.05-.092-.01-.025.091.312.091.312s-.223-.106-.14-.22z"/><path fill="#215867" d="M448.209 744.83c-.065-.233.139-.433.52-.754.035.183-.107.486-.52.755z"/><path fill="#1B4D5B" d="M611.459 289.664c.084-.104.052-.048.035-.077-.016-.03.088.285.088.285s-.207-.104-.123-.208z"/><path fill="#215867" d="M205.078 746.244c.23-.112.445.08.8.437-.155.04-.473-.06-.8-.437zM644.769 322.114c.02.21-.218.396-.632.722-.008-.175.176-.47.632-.722z"/><path fill="#326D7B" d="M651.326 287.053c-.038-.17.183-.43.609-.846.02.149-.166.452-.609.846z"/><path fill="#1B4D5B" d="M595.313 289.848c.036-.161.194-.29.273-.227.08.062.037.501.037.501s-.345-.113-.31-.274z"/><path fill="#215867" d="M271.246 747.89c-.04-.206.178-.403.547-.764.022.168-.124.48-.547.764z"/><path fill="#1B4D5B" d="M593.085 290.396c-.035-.22.417-.243.643-.23-.052.16-.33.306-.643.23z"/><path fill="#215867" d="M643.705 323.042c.218.231.089.511-.319.896-.094-.167-.01-.484.32-.896z"/><path fill="#1B4D5B" d="M585.333 289.794c.044-.154.14-.256.196-.215.055.04.083.46.083.46s-.324-.091-.28-.245z"/><path fill="#326D7B" d="M650.256 287.892c-.016-.22.233-.401.679-.705-.001.175-.204.463-.679.705z"/><path fill="#215867" d="M357.041 736.252c.239-.071.46.157.752.636-.172.019-.452-.176-.752-.636zM292.224 736.905c-.002-.204.254-.375.701-.674-.008.169-.22.447-.701.674z"/><path fill="#1B4D5B" d="M624.424 289.683c.079-.127.079-.108.078-.12-.001-.012.09.355.09.355s-.246-.109-.168-.235z"/><path fill="#3A8697" d="M641.675 324.076c.01.224-.281.452-.843.786 0-.19.27-.486.843-.786z"/><path fill="#1B4D5B" d="M561.499 552.682c.083-.074.03-.021.007-.05-.024-.03.073.217.073.217s-.163-.094-.08-.167z"/><path fill="#255E6E" d="M353.709 569.122c.213.036-.111.085-.111.085s-.324-.032-.43-.062c-.105-.03.327-.06.54-.023z"/><path fill="#215867" d="M338.02 717.318c.228-.18.499-.027.874.392-.158.071-.47-.038-.874-.392zM165.984 715.375c.204-.144.472.014.87.399-.147.06-.46-.048-.87-.399zM165.082 714.24c.188.007.353.263.67.691-.16-.012-.443-.216-.67-.69zM162.137 709.221c.216-.021.4.215.714.63-.177.009-.47-.175-.714-.63z"/><path fill="#3A8697" d="M320.988 700.005c-.011.012.436.013.66.027.068.298-.088.583-.509.875-.265.009-.217.04-.174-.202.043-.242.051-.736.051-.736s-.017.025-.028.036z"/><path fill="#215867" d="M310.21 718.878c-.085-.269.137-.488.622-.75.028.195-.164.476-.621.75zM157.182 699.213c.244-.088.447.1.769.46-.185.047-.496-.07-.77-.46z"/><path d="M883.438 603.6c-.048 4.166-.095 8.33-.462 12.903-.319.407-.757.4-.82.03-.092-.535-.095-.71-.16-.858-.053-.121-.18-.21-.274-.312-1.807 3.383-5.003 2.628-7.923 2.634-12.936.025-25.873.031-38.809.044-5.39-6.924-10.21-14.405-16.31-20.636-8.2-8.377-18.393-14.27-29.077-19.114-10.418-4.724-21.738-7.393-32.823-6.788-12.97.707-26.003 2.278-38.387 8.24-12.382 5.962-22.258 14.453-31.478 24.07-3.305 3.447-5.633 7.81-8.673 11.54-1.018 1.248-2.832 2.537-4.33 2.595-10.808.416-21.629.594-32.447.712-29.428.323-58.857.593-88.285.845-3.814.032-7.643-.41-11.443-.211-9.259.484-15.697 7.49-15.67 16.688.027 8.978.007 17.956.007 27.59-8.715 0-16.998.125-25.268-.153-1.06-.036-2.98-2.21-2.93-3.324.54-12.078-2.566-23.478-7.102-34.345-3.409-8.167-8.614-15.538-14.706-22.11-2.712-2.926-5.585-5.702-8.253-8.654a65.4 65.4 0 0 1 3.189-1.128c2.114-.097 4.228-.194 6.79-.065.617.115.787.005.957-.106.24.052.48.104 1.244.736 54.116.583 107.706.601 161.297.546 2.455-.003 4.908-.66 7.362-1.012 4.605-.171 9.4-.412 12.259-4.565 1.524-2.215 1.854-5.251 3.305-8.406.65-1.815.78-3.141.78-4.467.005-72.493-.007-144.985.015-217.478 0-2.645.311-5.29.464-7.726 2.923-.142 5.334-.26 7.962-.286.217.09.693.16.958.148.667-.347 1.07-.682 1.733-.757 2.447.005 4.634-.248 7.008-.44.187.061.579.107.656.41.309.621.54.94.773 1.258.24-.52.478-1.04.91-1.583.194-.022.564-.143.973-.108 3.436.007 6.464-.02 9.696.01.204.057.627.086.78.273.535.061.915-.064 1.556-.178.608.003.955-.004 1.454.174.527.062.904-.062 1.495-.203.214-.016.628-.134 1.07-.098 3.11.017 5.776-.002 8.644.036.2.057.618.085.774.274.542.063.93-.064 1.524-.206.208-.015.608-.131.95-.073 2.078.02 3.814-.018 5.753.001.203.058.624.087.778.275.537.062.92-.064 1.562-.172.608.04.955.064 1.348.41 2 4.51 2.377.479 3.515-.345.14-.027.422-.082.577.107.544.064.932-.06 1.52-.195.2-.01.583-.119.818-.098.235.021.704-.019.893.036.189.055.581.077.744.271.562.065.962-.065 1.56-.204.197-.01.576-.119 1.041-.086 11.126.007 21.786-.02 32.643.01.197.057.605.083.764.275.556.065.951-.063 1.546-.202.2-.01.583-.12 1.048-.087 8.125.009 15.785-.017 23.643.014.198.057.609.082.767.272.549.064.94-.064 1.536-.204.204-.013.599-.126 1.052-.092 3.784.012 7.115-.01 10.821.051 4.523 2.336 8.672 4.588 12.82 6.84 0 0 .012.053-.044.41 1.21 3.78 2.478 7.203 3.289 10.676-30.432.061-60.408.056-90.383.124-1.669.004-3.336.618-5.004.947-5.4.983-9.323 4.082-10.809 9.242-1.284 4.46-1.958 9.207-2.12 13.854-.318 9.142-.148 18.303-.083 27.455.146 20.554 7.43 37.956 23.397 51.202 3.13 2.597 7.27 3.977 11.447 6.2 9.713 5.77 19.661 8.593 30.401 8.555.423-.066.845-.132 1.82.11 5.768.814 10.985 1.318 16.202 1.822.412-.006.823-.012 1.653.297 2.376.507 4.335.7 6.294.893.409-.002.817-.003 1.765.33 1.166.535 1.778.854 2.417.92 10.526 1.08 21.052 2.17 31.587 3.162 3.078.29 6.185.286 9.279.417.412-.012.824-.025 1.769.297 9.083 1.18 17.634 2.024 26.185 2.869 3.03 6.753 2.394 15.361-1.643 17.058l3.166.8c-9.743.24-19.181 1.064-27.94 5.624-6.07 3.162-10.784 7.653-13.487 13.956-2.438 5.684-6 11.42-6.383 17.307-.418 6.426 1.643 13.25 3.694 19.552 4.436 13.624 15.638 19.46 29.285 23.015 1.68-.142 2.538-.28 3.396-.42 1.351.506 2.702 1.011 4.75 1.473 1.775-.483 2.853-.924 3.93-1.364.455.01.91.02 1.835.384a12.32 12.32 0 0 0 2.275.898c.135 2.515.27 5.03.23 7.966-.175.422-.292.73-.292.73l.418-.004m-179.44-90.013c-1.797.47-3.616.876-5.39 1.425-6.487 2.008-9.639 7.312-8.218 14.546.053.417.105.835-.132 1.99.68 6.112 4.817 9.423 11.442 9.544 8.633.157 17.272.91 25.886.655 3.878-.115 8.208-1.26 11.43-3.337 4.691-3.023 5.975-10.334 3.945-15.687-2.056-5.423-7.115-8.152-14.973-8.707-7.835.027-15.67.055-23.99-.43z"/><path d="M461.378 425.708c-.012-1.558-.025-3.117.226-5.2.089-1.604-.084-2.685-.258-3.766.006-1.885.011-3.77.206-6.127.06-.945-.07-1.417-.2-1.89.002-1.237.004-2.475.273-4.218.086-1.594-.095-2.683-.277-3.771.004-1.24.008-2.48.252-4.202.085-1.257-.071-2.034-.227-2.81-.012-1.563-.025-3.126.204-5.184.086-1.265-.069-2.035-.223-2.804.006-1.885.013-3.77.285-6.193.083-1.627-.1-2.716-.282-3.805.003-.926.006-1.85.278-3.256.085-1.569-.098-2.658-.281-3.747.002-.325.002-.65.186-1.285.063-.781-.06-1.253-.183-1.724.012-.322.019-.643.293-1.34.08-1.469-.11-2.561-.3-3.653.003-1.885.005-3.769.298-6.217 1.284-1.881 2.278-3.199 3.506-4.155 9.535.716 18.835 1.12 28.14 1.353.94.024 1.905-.99 3.26-1.566 2.416-.395 4.431-.745 6.446-1.096 1.953-1.112 4.172-1.927 5.809-3.393 5.392-4.83 10.542-9.93 15.844-14.864 9.186-8.55 18.415-17.053 27.977-25.206.357 71.7.376 143.033.3 214.365-.002 1.7-1.07 3.4-1.64 5.1-1.706.155-3.411.311-5.99.345-1.783-.044-2.694.035-3.605.114-.599-.006-1.197-.012-2.566-.154-5.333-.007-9.896.122-14.459.252-8.814.004-17.627.008-27.353-.142-4.493-.046-8.073.062-11.652.169-.585-.01-1.169-.02-2.513-.186-5.33-.061-9.902.035-14.473.13-.384.007-.768.014-1.553-.235-.953-.072-1.505.113-2.058.298-.776-.078-1.552-.157-2.688-.42-.36-.186-.518-.224-.518-.224-.059-.488-.118-.977.044-1.843.298-.47.374-.562.45-.655l-.583-.306c-.143-2.373-.285-4.746-.24-7.588.062-.94-.064-1.41-.19-1.881 0-6.851 0-13.702.188-21.072.062-.988-.063-1.457-.189-1.927-.006-1.566-.012-3.131.217-5.194.076-1.26-.085-2.022-.245-2.784.011-2.213.023-4.426.227-7.122.067-.957-.06-1.431-.185-1.906.003-3.856.006-7.711.248-12.118.078-1.326-.083-2.1-.245-2.874-.01-1.566-.021-3.132.204-5.198.082-1.263-.071-2.027-.224-2.79.007-1.886.014-3.772.21-6.13.057-.943-.073-1.414-.203-1.885 0-1.885 0-3.77.24-6.166.08-1.284-.078-2.055-.238-2.827.011-1.554.022-3.108.226-5.12.064-.942-.066-1.424-.196-1.907zM227.6 437.263c.007 1.236.014 2.471-.334 4.072-1.025.882-2.264 1.388-2.274 1.916-.049 2.824.085 5.67.46 8.47.08.602 1.412 1.037 2.167 1.55.01.324.012.65-.317 1.274-.101 1.1.124 1.9.348 2.7.008.63.015 1.26-.196 2.283-.077 1.497.063 2.6.203 3.704.012 1.257.024 2.514-.352 4.156-.951.66-2.031 1.027-2.001 1.193.708 3.9 1.536 7.778 2.341 11.66.014.934.028 1.87-.304 3.152-.95 1.19-2.146 2.155-2.003 2.84.167.797 1.507 1.35 2.338 2.008.005.343.01.686-.248 1.42-.093 1.447.076 2.503.245 3.56-.087 3.747-.174 7.495-.746 11.572-.569.452-.652.575-.735.699l.674.417c.26.73.519 1.46.387 2.52-4.291 2.76-2.966 4.44.4 5.825-.001.934-.001 1.868-.223 3.266-.088 1.16.047 1.855.181 2.55 0 0-.026.256-.157.304-.132.047-.22.209-.22.209l.27-.095c-.048.959-.096 1.917-.774 3.219-17.988.276-35.345.207-52.83-.185-1.8-3.674-3.256-7.155-5.196-10.342-2.25-3.694-4.922-7.13-7.412-10.678-.737-2.08-1.475-4.158-2.418-6.614-.507-1.231-.81-2.086-1.081-3.182-.182-.591-.466-.664-.888-.785-.1-.54-.134-.757-.132-1.21-.164-.572-.44-.66-.817-.884-6.25-12.653-12.375-24.978-18.77-37.161-2.081-3.963-4.869-7.556-7.333-11.318 0 0-.12-.166-.239-.49a35.317 35.317 0 0 0-1.371-2.267c-.861-1.978-1.722-3.957-2.625-6.455-.185-.83-.407-.904-.709-.745 0 0-.225-.174-.307-.557-1.522-3.093-.962-6.985-4.765-8.296-.122-.242-.244-.483-.343-1.366-.536-1.364-1.095-2.085-1.655-2.807 0 0-.102-.18-.127-.668.09-19.114.187-37.738.338-56.363.029-3.527-1.167-7.586 3.487-9.44l-.795-1.808c16.07 0 32.085-.01 48.1.003 19.39.017 38.778.054 58.224.276.136.468.296.68.539.828.012 5.548.025 11.095-.152 17.11-.19.466-.479.695-.815.807-.742 1.158-1.475 2.198-1.498 3.252-.1 4.682-.11 9.373.062 14.053.164 4.5.59 8.99.89 13.865.502 1.908 1.016 3.436 1.53 4.964.01 1.248.021 2.495-.329 4.123-.963.757-1.567 1.134-2.17 1.511l2.511 1.385c.008.331.01.663-.175 1.319-.262.463-.446.67-.406.73.154.234.378.422.577.627.005.78.011 1.56-.287 2.859-.105 5.492.094 10.467.292 15.442-.001.624-.003 1.249-.206 2.248-.077.841.047 1.308.171 1.775m-2.08-21.05c-.102.088-.277.168-.286.263-.008.095.148.277.242.285.095.007.203-.153.045-.547zM358.538 394.007c.062-14.41.124-28.82.683-43.621 12.003-.126 23.51.354 35.016.353 12.891-.001 25.782-.438 38.708-.222.045 53.548.045 106.633.111 159.717.002 1.59.692 3.18 1.173 4.88.112.11.425.129.425.129-.007 2.544-.013 5.088-.374 8.11a37.056 37.056 0 0 1-2.225 2.228c-3.769-.091-7.537-.182-11.743-.744-.716-.342-.994-.212-1.272-.081-4.716.24-9.43.482-14.67.288-1.124-.11-1.726.213-2.327.537-12.638-.026-25.275-.033-37.912-.104-1.63-.01-3.258-.35-5.13-1.276-.31-.969-.374-1.2-.439-1.43-.03-33.345-.064-66.69-.078-100.036-.001-1.32.178-2.64.733-4.416.526-.575.676-.77.648-.801-.17-.184-.38-.33-.576-.489-.183-2.099-.366-4.198-.087-6.73.531-.55.684-.747.656-.777-.17-.185-.381-.332-.579-.492-.251-4.032-.502-8.064-.472-12.685.098-1.173-.086-1.756-.27-2.338zM760.895 599.636c5.323 1.342 10.436 2.148 15.1 4.055 5.463 2.234 10.821 5 15.719 8.287 11.679 7.842 20.068 18.446 24.697 31.845 4.158 12.035 5.31 24.016 1.552 36.6-7.007 23.465-22.905 37.815-45.622 44.37-16.906 4.879-33.855 2.215-48.802-7.073-15.269-9.487-25.165-23.201-28.747-41.434-3.65-18.584-.161-35.37 10.925-50.369 13.509-18.276 32.267-26.385 55.178-26.281m18.53 92.43c3.091-3.798 6.61-7.33 9.176-11.454 4.187-6.731 3.962-14.344 3.14-21.966-1.042-9.645-4.846-17.862-12.784-23.58-8.348-6.015-17.597-7.975-28.121-7.044-9.17.811-16.397 4.707-21.972 10.926-5.942 6.63-9.01 14.66-8.717 24.423.322 10.75 2.768 19.358 10.717 27.104 9.57 9.324 20.98 10.282 32.76 8.954 5.283-.596 10.197-4.465 15.802-7.363zM233.452 600.109c13.813-.937 26.43 2.457 37.489 9.614 10.38 6.718 19.603 15.176 24.525 27.104 4.409 10.685 8.808 21.755 6.895 33.38-2.966 18.016-10.408 33.832-26.15 44.84-10.95 7.66-22.86 10.622-36.04 11.062-19.615.654-35.05-7.664-47.833-21.343-7.45-7.972-11.223-18.116-13.499-28.946-2.863-13.626-1.17-26.745 4.406-38.982 3.913-8.586 9.387-16.493 17.554-22.431 6.615-4.81 12.926-9.731 20.964-11.759 3.723-.938 7.531-1.54 11.69-2.54m2.769 28.275c-11.987-1.45-20.516 5.477-26.476 13.868-10.443 14.704-9.857 32.833 3.053 46.866 10.17 11.055 23.556 13.134 37.814 9.79 14.933-3.503 28.092-22.164 26.334-36.93-1.564-13.128-6.953-24-18.978-30.418-6.418-3.427-13.504-4.724-21.747-3.176zM356.01 632.137c.556-1.226 1.11-2.452 1.678-3.907.012-.228.311-.345.569-.373.448-.306.638-.586.778-.868-.05-.003-.057.098.2.038.39-.359.522-.657.774-1.223.412-.756.706-1.245 1-1.734.281-.173.562-.346 1.21-.803.548-.566.729-.849.91-1.132 0 0-.095-.111.21-.16.352-.375.398-.7.444-1.026 1.667-1.389 3.335-2.778 5.436-4.553.608-.665.784-.945.96-1.226.32-.102.579-.29 1.119-.872.505-.6.666-.892.828-1.184 0 0-.093-.101.241-.16.715-.727 1.094-1.393 1.474-2.06 1.813-.948 3.625-1.896 6.047-2.916.766-.377.924-.683 1.082-.989a12.9 12.9 0 0 0 2.306-.67c.867-.69 1.272-1.093 1.677-1.496a12.43 12.43 0 0 0 2.317-.597 213.74 213.74 0 0 1 13.153-3.295 24.475 24.475 0 0 0 2.76-.14c.89-.562 1.482-1.072 2.074-1.583.989.022 1.978.045 3.648.212 1.855.287 3.03.428 4.275.901.952.402 1.833.471 3.124.612a2498.837 2498.837 0 0 1 19.087 5.966s.097.026.292.305c2.94 1.704 5.685 3.128 8.43 4.553.46.323.92.647 1.666 1.37.566.591.848.786 1.13.98.474.592.948 1.184 1.821 2.232 2.288 2.46 4.177 4.466 5.86 6.598-.163.383-.122.64-.08.896.228-.21.455-.42.844-.63.162 0 .483-.047.483-.047s.123-.139.163.175c.338.467.634.619.931.77.71.732 1.42 1.464 2.14 2.814.698 1.463 1.388 2.306 2.08 3.404.283.428.561.603.809 1.144 2.69 7.438 5.411 14.51 8.132 21.582.095.585.19 1.169.624 2.344.575 6.614.81 12.637 1.046 18.66-.033.355-.065.71-.39 1.423-.404 1.429-.515 2.5-.627 3.571-.04.341-.081.682-.46 1.434-2.485 5.578-4.633 10.747-6.781 15.915 0 0-.133.043-.434.27-.367 1.012-.432 1.794-.498 2.577 0 0-.208.045-.53.066-.321.022-.628.364-.628.364l.166.429c-.344.565-.688 1.13-1.532 1.95-.948 1.192-1.396 2.13-1.843 3.068-.26.218-.52.436-1.299.828-3.316 2.801-6.112 5.428-8.908 8.055 0 0 .002.001-.351.028-8.42 5.523-17.011 9.703-26.81 11.144-3.604.53-7.127 1.6-10.686 2.424-1.352-.019-2.705-.037-4.56-.387-3.933-.741-7.362-1.15-10.792-1.56-.422-.046-.845-.091-1.674-.572-4.999-2.288-9.592-4.14-14.185-5.993 0 0 .055-.036-.018-.296-.381-.325-.69-.389-.999-.453-.177-.02-.354-.04-.854-.488-1.257-.87-2.192-1.313-3.127-1.756-.083-.335-.258-.613-.803-1.21-.589-.456-.9-.531-1.213-.607-3.186-2.938-6.372-5.877-9.818-9.326-.922-1.257-1.583-2.004-2.245-2.75-.343-.507-.687-1.013-1.062-2.067-.313-.691-.595-.835-.877-.979-.742-1.142-1.485-2.284-2.278-3.958-.155-.886-.39-1.039-.756-.99 0 0-.035-.075-.06-.414-.65-1.485-1.273-2.632-1.935-4.19-.287-1.995-.543-3.579-.783-5.165-.987-6.541-2.43-13.056-2.814-19.633-.343-5.876.487-11.82.799-17.735.273-.465.545-.93.964-2.015.96-3.477 1.774-6.335 2.588-9.192.011-.177.023-.354.448-.77.914-1.143 1.414-2.047 1.914-2.952m86.554 46.798c3.425-7.66 4.59-15.52 2.272-23.746-6.712-23.835-26.042-30.824-45.655-26.582-7.312 1.582-13.535 5.973-18.644 12.205-7.542 9.2-9.331 19.965-7.068 30.392 3.82 17.596 17.514 29.01 36.374 28.812 14.981-.156 25.454-7.408 32.721-21.081z"/><path fill="#000101" d="M835.96 395.406c1.58.729 3.37 1.157 3.895 2.215 11.485 23.142 22.83 46.355 34.939 71.058-5.507-.784-9.867-1.393-14.221-2.045-.469-.07-.89-.539-1.35-.571-8.271-.587-16.564-.942-24.813-1.746-8.033-.782-16.019-2.032-24.03-3.042-3.536-.446-7.074-.91-10.626-1.186-14.917-1.164-29.604-3.016-42.37-11.913-6.033-4.206-10.518-9.804-11.294-16.933-1.138-10.446-.957-21.036-1.324-31.566-.104-2.993 1-4.474 4.37-4.458 28.815.14 57.631.138 86.825.187z"/><path d="M608 644.657c18.146.004 35.792.12 53.436-.065 3.872-.04 5.583 1.507 5.72 5.033.479 12.415 2.923 13.939-11.61 13.833-18.81-.137-37.622-.013-56.433-.02-13.985-.007-27.971-.144-41.955.002-3.701.039-4.865-1.266-4.962-4.89-.37-13.904-.474-13.905 13.354-13.904 13.983.001 27.967.01 42.45.01zM902.962 644.996v18.313c-6.004 0-11.455-.002-16.906 0-10.655.006-21.31.027-31.966.015-5.608-.007-7.194-1.653-7.142-7.327.03-3.408.085-6.815.595-10.615 18.784-.39 37.101-.388 55.42-.386zM324.893 632.368c-6.211-9.404-12.056-19.047-18.087-28.571-1.308-2.066-3.322-3.676-4.948-5.55-1.907-2.2-1.548-4.471 1.366-4.511 14.302-.196 28.61-.015 42.914.08.398.003.793.535 1.555 1.084l-2.428 1.69 2.42.922c-9.2 10.483-17.364 21.593-22.792 34.856z"/><path fill="#255E6E" d="M331.852 520.829c.6 4.462-1.783 6.013-5.82 6.012-22.165-.01-44.33-.08-66.495.04-5.532.03-5.511-3.412-5.509-7.327.032-52.831.026-105.663.03-158.494 0-2.667-.145-5.346.071-7.995.127-1.56.833-3.074 1.6-4.558.32.05.27.465.275.749.008.473.011.662.132 1.19.009 3.46-.19 6.58-.194 9.7-.026 19.319-.01 38.638-.007 57.957.006 32.623.001 65.245.039 97.867.003 2.933.277 5.866.45 9.285 2.824 0 5.301.033 7.777-.005 18.435-.285 36.87-.643 55.306-.856 10.42-.12 10.423-.017 10.424-10.114.006-39.83.074-79.66-.03-119.489-.027-10.276-.741-20.55-.855-30.828-.05-4.594.603-9.196.762-14.002-.403-.489-.631-.77-.85-1.264.008-.214-.003-.643-.003-.643 1.005 1.588 2.47 3.062 2.893 4.792.494 2.022.078 4.266-.094 7.088a15.923 15.923 0 0 0 .08 2.886c.025 1.171.05 2.343-.113 4.31-.347 2.443-.643 4.088-.643 5.734-.027 47.366-.034 94.733.007 142.1.002 1.955.5 3.91.767 5.865z"/><path d="M883.64 545.234v23.007c-5.878-.369-11.277.362-15.839-1.26-5.89-2.095-8.051-8.634-6.892-15.631.85-5.135 6.067-9.888 12.076-10.444 2.722-.252 5.528.408 8.68 1.197.916 1.406 1.445 2.268 1.975 3.13z"/><path fill="#215867" d="M100.22 321.18c62.816-.26 125.943-.205 189.07-.183 65.293.024 130.586.016 195.88.015 2.663 0 5.327-.082 8.462-.221-1.701.467-3.87 1.497-6.047 1.517-15.295.14-30.592.09-45.888.064-49.622-.08-99.245-.21-148.867-.26-62.128-.062-124.255-.059-186.383-.114-1.972-.002-3.944-.337-6.227-.818z"/><path fill="#4492A3" d="m673.222 350.938-7.745.377c-.153 2.436-.464 5.08-.464 7.726-.022 72.493-.01 144.985-.015 217.478 0 1.326-.13 2.652-.616 4.068-.416.089-.351-.163-.363-.775-.003-19.253.017-37.894.01-56.536-.021-57.421-.053-114.843.11-172.536 3.456-.123 6.722.026 9.76.12-.228-.054-.677.078-.677.078z"/><path fill="#143E4A" d="M580.902 303.03c.045 55.954.097 111.91.13 167.864.014 23.149-.012 46.297-.003 69.947-.321-1.072-.954-2.646-.954-4.22-.036-77.55-.017-155.102.219-233.123.223-.47.608-.469.608-.469z"/><path d="M179.769 595.685 160.08 618.69c-.137-1.367-.454-2.904-.415-4.432.131-5.125.527-10.246.55-15.37.016-3.555.83-5.751 5.052-5.344 4.27.412 8.578.437 13.43 1.149.73.675.9.834 1.07.992z"/><path fill="#143E4A" d="M663.949 351.012c.027 57.421.059 114.843.08 172.264.007 18.642-.013 37.283 0 56.406-.338-1.073-1.008-2.627-1.008-4.182-.018-74.51.023-149.02.294-224.005.238-.475.634-.483.634-.483z"/><path fill="#164451" d="M553.93 305.017c.344 1.523.987 3.046.988 4.57.058 69.755.082 139.512-.028 209.268-.004 2.282 1.927 5.99-2.555 6.269.668-2.492 1.6-4.623 1.616-6.76.112-15.488.032-30.977.027-46.467-.019-55.626-.032-111.253-.047-166.88z"/><path fill="#4492A3" d="M553.677 305.021c.269 55.623.282 111.25.3 166.876.006 15.49.086 30.98-.026 46.467-.016 2.137-.948 4.268-1.867 6.505-.41.103-.607.122-.7.153.476-1.668 1.544-3.367 1.546-5.068.076-71.332.057-142.664.018-214.463.137-.466.306-.466.729-.47z"/><path fill="#1B4D5B" d="M664.139 350.74c-.19.272-.586.28-.784.29 1.015-.978 2.136-2.64 3.46-2.822 3.105-.426 6.307-.15 9.47-.148 42.949.019 85.898.03 128.847.068 6.63.006 12.597 1.447 15.984 8.365-4.122-1.902-8.27-4.154-13.146-6.668-4.126-.145-7.524-.026-10.922.093 0 0-.395.113-.972.115-.825.01-1.073.017-1.321.025 0 0-.411-.025-.975-.262-8.29-.114-16.016.01-23.742.132 0 0-.384.11-.96.109-.826.007-1.077.014-1.328.022 0 0-.408-.026-.972-.262-5.691-.43-10.823-.826-15.948-.758-5.6.074-11.196.578-16.793.894 0 0-.38.11-.958.106-.833.006-1.087.014-1.34.023 0 0-.393-.022-.698-.112-.545-.14-.78-.118-1.012-.022 0 0-.384.109-.952.109-.815.005-1.06.01-1.306.016 0 0-.282.055-.685-.086-1.368-.03-2.333.08-3.298.19-.347-.023-.694-.046-1.666-.096-.867-.02-1.11-.014-1.352-.007 0 0-.42-.03-.928-.25-2.268-.112-4.03-.004-5.791.104 0 0-.4.116-.977.121-.821.013-1.066.02-1.311.027 0 0-.417-.028-.959-.256-3.276-.119-6.01-.01-8.745.099 0 0-.414.118-.986.126-.811.014-1.05.02-1.288.025-.348.008-.695.015-1.666.004a27.927 27.927 0 0 0-1.346-.001s-.423-.029-.976-.258c-3.62-.11-6.688.009-9.756.127 0 0-.37.121-.955.118-.847.013-1.108.03-1.369.047 0 0-.392-.046-.906-.279-2.657-.037-4.8.158-6.943.353-.402.334-.804.669-1.477.967-.27-.036-.264-.214-.264-.214-3.266-.148-6.532-.297-9.988-.174z"/><path fill="#326D7B" d="M227.008 350.17c-19.388-.027-38.777-.064-58.165-.08-16.016-.014-32.031-.004-48.1-.004.303.693.549 1.25.794 1.809-4.654 1.853-3.458 5.912-3.487 9.44-.15 18.624-.247 37.248-.44 56.348-.565-.403-1.051-1.281-1.376-2.834.266-21.078.372-41.48.502-62.286.109-1.482.195-2.559.28-3.636 0 0-.014.075.42.017 35.135-.067 69.837-.093 104.538-.027 1.679.003 3.356.817 5.034 1.254z"/><path fill="#143E4A" d="M668.872 687.89c-38.48.219-77.047.151-115.614.097-18.121-.025-36.242-.024-54.837-.011 1.276-.313 3.026-.943 4.777-.945 54.09-.07 108.179-.083 162.268-.07 1.106 0 2.212.422 3.406.929z"/><path fill="#4F9BA8" d="M648.568 593.999c-2.368.31-4.821.967-7.276.97-53.59.055-107.181.037-161.04-.282-.092-.391.085-.465 1-.6 56.171-.057 111.605-.053 167.039-.049 0 0 .191.002.277-.04z"/><path fill="#143E4A" d="M647.944 593.756c-55.087.278-110.52.274-166.418.241 1.271-.394 3.007-1.078 4.743-1.08a92439.65 92439.65 0 0 1 155.903-.008c1.808.002 3.617.368 5.772.847zM434.775 514.77c-.12.473-.434.455-.566-.123a129.133 129.133 0 0 1-.228-7.553c-.017-52.348-.028-104.695-.005-157.313.024-.453.014-.635.003-.817.344 1.413.988 2.825.988 4.237.013 53.699-.032 107.398-.192 161.57z"/><path fill="#1B4D5B" d="M331.88 520.375c-.295-1.501-.793-3.456-.795-5.412-.041-47.366-.034-94.733-.007-142.1 0-1.645.296-3.29.606-5.294.175 50.545.199 101.449.195 152.806zM903.224 645.318c-18.58-.324-36.897-.326-55.678-.324-.63-.455-.798-.914-.965-1.373 1.14-.14 2.28-.399 3.42-.4 16.126-.022 32.252-.063 48.378.024 6.225.034 6.685.643 6.735 6.985.028 3.561.005 7.123.005 10.684l-1.634-.018c0-5.085 0-10.17-.261-15.578z"/><path fill="#326D7B" d="M129.884 441.703c2.433 3.407 5.221 7 7.301 10.963 6.396 12.183 12.52 24.508 18.86 37.275.112.497.264.744.091.893-.172.15-.521.443-.521.443-3.411-6.034-7.013-11.97-10.19-18.125-5.313-10.291-10.355-20.723-15.541-31.45z"/><path fill="#143E4A" d="M227.066 350.365c-1.736-.63-3.413-1.445-5.092-1.448-34.701-.066-69.403-.04-104.575.033 1.297-.26 3.065-.864 4.835-.867 33.4-.063 66.801-.092 100.202.04 1.763.006 3.52 1.495 5.224 2.682-.298.24-.458.028-.594-.44z"/><path fill="#326D7B" d="M728.984 368.998c1.684-.327 3.351-.94 5.02-.945 29.975-.068 59.95-.063 90.64-.166 1.044-.174 1.372-.256 1.7-.337-.047.618-.095 1.235-.652 1.94-3.148-.104-5.786-.461-8.425-.464-29.43-.03-58.861-.007-88.292.003 0 0-.008-.033.009-.03z"/><path fill="#1B4D5B" d="M729.295 369.3c29.11-.28 58.541-.305 87.972-.274 2.639.003 5.277.36 8.273.737-30.257.178-60.871.177-91.485.15-1.48 0-2.96-.222-4.76-.613z"/><path fill="#255E6E" d="M349.752 647.196c.033 5.785-.797 11.73-.454 17.605.383 6.577 1.827 13.092 2.814 19.633.24 1.586.496 3.17.537 5.156-.208.4-.7.396-.7.396-5.296-12.287-6.238-25.085-4.33-38.175.225-1.549 1.175-2.992 2.133-4.615z"/><path fill="#1B4D5B" d="M851.984 493.207c-2.828.121-5.935.125-9.013-.165-10.535-.993-21.06-2.081-31.587-3.162-.639-.066-1.251-.385-2.11-.934 3.854-.252 7.979-.467 12.026 0 10.158 1.172 20.281 2.652 30.684 4.26z"/><path fill="#215867" d="M410.512 727.744c3.198-.973 6.721-2.043 10.324-2.573 9.8-1.441 18.392-5.621 26.81-11.145-.35 1.038-.806 2.497-1.79 3.112-10.692 6.676-21.906 11.784-35.344 10.606z"/><path fill="#388293" d="M433.994 348.982c-.004.164.006.346-.276.796-.464.27-.636.274-.808.276-12.89.247-25.782.684-38.673.685-11.506.001-23.013-.479-34.9-.82-.383-.074-.389-.307.074-.555 25.188-.281 49.915-.314 74.64-.346 0 0-.042-.018-.057-.036z"/><path fill="#143E4A" d="M433.726 348.75c-24.4.3-49.127.333-74.311.498.658-.314 1.772-1.148 2.89-1.151 22.887-.07 45.775-.052 68.663-.024.811 0 1.622.267 2.758.677zM256 348.972s.05-.415.073-.623c24-.245 47.976-.282 72.417-.307.465.012.476.44.003.674-24.48.24-48.487.248-72.493.256z"/><path fill="#164451" d="M574.147 262.259c21.58-.296 43.48-.294 65.89-.29-.884.404-2.276 1.148-3.67 1.152-19.66.057-39.321.021-58.982-.03-.973-.002-1.946-.348-3.238-.832zM116.713 352.967c-.107 20.402-.213 40.804-.493 61.566-.154-19.967-.134-40.294.07-61.09.183-.471.423-.476.423-.476zM464.92 350c-.994 1.317-1.988 2.635-3.272 4.112-1.51-4.2-.103-5.643 4.606-5.526 12.039.299 24.092.013 36.443.214-1.712.603-3.727.953-6.612 1.24-10.968-.056-21.066-.048-31.165-.04z"/><path fill="#1B4D5B" d="M780.999 485.232c-10.506.314-20.454-2.51-29.801-8.338 9.764 2.462 19.665 5.263 29.8 8.338z"/><path fill="#326D7B" d="M161.304 502.878c2.478 3.172 5.15 6.608 7.4 10.302 1.94 3.187 3.397 6.668 5.203 10.618.123.784.111.968.093 1.414-.007.438-.008.613-.009.788-2.122-3.282-4.435-6.459-6.317-9.873-2.308-4.187-4.255-8.573-6.37-13.249z"/><path fill="#143E4A" d="M174.46 526.027c-.468-.202-.467-.377.008-.81 17.798-.357 35.122-.456 52.446-.555-1.77.518-3.538 1.477-5.31 1.484-15.557.066-31.116-.039-47.144-.12z"/><path fill="#164451" d="M882.22 616.903s.437.007.65.058c-.641 1.084-1.489 3.011-2.351 3.018-14.933.112-29.868-.008-44.802-.112-.22-.001-.437-.434-.206-.865 14.58-.14 28.713-.027 42.845-.113 1.292-.008 2.576-1.293 3.863-1.986z"/><path fill="#4F9BA8" d="M226.92 524.557c-17.33.204-34.654.303-52.446.397-.456-.188-.444-.372-.439-.832 17.35-.208 34.707-.14 52.522.033.458.104.37.296.364.402z"/><path fill="#215867" d="M470.367 653.062c-2.996-7.089-5.717-14.161-8.441-21.843-.003-.61-.044-1.1.106-1.233.151-.131.448-.4.448-.4 3.104 7.275 6.23 14.542 9.245 21.854.14.34-.7 1.084-1.358 1.622z"/><path fill="#1B4D5B" d="M879.954 496.35c-8.3-.57-16.852-1.415-25.627-2.614 8.31.544 16.843 1.442 25.627 2.615z"/><path fill="#4492A3" d="M882.156 616.532c-1.224 1.064-2.508 2.35-3.8 2.357-14.132.086-28.264-.028-42.849-.207-.452-.119-.455-.383-.486-.512 12.905-.142 25.842-.148 38.778-.173 2.92-.006 6.116.749 7.923-2.634.094.103.221.191.275.312.064.148.067.323.16.857z"/><path fill="#215867" d="M435.336 606.534c-6.17-1.6-12.396-3.564-19.279-5.762-1.42-.417-2.184-.6-2.948-.783-1.174-.141-2.35-.282-3.834-.596 9.292-.998 18.303.414 26.061 7.141z"/><path fill="#143E4A" d="M227.754 404.774c-.646-1.058-1.16-2.586-1.358-4.778.403-10.775.49-20.887.578-30.998 0 0 .289-.23.473-.245.268 11.84.353 23.696.307 36.021z"/><path fill="#215867" d="M471.993 673.696c-.467-5.67-.702-11.693-1-18.176.612.558 1.87 1.58 1.865 2.594-.03 5.078-.39 10.154-.865 15.582zM400.072 600.881c-4.108 1.023-8.215 2.045-12.733 3.035a304.766 304.766 0 0 1 17.471-4.811c-.145.614-.737 1.124-1.819 1.502-1.3.002-2.11.138-2.919.274z"/><path fill="#1B4D5B" d="M799.005 487.168a147.798 147.798 0 0 1-15.633-1.577c4.972.21 10.178.758 15.633 1.577z"/><path fill="#164451" d="M524.962 525.84c4.27-.359 8.834-.488 13.868-.48-4.212.33-8.894.52-13.868.48zM468.968 525.817c4.282-.33 8.853-.426 13.892-.364-4.222.305-8.913.451-13.892.364z"/><path fill="#215867" d="M463.86 696.451c1.792-5.227 3.94-10.396 6.424-15.717a158.722 158.722 0 0 1-6.424 15.717zM379.045 719.413a128.579 128.579 0 0 1 13.769 5.597c-4.492-1.51-9.077-3.389-13.769-5.597z"/><path fill="#143E4A" d="M227.766 432.774c-.33-4.509-.528-9.484-.43-14.586.385 4.621.473 9.371.43 14.586z"/><path fill="#1B4D5B" d="M826.586 367.39c-.57.241-.898.323-1.485.446-1.525-3.38-2.792-6.802-3.982-10.6a83.15 83.15 0 0 1 5.467 10.155z"/><path fill="#143E4A" d="M227.752 452.803c-.888-.045-2.22-.48-2.3-1.083-.375-2.798-.509-5.645-.46-8.47.01-.527 1.249-1.033 2.27-1.544.44 3.547.532 7.088.49 11.097zM227.774 479.774c-.934-3.415-1.762-7.293-2.47-11.193-.03-.166 1.05-.533 1.995-.816.456 3.842.53 7.692.475 12.01z"/><path fill="#215867" d="M448.357 714c2.437-2.628 5.233-5.255 8.385-7.86-2.439 2.634-5.233 5.248-8.385 7.86zM454.795 622.81c-1.888-2.005-3.777-4.01-5.81-6.338 4.03-.298 5.987 2.219 6.866 6.308-.014.376-.335.423-.596.324a1.496 1.496 0 0 1-.46-.294z"/><path fill="#164451" d="M485.896 525.851c3.348-.32 6.928-.428 10.974-.373-3.27.303-7.006.444-10.974.373z"/><path fill="#215867" d="M395.028 725.906c3.2.151 6.63.561 10.228 1.338-3.22-.115-6.61-.598-10.228-1.338zM353.32 635.957c-.485 2.76-1.299 5.617-2.316 8.799-.203.325-.503.4-.788.3-.286-.102-.554-.363-.554-.363 1.11-2.88 2.22-5.76 3.659-8.736z"/><path fill="#326D7B" d="M119.858 422.876c3.782.973 3.222 4.865 4.603 7.94-1.566-2.29-3.074-4.946-4.603-7.94z"/><path fill="#215867" d="M444.095 611.405c-2.727-1.073-5.472-2.497-8.362-4.21a58.684 58.684 0 0 1 8.362 4.21z"/><path fill="#1B4D5B" d="M580.955 302.566c-.053.463-.438.463-.63.467.026-4.277.245-8.557.749-12.963.168 3.928.051 7.98-.119 12.496z"/><path fill="#143E4A" d="M227.779 513.803c-3.492-.935-4.817-2.614-.53-5.063.475 1.524.566 3.068.53 5.063zM227.793 487.8c-.948-.218-2.288-.77-2.455-1.567-.143-.685 1.054-1.65 1.998-2.489.418 1.207.496 2.411.457 4.056z"/><path fill="#1B4D5B" d="M807 488.367c-1.757.07-3.716-.123-5.783-.625 1.788-.085 3.684.139 5.783.625z"/><path fill="#164451" d="M878.705 593.448c-.81.618-1.888 1.059-3.34 1.47-.889-2.289-.889-2.289 3.34-1.47z"/><path fill="#215867" d="M352.044 690.303c-.095-.317.397-.313.643-.303.87 1.157 1.494 2.304 2.102 3.794-.894-.829-1.772-2.002-2.745-3.491z"/><path fill="#143E4A" d="M883.765 544.928c-.655-.557-1.184-1.42-1.741-2.605 3.714-1.694 1.302 1.377 1.74 2.605zM470.772 593.664c-.787.534-1.806.874-3.243 1.055.725-.522 1.868-.886 3.243-1.055z"/><path fill="#164451" d="M870.126 593.282c-.692.374-1.55.513-2.842.602-.565-.478-.696-.905-.827-1.332 1.167.165 2.335.33 3.669.73z"/><path fill="#215867" d="M360.816 623.892c-.1.667-.395 1.156-1.008 2.03-.507.634-.676.894-.83 1.165 0 0 .007-.1-.147-.016-.154.085-.585.178-.74.03-.154-.148-.466-.443-.466-.443 1-.981 1.998-1.963 3.19-2.766zM355.801 631.97c-.29 1.072-.79 1.976-1.607 2.87.255-1.018.826-2.027 1.607-2.87z"/><path fill="#164451" d="M541.851 525.73c.755-.296 1.666-.375 3.02-.324-.658.267-1.76.404-3.02.324z"/><path fill="#143E4A" d="M432.317 525.693c.362-.695.985-1.278 1.947-1.916-.336.64-1.01 1.334-1.947 1.916z"/><path fill="#164451" d="M461.227 401.17c.303.654.484 1.743.398 2.966-.351-.755-.435-1.643-.398-2.966z"/><path fill="#215867" d="M326.002 691.998a68.005 68.005 0 0 0-1.667-.008c-.335.01-.34.007-.34.007.255-.58.508-1.162.762-1.743.403.41.806.819 1.223 1.49.014.262.02.256.022.254z"/><path fill="#143E4A" d="M227.734 411.846c-.937-.045-1.774-.506-2.61-.968.602-.377 1.206-.754 2.164-1.137.419.559.482 1.123.446 2.105z"/><path fill="#164451" d="M461.235 376.172c.304.655.487 1.744.403 2.967-.353-.755-.438-1.643-.403-2.967zM461.233 369.17c.304.654.487 1.743.402 2.965-.353-.755-.437-1.643-.402-2.965z"/><path fill="#143E4A" d="M227.787 492.799c-.283-.635-.452-1.691-.362-2.882.331.73.403 1.595.362 2.882z"/><path fill="#164451" d="M461.235 361.17c.305.655.495 1.747.415 2.974-.357-.756-.444-1.647-.415-2.974z"/><path fill="#215867" d="M470.97 678.753c-.113-.781-.002-1.852.42-3.014.142.847-.027 1.785-.42 3.014z"/><path fill="#164451" d="M461.227 417.173c.293.65.466 1.73.375 2.946-.341-.749-.418-1.632-.375-2.946z"/><path fill="#215867" d="M461.149 630.065c-.69-.844-1.38-1.687-1.995-2.852 1.077.377 2.077 1.077 3.202 2.075.124.298-.173.567-.506.675-.333.109-.701.102-.701.102zM359.882 702.509c.643.434 1.304 1.181 1.935 2.27-.66-.425-1.289-1.192-1.935-2.27z"/><path fill="#326D7B" d="M117.84 418.63c.559.457 1.118 1.178 1.478 2.176-.625-.452-1.052-1.181-1.479-2.175zM157.762 492.948c.302.854.605 1.709.734 2.883-.679-.466-1.184-1.251-1.583-2.455.105-.418.378-.673.496-.612l.353.184z"/><path fill="#143E4A" d="M227.773 462.806c-.256-.677-.396-1.781-.325-2.963.288.793.365 1.665.325 2.963z"/><path fill="#215867" d="M374.063 716.384c.814.15 1.749.592 2.756 1.364-.83-.137-1.732-.604-2.756-1.364zM384.805 604.629c-.257.597-.662 1-1.406 1.394.192-.536.725-1.062 1.406-1.394zM458.49 705.006c.162-.828.61-1.766 1.404-2.663-.142.878-.631 1.716-1.404 2.663z"/><path fill="#164451" d="M883.02 594.67c-.539.057-1.14-.124-1.876-.605.515-.077 1.164.146 1.876.606z"/><path fill="#215867" d="M462.811 699.041c-.173-.585-.108-1.367.24-2.312.187.597.093 1.355-.24 2.312z"/><path fill="#143E4A" d="M116.736 352.563c-.023.404-.263.409-.383.413.02-1.147.16-2.298.48-3.749.098.777.012 1.854-.097 3.336z"/><path fill="#164451" d="M461.236 450.156c.256.35.409 1.114.325 1.986-.3-.453-.363-1.013-.325-1.986z"/><path fill="#143E4A" d="M227.743 456.83c-.317-.385-.542-1.185-.446-2.041.394.504.467 1.064.446 2.04z"/><path fill="#164451" d="M461.258 458.15c.263.355.424 1.13.345 2.012-.308-.458-.377-1.025-.345-2.011z"/><path fill="#326D7B" d="M128.258 438.892c.402.347.82.995 1.254 1.958-.401-.342-.82-1-1.254-1.958z"/><path fill="#164451" d="M461.213 482.164c.261.35.422 1.111.344 1.98-.307-.452-.376-1.01-.344-1.98zM461.245 433.152c.263.355.422 1.126.34 2.006-.307-.458-.375-1.023-.34-2.006zM461.27 394.143c.259.357.415 1.134.33 2.02-.304-.461-.368-1.03-.33-2.02z"/><path fill="#143E4A" d="M358.37 394.17c.351.42.535 1.002.45 1.71-.386-.432-.501-.99-.45-1.71z"/><path fill="#164451" d="M461.248 386.151c.26.354.415 1.124.33 1.998-.306-.457-.371-1.02-.33-1.998z"/><path fill="#143E4A" d="M402.235 525.73c.41-.473 1.01-.797 1.676-.79-.452.534-.967.735-1.676.79z"/><path fill="#164451" d="M465.226 525.794c.395-.334.947-.519 1.613-.439-.41.373-.932.48-1.613.439z"/><path fill="#1B4D5B" d="M636.976 331.282c.214-.22.48-.217 1.148-.216.095.498-.211 1-.517 1.501-.193-.354-.387-.708-.631-1.285zM331.847 362.492c-.09-.41-.167-1.147-.133-2.09.122.451.135 1.107.133 2.09z"/><path fill="#143E4A" d="M227.731 519.794c-.254-.42-.389-1.115-.31-1.924.286.474.358 1.06.31 1.924z"/><path fill="#215867" d="M373.539 610.974c-.078.587-.457 1.253-1.12 2.024.085-.579.451-1.262 1.12-2.024z"/><path fill="#164451" d="M461.285 442.116c.19.083.32.554.26 1.093-.233-.19-.277-.448-.26-1.093z"/><path fill="#143E4A" d="M227.668 436.883c-.192-.087-.316-.554-.248-1.083.234.192.274.447.248 1.083z"/><path fill="#164451" d="M461.315 426.106c.193.085.323.567.26 1.12-.237-.193-.28-.458-.26-1.12z"/><path fill="#143E4A" d="M227.726 414.749c-.295-.015-.52-.203-.673-.437-.04-.06.144-.267.4-.482.369.161.434.43.273.919z"/><path fill="#164451" d="M461.291 409.114c.19.084.32.556.26 1.097-.235-.19-.278-.45-.26-1.097z"/><path fill="#215867" d="M330.99 706.051c.38-.22.766-.487 1.11-.42-.042.334-.321.615-.321.615s-.45-.08-.661-.168c-.212-.088-.12-.072-.128-.027z"/><path fill="#164451" d="M461.29 366.112c.19.085.313.557.246 1.094-.231-.192-.272-.45-.246-1.094z"/><path d="M179.003 594.971c.212-.512.68-.786 1.147-1.06.02.459.04.918-.16 1.576-.392.04-.562-.119-.987-.516z"/><path fill="#164451" d="M461.28 513.114c.19.084.315.555.251 1.092-.23-.19-.272-.448-.25-1.092z"/><path fill="#326D7B" d="M156.738 490.947c.033.217.066.434.253 1.084.153.434.3.672.3.672l-.41.383c-.453-.338-.77-.803-1.177-1.538-.089-.27.26-.565.54-.649a.644.644 0 0 1 .494.048z"/><path fill="#164451" d="M461.28 490.115c.188.084.313.553.25 1.09-.23-.19-.272-.447-.25-1.09zM461.29 473.112c.192.086.318.56.251 1.103-.233-.193-.274-.453-.25-1.103z"/><path fill="#215867" d="M306.044 724.015c.032.012-.348-.151-.348-.151s.315-.027.324.089c.01.116-.007.05.024.062zM378.062 718.49c.17-.092.479-.028.827.296-.235.186-.478.053-.827-.295zM452.974 741.954c-.13-.11-.228-.25-.327-.389.094.014.187.027.29.17.01.128.067.19.037.22z"/><path fill="#143E4A" d="M226.91 505.706c-.269.064-.493-.075-.718-.214.083-.124.166-.247.465-.384.216-.014.295.394.252.598z"/><path fill="#326D7B" d="M124.951 431.516c.26-.284.482-.21.534.277-.267.12-.4.01-.534-.277z"/><path fill="#215867" d="M350.064 645.086c-.096.039-.326-.054-.478-.27.076-.123.344.138.478.27zM357.604 627.873c-.343-.362-.372-.635-.08-1.082.101-.133.413.162.52.474.107.312-.045.62-.045.62s-.3.117-.395-.012zM456.78 623.915c-.146.035-.442-.117-.834-.51.196-.096.455.091.833.51zM362.93 622.27c.018.148-.163.431-.596.773-.073-.208.144-.44.596-.774zM363.681 621.148c.056.127.01.452-.287.876-.14-.178.007-.437.287-.876z"/><path fill="#1B4D5B" d="M882.509 496.53c-.055.03.054-.03 0 0z"/><path fill="#143E4A" d="M359.309 417.265c.176-.077.387.069.556.253.028.03-.122.226-.38.4-.191.054-.156-.418-.176-.653z"/><path fill="#215867" d="M369.983 615.314c.02.137-.156.417-.564.8-.082-.19.118-.443.564-.8zM446.799 613.893c-.172.02-.454-.175-.762-.633.237-.075.463.153.762.633zM371.94 613.266c.024.14-.137.432-.54.812-.082-.192.117-.441.54-.812z"/><path fill="#143E4A" d="M227.47 520.506a2.896 2.896 0 0 0-.236.077s.088-.162.176-.088c.088.073.028.03.06.011z"/><path fill="#215867" d="M380.795 607.12c.017.175-.14.48-.572.738-.034-.215.19-.402.572-.739z"/><path fill="#164451" d="M461.706 522.347c.261-.048.456.054.65.156-.076.093-.152.185-.409.287-.18.01-.308-.292-.24-.443zM883.48 603.552c-.042.048-.46.052-.46.052s.117-.308.27-.254c.154.054.234.155.19.202z"/><path fill="#143E4A" d="M358.432 522.937c.195.065.26.295.315.885-.154 0-.3-.36-.315-.885zM419.27 524.757c.048-.132.326-.262.647-.19.044.2-.417.19-.647.19z"/><path fill="#164451" d="M462.004 525.12c-.017.079-.3.358-.3.358s-.07-.41.044-.443c.114-.034.273.004.256.084z"/><path fill="#143E4A" d="M478.627 593.613c-.046.185-.216.295-.38.236.004-.17.256-.311.38-.236z"/><path fill="#215867" d="M320.887 700.071c.13-.102.121.392.106.639-.374.062-.448-.199-.106-.639zM372.076 714.432c.162-.083.474-.008.847.323-.23.185-.483.046-.847-.323zM332.198 705.825c.038.112-.065.364-.293.518-.126-.097.153-.378.293-.518zM461.732 700.03c-.152.068-.318-.36-.318-.36s.307-.343.535-.313c.222.269.124.46-.217.674zM358.004 699.337c.202-.042.484.102.708.499-.292.11-.483-.08-.708-.499zM354.92 694.382c.335-.228.57-.075.594.492-.317.107-.478-.068-.594-.492zM324.001 692.001c.002.002-.151.243-.151.243s-.004-.202.071-.224c.075-.023.079-.02.08-.019zM155.13 690.897c.084-.081.229.28.229.28s-.33.095-.406.031c-.076-.064.092-.229.176-.31z"/><path fill="#143E4A" d="M359.294 409.265c.183-.075.394.072.564.257.028.03-.125.226-.388.397-.194.051-.162-.419-.176-.654z"/><path fill="#3A8697" d="M690.547 530.81c-.052-.417-.104-.835-.023-1.845 3.216-10.514 5.331-12.085 15.843-12.109 7.153-.016 14.327.38 21.455-.04 8.715-.516 13.839 5.538 13.786 12.249-.05 6.285-4.914 9.918-13.485 9.954-6.82.028-13.662-.337-20.456.086-7.453.464-13.482-1.249-17.12-8.295z"/><path fill="#215867" d="M690.402 531.18c3.783 6.676 9.812 8.39 17.265 7.925 6.794-.423 13.636-.058 20.456-.086 8.57-.036 13.436-3.669 13.485-9.954.053-6.71-5.071-12.765-13.786-12.25-7.128.422-14.302.025-21.455.041-10.512.024-12.627 1.595-15.898 11.798-1.5-6.33 1.652-11.634 8.14-13.642 1.773-.55 3.592-.954 5.918-.932 8.213.539 15.897.584 23.58.63 7.74-.14 12.798 2.59 14.854 8.013 2.03 5.353.746 12.664-3.944 15.687-3.223 2.077-7.553 3.222-11.431 3.337-8.614.254-17.253-.498-25.886-.655-6.625-.12-10.761-3.432-11.298-9.913z"/><path fill="#255E6E" d="M734.502 349.966c5.132-.35 10.727-.853 16.328-.927 5.125-.068 10.257.329 15.752.701-10.294.206-20.954.233-32.08.226z"/><path fill="#4F9BA8" d="M728.048 514.363c-7.624.301-15.308.256-23.278-.027 7.549-.265 15.383-.293 23.278.027z"/><path fill="#255E6E" d="M770.503 349.962c7.261-.157 14.987-.28 23.08-.222-7.295.205-14.955.23-23.08.222zM686.45 349.957c2.659-.153 5.727-.272 9.143-.219-2.679.199-5.707.226-9.143.219zM797.5 349.952c2.946-.153 6.344-.272 10.095-.212-2.979.201-6.31.224-10.094.212zM676.13 350.42c1.881-.454 4.024-.65 6.493-.673-1.86.425-4.046.678-6.493.673zM702.502 349.935a96.796 96.796 0 0 1 8.101-.192c-2.326.19-4.992.209-8.101.192zM723.834 350.48c.92-.433 1.884-.543 3.112-.485-.735.964-1.111 4.995-3.112.485zM714.393 349.966c1.42-.166 3.18-.274 5.246-.219-1.432.201-3.168.24-5.246.22zM683.794 350.39c.184-.32.445-.337 1.099-.328.152.545-.087 1.066-.326 1.586a7.644 7.644 0 0 1-.773-1.258zM730.264 349.95c-.004-.118.232-.14.588-.055.116.035-.353.075-.588.054zM673.899 350.86c.228.054.222.232.227.28.006.05-.47-.02-.687-.111-.217-.09.232-.223.46-.169zM696.927 350.24c.087-.193.328-.2.932-.197-.018.133-.398.258-.932.197zM699.936 350.236c.087-.192.326-.197.922-.195-.018.133-.395.257-.922.195zM711.919 350.245c.089-.196.334-.203.947-.2-.018.136-.405.263-.947.2zM720.924 350.242c.089-.195.33-.202.937-.199-.018.135-.4.261-.937.199zM727.926 350.242c.09-.194.336-.2.951-.196-.019.135-.407.26-.951.196zM731.9 350.256c.092-.203.346-.211.982-.207-.019.142-.419.272-.981.207zM767.91 350.251c.09-.2.342-.207.969-.203-.019.14-.414.268-.97.203zM794.913 350.248c.09-.198.338-.205.958-.202-.018.138-.409.266-.958.202z"/><path fill="#4F9BA8" d="M465.154 350.36c9.865-.368 19.963-.376 30.53-.276-.485.64-1.45 1.654-2.39 1.63-9.305-.232-18.605-.637-28.14-1.353zM226.638 369.11c.249 10 .161 20.11-.23 30.506a123.307 123.307 0 0 1-1.206-13.201c-.171-4.68-.163-9.37-.062-14.053.023-1.054.756-2.094 1.498-3.252z"/><path fill="#3A8697" d="M156.773 490.71c-.035.237-.25.105-.357.04-.107-.065-.259-.312-.349-.426.266-.273.542-.185.706.387zM157.409 492.764c-.118-.061-.265-.3-.351-.41.269-.312.553-.24.735.352-.031.242-.267.12-.384.058z"/><path fill="#143E4A" d="M225.651 416.367c.028.24-.08.401-.175.394-.094-.008-.25-.19-.242-.285.009-.095.184-.175.417-.109z"/><path fill="#4F9BA8" d="M432.945 350.517c.137-.465.309-.468.738-.468.27 52.35.28 104.697.298 157.045.001 2.325.062 4.65.116 7.442-.349-1.122-1.039-2.712-1.04-4.302-.067-53.084-.067-106.17-.112-159.717z"/><path fill="#388293" d="M779.164 692.323c-5.343 2.64-10.257 6.51-15.54 7.106-11.78 1.328-23.19.37-32.76-8.954-7.949-7.746-10.395-16.355-10.717-27.104-.293-9.762 2.775-17.794 8.717-24.423 5.575-6.22 12.802-10.115 21.972-10.926 10.524-.931 19.773 1.03 28.121 7.044 7.938 5.718 11.742 13.935 12.783 23.58.823 7.622 1.048 15.235-3.14 21.966-2.565 4.124-6.084 7.656-9.436 11.71m-12.981-21.02c.563-1.31 1.65-2.647 1.589-3.928-.166-3.471-.628-6.965-1.425-10.343-.18-.766-2.726-.775-3.28-1.683-3.601-5.896-12.99-6.003-16.848-.048-3.79 5.849-3.704 14.5.747 17.584 7.168 4.968 10.466 6.499 19.217-1.582zM236.669 628.343c7.796-1.508 14.882-.21 21.3 3.216 12.025 6.418 17.414 17.29 18.978 30.418 1.758 14.766-11.4 33.427-26.334 36.93-14.258 3.344-27.644 1.265-37.814-9.79-12.91-14.033-13.496-32.162-3.053-46.866 5.96-8.39 14.489-15.319 26.923-13.908m11.754 44.634c4.783-3.594 5.072-8.319 3.36-13.516-2.058-6.239-8.786-9.925-14.673-8.075-8.167 2.567-10.838 7.216-8.542 14.869 3.391 11.3 10.159 13.845 19.855 6.722zM442.296 679.216c-6.998 13.392-17.471 20.644-32.452 20.8-18.86.197-32.554-11.216-36.374-28.812-2.263-10.427-.474-21.192 7.068-30.392 5.109-6.232 11.332-10.623 18.644-12.205 19.613-4.242 38.943 2.747 45.655 26.582 2.317 8.227 1.153 16.086-2.541 24.027m-37.51-27.25c-4.862 1.503-6.418 5.852-7.822 9.897-2.148 6.187 6.53 16.3 12.747 15.275 8.258-1.361 12.538-7.476 11.233-16.051-1.183-7.78-7.747-11.728-16.158-9.12z"/><path fill="#3A8697" d="M400.423 600.931c.459-.186 1.269-.322 2.27-.273-.513.23-1.216.277-2.27.273zM413.18 600.321c.693-.15 1.457.034 2.467.379-.634.092-1.515.023-2.467-.379zM461.152 630.319c-.003-.254.365-.247.548-.224.182.023.223.514.257.758-.245.069-.523-.106-.805-.534zM358.257 627.857c-.258.028-.106-.28-.058-.444.047-.164.478-.257.682-.339.014.197-.176.477-.624.783zM359.235 627.027c-.103-.211.066-.471.454-.838.068.18-.064.48-.454.838z"/><path fill="#215867" d="M455.093 623.104c-.128.309-.355.52-.583.73-.042-.258-.083-.514.08-.897.205-.127.405.069.503.167z"/><path d="M329.983 350.168c-.334 4.599-.987 9.201-.937 13.795.114 10.278.828 20.552.855 30.828.104 39.83.036 79.66.03 119.489-.001 10.097-.005 9.994-10.424 10.114-18.436.213-36.87.57-55.306.856-2.476.038-4.953.005-7.778.005-.172-3.419-.446-6.352-.45-9.285-.037-32.622-.032-65.244-.038-97.867-.004-19.319-.02-38.638.007-57.958.005-3.12.203-6.24.587-9.743 1.726-.29 3.175-.11 4.625-.112 22.943-.027 45.886-.077 68.83-.122z"/><path fill="#388293" d="M329.808 349.96c-22.768.253-45.71.303-68.654.33-1.45.002-2.9-.177-4.742-.228-.397-.144-.4-.333-.408-.806 24.002-.292 48.009-.3 72.48-.326.693.262.92.542 1.324 1.03z"/><path d="M765.911 671.585c-8.479 7.798-11.777 6.267-18.945 1.3-4.45-3.084-4.537-11.736-.747-17.585 3.859-5.955 13.247-5.848 16.847.048.555.908 3.1.917 3.281 1.683.797 3.378 1.26 6.872 1.425 10.343.061 1.281-1.026 2.617-1.86 4.211z"/><path fill="#000101" d="M248.16 673.251c-9.433 6.85-16.201 4.304-19.592-6.996-2.296-7.653.375-12.302 8.542-14.869 5.887-1.85 12.615 1.836 14.672 8.075 1.713 5.197 1.424 9.922-3.622 13.79z"/><path d="M405.189 651.908c8.008-2.55 14.572 1.4 15.755 9.179 1.305 8.575-2.975 14.69-11.233 16.05-6.217 1.025-14.895-9.087-12.747-15.274 1.404-4.045 2.96-8.394 8.225-9.955z"/></svg>