<svg xmlns="http://www.w3.org/2000/svg" xml:space="preserve" viewBox="0 0 1024 1024"><path d="M685 1025H1V1h1024v1024H685M426.105 776.478c.284.113.568.226 1.517.666 2.417.928 4.805 1.937 7.254 2.769 11.891 4.035 23.766 8.127 35.73 11.936 2.313.736 5 .299 8.297.525.79-.003 1.582-.007 2.459.838 5.22.303 10.44.605 16.396 1.023.992-.022 1.984-.045 3.3.718.495.35.986 1.002 1.485 1.008 7.09.085 14.183.144 21.271.016.803-.015 1.585-1.208 3.13-1.749 1.011-.033 2.022-.066 3.765.211 4.919-.712 9.838-1.425 15.245-2.049.333.026.661-.006 1.657.253 9.728-2.57 19.457-5.14 29.782-8.036.886.1 1.772.202 3.28.303 3.312-1.925 6.623-3.85 10.678-5.4.492-.44.984-.879 2.096-1.127a617.88 617.88 0 0 1 3.792-1.848c.664-.44 1.329-.882 2.578-.905 1.52-.967 3.039-1.934 4.77-3.116 0 0 .208-.217.88-.166 1.067-.72 2.134-1.441 3.905-1.921 1.203-.626 2.406-1.251 4.05-1.72.363-.174.447-.436.892-.97.221-.014.443-.027 1.173.1.106-.297.212-.593.866-1.213.514-.352 1.028-.703 2.143-.832.991-.671 1.982-1.343 3.137-2.061 0 0 .08-.152.478-.416.257-.21.552-.317.904.377.33.758.66 1.517 1.01 2.938.377.392.754.785 1.427 1.698.076.185.152.37-.121 1.187.94 1.715 1.882 3.43 3.095 5.795.045.23.089.461-.046 1.082l.299.31s.423-.076.656.06c0 0 .27.024.234.64.39.437.78.874 1.013 1.978.424.563.848 1.126 1.366 2.369a156.16 156.16 0 0 0 2.385 3.038s.218.02.16.705a24.04 24.04 0 0 1 2.135 2.22c2.952 3.1 5.904 6.2 8.664 9.703l.33.302s.388-.22.74.385c1.033.784 2.066 1.568 3.454 2.886.785.158 1.57.316 2.678 1.033.35.25.7.499.868 1.416 1.603.646 3.206 1.292 5.067 2.685.978.365 1.956.731 2.9 1.852 2.224.946 4.448 1.892 7.01 3.104 0 0 .422.073.823.569.947.413 1.893.826 3.116 1.495 0 0 .372.067.807.584 2.64 1.106 5.281 2.212 8.48 3.528.728.302 1.455.604 2.61 1.426 1.964.87 3.93 1.741 6.122 2.81 0 0 .225.201.02.937 6.762 3.348 13.516 6.712 20.32 9.975.239.114.962-.78 2.105-.935.194.128.388.257.73 1.058 5.177 2.109 10.354 4.218 15.81 6.596 0 0 .377.09.678.732a772.18 772.18 0 0 1 6.761 2.848c.661.168 1.322.335 2.358 1.006 2.734.51 5.252 4.377 8.812.584.362-.045.724-.09 1.55.167.982-.582 1.963-1.164 3.167-1.923 0 0 .182-.219.908-.09.623-.773 1.246-1.545 2.544-2.016.768-1.306 1.422-2.698 2.321-3.906 6.382-8.573-1.764-21.04-9.52-24.072-8.095-3.164-16.255-6.211-24.157-9.814-9.972-4.546-19.7-9.625-29.556-14.426-4.297-2.093-8.491-4.582-13.013-5.987-10.054-3.126-17.197-9.938-23.51-17.75-2.223-2.75-3.518-6.353-4.778-9.738-.65-1.746-.546-3.895-.339-5.815.468-4.334.2-9.165 2.101-12.821 2.354-4.525 6.76-7.94 9.996-12.059 5.595-7.12 11.844-13.919 16.249-21.737 8.002-14.202 15.941-28.595 19.966-44.607 2.465-9.806 4.379-19.749 6.714-29.589 1.012-4.267 2.14-7.867 7.577-9.676 6.664-2.216 13.37-5.692 18.715-10.211 13.668-11.556 19.077-27.617 19.937-44.829.68-13.623-.308-27.374-1.295-41.015-.379-5.237-2.337-10.524-4.402-15.44-3.791-9.027-10.625-15.712-18.654-21.406 2.645-1.028 4.987-1.903 7.302-2.846 7.587-3.092 14.587-7.1 19.381-13.968 2.452-3.512 4.875-7.205 6.397-11.167 2.238-5.825 4.745-11.89 5.169-17.988.61-8.783.333-17.847-1.21-26.497-1.42-7.959-5.159-15.645-12.468-20.182-3.72-2.31-8.44-2.956-12.516-4.78-1.47-.658-2.93-2.386-3.428-3.935-.923-2.874-1.02-6-1.665-8.978-1.58-7.285-3.614-14.488-4.86-21.827-2.652-15.603-9.17-29.852-15.31-44.184-3.057-7.136-7.518-13.688-11.53-20.393-8.383-14.016-18.99-26.364-29.965-38.324-5.805-6.325-12.77-11.588-19.22-17.32-2.954-2.624-5.61-5.772-8.96-7.726-8.478-4.943-17.266-9.357-25.94-13.96-12.153-6.45-24.079-13.35-37.765-16.38-2.816-.625-5.96-1.558-7.323-5.45-.885-2.528-3.91-4.32-6.015-6.403-6.477-6.41-14.537-9.985-23.494-12.618l3.188-1.373h-10.671c-17.808.008-35.617-.047-53.424.073-3.854.026-7.938-.003-11.495 1.218-4.422 1.519-8.675 3.934-12.5 6.664-3.395 2.423-6.153 5.76-9.103 8.778-2.614 2.674-4.61 6.544-7.751 7.99-7.34 3.38-15.41 5.153-22.804 8.433-10.227 4.537-20.402 9.352-30.063 14.97-14.205 8.26-27.082 18.464-38.855 29.95-5.632 5.495-10.959 11.318-16.21 17.184-4.094 4.573-8.41 9.098-11.64 14.262-4.73 7.56-8.246 15.872-12.865 23.51-10.57 17.475-16.94 36.525-21.556 56.215-2.29 9.773-3.732 19.745-5.542 29.542-13.686.978-25.846 11.781-27.286 24.802-.992 8.977-1.138 18.063-1.29 27.107-.055 3.313.642 6.734 1.55 9.95 3.004 10.65 8.107 20.054 17.643 26.291 5.713 3.737 11.702 7.053 16.541 9.945-3.951 4.18-9.228 8.208-12.443 13.49-6.51 10.693-10.195 22.746-10.22 35.28-.026 13.702.602 27.497 2.302 41.081 1.38 11.025 6.67 20.861 14.272 29.2 6.03 6.615 13.65 10.73 21.987 13.61 3.437 1.186 6.406 2.527 7.207 6.65 1.045 5.38 2.32 10.72 3.64 16.042 2.278 9.197 3.64 18.795 7.25 27.447 5.253 12.586 10.434 25.398 18.664 36.509 6.88 9.29 13.257 19.137 21.287 27.335 7.05 7.197 6.384 14.697 4.442 22.712-2.623 10.822-10.125 18.031-19.7 22.962-14 7.209-28.099 14.246-42.352 20.938-9.84 4.62-19.773 9.278-30.096 12.569-12.944 4.127-17.703 22.307-7.466 29.71 4.59 3.32 11.218 5.002 16.433 2.43 8.883-4.384 17.774-8.77 26.815-12.811 9.188-4.106 18.706-7.49 27.814-11.755 8.384-3.927 16.643-8.234 24.532-13.068 6.303-3.863 12.49-8.231 17.785-13.35 6.921-6.69 12.688-14.509 16.007-23.764.507-1.415.267-3.1 1.079-4.543.65-.632 1.3-1.264 1.92-1.839 0 0 .064.01.122.513.29.056.58.112 1.529.222.212.06.424.12.74.839.925.333 1.85.666 2.786 1.19 0 0 .151.116.245.778.914.294 1.828.587 2.91 1.613 1 .336 2 .67 3.305 1.614l1.919 2.753c.546-.394 1.075-.776 1.721-.895 0 0 .144.25-.032.695.342-.01.685-.018 1.395.178.288.306.577.612 1.18 1.52.785.338 1.569.676 2.294 1.504l.336.361s.49-.068 1.117.016c.207.04.414.082.52.626z"/><path fill="#368B93" d="M500.734 794.168c-.992.022-1.984.045-3.704-.176-5.738-.705-10.746-1.166-15.754-1.628-.791.003-1.582.007-3.006-.289-6.552-1.769-12.59-2.88-18.364-4.786-10.965-3.619-21.78-7.693-32.857-11.783-.711-.441-1.224-.678-1.994-1.142-1.348-.484-2.44-.739-3.532-.994-.288-.307-.577-.613-1.25-1.15-.385-.232-.834-.391-.834-.391s-.144-.25-.362-.583c-1.387-.933-2.556-1.533-3.726-2.134-1-.335-2.001-.67-3.259-1.59-1.087-.953-1.916-1.322-2.746-1.69 0 0-.151-.117-.32-.452-1.019-.728-1.87-1.12-2.72-1.514-.213-.06-.425-.12-1.093-.355-.65-.357-.874-.482-1.131-.55 0 0-.063-.01-.167-.292-.799-.445-1.493-.608-2.188-.77l-.335 2.775c-.106 1.56.134 3.244-.373 4.66-3.319 9.254-9.086 17.073-16.007 23.763-5.296 5.119-11.482 9.487-17.785 13.35-7.889 4.834-16.148 9.141-24.532 13.068-9.108 4.265-18.626 7.65-27.814 11.755-9.041 4.04-17.932 8.427-26.815 12.81-5.215 2.573-11.843.891-16.433-2.429-10.237-7.403-5.478-25.583 7.466-29.71 10.323-3.291 20.257-7.95 30.096-12.57 14.253-6.69 28.351-13.728 42.351-20.937 9.576-4.93 17.078-12.14 19.701-22.962 1.942-8.015 2.608-15.515-4.442-22.712-8.03-8.198-14.406-18.046-21.287-27.335-8.23-11.11-13.41-23.923-18.664-36.51-3.61-8.651-4.972-18.249-7.25-27.446-1.32-5.322-2.595-10.661-3.64-16.041-.801-4.124-3.77-5.465-7.207-6.652-8.336-2.878-15.957-6.994-21.987-13.609-7.602-8.339-12.892-18.175-14.272-29.2-1.7-13.584-2.328-27.379-2.302-41.08.025-12.535 3.71-24.588 10.22-35.281 3.215-5.282 8.492-9.31 12.443-13.49-4.84-2.892-10.828-6.208-16.54-9.945-9.537-6.237-14.64-15.64-17.645-26.292-.907-3.215-1.604-6.636-1.548-9.95.151-9.043.297-18.13 1.29-27.106 1.439-13.02 13.599-23.824 27.285-24.802 1.81-9.797 3.251-19.77 5.542-29.542 4.615-19.69 10.987-38.74 21.556-56.216 4.62-7.637 8.136-15.948 12.865-23.509 3.23-5.164 7.546-9.689 11.64-14.262 5.251-5.866 10.578-11.689 16.21-17.183 11.773-11.487 24.65-21.69 38.855-29.951 9.661-5.618 19.836-10.433 30.063-14.97 7.394-3.28 15.464-5.054 22.804-8.432 3.141-1.447 5.137-5.317 7.75-7.99 2.951-3.02 5.709-6.356 9.104-8.779 3.825-2.73 8.078-5.145 12.5-6.664 3.557-1.221 7.641-1.192 11.495-1.218 17.807-.12 35.616-.065 53.424-.073h10.67l-3.187 1.373c8.957 2.633 17.017 6.208 23.494 12.618 2.104 2.083 5.13 3.875 6.015 6.402 1.363 3.893 4.507 4.826 7.323 5.45 13.686 3.03 25.612 9.931 37.765 16.38 8.674 4.604 17.462 9.018 25.94 13.961 3.35 1.954 6.006 5.102 8.96 7.726 6.45 5.732 13.415 10.995 19.22 17.32 10.975 11.96 21.582 24.308 29.966 38.324 4.01 6.705 8.472 13.257 11.529 20.393 6.14 14.332 12.658 28.58 15.31 44.184 1.246 7.339 3.28 14.542 4.86 21.827.646 2.977.742 6.104 1.665 8.978.497 1.55 1.959 3.277 3.428 3.934 4.077 1.825 8.795 2.47 12.516 4.78 7.309 4.538 11.048 12.224 12.468 20.183 1.543 8.65 1.82 17.714 1.21 26.497-.424 6.099-2.931 12.163-5.17 17.988-1.521 3.962-3.944 7.655-6.396 11.167-4.794 6.868-11.794 10.876-19.381 13.968-2.315.943-4.657 1.818-7.302 2.846 8.03 5.694 14.863 12.379 18.654 21.405 2.065 4.917 4.023 10.204 4.402 15.441.987 13.641 1.975 27.392 1.295 41.015-.86 17.212-6.27 33.273-19.937 44.829-5.345 4.52-12.051 7.995-18.715 10.211-5.438 1.81-6.565 5.409-7.577 9.676-2.335 9.84-4.249 19.783-6.714 29.589-4.025 16.012-11.964 30.405-19.966 44.607-4.405 7.818-10.654 14.618-16.249 21.737-3.235 4.118-7.642 7.534-9.996 12.059-1.901 3.656-1.633 8.487-2.1 12.821-.208 1.92-.311 4.069.338 5.815 1.26 3.385 2.555 6.988 4.778 9.739 6.313 7.81 13.456 14.623 23.51 17.749 4.522 1.405 8.716 3.894 13.013 5.987 9.856 4.8 19.584 9.88 29.556 14.426 7.902 3.603 16.062 6.65 24.158 9.814 7.755 3.032 15.901 15.5 9.52 24.072-.9 1.208-1.554 2.6-2.86 3.797-1.269.593-2 1.294-2.732 1.996 0 0-.182.219-.61.328-1.353.577-2.277 1.044-3.202 1.51-.363.046-.725.092-1.8.038-3.3-.396-5.887-.692-8.474-.988a9.668 9.668 0 0 1-2.452-.928c-2.51-1.305-4.551-2.185-6.593-3.064 0 0-.377-.091-.708-.502-5.429-2.56-10.528-4.709-15.626-6.858a18.713 18.713 0 0 1-1.078-.774c-7.571-3.388-14.648-6.387-21.725-9.387 0 0-.225-.201-.529-.541-2.284-1.224-4.265-2.107-6.246-2.99-.727-.302-1.454-.604-2.673-1.286-3.135-1.474-5.78-2.57-8.424-3.665 0 0-.372-.067-.686-.461-1.278-.795-2.24-1.196-3.203-1.597 0 0-.422-.073-.766-.466-2.44-1.417-4.536-2.441-6.633-3.466-.977-.366-1.955-.732-3.248-1.709-1.733-1.32-3.152-2.03-4.57-2.74-.35-.25-.7-.5-1.401-1.275-1.129-.698-1.906-.869-2.682-1.04-1.033-.785-2.066-1.569-3.323-2.769-.332-.562-.475-.648-.654-.674-2.952-3.1-5.904-6.2-9.107-9.843a21.791 21.791 0 0 0-1.826-2.362s-.218-.02-.331-.415c-.864-1.371-1.615-2.347-2.366-3.322-.424-.564-.848-1.127-1.177-2.221-.294-1.042-.683-1.552-1.072-2.063 0 0-.27-.023-.434-.229-.267-.381-.416-.498-.611-.555-.045-.23-.09-.461-.276-1.352-.963-2.362-1.783-4.065-2.603-5.768-.077-.185-.153-.37-.237-1.075a43.537 43.537 0 0 0-1.425-5.196c-.872.18-1.589.574-2.306.968 0 0-.08.152-.472.017-1.376.568-2.361 1.27-3.346 1.974-.514.351-1.028.702-1.976 1.314-.635.415-.804.6-.94.814-.222.012-.444.025-1.13.199-.65.283-.785.447-.868.653-1.203.626-2.406 1.251-4.21 1.75-1.725.58-2.85 1.289-3.976 1.997 0 0-.209.217-.603.36a192.241 192.241 0 0 0-4.96 2.556c-.664.44-1.329.881-2.605 1.45a50.472 50.472 0 0 0-3.8 1.53c-.492.438-.984.877-2.142 1.123-3.988 1.736-7.31 3.665-10.634 5.594-.886-.101-1.772-.202-3.36-.176a6351.906 6351.906 0 0 0-29.754 7.56c-.322.09-.65.122-1.687-.041-5.56.534-10.417 1.205-15.273 1.876-1.011.033-2.022.066-3.885-.038-9.02-.066-17.19.005-25.358.077m-133.14-515.944c-.26.191-.47.427-.906 1.247-.815.568-1.63 1.136-3.062 1.978a87.107 87.107 0 0 0-1.999 3.925c-.37.15-.738.301-1.398.666-.181.174-.306.382-.614.652 0 0-.236.048-.737.443-.261.988-.522 1.975-1.183 3.539-9.43 12.748-18.449 25.747-24.708 40.35 0 0 .047-.055-.54.448-2.364 7.332-4.728 14.664-7.292 22.213l-.192.058c.14-.086.278-.172-.174.235-.48 2.518-.961 5.036-1.438 7.702l-.188-.093s.246-.006-.349.689a8011.704 8011.704 0 0 0-4.467 23.388l-.186-.093s.246-.013-.438.692c.097 2.23.194 4.46.313 7.121 0 0-.009.434-.411.703-.101.126-.307.34-.287.365.204.243.444.455 1.138 1.265 2.555.431 5.11 1.235 7.665 1.238 59.83.07 119.66.052 179.49.05 61.663 0 123.326.02 184.989-.082 2.456-.004 4.911-1.18 8.118-1.945.759.041 1.517.083 2.65.672 1.867-.19 3.733-.38 5.942-.793-.783-.33-1.567-.66-2.35-1.342 0 0 0-.352.826-.507.77-.96 2.33-2.06 2.188-2.858-1.648-9.229-3.554-18.412-5.217-27.647l-.01.185s-.125-.176-.563-.685c-.383-1.047-.824-2.076-1.138-3.143-2.602-8.835-4.483-17.963-7.965-26.433-3.427-8.338-8.096-16.246-12.895-23.92-6.903-11.038-13.858-22.102-23.879-30.804-2.37-2.058-3.794-5.171-6.028-7.427-2.14-2.16-4.793-3.806-7.175-5.734-4.442-3.597-8.599-7.612-13.33-10.77-7.943-5.303-16.117-10.294-24.434-14.992-6.257-3.534-12.828-6.545-19.411-9.445-1.294-.57-3.28.433-5.084.362-.133.8-.265 1.6-.5 2.995.026.4.051.8-.13 2.131-.045 18.62-.133 37.24-.12 55.858.01 13.461.155 26.922.203 41.082-.741 2.098-.985 4.608-2.316 6.22-4.27 5.17-10.102 6.375-16.713 5.188l-.014-.1s.19.313-.41-.254c-3.625-.692-9.344-7.64-9.332-11.167.117-36.81.269-73.62.203-110.43-.006-3.59-.407-7.89-2.357-10.624-4.783-6.704-12.193-9.874-20.269-10.198-11.142-.448-22.402-.958-33.457.131-14.373 1.417-21.053 5.635-21.126 21.322-.167 36.142.21 72.285.297 108.428.003 1.19-.752 2.381-1.69 3.883-.259.729-.517 1.457-1.187 2.785-.184.678-.368 1.356-1.078 1.67-1.042.588-2.083 1.175-3.248 1.922 0 0-.1.175-.785.315-1.95.794-3.898 1.588-6.59 2.406-.743-.021-1.486-.042-2.8-.496-2.852-1.234-5.703-2.468-8.929-4.115-.529-.517-1.058-1.034-1.619-2.28-.557-1.843-1.114-3.687-1.355-6.261.16-1.48.459-2.961.46-4.442.026-30.769.036-61.537-.024-92.306-.003-1.774-.616-3.547-1.326-5.831-4.412-1.953-7.488 1.028-11.348 3.118-.15.09-.3.182-.824.385-.25.104-.447.27-1.154.595-.164.097-.328.194-.846.486-.228.15-.421.335-1.107.59-.162.07-.323.139-1.247.139-3.124 1.52-6.248 3.042-9.35 4.806 0 0 .009.243-.34.413-.224.14-.405.324-1.08.595-.156.09-.312.181-1.062.441-.186.089-.372.177-.99.444-.28.372-.56.745-1.494.857-1.35.687-2.699 1.373-4.077 2.22 0 0-.076.145-.684.224-.724.66-1.447 1.32-2.13 2.026 0 0-.04.046-.637.223-.185.095-.37.19-.947.402-.287.29-.574.58-1.533 1.045-.236.392-.473.783-1.195 1.067-.348.328-.696.655-1.717 1.034-.265.354-.53.709-1.386.921-.666.72-1.333 1.441-2.594 1.825-1.064.645-2.13 1.29-3.332 2.195 0 0 .034.293-.27.619-.198.242-.291.52-.309.801 0 0 .029.032-.638-.076-.825.636-1.649 1.273-2.447 1.967 0 0-.062-.008-.73.041-1.477 1.177-2.955 2.353-4.556 4.18-.875.964-1.75 1.928-3.02 3.162-.25.204-.45.45-.609.726 0 0 .01.014-.704-.046-3.42 3.692-6.842 7.384-10.296 11.047 0 0 .035.025-.37.29-.25.213-.446.468-.627.711 0 0 .054.043-.36.292a3.064 3.064 0 0 0-.643.705s.026.021-.406.225m64.597 207.808c-1.75-.043-3.5-.086-5.968-.471-3.72.11-7.441.222-12.066.457-2.735-.04-5.47-.08-8.43-.169-.228-.038-.455-.022-1.616.176-7.39-.042-14.78-.084-22.9-.47-4.384.115-8.767.23-14.054.473-2.73-.032-5.461-.064-8.435-.128-.245-.017-.486.015-.08.635 2.315.151 4.631.434 6.948.435 99.103.028 198.206.032 297.309.03 1.465 0 2.931-.12 4.397-.184l.001-.917c-3.452 0-6.904 0-11.04-.335-2.73.109-5.462.217-9.131.45-6.73-.04-13.459-.08-20.887-.456-3.06.114-6.122.23-10.05.47-1.75-.044-3.5-.088-5.984-.479-5.716.118-11.432.237-17.995.479-1.422-.042-2.845-.084-4.785-.422a163 163 0 0 0-4.278.417c-3.07-.045-6.14-.09-9.727-.426-1.119.096-2.237.192-4.295.41-14.061-.037-28.123-.074-42.903-.455-3.72.113-7.44.225-12.072.461-3.071-.042-6.142-.083-9.82-.446-1.756.106-3.511.212-6.042.433-.782-.032-1.564-.064-3.077-.444-4.717.115-9.435.23-15.072.467-3.4-.041-6.798-.082-10.921-.469-4.052.114-8.104.227-13.08.465-3.731-.037-7.462-.074-11.713-.404-1.123.096-2.246.192-4.142.41-.78-.04-1.56-.08-2.909-.435-1.439.104-2.878.208-5.183.442m304.297-61.908c-2.577-.373-5.155-1.07-7.733-1.072-82.804-.061-165.608-.056-248.413-.059-61.645-.001-123.29-.02-184.935.081-2.463.004-4.923 1.165-7.732 2.5l-.417 7.162.55-.049c.404-2.229.809-4.458 1.127-5.76-.042 2.815-.14 5.631-.116 8.446.065 7.404 6.83 18.993 13.486 19.765 10.803 1.253 21.83.59 33.197.779 0 0 .434-.053 1.042.496 3.513-.18 7.027-.359 10.951-.437 0 0 .417-.076 1.008.476 2.774.072 5.547.144 9.212.446 1.827-.09 3.653-.182 6.345-.233 3-.281 5.999-.563 9.442-.822 0 0 .443-.03.803.49.829.092 1.659.183 3.196.402.236-.042.472-.084 1.448-.087 1.367-.289 2.734-.578 4.552-.86 0 0 .45 0 .87.547 1.14.095 2.28.19 4.29.516 1.187-.081 2.374-.162 4.469-.186 11.23-.014 22.46-.028 34.626.2 22.157.05 44.313.129 66.47.13 5.652 0 11.304-.25 17.87-.34 13.908.002 27.817.004 42.625.24 2.155-.08 4.309-.16 7.122-.2.66-.007 1.32-.015 2.808.188.844-.075 1.688-.15 3.445-.193 16.576-.005 33.152-.01 50.586.206 1.168-.082 2.337-.165 4.39-.211 3.25-.006 6.499-.011 10.626.217 1.5-.078 3-.155 5.327-.201 1.93-.014 3.862-.027 6.574.147.529-.063 1.057-.126 2.13-.17.46-.212.919-.423 1.77-.566 0 0 .391-.065.727.373.62-.191 1.24-.382 2.277-.493 0 0 .414-.09 1.058.455 4.791.08 9.586.308 14.373.195 4.377-.104 8.745-.576 13.565-.91 0 0 .448-.015.695.491.534.122 1.07.245 2.404.559.542-.066 1.083-.131 2.25-.168.743-.256 1.486-.512 2.58-.528 0 0 .427-.024 1.132.444 9.751.04 19.502.078 29.856.214.641-.438 1.283-.877 2.654-1.262 4.182-3.733 8.364-7.467 12.865-11.48.186-.232.27-.497.566-1.18 0 0 .172-.466.586-.884.11-1.304.22-2.609.373-4.85-.06-3.837-.121-7.674-.274-11.99 0 0-.17-.459-.698-.974M360.731 535.067c1.563 3.382 2.673 7.088 4.802 10.064 2.803 3.917 6.064 7.67 9.747 10.754 5.638 4.719 12.873 7.11 19.845 7.42 15.528.687 31.117-.013 45.968.203H398.17l.005 1.258c14.227 0 28.454.029 42.68-.06 1.015-.007 2.025-.88 3.78-1.249 5.957-1.286 11.522-3.454 16.067-7.645 3.33-3.071 6.968-5.977 9.595-9.591 2.515-3.46 3.42-8.077 5.882-11.59 6.236-8.897 14.23-15.52 25.192-18.185 11.547-2.806 22.79-1.86 32.902 3.95 9.042 5.192 15.562 13.374 20.175 22.855 6.2 12.744 16.718 19.28 30.524 19.866 12.623.537 25.297-.27 37.939 0 6.406.138 12.403-.685 18.432-2.875 11.823-4.294 19.774-12.024 23.244-24.226.679-2.388 1.624-4.7 2.496-6.717l.566.256c-.029-.254-.057-.508-.04-1.517-.124-.743-.249-1.485.16-2.692.216-.863.432-1.726.794-3.486v-33.553H357.876c-.953 15.713-.618 31.039 2.21 46.037l-.211-.188c.16.131.319.262.856.911m197.783 222.66-.214.027s.206-.11.825-.479c1.136-.23 2.273-.462 3.347-.46l-.12-.036s.215-.149.542-.484a81.302 81.302 0 0 1 3.07-.277s-.06.04.535-.31c1.616-.845 3.204-1.753 4.854-2.526 8.294-3.885 16.879-7.247 24.828-11.736 7.608-4.297 14.8-9.445 21.726-14.798 5.529-4.274 10.534-9.268 15.494-14.222 4.488-4.483 9.135-8.967 12.75-14.125 5.417-7.73 9.784-16.188 14.984-24.082 5.226-7.935 7.87-16.814 10.516-25.894l.187.099s-.249.002.325-.694c2.206-13.378 6.933-26.301 6.283-40.237-.164-3.529 2.624-7.54 4.872-10.76 3.964-5.677 10.804-5.19 16.682-6.714 3.66-.948 7.602-1.52 10.818-3.327 10.074-5.66 13.358-15.587 13.7-26.159.354-10.979-.066-22.11-1.602-32.967-.695-4.916-4.01-10.336-7.769-13.707-4.105-3.681-10.099-5.257-16.187-8.193 0 7.915.146 14.144-.06 20.362-.107 3.26-.298 6.693-1.382 9.713-2.817 7.85-6.216 15.489-9.261 23.26-4.369 11.148-13.525 18.298-22.854 24.228-12.846 8.166-27.215 12.43-43.108 11.239-15.47-1.159-31.055-.891-46.592-.968-9.54-.048-17.925-3.859-25.65-8.475-11.28-6.74-19.32-16.833-24.814-28.857-3.484-7.624-8.865-10.72-16.441-8.104-3.11 1.073-5.707 4.598-7.763 7.547-4.098 5.877-6.834 12.914-11.676 18.003-4.86 5.106-11.403 8.752-17.559 12.455-11.14 6.701-23.167 9.262-36.353 8.448-16.28-1.004-32.647-.495-48.965-.996-4.513-.139-9.53-.526-13.37-2.572-9.807-5.222-20.22-9.905-27.354-18.968-4.04-5.133-8.881-10.191-11.038-16.127-3.878-10.67-8.951-21.339-7.052-33.407.536-3.409.045-6.985-.035-10.483-.064-2.758-.891-4.886-4.292-3.965-3.056.829-6.488 1.216-9.003 2.911-6.708 4.524-12.086 10.621-12.456 19.033-.542 12.3-.295 24.648-.014 36.966.134 5.912 2.236 11.001 6.634 15.596 6.672 6.97 15.428 7.278 23.744 8.897 6.158 1.2 13.774 7.513 14.543 13.648.8 6.387 1.144 12.836 2.09 19.198.908 6.096 2.334 12.115 3.385 18.24l-.058-.196s.169.157.626.692c.197 2.079-.06 4.336.672 6.205 2.942 7.512 6.043 14.97 9.379 22.316 2.132 4.694 4.418 9.397 7.283 13.66 3.802 5.655 8.121 10.98 12.431 16.273 4.468 5.487 8.827 11.146 13.907 16.028 4.83 4.642 10.364 8.619 15.89 12.453 8.021 5.568 16.043 11.236 24.573 15.94 7.302 4.028 15.318 6.76 23.33 10.332.228-.082.456-.164 1.4.178 9.768 1.929 19.513 3.991 29.314 5.738 6.17 1.099 12.435 2.477 18.636 2.378 8.299-.133 16.587-1.492 24.86-2.487 5.34-.642 10.645-1.575 15.867-2.088-.055.05-.111.098-.167.147.092-.138.184-.276.86-.837 2.464-.545 4.928-1.09 7.447-1.493M608.5 564.96h18.372l-.01-.762h-39.646l-.01.767c6.765 0 13.53 0 21.294-.005m-251.251-42.4v1.83l.6-.043c-.092-.672-.185-1.343-.6-1.786M676.4 632.454s.13-.068 0 0m-285.94-38.863s-.056-.119 0 0z"/><path fill="#246E75" d="M427.247 775.71c10.878 3.886 21.694 7.96 32.66 11.58 5.774 1.905 11.81 3.016 17.971 4.724-2.272.134-4.96.571-7.273-.165-11.963-3.809-23.838-7.901-35.729-11.936-2.449-.832-4.837-1.841-7.627-3.081-.373-.313-.48-.602-.36-.732l.358-.39zM547.274 792.468c9.348-2.652 19.032-5.13 29.12-7.572-9.326 2.606-19.055 5.177-29.12 7.572zM500.896 794.56c8.006-.464 16.175-.535 24.82-.522-.317.73-1.099 1.924-1.902 1.939-7.088.128-14.18.069-21.27-.016-.5-.006-.991-.657-1.648-1.4zM690.42 822.06c7.179 2.63 14.256 5.63 21.505 8.884-.326.678-1.05 1.572-1.289 1.458-6.803-3.263-13.557-6.627-20.217-10.343zM481.319 792.788c4.965.038 9.973.5 15.342 1.146-4.86-.117-10.079-.42-15.342-1.146zM530.343 794.284c4.49-.826 9.347-1.497 14.663-2.075a201.86 201.86 0 0 1-14.663 2.075zM713.398 832.188c5.025 1.813 10.124 3.963 15.414 6.388a199.833 199.833 0 0 1-15.414-6.388zM580.363 784.91c3.011-1.929 6.334-3.858 9.95-5.78-3.017 1.93-6.328 3.855-9.95 5.78zM672.867 813.467c2.427.837 5.072 1.933 7.928 3.303-2.429-.832-5.07-1.938-7.928-3.303zM738.892 843.456c2.4.044 4.986.34 8.013.709-2.574 3.919-5.092.052-8.013-.71zM661.345 807.597c2.114.647 4.21 1.671 6.482 2.955-2.05-.686-4.274-1.632-6.482-2.955zM729.81 839.532c1.89.56 3.932 1.44 6.125 2.598-1.89-.573-3.933-1.425-6.125-2.598zM683.96 818.42c1.768.623 3.749 1.506 5.919 2.63-1.775-.629-3.74-1.5-5.918-2.63zM599.525 775.421c1.229-1.013 2.75-1.817 4.561-2.656-1.23.931-2.75 1.898-4.561 2.656zM401.745 764.732c-.241-.983-.13-1.908-.018-2.833.695.162 1.39.325 2.203.742-.532.885-1.182 1.517-2.185 2.09zM415.503 769.416c1.018.297 2.187.897 3.516 1.698-.37.583-.9.965-1.445 1.36a100.985 100.985 0 0 1-2.071-3.058zM625.506 769.198c.995 1.387 1.815 3.09 2.642 5.128a24.722 24.722 0 0 1-2.642-5.128zM653.453 803.103c1.51.376 2.928 1.086 4.532 2.034-1.417-.408-3.02-1.054-4.532-2.034zM605.131 772.322c.79-.733 1.915-1.441 3.289-2.142-.82.727-1.886 1.448-3.289 2.142zM753.153 842.38c.369-.766 1.1-1.467 2.032-2.21-.423.73-1.046 1.502-2.032 2.21zM624.173 762.824c.42 1.488.842 2.975 1.123 4.723-.517-.132-.894-.525-1.317-1.6-.08-1.382-.116-2.082-.065-2.867l.259-.256zM618.196 765.681c.684-.814 1.669-1.517 2.963-2.062-.681.83-1.672 1.502-2.963 2.062zM631.901 781.41c.704.635 1.455 1.611 2.24 2.906-.709-.642-1.45-1.605-2.24-2.907zM593.137 778.287c.753-.562 1.816-1.029 3.181-1.479-.755.537-1.813 1.056-3.181 1.48zM749.21 844.306c.693-.618 1.617-1.085 2.859-1.573-.665.56-1.646 1.143-2.86 1.573zM668.962 811.4c.762.152 1.724.553 2.863 1.22-.77-.147-1.716-.56-2.863-1.22zM421.681 773.67c.934-.045 2.026.21 3.229.863.11.397-.181.736-.32.672-.137-.064-.4-.22-.4-.22-.783-.338-1.567-.676-2.509-1.315zM634.522 785.15c.554.263 1.079.87 1.651 1.715-.528-.298-1.104-.835-1.651-1.715z"/><path fill="#246E75" d="M621.912 763.447c.518-.262 1.235-.655 2.107-.836.154.213-.019.384-.313.431-.295.048-.71-.044-.71-.044-.333 0-.628.106-1.084.45zM406.357 764.196c.8.063 1.65.456 2.664 1.088-.762-.093-1.687-.426-2.664-1.088zM409.393 766.162c.783.038 1.612.407 2.615.994-.74-.076-1.654-.37-2.615-.994zM629.587 777.094c.407.203.796.713 1.169 1.421-.407-.24-.797-.676-1.17-1.42zM649.638 800.721c.6-.095 1.376.076 2.343.494-.595.089-1.38-.07-2.343-.494z"/><path fill="#368B93" d="M623.006 763.345c-.01-.347.405-.255.613-.217.244.737.28 1.437.35 2.488-.293-.407-.624-1.166-.963-2.271z"/><path fill="#246E75" d="M425.166 774.76c.659.068 1.172.305 1.883.746.198.204-.04.464-.302.534s-.541-.065-.541-.065c-.207-.041-.414-.082-.991-.29-.37-.167-.486-.416-.486-.416l.437-.508z"/><path fill="#368B93" d="M426.155 776.227c.05-.252.33-.117.472-.057.143.06.249.35.29.498-.244.036-.528-.077-.762-.441zM424.59 775.205c.139.064.255.313.311.438.057.125-.433.193-.433.193s-.336-.361-.307-.606c.03-.245.292-.09.43-.025z"/><path fill="#246E75" d="M419.351 772.05c.088-.221.537-.062.738.067-.141.138-.484.147-.738-.066zM613.201 768.628c-.137-.284-.002-.448.328-.64.34.283.256.545-.328.64zM615.233 767.767c-.118-.284.05-.468.412-.721.054.198-.052.494-.412.721zM645.388 797.213c.275-.175.418-.089.574.17.048.114-.34.334-.34.334s-.33-.302-.234-.504zM628.47 776.197c.285-.138.434-.021.584.292.048.137-.375.212-.375.212s-.299-.309-.209-.504zM404.11 763.213c.229-.184.454-.06.773.271-.164.092-.454.036-.772-.271z"/><path fill="#000101" d="M671.646 648.473c-2.642 8.932-5.285 17.811-10.51 25.746-5.2 7.894-9.568 16.352-14.986 24.082-3.614 5.158-8.261 9.642-12.75 14.125-4.959 4.954-9.964 9.948-15.493 14.222-6.927 5.353-14.118 10.5-21.726 14.798-7.949 4.49-16.534 7.851-24.828 11.736-1.65.773-3.238 1.68-5.034 2.495-.436-.082-.69-.132-.946-.183l.647.48c-1.042.107-2.084.214-3.333.495-.207.175-.153.114-.153.114-1.136.23-2.273.461-3.752.877-.344.185-.323.125-.323.125-2.464.545-4.928 1.09-7.712 1.855-.32.22-.275.18-.275.18-5.32.803-10.625 1.736-15.965 2.378-8.273.995-16.561 2.354-24.86 2.487-6.2.1-12.467-1.28-18.636-2.378-9.801-1.747-19.546-3.809-29.653-5.927-.339-.19-.298-.145-.414-.38-.414-.07-.712.096-.995.227.014-.033.036-.102.036-.102-7.7-3.305-15.716-6.038-23.018-10.066-8.53-4.704-16.552-10.372-24.574-15.94-5.525-3.834-11.059-7.811-15.889-12.453-5.08-4.882-9.439-10.541-13.907-16.028-4.31-5.293-8.63-10.618-12.43-16.273-2.866-4.263-5.152-8.966-7.284-13.66-3.336-7.345-6.437-14.804-9.38-22.316-.731-1.87-.474-4.126-.906-6.501-.235-.297-.186-.272-.186-.272-1.198-6.053-2.624-12.072-3.531-18.168-.947-6.362-1.29-12.81-2.091-19.198-.77-6.135-8.385-12.449-14.543-13.648-8.316-1.62-17.072-1.926-23.744-8.897-4.398-4.595-6.5-9.684-6.634-15.596-.28-12.318-.528-24.666.014-36.966.37-8.412 5.748-14.51 12.456-19.033 2.515-1.695 5.947-2.082 9.003-2.91 3.4-.922 4.228 1.206 4.292 3.964.08 3.498.57 7.074.035 10.483-1.899 12.068 3.174 22.737 7.052 33.407 2.157 5.936 6.998 10.994 11.038 16.127 7.135 9.063 17.547 13.746 27.354 18.968 3.84 2.046 8.857 2.433 13.37 2.572 16.318.501 32.686-.008 48.965.996 13.186.814 25.214-1.747 36.353-8.448 6.156-3.703 12.698-7.349 17.559-12.455 4.842-5.089 7.578-12.126 11.676-18.003 2.056-2.949 4.654-6.474 7.763-7.547 7.576-2.615 12.957.48 16.44 8.104 5.496 12.024 13.534 22.116 24.815 28.857 7.725 4.616 16.11 8.427 25.65 8.475 15.537.077 31.123-.19 46.592.968 15.893 1.19 30.262-3.073 43.108-11.24 9.329-5.929 18.485-13.08 22.854-24.227 3.045-7.771 6.444-15.41 9.261-23.26 1.084-3.02 1.275-6.452 1.382-9.713.206-6.218.06-12.447.06-20.362 6.088 2.936 12.082 4.512 16.187 8.193 3.759 3.371 7.074 8.791 7.77 13.707 1.535 10.858 1.955 21.988 1.6 32.967-.341 10.572-3.625 20.498-13.7 26.159-3.215 1.807-7.158 2.379-10.817 3.327-5.878 1.523-12.718 1.037-16.682 6.714-2.248 3.22-5.036 7.231-4.872 10.76.65 13.936-4.077 26.86-6.542 40.578-.259.34-.258.402-.258.402zM325.354 353.468c2.365-7.332 4.729-14.664 7.39-21.982.504-.004.71-.023.915-.042-.014-.12-.015-.34-.045-.345-.22-.03-.446-.015-.67-.015 6.302-14.663 15.322-27.662 25.281-40.82.738-1.449.946-2.487 1.154-3.524 0 0 .236-.048.617-.03.428-.284.476-.584.524-.884.369-.15.738-.301 1.553-.74 1.02-1.497 1.594-2.704 2.169-3.912.815-.567 1.63-1.135 2.85-1.992.58-.58.757-.871.934-1.162 0 0-.026-.021.245-.056.443-.33.615-.624.786-.92 0 0-.054-.042.225-.078.437-.338.595-.639.753-.94 0 0-.035-.025.307-.098 3.784-3.687 7.226-7.3 10.668-10.914 0 0-.01-.014.26-.055.425-.346.58-.65.733-.955.876-.964 1.75-1.928 3.038-3.108 1.878-1.482 3.345-2.747 4.812-4.013 0 0 .062.008.383-.003 1.145-.623 1.969-1.235 2.793-1.848 0 0-.029-.032.238-.109.293-.401.32-.726.346-1.05 0 0-.034-.293.341-.255 1.435-.607 2.493-1.252 3.552-1.896.666-.72 1.333-1.441 2.494-2 .851-.271 1.208-.703 1.564-1.135.348-.327.696-.654 1.507-.854.776-.371 1.09-.87 1.404-1.37.287-.29.574-.58 1.231-.753.638-.154.906-.425 1.174-.696 0 0 .04-.046.367-.037 1.022-.699 1.716-1.406 2.41-2.114 0 0 .077-.145.43-.094 1.693-.636 3.035-1.323 4.378-2.01.28-.373.56-.746 1.225-1.04.657-.177.928-.434 1.2-.691.155-.09.31-.181.992-.216.651-.236.778-.529.904-.821 0 0-.008-.243.343-.213 3.488-1.569 6.624-3.168 9.76-4.766.162-.07.323-.14 1.008-.163.662-.247.8-.539.938-.831.164-.097.328-.194 1.01-.261.903-.084 1.067-.34 1.01-.737.15-.091.3-.182 1.056-.2 3.25-.546 5.895-1.166 9.09-1.915 0 2.609.002 4.744 0 6.88-.03 30.79-.102 61.579-.033 92.368.008 3.416-.115 7.246 3.962 9.045.53.517 1.058 1.034 1.786 2.125 2.672 3.21 5.057 6.078 9.3 3.974.744.021 1.487.042 2.889.232 2.645-.792 4.63-1.754 6.617-2.715 0 0 .1-.175.472-.137 1.383-.507 2.392-1.051 3.401-1.596.184-.678.368-1.356 1.096-2.423.755-1.16.967-1.934 1.18-2.707.4-1.19 1.156-2.382 1.153-3.572-.087-36.143-.464-72.286-.297-108.428.073-15.687 6.753-19.905 21.126-21.322 11.055-1.09 22.315-.579 33.457-.131 8.076.324 15.486 3.494 20.269 10.198 1.95 2.734 2.35 7.034 2.357 10.624.066 36.81-.086 73.62-.203 110.43-.012 3.528 5.707 10.475 9.61 11.43.278.261.337.277.337.277 6.42 1 12.252-.204 16.522-5.375 1.33-1.611 1.575-4.12 2.527-6.594.21-.375.563-.537.87-.817.38-.604.52-.927.521-1.251.035-30.985.067-61.97.036-92.955 0-.806-.706-1.61-1.186-2.467-.103-.05-.329-.007-.329-.007-.025-.4-.05-.8.171-1.572.295-1.006.342-1.64.39-2.274 1.667-.277 3.653-1.28 4.947-.71 6.583 2.9 13.154 5.911 19.411 9.445 8.317 4.698 16.491 9.69 24.434 14.992 4.731 3.158 8.888 7.173 13.33 10.77 2.382 1.928 5.035 3.573 7.175 5.734 2.234 2.256 3.659 5.369 6.028 7.427 10.021 8.702 16.976 19.766 23.879 30.804 4.8 7.674 9.468 15.582 12.895 23.92 3.482 8.47 5.363 17.598 7.965 26.433.314 1.067.755 2.096 1.363 3.43.224.285.174.253.174.253 1.837 9.195 3.743 18.378 5.39 27.607.143.798-1.418 1.899-3.061 2.876-26.344.004-51.814-.019-77.284-.024-103.211-.02-206.422-.034-309.634-.05-.097-2.23-.194-4.46.023-7.03.314-.343.314-.408.314-.408 1.488-7.746 2.976-15.492 4.732-23.579.268-.34.265-.404.265-.404.48-2.517.96-5.035 1.714-7.773.273-.22.292-.29.292-.29z"/><path d="M441.807 563.159c-15.565.133-31.154.833-46.682.145-6.972-.308-14.207-2.7-19.845-7.419-3.683-3.083-6.944-6.837-9.747-10.754-2.13-2.976-3.239-6.682-5.001-10.358l-.158-.232c-3.116-15.195-3.45-30.52-2.498-46.234h310.688c0 11.359 0 22.456-.33 34.094-.553 1.497-.775 2.453-.997 3.41.124.742.25 1.484.202 2.6-.172.372-.405.558-.405.558-.822 2.347-1.767 4.659-2.446 7.047-3.47 12.202-11.42 19.932-23.244 24.226-6.03 2.19-12.026 3.013-18.432 2.875-12.642-.27-25.316.537-37.94 0-13.805-.586-24.323-7.122-30.523-19.866-4.613-9.481-11.133-17.663-20.175-22.856-10.112-5.808-21.355-6.755-32.902-3.949-10.962 2.664-18.956 9.288-25.192 18.186-2.462 3.512-3.367 8.13-5.882 11.589-2.627 3.614-6.265 6.52-9.595 9.59-4.545 4.192-10.11 6.36-16.679 7.466-1.147-.16-1.682-.14-2.217-.118zM373.058 455.82c-2.999.282-5.998.564-9.606.53-2.615-.104-4.622.107-6.628.318-2.774-.072-5.547-.144-8.633-.705-.577-.355-.842-.221-1.107-.088-3.513.18-7.027.359-10.875.052-.604-.342-.873-.197-1.143-.052-10.932-.147-21.958.516-32.761-.737-6.656-.772-13.42-12.361-13.486-19.765-.024-2.815.074-5.63.431-8.827 1.166-.698 2.015-1.015 3.287-1.364 4.294.098 8.166.227 11.972.418-.066.06.06.134.06.134s-.083-.201.405-.334c2.836-.091 5.185-.05 7.429.181.02.181.144.173.269.165-.075-.118-.15-.235.204-.448 1.012-.103 1.597-.11 2.298.136.668.085 1.22-.082 2.173-.233.661.08.92.145 1.075.383.014.168.133.163.253.159-.07-.111-.139-.222.302-.401.85-.035 1.191 0 1.38.327-.075.432.003.57.082.71.028-.338.056-.675.565-1.097 3.666-.074 6.852-.064 10.15.213.678.093 1.243-.08 2.192-.285 1.156-.02 1.927-.01 2.813.264.676.082 1.235-.097 2.26-.304 2.336.043 4.205.115 5.958.426-.052.35.012.461.076.572.002-.27.005-.542.438-.889 1.013-.074 1.596-.073 2.197.296.633.122 1.246-.123 2.274-.336.678.119.942.205 1.136.355-.07.064.067.143.067.143s-.083-.212.44-.291c.87-.023 1.218.033 1.497.152-.068.063.064.139.064.139s-.083-.207.403-.347c5.856-.055 11.226.03 16.523.185-.073.07.078.153.078.153s-.09-.227.295-.24c.613.105.842.224 1.11.588.266.22.492.195.718.17-.268-.117-.537-.234-.586-.59 1.07-.303 1.921-.37 2.84-.193.76.085 1.453-.074 2.225-.205.079.028.08.195.044.496.086.38.208.459.33.538-.091-.301-.183-.602.103-.995 5.331-.093 10.285-.094 15.275.099.373.07.708-.053 1.465-.197 1.826.008 3.231.038 4.661.268.38.063.733-.074 1.377-.25 1.258-.013 2.227.015 3.28.303 2.157.082 4.23-.098 6.773-.303 2.673.068 4.876.162 7.002.333-.078.077.085.164.085.164s-.099-.245.4-.352a99.179 99.179 0 0 1 7.534.227c-.07.067.072.144.072.144s-.087-.215.248-.333c.573-.136.81-.153 1.181.147 2.35 1.39 4.592 2.74 6.66-.363.842-.013 1.405.01 2.058.29.864.09 1.638-.077 2.778-.22.597.095.83.167.988.311-.075.073.082.157.082.157s-.095-.234.332-.352c1.607-.135 2.787-.152 4.05.211.788.128 1.494-.125 2.562-.347.59.113.818.195.973.346-.072.07.078.15.078.15s-.091-.223.419-.322c.855-.073 1.2-.046 1.435.17.016.185.142.18.269.174-.073-.122-.145-.243.264-.463 3.692-.1 6.902-.104 10.181.16.701.09 1.332-.087 2.314-.297 1.054-.017 1.758 0 2.47.214.399.066.79-.065 1.579-.234 6.07-.01 11.74.02 17.491.313.705.09 1.328-.085 2.336-.25.635.067.885.122 1.046.376.033.18.157.161.28.142-.083-.113-.166-.226.09-.433 2.602-.082 4.866-.07 7.175.193 1.177.549 2.693 3.174 3.574-.298 2.097-.003 3.826.022 5.67.309.677.086 1.24-.09 2.12-.293.743-.004 1.168.018 1.792.382 1.49.117 2.78-.108 4.4-.335.543.04.758.082.862.396-.032.39.047.508.125.626 0-.302-.002-.604.519-.971 1.21.034 1.9.134 2.52.3-.07.068.074.146.074.146s-.088-.216.431-.34c1.228-.084 1.936-.042 2.48.209-.126.331-.087.453-.048.575.055-.263.11-.527.217-.879.05-.088.25-.126.38.108.774.075 1.417-.085 2.461-.276 1.737-.004 3.073.023 4.475.31 1.475.944 3.061 2.96 4.372-.221.691.12.96.206 1.157.36-.071.07.076.15.076.15s-.09-.222.404-.35c2.86-.041 5.227.045 7.521.2-.072.07.076.15.076.15s-.09-.222.329-.349c1-.147 1.58-.167 2.265.122 1.046.097 1.989-.115 3.12-.362.567-.01.946.017 1.378.28.95.082 1.849-.072 2.954-.27.898-.03 1.588-.014 2.184.147 1.613 2.832 3.134 1.739 4.815-.115.195-.031.59-.033.59-.033s.392.06.426.35c1.275.073 2.516-.145 4.077-.405 1.616-.012 2.913.02 4.237.289 1.001.089 1.976-.061 3.403-.212 1.04.11 1.63.222 2.145.403-.073.07.077.152.077.152s-.09-.226.405-.345c1.848-.087 3.201-.056 4.432.201-.055.075.012-.076.594-.283 1.197.028 1.88.113 2.488.27-.074.071.08.154.08.154s-.093-.23.402-.351c2.861-.05 5.228.02 7.516.168-.08.078.086.168.086.168s-.099-.251.414-.333c1.2-.021 1.887.039 2.496.175-.077.076.085.163.085.163s-.098-.243.306-.349c.681-.124.96-.141 1.207.194 3.003.102 6.037-.149 9.356-.425.665-.002 1.045.02 1.65.401 2.172.111 4.118-.135 6.489-.404 1.27.064 2.116.153 2.844.446-.058.068.002-.07.403-.285.574-.083.807-.09 1.225.219 1.157.112 2.127-.09 3.386-.31.672.006 1.055.03 1.662.412 2.164.102 4.105-.154 6.334-.438.675-.01 1.06.008 1.506.414 4.77 1.298 9.524 2.97 14.31-.441.756-.009 1.187.01 1.762.339 6.108 1.487 12.086 3.007 18.29-.347 1.19-.017 1.984-.002 2.944.354 3 .118 5.836-.105 9.03-.354.837-.005 1.316.015 2.02.404 6.096 1.83 11.937 2.514 18.057-.285.68.102.945.18 1.14.324-.071.069.075.148.075.148s-.09-.22.419-.317c.853-.08 1.197-.06 1.427.164.02.2.153.194.287.187-.076-.131-.152-.262.166-.47.66-.08.928-.085 1.395.271 2.355.11 4.51-.139 7.104-.402 1.017.063 1.596.138 2.06.412-.058.066 0-.067.448-.277.656-.082.921-.087 1.351.243 1.345.106 2.526-.122 4.063-.379.833-.01 1.309.006 1.98.374 2.173.154 4.15-.042 6.2-.194.071.044.12.204.057.27-.064.064.062.135.062.135s-.087-.207.254-.29c.574-.102.808-.122 1.244.177 4.868.193 9.533.067 14.197-.06.06 3.838.121 7.675-.193 12.198-.387 1.984-.4 3.283-.412 4.582 0 0-.172.465-.572.73-.428.574-.457.885-.486 1.196-4.181 3.733-8.363 7.467-13.218 11.072-1.31.346-1.947.82-2.583 1.294-9.752-.04-19.503-.079-29.586-.575-.606-.38-.879-.304-1.152-.228-.742.257-1.485.513-2.572.46-1.131-.11-1.919.087-2.706.285-.535-.122-1.07-.245-1.778-.804-.438-.302-.703-.166-.969-.03-4.372.31-8.74.782-13.117.886-4.787.113-9.582-.115-14.716-.683-.606-.34-.868-.194-1.13-.047-.621.191-1.242.382-2.032.113-.43-.3-.69-.14-.949.02-.46.21-.919.421-1.748.394-1.093-.085-1.817.068-2.541.221-1.931.014-3.862.027-6.216-.3-2.208-.124-3.995.092-5.781.309-3.25.005-6.5.01-10.338-.278-1.945-.102-3.302.091-4.659.284-16.576.005-33.152.01-50.31-.259-1.619-.097-2.655.08-3.69.256-.66.008-1.32.016-2.499-.298-2.846-.119-5.174.084-7.503.286-13.909-.001-27.818-.003-42.224-.195-.498-.191-.762-.417-.961-.795-.69-.46-1.18-.615-1.67-.617-26.266-.058-52.531-.115-78.796-.101-1.001 0-2.002.708-3.134 1.206-.132.12-.216.464-.216.464-11.23.015-22.46.029-34.169-.276-2.13-1.532-3.765-2.624-4.861.273-1.14-.095-2.28-.19-3.671-.756-.523-.341-.796-.211-1.07-.081-1.367.288-2.734.577-4.524.66-.86-.081-1.296.042-1.733.165-.83-.091-1.659-.182-2.706-.736-.488-.326-.758-.188-1.029-.05m118.663-30.084-.355.313c.117-.018.234-.036.355-.313m-107.013.01-.339.297c.112-.017.224-.034.34-.298m-5.588.782c.253-.01.508-.01.756-.049.019-.002.005-.418-.014-.42-.249-.02-.5-.003-.742.469m184.394-.192s.075.12 0 0z"/><path fill="#3F9FA7" d="M448.527 425.388c-.345-.026-.69-.053-1.525.05-.49.13-.445.073-.445.073a11.88 11.88 0 0 1-1.126-.472c-1.15-.098-1.858.032-2.565.162-1.18.017-2.359.034-3.945.2-.406.15-.36.091-.36.091-.233-.071-.466-.143-1.265-.44-1.267-.096-1.966.034-2.666.164a14.17 14.17 0 0 1-2.24-.244c-2.543-.032-4.533.113-6.523.257-.236.018-.473.035-1.026.202-.315.15-.27.092-.27.092-2.369-.09-4.737-.178-7.582-.128-.477.139-.43.078-.43.078-2.203-.094-4.406-.188-7.27-.467-2.663-.04-4.664.107-6.666.253a47.447 47.447 0 0 1-3.365-.187c-.792-.2-1.05-.1-1.233.195-1.405-.03-2.81-.06-4.795-.214-.904-.225-1.158-.133-1.343.15-4.953 0-9.907.001-15.241.115-.382.113-.395.135-.395.135s0-.167-.33-.361c-.9-.087-1.471.02-2.042.128-.85.067-1.702.133-2.731.443-.179.243-.213.167-.213.167-.228-.118-.457-.237-1.05-.311-.365.044-.32-.014-.32-.014-5.37-.085-10.74-.17-16.576-.082-.465.172-.419.113-.419.113-.347-.057-.695-.113-1.546-.059-.503.112-.456.054-.456.054-.264-.087-.528-.173-1.351-.463-1.09-.089-1.619.025-2.148.139-.582-.001-1.165-.002-2.168.107-.42.11-.408.042-.408.042-1.87-.071-3.738-.143-6.22-.362-1.15-.026-1.69.096-2.23.218a23.954 23.954 0 0 1-2.843-.179c-1.073-.03-1.616.082-2.159.196-3.185-.01-6.371-.021-10.039.08-.482.114-.493.067-.493.067-.34-.034-.682-.069-1.517 0-.494.105-.464.035-.464.035-.26-.065-.52-.13-1.329-.376-1.08-.074-1.61.036-2.142.146-.584.007-1.169.014-2.165.153-.411.131-.384.058-.384.058-2.35-.042-4.698-.083-7.514.041-.467.166-.42.106-.42.106-3.871-.13-7.743-.26-12.417-.534a47.574 47.574 0 0 0-4.135-.144c2.462-.622 4.922-1.783 7.385-1.787 61.645-.1 123.29-.082 184.935-.08 82.805.002 165.61-.003 248.413.058 2.578.002 5.156.7 7.529 1.33-4.657.162-9.11.064-13.7-.101-.543-.022-.946.023-1.745.126-2.187.298-3.978.539-5.77.78-.476-.017-.952-.034-2.022-.201-1.726-.027-2.858.098-3.99.222-.266.005-.531.01-1.173.13-.376.114-.347.041-.347.041-.579-.076-1.158-.151-2.48-.395-2.828-.037-4.914.093-6.999.223-.267.004-.534.009-1.18.126-.38.114-.354.04-.354.04-.344-.019-.688-.037-1.52.072-.488.129-.444.071-.444.071-.266-.077-.531-.154-1.569-.45-6.489-.108-12.207.001-17.924.11-.479-.02-.958-.04-2.123-.219-3.414-.04-6.14.079-8.868.197-.794-.015-1.588-.03-3.134-.203-6.527-.03-12.302.1-18.077.228-.432-.02-.863-.039-1.95-.217-5.116-.025-9.577.108-14.039.24-.385-.018-.771-.036-1.663-.237-2.45-.023-4.395.135-6.34.293-.384-.025-.767-.05-1.568-.257-1.426-.056-2.434.07-3.442.197-.233.006-.466.012-1.026.133-.327.115-.3.042-.3.042a37.454 37.454 0 0 1-3.183-.447c-2.595-.037-4.544.108-6.492.253-.38-.023-.76-.046-1.605-.249-3.358-.028-6.252.124-9.146.277-.278.018-.556.035-1.215.191-.382.138-.335.078-.335.078-.687-.06-1.374-.12-2.552-.066-.49.114-.443.053-.443.053-2.367-.07-4.734-.14-7.574-.058-.474.152-.429.093-.429.093-.682-.084-1.365-.17-2.55-.16-.504.092-.484.021-.484.021-1.353-.032-2.706-.063-4.533.055-.475.15-.43.092-.43.092-.589-.111-1.178-.223-2.48-.524-1.532-.072-2.35.046-3.167.164-1.298-.03-2.595-.062-4.671-.234-1.737.005-2.694.152-3.651.299l-.391-.06s-.396.002-1.336-.14c-1.952-.048-2.964.047-3.976.142-.69-.015-1.38-.03-2.735-.165-1.293-.014-1.922.092-2.55.198-.38-.027-.758-.054-1.599-.23-1.29-.02-2.12.11-2.949.239-.581.02-1.163.04-2.142.218-.398.158-.353.1-.353.1-2.366-.087-4.733-.173-7.572-.101-.474.158-.429.1-.429.1l-1.527-.481c-1.86-.1-3 .025-4.14.15-1.336-.026-2.672-.053-4.661-.216-1.215-.022-1.777.093-2.34.209 0 0-.2.038-.241.161-.043.123-.013.06-.013.06a15.092 15.092 0 0 0-2.624.03c-.499.155-.455.098-.455.098-.69-.1-1.38-.2-2.59-.211-.521.088-.533.05-.533.05-.215-.042-.43-.083-1.133-.336-1.805-.073-3.122.066-4.44.206-.424-.023-.85-.045-1.74-.216-1.006-.03-1.547.087-2.088.205-1.728-.024-3.457-.049-5.943-.223-1.582-.025-2.406.1-3.23.224-2.264-.012-4.528-.024-7.113.095-.322.132-.297.056-.297.056-.25-.056-.501-.11-1.364-.347-1.138-.069-1.663.043-2.19.155-5.67-.029-11.34-.058-17.706-.142-.894.007-1.093.068-1.29.13-.704-.017-1.408-.034-2.69-.184-1.106-.023-1.63.087-2.155.197-3.21.003-6.42.006-10.097.144-.467.134-.438.062-.438.062z"/><path fill="#3B979F" d="M697.987 395.112c-2.456.63-4.91 1.807-7.367 1.811-61.663.103-123.326.082-184.99.083-59.83 0-119.66.019-179.49-.05-2.555-.004-5.11-.808-7.43-1.586 76.31-.352 152.385-.37 228.461-.357 50.272.009 100.544.064 150.816.099z"/><path fill="#061D20" d="M698.362 395.045c-50.647.032-100.92-.023-151.191-.032-76.076-.014-152.152.005-228.693.062-.696-.168-.936-.38-1.14-.623-.02-.025.186-.239.947-.426 94.715-.054 188.77-.035 282.825-.045 34.623-.003 69.246-.074 103.87-.114.783.33 1.567.66 1.754 1.054a241.4 241.4 0 0 1-5.72.181c-.759-.041-1.517-.083-2.652-.057z"/><path fill="#3E9BA1" d="M704.98 393.69c-34.624.217-69.247.288-103.87.291-94.055.01-188.11-.01-282.624-.09-.459-.073-.45-.507-.46-.723 103.2-.2 206.41-.186 309.622-.166 25.47.005 50.94.028 76.871.102.462.06.46.411.46.587z"/><path fill="#143738" d="M573.938 485.889c3.07.044 6.14.089 10.053.106 1.88-.049 2.916-.07 3.952-.093 1.422.042 2.845.084 5.153.1 6.539-.052 12.192-.079 17.844-.106 1.75.044 3.5.088 6.13.103 3.877-.055 6.873-.08 9.868-.105 6.73.04 13.459.08 21.1.094 3.575-.047 6.239-.068 8.902-.09h10.357l-.001.918c-1.466.064-2.932.184-4.397.184-99.103.002-198.206-.002-297.31-.03-2.316-.001-4.632-.284-7.025-.695-.078-.261.401-.343.401-.343 2.73.032 5.461.064 9.102.07 5.232-.052 9.553-.077 13.874-.102 7.39.041 14.78.083 22.865.084.694-.04 1.147-.085 1.147-.085 2.735.04 5.47.079 9.11.09 4.565-.047 8.221-.067 11.878-.087 1.75.044 3.5.087 6.09.098 2.197-.053 3.555-.074 4.913-.096.78.04 1.559.08 3.113.095 1.813-.047 2.85-.07 3.888-.091 3.731.037 7.462.074 12.112.087 4.907-.048 8.896-.071 12.885-.095 3.399.041 6.798.082 11.117.098 5.575-.048 10.23-.07 14.884-.094.781.032 1.563.064 3.151.073 2.485-.045 4.164-.067 5.843-.09 3.07.043 6.142.084 10.124.1 4.567-.05 8.223-.07 11.879-.091 14.062.037 28.124.074 43.041.084 1.89-.048 2.923-.07 3.957-.091z"/><path fill="#21575C" d="M446.914 336.733c-4.06-1.434-3.938-5.264-3.946-8.68-.07-30.789.003-61.578.033-92.368.002-2.136 0-4.271 0-6.88-3.195.75-5.84 1.37-8.843 1.826 3.007-2.074 6.083-5.055 10.66-2.383.246 34.677.327 68.634.408 102.591.558 1.843 1.115 3.687 1.688 5.894z"/><path fill="#3F9FA7" d="M445.385 330.473c-.24-33.59-.32-67.548-.377-101.97.355 1.31.968 3.083.971 4.857.06 30.769.05 61.537.024 92.306-.001 1.48-.3 2.961-.618 4.807z"/><path fill="#061D20" d="M581.092 330.85s-.353.163-.545.188a2030.927 2030.927 0 0 1-.431-40.357c-.014-18.619.074-37.238.222-56.324.103-.466.329-.509.422.014.147 3.503.247 6.485.25 9.466.037 29.004.057 58.01.082 87.014z"/><path fill="#11393C" d="M427.288 456.743c-.467-.12-.383-.466.203-.609 28.173-.124 55.76-.105 83.345-.086 0 0 .264.226.305.395-5.611.303-11.263.552-16.915.552-22.157-.001-44.313-.08-66.938-.252z"/><path fill="#1B3F42" d="M441.45 563.333c.892-.195 1.427-.216 2.203-.107-.772.6-1.782 1.473-2.797 1.48-14.226.089-28.453.06-42.68.06l-.005-1.258c14.307 0 28.615 0 43.279-.175z"/><path fill="#11393C" d="M608 564.963c-7.265.002-14.03.002-20.794.002l.01-.767h39.646l.01.762c-6.124 0-12.248 0-18.872.003z"/><path fill="#21575C" d="M380.653 264.984c-3.085 3.643-6.527 7.257-10.294 10.958a164.699 164.699 0 0 1 10.294-10.958z"/><path fill="#1B3F42" d="M722.723 424.349c4.452.097 8.904.195 13.824.291.468 0 .639.459.685.698-4.618.365-9.283.491-14.206.059a3.559 3.559 0 0 1-.303-1.048z"/><path fill="#21575C" d="M457.731 342.98c-3.958 2.32-6.343-.548-8.827-3.55 2.839.866 5.69 2.1 8.827 3.55z"/><path fill="#3F9FA7" d="M610.573 485.723c-5.285.2-10.938.227-17.054.217 5.254-.154 10.97-.273 17.054-.217z"/><path fill="#21575C" d="M428.508 232.877a73.545 73.545 0 0 1-9.39 4.68c2.761-1.673 5.885-3.194 9.39-4.68z"/><path fill="#1B3F42" d="M287.849 425.217c1.284-.356 2.395-.357 3.886-.18-.47.494-1.32.811-2.441 1.045-.677 2.147-1.082 4.376-1.486 6.605l-.55.049c.14-2.388.278-4.775.59-7.519z"/><path fill="#3F9FA7" d="M495.577 485.73c-4.289.197-8.943.22-14.058.206 4.257-.15 8.975-.265 14.058-.206zM381.576 485.728c-3.956.197-8.277.222-13.057.21 3.925-.153 8.308-.268 13.057-.21z"/><path fill="#11393C" d="M554.272 456.778a32.97 32.97 0 0 1 6.723-.424c-1.965.381-4.12.46-6.723.424z"/><path fill="#3F9FA7" d="M469.58 485.727c-3.627.197-7.616.22-12.061.206 3.595-.152 7.647-.265 12.06-.206zM526.58 485.724c-3.296.193-6.952.214-11.062.2 3.265-.147 6.984-.26 11.063-.2z"/><path fill="#21575C" d="M467.179 340.784c-1.643.891-3.63 1.853-5.903 2.633 1.662-.975 3.61-1.769 5.903-2.633z"/><path fill="#3F9FA7" d="M426.582 485.732c-3.298.19-6.954.21-11.066.195 3.266-.144 6.986-.255 11.066-.195z"/><path fill="#3B979F" d="M701.201 395.376c1.521-.313 3.23-.352 5.362-.343a26.622 26.622 0 0 1-5.362.343z"/><path fill="#11393C" d="M357.27 456.783c1.56-.326 3.567-.537 5.75-.453-1.652.386-3.478.477-5.75.453z"/><path fill="#21575C" d="M389.519 256.908c-1.133 1.24-2.6 2.506-4.416 3.663 1.127-1.286 2.605-2.462 4.416-3.663z"/><path fill="#3F9FA7" d="M626.589 485.726c-2.646.193-5.642.218-9.085.21 2.613-.149 5.674-.264 9.085-.21z"/><path fill="#11393C" d="M633.26 456.785a17.055 17.055 0 0 1 4.929-.44c-1.491.402-2.991.48-4.93.44z"/><path fill="#3F9FA7" d="M656.6 485.732c-2.323.188-4.987.209-8.094.193a97.865 97.865 0 0 1 8.093-.193z"/><path fill="#11393C" d="M618.253 456.786c.928-.304 2.285-.497 3.788-.414-1.022.359-2.19.442-3.788.414z"/><path fill="#21575C" d="M414.138 240.528c-1.016.818-2.358 1.505-4.038 2.06 1.012-.817 2.362-1.503 4.038-2.06z"/><path fill="#1B3F42" d="M736.88 442.147c-.194-1.09-.182-2.389.184-3.905.243 1.087.133 2.392-.184 3.905z"/><path fill="#21575C" d="M397.209 251.553c-.762.813-1.82 1.458-3.186 1.935.759-.813 1.824-1.458 3.186-1.935z"/><path fill="#11393C" d="M388.226 456.735c.66-3.013 2.297-1.92 3.973-.418-1.164.372-2.351.453-3.973.418z"/><path fill="#21575C" d="M471.132 338.8c-.746.726-1.755 1.27-3.076 1.697.73-.705 1.771-1.292 3.076-1.698z"/><path fill="#143738" d="M667.503 525.578c-.044-.724.178-1.68.658-2.729.041.77-.175 1.634-.658 2.73z"/><path fill="#3F9FA7" d="M504.633 485.728c-1.375.182-3.054.204-5.15.192a39.543 39.543 0 0 1 5.15-.192z"/><path fill="#21575C" d="M363.934 281.311c-.267 1.07-.841 2.278-1.758 3.49.255-1.114.852-2.233 1.758-3.49z"/><path fill="#11393C" d="M564.237 456.777c.622-.282 1.658-.458 2.82-.376-.718.333-1.562.407-2.82.376z"/><path fill="#3F9FA7" d="M437.66 485.747c-1.074.179-2.432.2-4.196.188a26.178 26.178 0 0 1 4.195-.188z"/><path fill="#21575C" d="M409.354 242.802c-.39.669-1.085 1.376-2.127 2.053.376-.693 1.1-1.353 2.127-2.053z"/><path fill="#143738" d="M357.41 522.447c.254.557.347 1.228.44 1.9l-.601.044c0-.61 0-1.22.161-1.944z"/><path fill="#061D20" d="M580.933 229.871c.021.808-.026 1.442-.27 2.151-.063-.724.07-1.525.27-2.151z"/><path fill="#21575C" d="M359.128 286.937c.043.84-.165 1.878-.703 3.038-.07-.865.192-1.852.703-3.038zM392.695 254.978c-.49.667-1.314 1.28-2.472 1.874.49-.655 1.314-1.292 2.472-1.874z"/><path fill="#11393C" d="M645.209 456.754c.333-.247 1.057-.4 1.879-.324-.432.292-.96.355-1.88.324zM684.198 456.686c.387-.294 1.175-.491 1.993-.395-.51.36-1.051.425-1.993.395zM720.115 456.696c.335-.522.972-.996 1.917-1.368-.333.54-.975.978-1.917 1.368z"/><path fill="#3F9FA7" d="M444.685 485.761c-.777.169-1.815.19-3.24.178.734-.132 1.857-.228 3.24-.178zM573.679 485.743c-.775.167-1.809.19-3.229.176.733-.13 1.851-.226 3.229-.176zM587.684 485.754c-.777.17-1.814.192-3.237.178.734-.132 1.856-.23 3.237-.178z"/><path fill="#21575C" d="M473.402 334.007c.056.617-.156 1.39-.706 2.252-.079-.64.18-1.368.706-2.252z"/><path fill="#143738" d="M667.06 529.134c-.026-.165.207-.35.355-.346.178.259.206.513.235.767-.189-.085-.377-.17-.59-.421z"/><path fill="#21575C" d="M404.14 246.45c.021.413-.293.912-.827 1.337.017-.466.254-.857.826-1.336zM401.228 248.613c-.02.406-.377.838-.932 1.18.065-.445.33-.8.932-1.18z"/><path fill="#11393C" d="M377.147 456.671c.083-.187.52-.31 1.01-.248-.184.228-.42.27-1.01.248z"/><path fill="#000101" d="M561.443 343.363a4.623 4.623 0 0 0-.168-.293s.014.101.11.194c.095.093.036.077.058.099z"/><path fill="#21575C" d="M406.581 245.002c.031.183-.237.454-.678.55.01-.27.195-.366.678-.55zM393.461 254.036c.125.161.099.486-.18.903-.263-.22-.17-.498.18-.903zM381.806 264.139c.043.17-.11.474-.53.826-.117-.24.083-.487.53-.826zM369.833 276.159c.044.168-.114.47-.53.834-.119-.234.077-.489.53-.834zM368.85 277.17c.036.17-.136.465-.569.808-.104-.239.103-.483.569-.809zM367.81 278.122c.039.189-.138.48-.581.79-.106-.261.105-.497.58-.79zM360.374 285.933c.098.193.05.493-.259.762-.192-.273-.067-.48.26-.762z"/><path fill="#000101" d="M325.358 353.512c-.117.06-.256.145-.395.231.064-.02.128-.039.292-.167.1-.108.08-.037.103-.064zM323.38 361.588c.03-.007-.217-.001-.217-.001s.188.093.186.019c-.001-.075.002-.012.031-.018zM702.648 362.544c-.006-.032.12.144.12.144s.01-.185-.078-.165c-.087.02-.037.052-.042.02zM318.38 385.569c.027-.01-.22.002-.22.002s.187.093.189.018c.002-.075.002-.01.03-.02z"/><path fill="#21575C" d="M416.592 239.013c.026.172-.245.429-.686.518.017-.257.203-.345.686-.518zM418.611 237.976c.049.207-.078.5-.46.714-.119-.305.062-.489.46-.714z"/><path fill="#1B3F42" d="M735.775 444.142c-.131-.171-.102-.482.17-.863.26.226.176.491-.17.863z"/><path fill="#3F9FA7" d="M405.84 485.874c.113.025-.34.07-.567.047-.001-.094.226-.11.567-.047z"/><path fill="#11393C" d="M335.284 455.896c.052-.166.321-.31.622-.244.03.212-.404.265-.622.244z"/><path fill="#3F9FA7" d="M358.844 485.916c.121.016-.358.098-.6.09-.008-.091.233-.123.6-.09z"/><path fill="#11393C" d="M347.29 455.925c.06-.183.324-.317.606-.238.016.213-.4.29-.606.238zM373.28 455.832c.049-.149.32-.287.627-.222.038.203-.405.233-.627.222zM689.252 455.966c.097-.197.37-.273.623-.127-.02.223-.446.247-.623.127zM681.275 455.744c.042-.124.307-.26.622-.212.05.185-.398.2-.622.212zM652.295 455.952c.055-.187.317-.334.601-.266.021.216-.393.306-.6.266zM649.303 456.078c.064-.194.323-.354.585-.272.002.241-.39.306-.585.272z"/><path fill="#000101" d="M676.466 632.42c.064-.034-.065.034 0 0z"/><path fill="#11393C" d="M383.276 455.785c.048-.133.32-.263.634-.195.04.197-.41.198-.634.195z"/><path fill="#000101" d="M550.455 759.651c-.064.13-.156.268-.248.406.056-.049.112-.098.216-.292.049-.144.004-.105.032-.114zM558.472 757.645c.034 0-.172.109-.172.109s.214-.027.187-.098c-.028-.07-.049-.011-.015-.011zM562.523 756.637c.044-.007-.171.142-.171.142s.12.036.151-.08c.031-.116-.023-.055.02-.062zM461 755.968c-.247.059-.475.14-.86.09-.155-.133-.177-.064.091-.002.455.033.642.006.829-.021l-.06-.067zM671.617 648.419c-.028.007.22.005.22.005s-.186-.099-.189-.025c-.002.074-.003.012-.03.02zM352.368 642.42c.007.03-.162-.128-.162-.128s.058.196.131.16c.074-.036.025-.06.031-.032zM390.433 593.532c-.028-.06.028.059 0 0z"/><path d="M360.343 534.515a5.378 5.378 0 0 1-.468-.36c.07.063.14.126.355.287.144.099.102.037.113.073z"/><path fill="#21575C" d="M432.668 230.976c.244.341.08.597-.541.633-.093-.307.104-.473.54-.633zM430.658 232.015c.039.195-.1.487-.498.717-.1-.284.093-.47.498-.717z"/><path fill="#368B93" d="M565.992 755.996a6.064 6.064 0 0 0-.619-.502c.255.05.51.101.649.358-.117.206-.058.166-.03.144zM460.944 755.8c-.071.262-.258.29-.727.289.015-.193.313-.359.727-.289z"/><path fill="#3B979F" d="M581.398 330.57c-.33-28.724-.35-57.729-.387-86.733-.004-2.981-.104-5.963-.148-9.416.387.333 1.092 1.138 1.093 1.944.031 30.985-.001 61.97-.036 92.955 0 .324-.14.647-.522 1.25z"/><path fill="#368B93" d="M332.966 331.054c.202.03.428.016.648.045.03.004.031.225.045.345-.205.02-.411.038-.621-.21-.004-.265-.05-.21-.072-.18z"/><path fill="#3F9FA7" d="M510.637 455.67c-27.387.36-54.973.34-83.014.345.546-.355 1.547-1.063 2.548-1.063 26.265-.014 52.53.043 78.795.101.49.002.98.157 1.67.618z"/><path fill="#1B3F42" d="M643.008 425.488c5.632-.438 11.407-.566 17.537-.505-5.451 3.512-11.429 1.992-17.537.505zM675.291 425.545c5.493-.478 11.211-.587 17.286-.503-5.348 3.017-11.19 2.333-17.286.503zM626.936 425.59c4.402-.52 8.863-.653 13.656-.6-4.132 3.57-8.886 1.898-13.656.6zM592.08 425.56c2.925-.506 5.819-.658 8.892-.605-2.854.456-5.888.707-8.891.605zM603.088 425.536c1.722-.502 3.67-.647 5.84-.586-1.723.451-3.669.697-5.84.586zM619.096 425.614c1.722-.514 3.667-.672 5.829-.62a18.83 18.83 0 0 1-5.83.62zM664.242 425.495c2.561-.46 5.288-.578 8.343-.512-2.507.407-5.343.63-8.343.512zM426.002 425.547c1.855-.462 3.845-.607 6.107-.54-1.515 3.28-3.758 1.93-6.107.54zM402.706 425.52c1.919-.407 3.92-.553 6.114-.488-1.882.39-3.956.57-6.114.488zM698.258 425.567c1.885-.49 3.97-.62 6.36-.57-1.85.431-4.005.68-6.36.57zM507.068 425.573c1.118-.48 2.435-.62 3.912-.546-1.131.438-2.422.663-3.912.546zM715.264 425.538c1.597-.592 3.388-.833 5.626-.895.446.178.502.657.502.657-1.978.196-3.955.392-6.128.238zM614.048 425.512c.823-.44 1.831-.567 2.969-.492-.842.402-1.812.604-2.969.492zM557.631 425.502c.923-.438 1.88-.585 3.297-.548-.78.402-2.022.62-3.297.548zM551.8 425.299c1.106-.24 2.118-.336 3.875-.257-.741 1.996-2.262 3.089-3.875.257zM709.221 425.543c.968-.46 2.1-.584 3.47-.53-.944.408-2.125.636-3.47.53zM525.964 425.443c1.074-.387 2.214-.512 3.652-.448-.59 3.407-2.177 1.39-3.652.448zM442.95 425.581c.623-.51 1.33-.64 2.12-.574-.626.449-1.332.702-2.12.574zM546.662 425.422c.575-.342 1.204-.448 2.29-.39-.441.318-1.34.472-2.29.39zM434.72 425.474c.61-.388 1.31-.518 2.21-.446-.572.37-1.346.537-2.21.446zM542.164 425.504c.726-.438 1.556-.567 2.659-.511-.67.396-1.613.608-2.66.51zM565.945 425.385c.791-.357 1.61-.475 2.69-.402-.714.34-1.689.49-2.69.402zM493.912 425.473c.779-.376 1.603-.5 2.817-.448-.124 3.622-1.64.997-2.817.448zM459.131 425.448c.455-.376.98-.486 1.734-.429-.402.343-1.033.52-1.734.43zM482.985 425.445c.445-.376.97-.488 1.724-.43-.396.345-1.019.52-1.724.43zM503.156 425.484c.425-.38.966-.499 1.654-.442-.415.351-.977.528-1.654.442zM347.088 425.575c.51-.482 1.04-.596 1.714-.539-.468.416-1.081.661-1.714.539zM336.16 425.474c.423-.384.963-.506 1.648-.452-.414.355-.973.534-1.649.452zM331.154 425.495c.43-.38.973-.493 1.662-.43-.42.35-.984.523-1.662.43zM315.174 425.434c.414-.363.945-.473 1.624-.416-.404.334-.956.501-1.624.416z"/><path fill="#368B93" d="M721.463 425.344c-.071-.044-.127-.523-.178-.759.353-.281.756-.326 1.298-.304.14.068.185.557.24.797-.178.259-.412.279-.965.412-.321.114-.273.058-.273.058s-.05-.16-.122-.204z"/><path fill="#1B3F42" d="M373.947 425.463c.503-.35 1.074-.458 1.895-.399-.442.325-1.134.484-1.895.4zM519.028 425.408c.432-.35.994-.465 1.809-.413-.392.328-1.035.488-1.81.413zM491.72 425.866c-.12.148-.237.166-.354.184.119-.104.237-.209.353-.184zM463.915 425.366c.19-.259.388-.32.883-.289-.094.224-.484.355-.883.289zM398.05 425.467c.158-.494.416-.594.919-.355-.186.281-.54.418-.919.355zM391.924 425.396c.148-.476.402-.568.885-.321-.177.268-.512.391-.885.32zM384.707 425.87c-.114.14-.226.157-.338.174.113-.1.226-.198.338-.174zM379.116 426.296c.246-.24.498-.258.747-.236.019.001.033.417.014.42-.248.038-.503.038-.761-.184zM344.377 425.596c.116-.24.104-.173.093-.207-.012.237-.015.508-.017.78-.064-.112-.128-.223-.076-.573zM312.403 425.581c.105-.189.078-.116.061-.152.058.082.133.2.208.317-.125.008-.25.016-.27-.165zM318.422 425.584c.106-.173.076-.103.06-.139.054.076.124.187.193.298-.12.004-.24.01-.253-.16zM320.356 425.669c.153-.293.164-.246.166-.274l-.083.983c-.079-.139-.157-.277-.083-.71zM438.486 425.565c.075-.073.03-.014.008-.045-.021-.032.074.202.074.202s-.157-.084-.082-.157zM350.498 425.594c.07-.063.023-.005.004-.037-.02-.032.063.18.063.18s-.137-.079-.067-.143zM352.502 425.598c.068-.062.022-.003.001-.036-.02-.032.063.175.063.175s-.132-.076-.064-.139zM369.492 425.575c.074-.07.028-.012.008-.043-.02-.031.07.196.07.196s-.151-.082-.078-.153zM370.929 425.9c.227.112.496.229.764.346-.226.025-.452.05-.718-.17-.04-.246-.006-.17-.046-.176zM376.216 425.754c.035-.3.048-.323.052-.344.095.28.187.58.279.882-.123-.08-.245-.158-.331-.538zM416.482 425.55c.078-.077.03-.016.008-.049-.022-.032.077.213.077.213s-.163-.087-.085-.164zM424.5 425.59c.07-.067.026-.01.006-.04-.02-.032.067.183.067.183s-.142-.077-.072-.144zM446.485 425.58c.072-.07.028-.011.007-.042-.02-.031.071.192.071.192s-.15-.08-.078-.15zM304.509 425.6c.066-.061.018 0-.002-.034-.02-.033.062.168.062.168s-.126-.073-.06-.134zM721.52 425.613c.065-.065.017-.009-.004-.04-.02-.031.067.176.067.176s-.126-.07-.062-.136zM563.552 426.396c.038.06-.037-.06 0 0zM571.493 425.576c.073-.07.028-.012.007-.043-.02-.031.07.195.07.195s-.15-.082-.077-.152zM576.407 425.584c.122-.225.102-.154.09-.19-.078.114-.145.265-.09.19zM579.49 425.57c.073-.072.028-.013.007-.045-.021-.03.072.2.072.2s-.154-.083-.08-.155zM587.487 425.542c.08-.079.031-.018.01-.05-.023-.033.076.218.076.218s-.166-.09-.086-.168zM590.483 425.552c.078-.076.03-.016.009-.048-.022-.032.076.21.076.21s-.162-.086-.085-.162zM612.42 425.578c.117-.205.09-.132.076-.17-.074.1-.134.238-.076.17zM694.489 425.584c.07-.068.027-.01.006-.041-.02-.03.07.189.07.189s-.147-.08-.076-.148zM696.41 425.58c.114-.207.088-.133.074-.17.061.094.137.225.213.356-.134.007-.268.013-.287-.187zM707.421 425.577c.116-.198.087-.125.072-.162-.072.095-.13.228-.072.162zM539.494 425.582c.072-.07.027-.011.007-.042-.02-.031.07.19.07.19s-.149-.08-.077-.148zM448.417 425.578c.11-.19.081-.118.066-.154.058.085.13.206.203.328-.127.005-.253.011-.27-.174zM486.367 425.571c.09-.198.065-.122.048-.16.066.076.15.19.233.302-.124.02-.248.038-.281-.142zM512.33 425.634c.111-.272.123-.234.123-.257l.002.883c-.078-.118-.157-.236-.125-.626zM515.494 425.59c.07-.067.026-.01.006-.04-.02-.031.068.185.068.185s-.144-.078-.074-.145zM518.479 425.604c.164-.21.134-.146.126-.18-.063.228-.119.492-.174.755-.039-.122-.078-.244.048-.575zM531.493 425.581c.072-.069.027-.01.007-.042-.02-.03.07.191.07.191s-.148-.08-.077-.149z"/></svg>