<svg xmlns="http://www.w3.org/2000/svg" xml:space="preserve" viewBox="0 0 1024 1024"><path d="M675 1025H1V1h1024v1024H675M440.567 171.804c-4.49 3.83-9.076 7.555-13.452 11.512a4602.088 4602.088 0 0 0-34.708 31.707c-9.827 9.072-19.542 18.265-29.314 27.396-4.337 4.053-8.332 8.594-13.135 11.99-5.096 3.604-8.423 8.081-9.893 13.899-2.213 8.759-3.966 17.633-6.088 26.417-4.132 17.098-8.45 34.151-12.556 51.256-1.955 8.14-.76 18.944 8.073 24.213 19.894 11.868 39.268 24.608 59.114 36.558 19.457 11.717 39.308 22.776 58.836 34.376 6.747 4.008 13.277 4.661 20.167.957a437.973 437.973 0 0 0 13.36-7.464c11.335-6.615 22.69-13.2 33.93-19.974 15.114-9.11 30.134-18.375 45.181-27.596 6.526-3.998 13.598-7.557 16.608-15.237 3.654-9.323 6.928-18.795 10.366-28.203 6.153-16.837 12.31-33.673 18.453-50.513 1.491-4.087 1.186-7.955-.406-12.12-3.183-8.331-11.07-11.885-17.044-17.193-12.188-10.827-25.233-20.684-37.798-31.094-12.714-10.533-25.218-21.321-37.92-31.871-12.813-10.642-26.006-20.842-38.535-31.804-6.338-5.546-13.562-7.037-20.928-5.64-4.326.82-8.006 5.05-12.311 8.428m-95.518 461.75c8.517-6.91 17.038-13.815 25.548-20.733 7.595-6.174 15.204-12.331 22.758-18.556 8.053-6.637 15.628-13.952 24.176-19.867 10.377-7.181 11.603-15.836 7.78-25.493-5.603-14.158-12.403-27.84-18.59-41.77a3037.575 3037.575 0 0 1-16.68-38.2c-4.147-9.692-8.92-18.753-19.551-22.861-.598-.231-1.19-.505-1.734-.842-16.264-10.103-32.468-20.305-48.796-30.304-18.947-11.602-38.005-23.021-57.009-34.53-12.073-7.312-18.952-4.65-27.444 4.633-3.264 3.568-5.743 7.84-8.763 11.647-14.294 18.02-28.74 35.921-42.96 54-14.065 17.884-28.046 35.836-41.791 53.965-3.766 4.967-5.59 10.968-2.959 17.174 6.706 15.81 13.617 31.533 20.467 47.28 3.606 8.292 7.542 16.455 10.799 24.88 2.604 6.737 6.897 11.771 13.546 13.988 25.788 8.596 51.712 16.78 77.553 25.217 15.095 4.929 30.087 10.176 45.205 15.03 8.796 2.825 17.3 3.183 24.814-3.881 4.029-3.788 8.713-6.878 13.631-10.777m254.329-201.611c-.915 1.916-1.884 3.807-2.735 5.75-4.518 10.313-2.7 19.207 3.88 24.175 12.977 9.795 26.542 18.816 39.94 28.046 12.286 8.465 24.705 16.737 37 25.188 5.976 4.106 11.792 8.358 19.733 6.069 14.55-4.195 29.147-8.224 43.672-12.502 12.878-3.793 25.702-7.772 38.517-11.774 13.548-4.23 27.094-8.475 40.572-12.923 9.042-2.985 14.154-12.12 12.526-21.367-1.025-5.818-1.992-11.661-2.616-17.532-1.391-13.09-2.344-26.23-3.942-39.292-.43-3.51-1.758-7.504-4.033-10.071-5.055-5.705-10.782-10.865-16.572-15.855-12.637-10.892-25.545-21.467-38.228-32.305-12.71-10.86-25.212-21.96-37.987-32.74-1.798-1.518-4.614-2.482-6.986-2.537-5.547-.126-11.11.455-15.596.693-.599 1.486-.675 2.484-1.196 2.85-19.666 13.85-39.428 27.563-59.036 41.492-5.02 3.565-11.238 6.855-14.047 11.872-11.408 20.378-21.704 41.378-32.866 62.763m13.29 235.153c11.281-4.96 22.546-9.956 33.848-14.868 12.626-5.488 25.19-11.138 37.959-16.276 12.401-4.99 18.503-18.37 9.797-29.168-8.14-10.095-16.537-19.983-24.863-29.927-5.557-6.637-11.045-13.342-16.832-19.776-4.712-5.24-8.993-11.665-14.923-14.85-13.613-7.313-28.025-13.181-42.278-19.248-22.34-9.51-44.79-18.768-67.249-27.998-10.137-4.167-21.276-2.997-26.368 8.635-6.227 14.225-12.9 28.255-19.315 42.4-7.97 17.572-16.372 34.975-23.526 52.875-2.443 6.113-2.725 13.947 3.598 19.077 10.773 8.738 21.746 17.24 32.837 25.57 17.435 13.096 35.093 25.895 52.542 38.973 6.284 4.71 13.375 6.283 20.341 3.605 14.792-5.686 29.222-12.313 44.432-19.024z"/><path fill="#428C9A" d="M440.734 171.463c4.138-3.037 7.818-7.267 12.144-8.087 7.366-1.397 14.59.094 20.928 5.64 12.529 10.962 25.722 21.162 38.535 31.804 12.702 10.55 25.206 21.338 37.92 31.871 12.565 10.41 25.61 20.267 37.798 31.094 5.974 5.308 13.86 8.862 17.044 17.194 1.592 4.164 1.897 8.032.406 12.119-6.143 16.84-12.3 33.676-18.453 50.513-3.438 9.408-6.712 18.88-10.366 28.203-3.01 7.68-10.082 11.239-16.608 15.237-15.047 9.22-30.067 18.486-45.181 27.596-11.24 6.774-22.595 13.36-33.93 19.974a437.973 437.973 0 0 1-13.36 7.464c-6.89 3.704-13.42 3.051-20.167-.957-19.528-11.6-39.38-22.66-58.836-34.376-19.846-11.95-39.22-24.69-59.114-36.558-8.832-5.269-10.028-16.073-8.073-24.213 4.107-17.105 8.424-34.158 12.556-51.256 2.122-8.784 3.875-17.658 6.088-26.417 1.47-5.818 4.797-10.295 9.893-13.898 4.803-3.397 8.798-7.938 13.135-11.99 9.772-9.132 19.487-18.325 29.314-27.397a4602.088 4602.088 0 0 1 34.708-31.707c4.376-3.957 8.962-7.682 13.62-11.853m65.86 218.521c12.973-7.697 25.998-15.309 38.883-23.15 3.372-2.052 7.937-4.176 9.186-7.356 8.62-21.935 16.577-44.135 24.485-66.342.572-1.605-.278-4.679-1.57-5.826-7.954-7.058-16.17-13.823-24.4-20.562-14.264-11.677-28.68-23.168-42.886-34.912-16.512-13.65-32.896-27.456-49.262-41.282-2.428-2.051-4.182-1.858-6.382.273-3.783 3.665-7.815 7.072-11.683 10.651a7520.522 7520.522 0 0 0-27.171 25.26c-10.349 9.67-20.653 19.388-31 29.06-5.3 4.953-10.818 9.685-15.91 14.84-2.636 2.67-5.73 5.742-6.611 9.15-5.714 22.104-10.772 44.375-16.325 66.521-.872 3.478-.495 5.114 2.735 7.027 19.729 11.69 39.297 23.651 58.904 35.546 15.277 9.268 30.483 18.655 45.862 27.75 1.903 1.124 5.312 1.881 6.947.94 15.323-8.83 30.412-18.068 46.199-27.588z"/><path fill="#428D9A" d="M344.784 633.8c-4.653 3.653-9.337 6.743-13.366 10.53-7.514 7.065-16.018 6.707-24.814 3.883-15.118-4.855-30.11-10.102-45.205-15.03-25.84-8.438-51.765-16.622-77.553-25.218-6.649-2.217-10.942-7.251-13.546-13.988-3.257-8.425-7.193-16.588-10.8-24.88-6.85-15.747-13.76-31.47-20.466-47.28-2.632-6.206-.807-12.207 2.959-17.174 13.745-18.129 27.726-36.081 41.79-53.965 14.22-18.079 28.667-35.98 42.961-54 3.02-3.807 5.499-8.08 8.763-11.647 8.492-9.284 15.371-11.945 27.444-4.633 19.004 11.509 38.062 22.928 57.01 34.53 16.327 10 32.53 20.201 48.795 30.304.543.337 1.136.61 1.734.842 10.63 4.108 15.404 13.17 19.55 22.862a3037.575 3037.575 0 0 0 16.681 38.198c6.187 13.93 12.987 27.613 18.59 41.77 3.823 9.658 2.597 18.313-7.78 25.494-8.548 5.915-16.123 13.23-24.176 19.867-7.554 6.225-15.163 12.382-22.758 18.556-8.51 6.918-17.031 13.822-25.813 20.98m-77.848-222.278c-2.847-1.554-5.888-2.836-8.501-4.714-7.007-5.036-6.128-3.484-10.703 2.197-12.446 15.454-24.102 31.54-36.33 47.174-14.089 18.014-28.592 35.706-42.555 53.816-2.136 2.77-6.659 4.927-4.11 10.46 9.564 20.768 18.62 41.77 28.054 62.599.745 1.647 2.726 3.258 4.48 3.842 15.872 5.293 31.845 10.284 47.744 15.499 20.566 6.746 41.051 13.743 61.672 20.316 3.642 1.161 7.51 4.436 11.675 1.1 7.407-5.928 14.805-11.867 22.126-17.9 8.334-6.868 16.487-13.955 24.884-20.743 11.032-8.917 22.304-17.54 33.244-26.565 1.278-1.054 2.082-4.253 1.457-5.783-3.501-8.56-7.45-16.941-11.362-25.329-3.032-6.5-6.419-12.84-9.322-19.396-5.22-11.786-10.147-23.701-15.336-35.501-.604-1.374-1.897-2.657-3.19-3.484-19.64-12.567-40.085-23.813-59.735-36.374-11.094-7.09-22.426-13.81-34.192-21.214z"/><path fill="#428C99" d="M599.606 431.636c10.934-21.078 21.23-42.078 32.638-62.456 2.809-5.017 9.027-8.307 14.047-11.872 19.608-13.93 39.37-27.643 59.036-41.491.521-.367.597-1.365 1.196-2.85 4.486-.239 10.05-.82 15.596-.694 2.372.055 5.188 1.02 6.986 2.537 12.775 10.78 25.278 21.88 37.987 32.74 12.683 10.838 25.591 21.413 38.228 32.305 5.79 4.99 11.517 10.15 16.572 15.855 2.275 2.567 3.603 6.561 4.033 10.07 1.598 13.063 2.551 26.203 3.942 39.293.624 5.871 1.591 11.714 2.616 17.532 1.628 9.247-3.484 18.382-12.526 21.367-13.478 4.448-27.024 8.693-40.572 12.923-12.815 4.002-25.639 7.981-38.517 11.774-14.525 4.278-29.122 8.307-43.672 12.502-7.94 2.29-13.757-1.963-19.732-6.07-12.296-8.45-24.715-16.722-37.001-25.187-13.398-9.23-26.963-18.25-39.94-28.046-6.58-4.968-8.398-13.862-3.88-24.174.851-1.944 1.82-3.835 2.963-6.058m68.41-59.067c-4.128 2.857-8.43 5.5-12.32 8.648-2.42 1.958-4.742 4.4-6.205 7.112-7.344 13.616-14.42 27.377-21.527 41.121-2.737 5.294-5.304 10.676-7.967 16.055 5.662 3.875 10.88 7.408 16.06 11 16.413 11.38 32.698 22.952 49.3 34.05 3.735 2.496 7.045 7.105 12.758 5.288 6.158-1.958 12.311-3.934 18.491-5.821 13.294-4.06 26.614-8.031 39.902-12.105 16.215-4.972 32.428-9.95 48.572-15.142 1.239-.399 2.855-2.604 2.73-3.807a1360.376 1360.376 0 0 0-4.776-40.224c-.48-3.59-.816-7.918-2.958-10.415-4.353-5.072-9.831-9.198-14.956-13.586-11.018-9.432-22.194-18.681-33.137-28.198-9.566-8.32-18.87-16.94-28.36-25.35-2.882-2.553-5.397-4.506-9.795-1.249-14.868 11.011-30.164 21.443-45.813 32.623z"/><path fill="#428D9A" d="M612.352 667.33c-14.894 6.477-29.324 13.104-44.116 18.79-6.966 2.678-14.057 1.106-20.341-3.605-17.449-13.078-35.107-25.877-52.542-38.973-11.091-8.33-22.064-16.832-32.837-25.57-6.323-5.13-6.04-12.964-3.598-19.077 7.154-17.9 15.556-35.303 23.526-52.876 6.414-14.144 13.088-28.174 19.315-42.4 5.092-11.631 16.23-12.801 26.368-8.634 22.459 9.23 44.908 18.487 67.249 27.998 14.253 6.067 28.665 11.935 42.278 19.247 5.93 3.186 10.21 9.611 14.923 14.851 5.787 6.434 11.275 13.139 16.832 19.776 8.326 9.944 16.724 19.832 24.863 29.927 8.706 10.798 2.604 24.177-9.797 29.168-12.769 5.138-25.333 10.788-37.96 16.276-11.3 4.912-22.566 9.909-34.163 15.103m-1.68-26.353c2.375-1.011 4.748-2.027 7.125-3.034 17.301-7.335 34.603-14.669 52.509-22.258-7.447-8.777-14.526-17.133-21.62-25.476-5.618-6.607-10.916-13.53-16.991-19.687-4.552-4.612-9.774-8.793-15.324-12.122-5.227-3.135-11.232-5.011-16.986-7.202-1.478-.563-3.3-.223-4.963-.298-23.398-12.167-48.148-21.673-72.631-32.219-1.096 2.254-1.988 3.984-2.791 5.754-7.78 17.142-15.576 34.276-23.301 51.442-3.725 8.277-7.43 16.568-10.832 24.98-.541 1.337-.027 4.08 1.011 4.917 6.08 4.903 12.458 9.438 18.741 14.09 16.324 12.083 32.719 24.071 48.934 36.297 4.984 3.758 9.205 6.14 15.936 2.832 13.199-6.487 26.964-11.824 41.184-18.016z"/><path d="M506.28 390.185c-15.471 9.32-30.56 18.557-45.883 27.386-1.635.942-5.044.185-6.947-.94-15.379-9.094-30.585-18.481-45.862-27.75-19.607-11.894-39.175-23.856-58.904-35.545-3.23-1.913-3.607-3.549-2.735-7.027 5.553-22.146 10.611-44.417 16.325-66.52.88-3.409 3.975-6.481 6.61-9.15 5.093-5.156 10.612-9.888 15.91-14.841 10.348-9.672 20.652-19.39 31.001-29.06a7520.522 7520.522 0 0 1 27.171-25.26c3.868-3.579 7.9-6.986 11.683-10.651 2.2-2.13 3.954-2.324 6.382-.273 16.366 13.826 32.75 27.632 49.262 41.282 14.207 11.744 28.622 23.235 42.885 34.912 8.23 6.739 16.447 13.504 24.4 20.562 1.293 1.147 2.143 4.221 1.571 5.826-7.908 22.207-15.864 44.407-24.485 66.342-1.249 3.18-5.814 5.304-9.186 7.356-12.885 7.841-25.91 15.453-39.197 23.35zM267.207 411.782c11.495 7.145 22.827 13.864 33.921 20.955 19.65 12.56 40.095 23.807 59.735 36.374 1.293.827 2.586 2.11 3.19 3.484 5.189 11.8 10.116 23.715 15.336 35.5 2.903 6.557 6.29 12.896 9.322 19.397 3.913 8.388 7.861 16.769 11.362 25.33.625 1.53-.179 4.728-1.457 5.782-10.94 9.025-22.212 17.648-33.244 26.565-8.397 6.788-16.55 13.875-24.884 20.743-7.32 6.033-14.72 11.972-22.126 17.9-4.166 3.336-8.033.061-11.675-1.1-20.621-6.573-41.106-13.57-61.672-20.316-15.899-5.215-31.872-10.206-47.744-15.499-1.754-.585-3.735-2.195-4.48-3.842-9.434-20.83-18.49-41.831-28.055-62.6-2.548-5.532 1.975-7.688 4.111-10.46 13.963-18.11 28.466-35.8 42.556-53.815 12.227-15.634 23.883-31.72 36.329-47.174 4.575-5.68 3.696-7.233 10.703-2.197 2.613 1.878 5.654 3.16 8.772 4.973zM668.273 372.306c15.39-10.917 30.687-21.349 45.555-32.36 4.398-3.257 6.913-1.304 9.795 1.25 9.49 8.409 18.794 17.029 28.36 25.349 10.943 9.517 22.12 18.766 33.137 28.198 5.125 4.388 10.603 8.514 14.956 13.586 2.142 2.497 2.478 6.825 2.958 10.415a1360.376 1360.376 0 0 1 4.776 40.224c.125 1.203-1.491 3.408-2.73 3.807-16.144 5.191-32.357 10.17-48.572 15.142-13.288 4.074-26.608 8.045-39.902 12.105-6.18 1.887-12.333 3.863-18.49 5.821-5.714 1.817-9.024-2.792-12.76-5.289-16.601-11.097-32.886-22.668-49.299-34.05-5.18-3.59-10.398-7.124-16.06-10.999 2.663-5.379 5.23-10.76 7.967-16.055 7.106-13.744 14.183-27.505 21.527-41.12 1.463-2.713 3.786-5.155 6.204-7.113 3.891-3.149 8.193-5.791 12.578-8.911zM610.328 641.168c-13.875 6.002-27.64 11.339-40.84 17.826-6.73 3.308-10.951.926-15.935-2.832-16.215-12.226-32.61-24.214-48.934-36.298-6.283-4.65-12.66-9.186-18.74-14.09-1.04-.837-1.553-3.579-1.012-4.916 3.402-8.412 7.107-16.703 10.832-24.98 7.725-17.166 15.52-34.3 23.3-51.442.804-1.77 1.696-3.5 2.792-5.754 24.483 10.546 49.233 20.052 72.63 32.219 1.664.075 3.486-.265 4.964.298 5.754 2.19 11.759 4.067 16.986 7.202 5.55 3.33 10.772 7.51 15.324 12.122 6.075 6.156 11.373 13.08 16.99 19.687 7.095 8.343 14.174 16.7 21.62 25.476-17.905 7.59-35.207 14.923-52.508 22.258a521.748 521.748 0 0 0-7.469 3.224z"/></svg>