<svg xmlns="http://www.w3.org/2000/svg" xml:space="preserve" viewBox="0 0 1024 1024"><path d="M540 1025H1V1h1024v1024H540m369.066-459.427c1.187-4.271 2.373-8.542 3.494-13.427-.042-.41-.085-.819.55-1.743-.233-4.098-.465-8.196-.712-13.007.045-.71.09-1.419.378-2.85-.476-.81-.95-1.618-1.407-3.044.048-.409.096-.817.343-1.911-.419-.491-.838-.982-1.245-2.292.107-.657.495-1.429.28-1.953-3.73-9.085-7.586-18.275-14.48-25.373-16.473-16.96-33.366-33.515-50.104-50.218-31.712-31.648-63.48-63.242-95.121-94.962-7.448-7.467-14.306-15.523-21.758-22.985-5.699-5.706-12.02-10.785-17.86-16.357-6.573-6.27-12.92-12.78-19.359-19.191-.589-.586-1.132-1.218-1.693-1.833-5.687-6.227-11.192-12.633-17.119-18.622-4.2-4.245-9.197-7.699-13.424-11.92-4.925-4.917-9.264-10.415-14.098-15.43-7.762-8.051-15.613-16.025-23.633-23.818-5.775-5.612-12.052-10.708-17.79-16.354-3.918-3.856-7.154-8.396-10.945-12.392-5.057-5.33-10.36-10.426-15.55-15.629-3.205-3.212-6.32-6.52-9.623-9.628-2.695-2.535-5.481-5.011-8.453-7.208-6.861-5.075-13.313-11.143-20.923-14.668-13.25-6.137-27.396-8.349-42.369-8.179-54.658.62-109.328.2-163.994.22-5.529.003-11.178-.315-16.56.67-9.598 1.758-19.219 3.822-28.498 6.794-16.11 5.16-29.667 14.893-42.04 26.155-4.412 4.017-7.618 9.328-11.704 13.743-9.178 9.913-15.004 21.882-19.052 34.353-3.746 11.54-5.119 23.85-7.571 35.994-9.785 1.13-20.426 1.615-30.72 3.763-10.119 2.112-20.372 4.884-29.661 9.28-8.327 3.94-15.578 10.277-23.02 15.93-9.276 7.047-15.054 16.687-19.607 27.29-3.74 8.71-3.133 17.756-3.731 26.836-.757 11.494 4.176 21.143 8.973 30.638 2.52 4.987 7.745 8.71 12.072 12.65 3.909 3.558 7.884 7.333 12.484 9.787 11.472 6.12 23.603 9.74 36.995 8.718 10.477-.799 21.125.294 31.535-.88 4.825-.544 5.55.397 5.483 4.378-.152 9.163.217 18.36-.461 27.482-.676 9.093 1.703 17.578 3.637 26.193 1.633 7.268 4.273 14.029 8.98 20.081 5.777 7.432 10.07 16.14 16.433 22.968 13.898 14.916 28.658 29.032 43.152 43.388 4.572 4.528 9.59 8.61 14.102 13.191 9.67 9.817 19.057 19.913 28.722 29.735a2575.449 2575.449 0 0 0 32.602 32.52c8.852 8.68 18.046 17.014 26.817 25.773 7.766 7.756 15.032 16.012 22.758 23.81 5.602 5.656 11.709 10.808 17.387 16.392a2596.038 2596.038 0 0 1 31.684 31.669c9.479 9.649 18.657 19.593 28.186 29.19 6.438 6.485 13.324 12.52 19.885 18.885a3061.52 3061.52 0 0 1 30.118 29.59c7.407 7.387 14.475 15.121 22.009 22.374 7.33 7.057 14.662 14.232 22.775 20.312 4.52 3.387 10.754 4.395 16 6.924 7.663 3.693 15.883 3.285 23.618 2.155 13.97-2.04 25.701-9.445 35.798-19.128 9.86-9.457 19.344-19.304 29-28.972 37.866-37.91 75.707-75.844 113.63-113.696 6.265-6.253 12.987-12.047 19.335-18.222 7.778-7.566 15.387-15.305 23.062-22.977 11.333-11.33 22.734-22.591 33.965-34.02 9.637-9.809 19.488-19.46 28.419-29.888 4.014-4.687 6.017-11.098 9.624-17.054z"/><path fill="#3E7989" d="M911.513 530.276c-.048.409-.096.817-.23 1.787.358 1.443.804 2.324 1.25 3.205-.045.71-.09 1.419-.245 2.86-.026 4.75.06 8.77.145 12.79.042.41.085.819-.136 1.73-1.483 4.751-2.703 9.002-3.923 13.253-2.915 5.628-4.918 12.04-8.932 16.726-8.931 10.428-18.782 20.08-28.42 29.887-11.23 11.43-22.631 22.692-33.964 34.021-7.675 7.672-15.284 15.411-23.062 22.977-6.348 6.175-13.07 11.969-19.335 18.222-37.923 37.852-75.764 75.786-113.63 113.696-9.656 9.668-19.14 19.515-29 28.972-10.097 9.683-21.829 17.088-35.798 19.128-7.735 1.13-15.955 1.538-23.618-2.155-5.246-2.529-11.48-3.537-16-6.924-8.113-6.08-15.445-13.255-22.775-20.312-7.534-7.253-14.602-14.987-22.01-22.375a3061.52 3061.52 0 0 0-30.117-29.59c-6.56-6.364-13.447-12.4-19.885-18.883-9.529-9.598-18.707-19.542-28.186-29.191a2596.038 2596.038 0 0 0-31.684-31.669c-5.678-5.584-11.785-10.736-17.387-16.391-7.726-7.8-14.992-16.055-22.758-23.811-8.771-8.76-17.965-17.093-26.817-25.773a2575.449 2575.449 0 0 1-32.602-32.52c-9.665-9.822-19.052-19.918-28.722-29.735-4.513-4.581-9.53-8.663-14.102-13.191-14.494-14.356-29.254-28.472-43.152-43.388-6.362-6.827-10.656-15.536-16.434-22.968-4.706-6.052-7.346-12.813-8.979-20.081-1.934-8.615-4.313-17.1-3.637-26.193.678-9.122.309-18.319.461-27.482.066-3.98-.658-4.922-5.483-4.378-10.41 1.174-21.058.081-31.535.88-13.392 1.022-25.523-2.597-36.995-8.718-4.6-2.454-8.575-6.229-12.484-9.788-4.327-3.939-9.552-7.662-12.072-12.649-4.797-9.495-9.73-19.144-8.973-30.638.598-9.08-.009-18.125 3.73-26.835 4.554-10.604 10.332-20.244 19.608-27.29 7.442-5.654 14.693-11.99 23.02-15.931 9.289-4.396 19.542-7.168 29.662-9.28 10.293-2.148 20.934-2.632 30.719-3.763 2.452-12.144 3.825-24.454 7.57-35.994 4.05-12.47 9.875-24.44 19.053-34.353 4.086-4.415 7.292-9.726 11.705-13.743 12.372-11.262 25.928-20.995 42.039-26.155 9.279-2.972 18.9-5.036 28.497-6.793 5.383-.986 11.032-.668 16.561-.67 54.666-.022 109.336.4 163.994-.22 14.973-.17 29.118 2.04 42.37 8.178 7.609 3.525 14.061 9.593 20.922 14.668 2.972 2.197 5.758 4.673 8.453 7.208 3.303 3.108 6.418 6.416 9.623 9.628 5.19 5.203 10.493 10.299 15.55 15.629 3.791 3.996 7.027 8.536 10.946 12.392 5.737 5.646 12.014 10.742 17.789 16.354 8.02 7.793 15.871 15.767 23.633 23.819 4.834 5.014 9.173 10.512 14.098 15.43 4.227 4.22 9.224 7.674 13.424 11.919 5.927 5.99 11.432 12.395 17.119 18.622.56.615 1.104 1.247 1.693 1.833 6.44 6.412 12.786 12.92 19.36 19.191 5.84 5.572 12.16 10.651 17.859 16.357 7.452 7.462 14.31 15.518 21.758 22.985 31.64 31.72 63.409 63.314 95.121 94.962 16.738 16.703 33.63 33.257 50.104 50.218 6.894 7.098 10.75 16.288 14.48 25.373.215.524-.173 1.296-.347 2.576.326 1.2.72 1.777 1.113 2.354M237.35 259.994c-.54 3.606 1.412 4.654 4.602 4.64 10.943-.047 21.886-.036 33.484.116.87-.568 1.741-1.136 2.875-2.515.706-2.391 1.565-4.75 2.092-7.18 2.852-13.16 11.408-22.358 21.712-29.89 9.852-7.203 21.126-10.792 33.587-9.66 6.281.571 12.77.18 18.825 1.639 14.153 3.408 25.312 11.891 33.55 23.661 6.726 9.61 10.674 20.502 10.791 32.503.079 7.983-1.379 15.625-4.072 23.158-4.775 13.359-13.382 23.52-25.428 30.63-10.502 6.199-21.974 9.462-34.314 8.787-3.042-.167-6.166-.424-9.067-1.272-6.866-2.007-14.276-3.31-20.248-6.914-6.768-4.087-12.75-9.894-18.046-15.865-3.939-4.44-7.709-10.033-8.86-15.663-1.166-5.712-3.597-6.922-8.311-6.897-9.333.05-18.666.177-27.997.112-4.56-.032-6.42 1.59-6.379 6.512.208 25.164-.146 50.334.127 75.496.246 22.696.995 45.388 1.64 68.079.181 6.392.858 12.827 3.99 18.537 3.482 6.353 6.377 13.482 11.323 18.506 36.012 36.574 72.502 72.679 108.792 108.98 40.818 40.83 81.548 81.75 122.403 122.544 9.697 9.682 19.8 18.955 29.607 28.527 7.855 7.667 15.596 15.45 23.277 23.291 2.515 2.567 4.547 5.604 7.04 8.193 3.015 3.13 6.295 6.003 9.445 9.002 5.912 5.629 11.9 11.181 17.693 16.931 4.933 4.897 9.257 10.477 14.55 14.923 5.079 4.267 10.677 8.483 16.779 10.757 3.8 1.417 9.061-.414 13.476-1.537 3.38-.86 7.116-2.2 9.569-4.518a2129.572 2129.572 0 0 0 42.509-41.318c40.442-40.4 80.756-80.928 121.145-121.382 3.347-3.353 6.826-6.578 10.34-9.757 2.165-1.96 4.687-3.545 6.732-5.61 2.713-2.741 5.02-5.88 7.674-8.684a1467.766 1467.766 0 0 1 18.344-19.025c5.143-5.242 10.394-10.379 15.596-15.562 4.603-4.586 9.228-9.15 13.804-13.762 7.607-7.668 15.454-14.863 20.266-25.122 4.626-9.865 1.366-18.092-3.37-25.622-4.446-7.07-11.03-12.812-16.77-19.051-7.14-7.763-14.181-15.633-21.613-23.11-18.591-18.704-37.404-37.186-56.078-55.807-11.565-11.532-23.042-23.15-34.552-34.737-8.321-8.376-16.582-16.814-24.98-25.113-2.326-2.298-5.258-3.99-7.545-6.32-5.979-6.093-11.627-12.512-17.653-18.556-4.464-4.477-9.467-8.417-13.945-12.882-3.579-3.57-6.595-7.699-10.1-11.35-5.091-5.303-10.413-10.384-15.606-15.59-2.595-2.6-5.063-5.33-7.697-7.891-3.691-3.587-7.56-6.993-11.208-10.622-3.073-3.057-5.836-6.427-8.935-9.455-2.06-2.013-4.68-3.465-6.688-5.52-7.34-7.514-14.417-15.288-21.818-22.74-4.417-4.446-9.405-8.323-13.858-12.737-4.228-4.191-7.93-8.913-12.152-13.112-9.916-9.865-20.013-19.548-30.017-29.325-3.683-3.6-6.967-7.706-11.028-10.802-11.65-8.884-25.559-12.377-39.67-12.563-45.156-.596-90.328-.45-135.49-.138-14.995.104-30.235.15-44.91 2.764-20.45 3.642-39.03 11.85-53.557 28.12-11.37 12.734-19.278 26.65-22.095 43.477-.803 4.799-1.951 9.54-2.972 13.735l-.375-2.079-.508.105c.104.92.209 1.841.273 3.53M132.884 351.36c3.796 4.584 7.086 9.746 11.506 13.618 6.724 5.892 15.347 7.998 24.065 9.121 5.174.667 10.455 1.4 15.615 1.047 6.393-.439 12.715-1.955 19.061-3.04 2.87-.492 4.72-1.77 4.71-5.153a13129.79 13129.79 0 0 1-.027-73.405c.007-3.068-1.425-4.375-4.208-4.135-4.062.35-8.085 1.255-12.148 1.458-13.104.657-25.207 4.422-36.715 10.666-17.102 9.279-28.836 28.046-21.86 49.823m235.064-88.615c-6.502-15.436-24.17-22.12-37.97-18.971-17.432 3.979-29.653 23.726-25.163 39.025 4.293 14.625 18.94 26.994 32.71 25.548 7.5-.788 14.856-2.852 21.055-7.567 11.153-8.484 16.688-25.475 9.368-38.035z"/><path fill="#204047" d="M912.771 550.66c-.423-3.762-.509-7.782-.476-12.176.35 3.723.582 7.821.476 12.176zM908.72 565.737c.874-4.087 2.094-8.338 3.61-12.783a113.045 113.045 0 0 1-3.61 12.783zM912.654 534.907c-.567-.52-1.013-1.401-1.381-2.535.552.556 1.027 1.365 1.381 2.535zM911.612 529.933c-.493-.234-.886-.812-1.218-1.602.48.278.9.769 1.218 1.602z"/><path d="M274.78 264.587c-10.942.01-21.885 0-32.828.047-3.19.014-5.143-1.034-4.417-5.038.185-.397.456-.587.456-.587.99-4.767 2.138-9.507 2.941-14.306 2.817-16.826 10.725-30.743 22.095-43.477 14.527-16.27 33.107-24.478 53.557-28.12 14.675-2.614 29.915-2.66 44.91-2.764 45.162-.312 90.334-.458 135.49.138 14.111.186 28.02 3.68 39.67 12.563 4.06 3.096 7.345 7.202 11.028 10.802 10.004 9.777 20.101 19.46 30.017 29.325 4.221 4.2 7.924 8.92 12.152 13.112 4.453 4.414 9.441 8.29 13.858 12.737 7.401 7.452 14.477 15.226 21.818 22.74 2.008 2.055 4.627 3.507 6.688 5.52 3.1 3.028 5.862 6.398 8.935 9.455 3.648 3.629 7.517 7.035 11.208 10.622 2.634 2.56 5.102 5.29 7.697 7.892 5.193 5.205 10.515 10.286 15.606 15.59 3.505 3.65 6.521 7.78 10.1 11.349 4.478 4.465 9.48 8.405 13.945 12.882 6.026 6.044 11.674 12.463 17.653 18.555 2.287 2.33 5.219 4.023 7.545 6.321 8.398 8.299 16.659 16.737 24.98 25.113 11.51 11.586 22.987 23.205 34.552 34.737 18.674 18.62 37.487 37.103 56.078 55.807 7.432 7.477 14.473 15.347 21.613 23.11 5.74 6.239 12.324 11.98 16.77 19.051 4.736 7.53 7.996 15.757 3.37 25.622-4.812 10.26-12.659 17.454-20.266 25.122-4.576 4.612-9.2 9.176-13.804 13.762-5.202 5.183-10.453 10.32-15.596 15.562a1467.766 1467.766 0 0 0-18.344 19.025c-2.654 2.805-4.961 5.943-7.674 8.683-2.045 2.066-4.567 3.652-6.732 5.61-3.514 3.18-6.993 6.405-10.34 9.758-40.389 40.454-80.703 80.982-121.145 121.382a2129.572 2129.572 0 0 1-42.51 41.318c-2.452 2.317-6.188 3.658-9.568 4.518-4.415 1.123-9.676 2.954-13.476 1.537-6.102-2.274-11.7-6.49-16.78-10.757-5.292-4.446-9.616-10.026-14.549-14.923-5.792-5.75-11.78-11.302-17.693-16.931-3.15-3-6.43-5.872-9.444-9.002-2.494-2.589-4.526-5.626-7.04-8.193-7.682-7.84-15.423-15.624-23.278-23.29-9.807-9.573-19.91-18.846-29.607-28.528-40.855-40.794-81.585-81.713-122.403-122.544-36.29-36.301-72.78-72.406-108.792-108.98-4.946-5.024-7.84-12.153-11.324-18.506-3.13-5.71-3.808-12.145-3.99-18.537-.644-22.69-1.393-45.383-1.64-68.079-.272-25.162.082-50.332-.126-75.496-.04-4.922 1.82-6.544 6.379-6.512 9.331.065 18.664-.062 27.997-.112 4.714-.025 7.145 1.185 8.312 6.897 1.15 5.63 4.92 11.223 8.859 15.663 5.296 5.971 11.278 11.778 18.046 15.865 5.972 3.605 13.382 4.907 20.248 6.914 2.901.848 6.025 1.105 9.067 1.272 12.34.675 23.812-2.588 34.314-8.787 12.046-7.11 20.653-17.271 25.428-30.63 2.693-7.533 4.15-15.175 4.072-23.158-.117-12-4.065-22.894-10.79-32.503-8.24-11.77-19.398-20.253-33.551-23.661-6.055-1.459-12.544-1.068-18.825-1.639-12.46-1.132-23.735 2.457-33.587 9.66-10.304 7.532-18.86 16.73-21.712 29.89-.527 2.43-1.386 4.789-2.549 7.571-1.329.915-2.201 1.438-3.073 1.96m180.89 290.572c3.488-.28 6.977-.56 11.208-.892.993.026 1.985.053 3.469.641 3.927-.201 7.855-.403 12.36-.649.386.02.771.04 1.582.604 2.286-.17 4.57-.34 7.415-.525.37.05.739.102 1.067.376 0 0 .14.179.366.817 1.8.496 2.618 1.225 1.595 3.32-2.037 4.171-4.012 8.4-5.603 12.754-3.631 9.938-3.238 20.338-3.68 30.732-.43 10.13 3.047 18.485 8.162 26.667 6.078 9.72 14.547 16.992 24.178 22.745 9.105 5.438 19.516 8.003 29.913 9.014 9.51.925 19.21.013 28.822-.255 4.346-.12 8.68-.653 13.022-.974 4.01-.296 8.113-.12 12.015-.925 9.672-1.996 19.207-4.658 28.88-6.643 14.104-2.894 18.673-7.77 18.098-20.123-.3-6.443-9.104-13.98-15.338-12.629-10.167 2.203-20.157 5.275-30.368 7.208-11.075 2.096-22.277 3.954-33.503 4.678-7.364.475-15.051-.468-22.268-2.163-10.692-2.512-21.006-5.805-27.506-16.377-6.957-11.314-6.11-22.437-1.553-33.84 2.274-5.69 5.246-11.132 8.266-16.48 2.316-4.102 4.815-8.08 10.672-8.014 23.48.266 46.963.335 70.445.404 1.393.004 2.998-.299 4.145-1.026 5.093-3.233 7.468-7.424 7.054-14.027-.485-7.718-4.264-13.074-12.128-14.368-13.8-.081-27.6-.184-41.4-.2-1.01-.002-2.019.625-3.244 1.27 0 0-.03.377-.818.414-2.678-.02-5.355-.041-8.307-.484-.551.125-1.103.25-2.406.211-.255-.76-.951-1.74-.698-2.248 2.953-5.919 5.436-12.233 9.38-17.428 1.84-2.424 3.01-6.735 8.095-6.57 12.983.422 25.99.038 38.981.262 7.507.13 14.349-6.403 13.885-13.807-.518-8.282-8.333-15.565-16.84-15.615-7.754-.044-15.509-.01-23.421-.01 2.16-6.25 3.889-12.054 6.168-17.633 2.454-6.004 2.199-12.242 2.91-18.47.95-8.33-.138-16.418-2.61-23.919-5.918-17.956-18.164-30.904-35.065-39.415-10.188-5.131-21.194-6.578-32.352-7.566l-.34-.099s-.116.375-.938.431c-.812-.119-1.624-.238-2.81-.895-.628.008-1.255.017-2.739.05-6.497-.077-12.994-.154-19.479-.136 0 0 .118-.064-.723.179a38.22 38.22 0 0 1-4.314-.439c-2.117.361-4.234.722-7.235 1.215-3.081.143-6.163.286-9.157.486 0 0-.058-.089-.882.254-2.718.399-5.425.92-8.156 1.174-9.348.87-18.294 3.154-26.74 7.297-5.805 2.848-9.376 15.317-5.702 20.674 5.757 8.396 10.082 9.188 19.194 6.705 15.696-4.277 31.624-7.22 47.769-8.215 8.51-.524 17.246.932 25.743 2.326 12.393 2.033 23.84 6.498 30.924 17.73 2.77 4.393 4.74 9.443 6.2 14.45.836 2.865.046 6.257-.254 9.389-.304 3.166-.304 6.557-1.498 9.405-2.863 6.83-6.358 13.393-9.577 20.075-1.691 3.51-4.159 5.105-8.344 5.075-26.49-.187-52.982-.1-79.473-.117-10.002-.006-16.95 5.98-18.272 15.792-.816 6.046 6.542 13.935 12.598 13.874 21.65-.218 43.302-.33 64.954-.394 6.004-.017 6.719 1.195 3.947 6.762a216.953 216.953 0 0 1-9.954 17.886c-.172.04-.343.078-1.444.079-17.68-.003-35.361-.019-53.042.026-1.022.003-2.043.5-3.816.916a2182.296 2182.296 0 0 0-5.896 3.346s-.045.056-.787-.115c-4.384 1.445-5.724 4.507-4.717 9.66-.031 1.385-.063 2.769-.46 4.734.47 6.728 4.83 10.943 12.375 11.578z"/><path fill="#010101" d="M132.878 350.977c-6.971-21.394 4.763-40.161 21.865-49.44 11.508-6.244 23.61-10.01 36.715-10.666 4.063-.203 8.086-1.107 12.148-1.458 2.783-.24 4.215 1.067 4.208 4.135-.059 24.468-.051 48.937.027 73.405.01 3.382-1.84 4.661-4.71 5.152-6.346 1.086-12.668 2.602-19.061 3.04-5.16.355-10.441-.38-15.615-1.046-8.718-1.123-17.34-3.229-24.065-9.12-4.42-3.873-7.71-9.035-11.512-14.002z"/><path fill="#000101" d="M368.024 263.131c7.243 12.174 1.708 29.165-9.445 37.649-6.199 4.715-13.554 6.78-21.056 7.567-13.77 1.446-28.416-10.923-32.709-25.548-4.49-15.3 7.731-35.046 25.164-39.025 13.799-3.15 31.467 3.535 38.046 19.357z"/><path fill="#1A343E" d="M275.108 264.668c.545-.604 1.417-1.127 2.615-1.636-.546.582-1.416 1.15-2.615 1.636zM237.975 258.724c.016.285-.255.475-.42.488-.27-.907-.374-1.827-.478-2.748l.508-.105c.125.693.25 1.386.39 2.365z"/><path fill="#3E7A8A" d="M443.662 543c.031-1.385.063-2.77.341-4.83 1.902-3.389 3.557-6.1 5.212-8.813 0 0 .045-.056.448-.146 4.146-.72 7.881-1.844 11.632-1.897 15.491-.215 30.989-.024 46.48-.215 2.078-.026 4.14-1.38 6.208-2.118 3.154-5.972 6.42-11.888 9.43-17.933 2.77-5.567 2.056-6.78-3.948-6.762-21.652.065-43.304.176-64.954.394-6.056.061-13.414-7.828-12.598-13.874 1.322-9.813 8.27-15.798 18.272-15.792 26.491.018 52.983-.07 79.473.117 4.185.03 6.653-1.564 8.344-5.075 3.22-6.682 6.714-13.246 9.577-20.075 1.194-2.848 1.194-6.239 1.498-9.405.3-3.132 1.09-6.524.254-9.39-1.46-5.006-3.43-10.056-6.2-14.449-7.084-11.232-18.531-15.697-30.924-17.73-8.497-1.394-17.234-2.85-25.743-2.326-16.145.994-32.073 3.938-47.769 8.215-9.112 2.483-13.437 1.69-19.194-6.705-3.674-5.357-.103-17.826 5.702-20.674 8.446-4.143 17.392-6.428 26.74-7.297 2.731-.254 5.438-.775 8.628-1.128.815.194 1.157.342 1.499.49.004-.115.048-.31.007-.33-.386-.19-.787-.349-1.183-.517 3.081-.143 6.163-.286 10.001-.326 2.941-.288 5.126-.68 7.31-1.072 1.16.064 2.321.129 3.87.066.389-.126.323-.147.323-.147 6.497.077 12.994.154 20.047.394 1.222.217 1.889.271 2.556.326.813.118 1.625.237 2.955.392.517.035.738-.078.738-.078 11.18.698 22.186 2.145 32.374 7.276 16.901 8.511 29.147 21.46 35.065 39.415 2.472 7.5 3.56 15.59 2.61 23.92-.711 6.227-.456 12.465-2.91 18.47-2.28 5.578-4.008 11.383-6.168 17.633 7.912 0 15.667-.035 23.422.01 8.506.048 16.32 7.332 16.84 15.614.463 7.404-6.38 13.936-13.886 13.807-12.992-.224-25.998.16-38.981-.262-5.086-.165-6.255 4.146-8.095 6.57-3.944 5.195-6.427 11.509-9.38 17.428-.253.507.443 1.488 1.235 2.476 1.073.146 1.608.064 2.144-.017 2.677.02 5.354.042 8.891.189 14.256.156 27.652.21 41.048.17 1.063-.004 2.123-.67 3.339-1.04.153-.014.45.07.45.07 7.63.483 11.41 5.839 11.894 13.557.414 6.603-1.96 10.794-7.054 14.027-1.147.727-2.752 1.03-4.145 1.026-23.482-.069-46.965-.138-70.445-.404-5.857-.067-8.356 3.912-10.672 8.014-3.02 5.348-5.992 10.79-8.266 16.48-4.557 11.403-5.404 22.526 1.553 33.84 6.5 10.572 16.814 13.865 27.506 16.377 7.217 1.695 14.904 2.638 22.268 2.163 11.226-.724 22.428-2.582 33.503-4.678 10.211-1.933 20.201-5.005 30.368-7.208 6.234-1.35 15.038 6.186 15.338 12.629.575 12.352-3.994 17.229-18.097 20.123-9.674 1.985-19.209 4.647-28.88 6.643-3.903.806-8.006.629-12.016.925-4.342.321-8.676.854-13.022.974-9.612.268-19.312 1.18-28.822.255-10.397-1.011-20.808-3.576-29.913-9.014-9.631-5.753-18.1-13.024-24.178-22.745-5.115-8.182-8.592-16.537-8.162-26.667.442-10.394.049-20.794 3.68-30.732 1.59-4.354 3.566-8.583 5.603-12.754 1.023-2.095.205-2.824-1.537-3.64.311-.453.564-.587.817-.72h-1.2c-.37-.051-.738-.102-1.835-.242-2.856-.036-4.985.017-7.114.07-.385-.02-.77-.04-1.908-.131-4.535.005-8.317.081-12.1.158-.992-.026-1.984-.053-3.807-.145-4.238-.104-7.644-.142-11.335-.377-5.92-1.666-8.665-6.064-11.052-10.824z"/><path fill="#22414B" d="M513.72 524.957c-1.805.763-3.867 2.116-5.944 2.142-15.492.19-30.99 0-46.481.215-3.75.053-7.486 1.176-11.602 1.876 1.571-1.032 3.517-2.133 6.308-3.219 17.803-.008 34.762-.008 51.72-.095 1.742-.008 3.482-.537 5.222-.824.172-.04.343-.079.778-.095z"/><path fill="#5198AC" d="M512.478 525.032c-1.275.307-3.015.836-4.757.844-16.958.087-33.917.087-51.345.02.553-.357 1.574-.854 2.596-.857 17.68-.045 35.361-.029 53.506-.007zM606.575 525.614c.117.405-.18.321-.808.324-14.998.012-29.367.02-43.737.03 1.01-.335 2.018-.962 3.027-.96 13.8.016 27.6.119 41.518.606z"/><path fill="#1A343E" d="M561.922 526.123c14.478-.164 28.847-.173 43.691-.172-.587.369-1.647 1.034-2.71 1.037a2577.5 2577.5 0 0 1-40.654-.188c-.465-.145-.435-.522-.327-.677z"/><path fill="#22414B" d="M443.48 543.29c2.57 4.469 5.314 8.867 11.217 10.733.267.397.224.796.224.796-6.795-.296-11.155-4.511-11.442-11.53z"/><path fill="#17292E" d="M470.102 554.626c3.537-.358 7.32-.434 11.565-.417-3.464.295-7.392.497-11.565.417zM455.296 554.988c-.375-.17-.332-.568-.315-.768 3.424-.162 6.83-.124 10.696.006-3.03.372-6.518.652-10.381.762z"/><path fill="#22414B" d="M448.844 529.271c-1.284 2.798-2.939 5.51-4.826 8.484-1.27-4.062.07-7.124 4.826-8.484z"/><path fill="#17292E" d="M484.077 554.59c1.916-.325 4.045-.378 6.621-.335a36.399 36.399 0 0 1-6.62.335z"/><path fill="#22414B" d="M487.79 363.214c-1.769.515-3.954.907-6.453 1.13 1.802-.531 3.92-.892 6.452-1.13z"/><path fill="#1A343E" d="M552.827 526.42c-.399.291-.934.373-1.631.308.39-.27.942-.395 1.63-.309z"/><path fill="#22414B" d="M514.814 363.706c-.48.215-1.147.161-1.941-.068.5-.184 1.127-.193 1.941.068z"/><path fill="#17292E" d="M492.792 554.601c.42-.111.821-.111 1.221-.111-.253.133-.506.267-.93.4-.171.002-.311-.177-.29-.289z"/><path fill="#22414B" d="M492.404 363.303c-.006-.047.06-.026.092-.021.032.005-.086.069-.092.021zM518.705 364.145c-.01.145-.232.258-.338.195-.107-.064.01-.439.01-.439s.34.1.328.244zM470.937 364.763c.353.14.754.3 1.14.489.041.02-.003.215-.007.33-.342-.148-.684-.296-1.087-.661-.06-.218-.002-.13-.046-.158z"/></svg>