<svg xmlns="http://www.w3.org/2000/svg" xml:space="preserve" viewBox="0 0 1024 1024"><path d="M597 1025H1V1h1024v1024H597M372.342 171.085c-.409.301-.818.602-2.015.859-2.205 1.24-4.41 2.482-7.492 3.627-.578-.11-1.156-.22-2.509-.465-.149.573-.298 1.145-1.282 1.504-.984.133-1.968.266-3.735.414-1.069.377-2.137.755-3.972 1.136-1.75.615-3.502 1.23-6.057 1.875-1.473.406-2.946.812-5.165 1.055-2.338.719-4.675 1.438-7.732 1.918-1.173.39-2.345.78-4.205 1.037-1.014.44-2.028.88-3.815 1.084-1.898.873-3.795 1.745-6.528 2.457-1.54.118-3.08.237-5.31.568-1.268.537-2.535 1.075-4.357 1.537-.373-.01-.745-.021-1.572-.379-.558-.065-1.116-.13-2.295-.288-.692.279-1.385.557-2.846 1.013-.524.049-1.047.098-2.212.027-.658.316-1.316.632-2.805 1.178-.861-.005-1.722-.01-3.204-.14-.631.304-1.263.607-2.778 1.065a65.6 65.6 0 0 1-4.31-.118c-.99.538-1.981 1.076-3.72 1.332-.53-.035-1.062-.071-2.211-.256-.695.269-1.39.538-2.276 1.24 0 0-.157.447-.91.423-1.006.035-2.01.07-3.56-.341-1.242.448-2.485.896-4.406 1.297-.677.02-1.355.04-2.576-.309-.86-.099-1.72-.197-3.316-.408-1.059.328-2.118.657-3.327 1.378 0 0-.067.414-.643.33-.387-.009-.774-.017-1.784-.368-1.178-.062-2.356-.125-4.212-.275-.679.046-1.358.092-2.762.219-1.547.508-3.094 1.016-5.227 1.442-.394.001-.788.002-1.756-.335-.875-.073-1.75-.145-3.53-.307-4.924.442-9.85.884-15.686 1.099-2.085-.063-4.205-.389-6.243-.11-1.763.242-3.433 1.17-5.833 1.986-1.32.543-2.64 1.086-4.555 1.514a40.29 40.29 0 0 1-2.377 2.613c-.832.816-1.664 1.632-3.113 2.62-.41 1.395-.82 2.79-1.326 4.833.04.431.08.863-.165 1.702 0 0-.337.365-.3.274 0 0-.125-.032-.126.917-.045 11.495-.066 22.99-.139 34.484-.12 19.149-.273 38.297-.524 57.37 0 0 .11.003.371.728.059 2.16.168 4.32.169 6.479.019 49.073.06 98.147.017 147.22-.014 15.96-.255 31.919-.774 48.311.449 1.667.897 3.334 1.42 5.628.07.415.14.829.018 2.083.08 1.713.16 3.427.07 5.89-.017.767-.033 1.534-.341 2.787-.09.746-.178 1.493-.326 2.85.447.615.893 1.23 1.406 2.52-.067 1.122-.134 2.243-.48 3.376l-.132.34s.301.236.375.654c0 0 .005.424-.207 1.103.468.949.936 1.898 1.5 3.706-.076 2.013-.152 4.025-.382 6.535.427.435.854.87 1.396 2.067.031 1.282.062 2.565-.248 4.513.44.985.88 1.971 1.375 3.683-.048.724-.097 1.448-.4 2.586.431.57.863 1.14 1.373 2.502-.1 1.05-.2 2.1-.508 3.585.447.552.894 1.105 1.41 2.393-.067.728-.136 1.455-.417 2.626.494.527.989 1.055 1.491 2.25-.086.435-.173.87-.43 1.792.425.437.85.874 1.317 2.19 1.495 7.241 2.678 14.565 4.584 21.695 1.547 5.79 3.617 11.5 6.058 16.978 7.416 16.646 15.11 33.167 22.73 49.722 1.104 2.397 2.125 4.9 3.639 7.029 6.138 8.631 12.478 17.118 18.695 25.693 4.088 5.638 7.811 11.568 12.215 16.943 4.553 5.557 9.863 10.486 14.598 15.902 4.463 5.104 8.248 10.84 12.977 15.665 7.723 7.88 15.902 15.318 24.02 22.8 5.501 5.07 11.222 9.901 16.854 14.828 6.936 6.068 13.68 12.376 20.868 18.128 11.565 9.254 23.178 18.485 35.222 27.094 17.037 12.178 34.362 23.965 51.795 35.574 14.357 9.561 29.042 18.629 43.594 27.898 9.658 6.152 20.286 7.221 29.993 1.827 15.013-8.342 29.272-18.057 43.712-27.404 7.574-4.902 14.873-10.23 22.26-15.417 16.137-11.328 32.357-22.543 48.325-34.105 6.766-4.9 12.946-10.604 19.463-15.855 9.051-7.295 18.239-14.422 27.228-21.79 4.772-3.912 9.325-8.101 13.824-12.327 2.103-1.977 3.694-4.496 5.783-6.49 3.773-3.601 8-6.752 11.577-10.528 5.578-5.889 10.764-12.149 16.13-18.24 3.549-4.026 7.286-7.898 10.641-12.079 3.937-4.906 7.608-10.03 11.293-15.133 6.236-8.635 12.725-17.113 18.47-26.066 4.073-6.347 6.961-13.443 10.638-20.06 2.491-4.485 5.954-8.483 8.053-13.12 3.363-7.428 5.87-15.238 8.904-22.822 1.983-4.96 4.36-9.765 6.343-14.726.692-1.73.537-3.78 1.104-5.58 2.154-6.834 5.028-13.499 6.544-20.464 2.09-9.608 3.227-19.425 4.708-29.162.922-6.062 1.724-12.143 3.039-18.572-.036-.904-.071-1.808-.092-3.368-.043-.654-.087-1.308.677-2.241.081-7.103.162-14.206.489-21.952.111-.2.223-.4.286-.673 0 0 .035.143-.229-.733-.066-.606-.133-1.212.45-2.31.243-2.278.735-4.562.685-6.834-.282-12.861-1.01-25.72-1.01-38.58.003-79.377.192-158.756.148-238.134-.001-3.2-1.723-6.397-2.708-10.23-.322-.777-.643-1.555-.82-2.858a20.01 20.01 0 0 1-1.618-1.498c-1.392-1.345-2.784-2.69-3.99-4.469-.342-.05-.684-.099-1.53-.328-.654-.226-1.308-.45-2.22-1.27-.717-.373-1.433-.747-2.413-1.849-3.334.09-6.666.2-10 .261-2.658.05-5.352.32-7.969 0-5.87-.718-11.693-2.386-17.552-2.47-6.598-.095-13.15-2.64-19.842-.42-1.2.398-2.823-.518-4.258-.784-5.182-.959-10.34-2.108-15.56-2.791-5.834-.764-11.793-.714-17.57-1.737-5.065-.898-9.922-2.906-14.924-4.22-12.287-3.23-25.24-3.827-36.923-9.526-1.59-.776-3.953.126-5.657-.53-4.633-1.78-9.068-4.069-13.649-5.996-8.48-3.567-17.004-7.033-25.52-10.514-4.78-1.953-9.966-3.226-14.304-5.888-15.135-9.288-30.347-18.53-44.821-28.79-11.964-8.48-22.882-18.427-34.35-27.615-4.43-3.549-9.236-6.544-15.26-6.239-5.462.278-10.2 1.687-14.523 5.776-5.334 5.046-11.776 8.91-17.665 13.384-11.31 8.592-22.373 17.526-33.925 25.778-6.434 4.595-13.808 7.851-20.459 12.172-6.217 4.038-13.256 6.24-19.772 9.612-10.36 5.361-21.331 9.542-32.61 14.307-.187.035-.374.07-1.137-.004z"/><path fill="#29788B" d="M325.135 185.365c1.015-.44 2.029-.88 3.281-1.074 2.504 2.51 3.69 1.058 4.686-1.045 2.338-.718 4.675-1.437 7.32-1.994.306.162.243.362.102.463-.204.339-.267.576-.33.814.38-.034.76-.068 1.483-.136 1.696-.819 3.052-1.604 4.408-2.388 1.75-.615 3.501-1.23 5.84-1.626 1.782-.31 2.975-.84 4.167-1.37.984-.133 1.968-.266 3.555-.284.886-.418 1.17-.95 1.454-1.483.578.11 1.156.22 2.444.41 3.811-.984 6.913-2.048 10.18-3.185.218-.536.269-1 .32-1.464 10.713-4.68 21.684-8.86 32.044-14.22 6.516-3.373 13.555-5.575 19.772-9.613 6.651-4.32 14.025-7.577 20.459-12.172 11.552-8.252 22.615-17.186 33.925-25.778 5.889-4.473 12.33-8.338 17.665-13.384 4.322-4.089 9.061-5.498 14.523-5.776 6.024-.305 10.83 2.69 15.26 6.24 11.468 9.187 22.386 19.134 34.35 27.614 14.474 10.26 29.686 19.502 44.821 28.79 4.338 2.662 9.524 3.935 14.304 5.888 8.516 3.48 17.04 6.947 25.52 10.514 4.581 1.927 9.016 4.216 13.649 5.997 1.704.655 4.067-.247 5.657.529 11.683 5.7 24.636 6.297 36.923 9.525 5.002 1.315 9.86 3.323 14.924 4.22 5.777 1.024 11.736.974 17.57 1.738 5.22.683 10.378 1.832 15.56 2.791 1.435.266 3.058 1.182 4.258.784 6.691-2.22 13.244.325 19.842.42 5.86.084 11.682 1.752 17.552 2.47 2.617.32 5.31.05 7.969 0 3.334-.062 6.666-.172 10.077.338.916 1.013 1.754 1.429 2.593 1.844.655.225 1.31.45 2.407.937.595.341.747.42.9.5 1.392 1.346 2.784 2.691 4.409 4.53.569.839.904 1.184 1.24 1.53.322.777.643 1.555.984 2.956.198 2.083.377 3.542.435 5.377-.295 2.193-.619 4.011-.619 5.829-.006 90.817.007 181.634.087 272.452.002 2.25.785 4.5 1.312 7.078.406 1.187.703 2.049 1 2.91.068.606.135 1.212.326 2.235.125.418.153.388.153.388-.112.2-.224.4-.655.938-.568.42-.82.491-1.23.935-.175 5.399-.198 10.411-.182 15.886l.436 5.072c.043.655.087 1.31-.061 2.51-.186 1.425-.181 2.302-.176 3.178-.856 6.072-1.658 12.153-2.58 18.215-1.48 9.737-2.618 19.554-4.708 29.162-1.516 6.965-4.39 13.63-6.544 20.465-.567 1.798-.412 3.85-1.104 5.58-1.983 4.96-4.36 9.764-6.343 14.725-3.033 7.584-5.54 15.394-8.904 22.823-2.099 4.636-5.562 8.634-8.053 13.118-3.677 6.618-6.565 13.714-10.638 20.061-5.745 8.953-12.234 17.431-18.47 26.066-3.685 5.103-7.356 10.227-11.293 15.133-3.355 4.18-7.092 8.053-10.64 12.08-5.367 6.09-10.553 12.35-16.13 18.24-3.577 3.775-7.805 6.926-11.578 10.527-2.09 1.994-3.68 4.513-5.783 6.49-4.5 4.226-9.052 8.415-13.824 12.327-8.99 7.368-18.177 14.495-27.228 21.79-6.517 5.251-12.697 10.955-19.463 15.855-15.968 11.562-32.188 22.777-48.324 34.105-7.388 5.187-14.687 10.515-22.26 15.417-14.441 9.347-28.7 19.062-43.713 27.404-9.707 5.394-20.335 4.325-29.993-1.827-14.552-9.269-29.237-18.337-43.594-27.898-17.433-11.609-34.758-23.396-51.795-35.574-12.044-8.61-23.657-17.84-35.222-27.094-7.188-5.752-13.932-12.06-20.868-18.128-5.632-4.927-11.353-9.758-16.854-14.828-8.118-7.482-16.297-14.92-24.02-22.8-4.73-4.825-8.514-10.56-12.977-15.665-4.735-5.416-10.045-10.345-14.598-15.902-4.404-5.375-8.127-11.305-12.215-16.943-6.217-8.575-12.557-17.062-18.695-25.693-1.514-2.13-2.535-4.632-3.638-7.029-7.62-16.555-15.315-33.076-22.731-49.722-2.44-5.478-4.51-11.189-6.058-16.978-1.906-7.13-3.089-14.454-4.552-22.376-.372-1.12-.775-1.558-1.179-1.997.087-.435.174-.869.274-1.969-.421-1.12-.857-1.574-1.292-2.028.068-.728.137-1.455.187-2.874-.407-1.173-.796-1.655-1.185-2.138.1-1.05.2-2.1.27-3.862-.382-1.21-.735-1.706-1.088-2.202.048-.725.097-1.449.173-2.858-.336-1.678-.7-2.67-1.063-3.663-.03-1.283-.061-2.566-.116-4.466-.423-1.06-.82-1.503-1.218-1.947.076-2.012.152-4.024.22-6.79-.433-1.712-.856-2.672-1.28-3.632 0 0-.005-.424.049-.768.053-.344-.019-.662-.019-.662.068-1.12.135-2.242.215-4.007-.445-1.259-.902-1.873-1.36-2.488.09-.746.178-1.493.615-2.633.287-1.31.225-2.226.164-3.143-.08-1.713-.16-3.427 0-5.948.5-3.108.982-5.408.983-7.707.03-95.848.024-191.695-.039-287.542-.002-2.615-.673-5.23-1.032-7.845-.04-.431-.08-.863.17-1.863a100.004 100.004 0 0 0 1.653-4.437c.832-.815 1.664-1.631 2.996-2.719 1.157-.923 1.815-1.574 2.473-2.225 1.32-.544 2.64-1.087 4.765-1.685 4.598-.567 8.39-1.081 12.182-1.595 4.925-.441 9.85-.883 14.843-1.215-3.144.418-6.356.725-9.569 1.031l.174 1.41 13.43-1.905c.394-.002.788-.003 1.937.13 4.526-.303 8.297-.74 12.07-1.178.386.009.773.017 1.868.158 2.846-.266 4.984-.664 7.121-1.062.678-.02 1.356-.04 2.745.022 1.887-.256 3.063-.595 4.239-.934 1.005-.035 2.01-.07 3.754-.034 2.295-.352 3.85-.774 5.407-1.196.99-.538 1.98-1.076 3.23-1.366.512.678.846 1.512 1.006 1.48 6.556-1.324 13.097-2.726 19.64-4.118.372.01.744.021 1.756.137 2.02-.12 3.402-.345 4.784-.57l-.377-1.285c1.54-.118 3.08-.237 5.298-.204 2.66-.69 4.641-1.531 6.623-2.372M770.556 601.97s-.444-.064-.54-.754c.821-1.297 1.642-2.594 2.976-4.277.564-1.374 1.129-2.747 1.694-4.806-.137-.433-.273-.866.248-1.677 1.247-3.55 2.494-7.101 3.803-11.257-.015-.405-.03-.81.358-1.689a16.57 16.57 0 0 0 .503-2.364c-.054-.409-.108-.817.385-1.773.876-3.533 1.752-7.066 2.693-11.297.017-.7.033-1.4.435-2.575.155-.58.31-1.158.589-2.55.28-3 .56-6 1.28-9.451.188-.584.376-1.168.594-2.611-.081-2.005-.162-4.01.215-6.45.26-.56.519-1.121.852-2.477-.01-1.332-.018-2.664.376-4.614.18-1.197.361-2.394.624-4.49-.095-4.656-.19-9.312.287-14.178.345-.212.69-.424 1.287-1.318-.043-2.096-.085-4.193-.264-7.142.047-1.433.094-2.866.388-5.07.214-1.979.616-3.957.617-5.935.036-83.797.045-167.595-.002-251.392-.001-1.915-.673-3.83-1.488-5.792 0 0-.459 0-.39-.402 0 0 .031-.405-.505-1.094-4.234-.097-8.469-.194-13.484-.335-1.042.035-2.083.07-3.83-.323-4.461-.217-8.922-.434-14.13-.67-.734.114-1.469.229-2.853-.103-1.824-.256-3.648-.513-6.205-.797-.72.102-1.439.204-2.794-.198-7.142-.954-14.285-1.908-22.072-2.861-.423.072-.846.144-1.802-.367-8.549-1.524-17.098-3.048-26.535-4.526-.572.157-1.143.315-2.012-.183-3.567-.986-7.134-1.971-11.536-2.854-2.418-.441-4.837-.882-6.902-1.32l.737-.647c-.245-.037-.49-.074-1.523.002-.504.167-1.008.335-1.68-.165-1.375-.633-2.75-1.266-4.735-1.955-.408.007-.817.013-1.787-.473-4.213-1.145-8.426-2.29-13.292-3.238-.213.08-.426.16-.935-.37-.939-.542-1.878-1.084-3.425-1.974a191.544 191.544 0 0 1-6.014-2.006c-.937-.039-1.874-.077-3.188-.702-2.25-.733-4.5-1.465-7.49-1.915-.242.106-.483.213-.892-.381-2.659-2.14-5.184-4.777-9.454-3.009-.528-.392-1.056-.784-1.345-1.511-.523.03-1.045.06-2.292.18-10.483-4.66-21.03-9.182-31.408-14.068-3.033-1.428-5.412-4.198-8.385-5.812-4.726-2.564-9.802-4.484-14.522-7.056-2.377-1.296-4.147-3.662-6.452-5.138-6.968-4.462-14.221-8.493-21.06-13.138-5.813-3.948-11.452-8.237-16.692-12.91-3.258-2.903-5.04-1.377-7.628.607-7.112 5.45-14.137 11.09-21.704 15.847-12.086 7.597-24.466 14.749-36.939 21.7-10.785 6.012-21.641 11.998-32.895 17.037-9.875 4.421-20.35 7.5-30.55 11.195-7.686 2.784-15.221 6.089-23.066 8.302-12.597 3.555-25.304 6.86-38.137 9.395-9.965 1.968-20.187 2.668-30.308 3.805a974.436 974.436 0 0 1-29.828 2.873s-.397.107-.928-.006c-.18-.004-.361-.008-1.314-.258-4.222.493-8.444.986-13.308 1.376-.646.031-1.292.062-2.652-.3-1.784-.09-3.625-.496-5.338-.19-1.934.346-3.755 1.331-5.725 2.62.016.393.032.786-.114 1.909.05.493.1.986.069 2.355.023 2.638.046 5.276-.039 8.52.036.202.072.404.033 1.431.019 1.657.038 3.314-.1 5.697.052.49.104.98.085 2.296.017 1.661.035 3.322-.054 5.576.036.198.07.395.038 1.443.025 1.988.05 3.976-.085 6.686.05.487.102.975.083 2.224.023 1.018.046 2.037-.116 3.907.066 1.445.132 2.89.128 5.094.024 1.017.048 2.034-.112 3.877a62.42 62.42 0 0 1 .122 4.123c.023 1.017.047 2.034-.115 3.876.06 1.12.118 2.24.108 4.123a31.123 31.123 0 0 1-.113 3.88c.058 1.12.115 2.24.11 4.16.022 1.337.046 2.675-.109 4.799.055.8.11 1.6.097 3.2.024 1.338.048 2.677-.1 4.804.06.799.118 1.598.113 3.099.021.704.042 1.408-.121 2.963.055 1.443.11 2.886.096 5.13.025 1.341.05 2.682-.093 4.81.06.796.118 1.593.11 3.192.02 1.34.04 2.68-.116 4.805.055.797.11 1.594.1 3.096.022.708.044 1.415-.116 3.056.007 43.375.014 86.75.107 130.788.298.301.597.602.918.948 0 0-.047-.002-.3.925.098.304.196.61.301.865 0 0 .053-.023-.639.616-.17 8.089-.504 16.178-.443 24.265.03 3.91.8 7.816 1.215 12.44.013.716.026 1.432-.142 3.004.485 2.403.97 4.806 1.271 7.846-.04.44-.081.879-.283 2.194.807 4.063 1.614 8.125 2.315 12.804 0 .417 0 .834-.173 1.979.33 1.152.661 2.303.944 4.085.022.421.044.842-.035 1.947.388.801.776 1.603 1.095 3.033.02.42.04.84-.061 2.041.822 2.079 1.643 4.158 2.274 6.876-.043.442-.086.884-.215 2.06.658 1.5 1.317 3.002 2.113 5.142.2.8.402 1.602 1.223 2.71.145.18.29.359.207 1.235.4 1.806.798 3.612 1.541 5.733.233.211.426.454.302 1.485-.092.527-.184 1.053-.283 1.91l.35.285s.473-.088.66.615c.318 1.379.636 2.758 1.036 4.744.51.319 1.02.637 1.199 1.67-.094.244-.188.49-.352 1.436.646 1.175 1.292 2.35 1.974 4.189.367 1.024.734 2.048 1.25 3.619.508.236 1.017.472 1.616 1.224.127.12.253.241.115.734.246.473.492.947.413 2.007.073.632.146 1.264.25 2.474.728.712 1.457 1.423 2.833 2.508 1.14 2.667 2.146 5.402 3.444 7.99 6.485 12.932 12.364 26.202 20.895 38.01 7.185 9.946 14.102 20.1 21.64 29.771 6.255 8.026 12.795 15.93 20.003 23.09 13.879 13.79 28.295 27.038 42.538 40.457 5.1 4.805 10.113 9.744 15.572 14.113 8.603 6.885 17.43 13.507 26.377 19.94 16.157 11.618 32.31 23.252 48.767 34.436 15.735 10.692 31.883 20.775 47.78 31.231 3.56 2.34 6.492 2.247 10.074-.227 9.96-6.88 20.147-13.432 30.286-20.05 6.352-4.145 12.91-7.987 19.142-12.302 8.19-5.67 16.189-11.618 24.2-17.54 14.196-10.493 28.48-20.873 42.46-31.647 11.667-8.991 23.253-18.136 34.303-27.862 8.033-7.07 15.25-15.091 22.616-22.89 7.089-7.507 14.27-14.976 20.748-22.997 9.166-11.347 18.114-22.916 26.412-34.905 6.135-8.864 11.518-18.326 16.446-27.927 5.36-10.444 9.808-21.357 14.76-31.698.29-.43.582-.861 1.094-1.268l.054-.303s-.254.3-.702.266m-92.297-381.42-.697-.199c.145.144.29.287.697.2m-327.91-41.072.182.094s-.033-.197-.182-.094m-13.88 4.117s-.08-.13 0 0z"/><path fill="#17505B" d="M825.743 503.615c-.623-.615-.92-1.477-1.296-3.053-.177-53.813-.267-106.911-.38-160.009-.088-41.779-.204-83.558-.308-125.337-.18-1.459-.36-2.918-.525-4.684.934 2.892 2.656 6.09 2.657 9.289.044 79.378-.145 158.757-.147 238.135 0 12.86.727 25.718 1.01 38.58.049 2.271-.443 4.555-1.01 7.08z"/><path fill="#2E869C" d="M200.775 213.164c.5 2.411 1.172 5.026 1.174 7.64.063 95.848.068 191.695.04 287.543-.002 2.3-.485 4.599-.888 7.287-.215-.026-.285-.44-.3-1.636-.328-2.28-.71-3.78-1.093-5.28.137-15.96.378-31.919.392-47.878.043-49.073.002-98.147-.017-147.22-.001-2.16-.11-4.32-.334-6.82-.166-.342-.094-.31-.094-.31.14-19.15.292-38.298.412-57.447.073-11.494.094-22.99.16-34.93.023-.446.068-.38.068-.38s.337-.365.48-.569z"/><path fill="#17505B" d="M824.669 529.176c-.536-1.397-.669-2.934-.816-5.383.094-5.883.202-10.853.31-15.823.257-.057.51-.128.956-.227.115 7.088.034 14.19-.45 21.433z"/><path fill="#1D525E" d="M306.823 189.486c-6.315 1.565-12.856 2.967-19.412 4.291-.16.032-.494-.802-.642-1.423 1.298-.19 2.492-.188 4.378-.352a82.396 82.396 0 0 0 2.709-.774c.86.005 1.72.01 3.264-.171a93.612 93.612 0 0 0 2.764-.874c.524-.048 1.047-.097 2.24-.267 1.379-.347 2.088-.572 2.798-.798.558.065 1.116.13 1.901.368zM224.7 198.323c-3.336.627-7.128 1.14-11.382 1.612 1.25-.666 2.92-1.593 4.683-1.835 2.038-.279 4.158.047 6.699.223zM257.728 196.538c-3.46.609-7.231 1.046-11.464 1.39 1.085-.6 2.632-1.109 4.763-1.583 1.341-.033 2.099-.099 2.856-.165 1.178.062 2.356.125 3.845.358zM243.747 197.587c-4.19.805-8.666 1.44-13.143 2.076l-.174-1.41c3.213-.307 6.425-.614 10.02-.987 1.26.007 2.135.08 3.297.321zM373.56 172.539c-3.102 1.065-6.204 2.13-9.576 3.16 1.933-1.273 4.138-2.514 7.003-3.793 1.02-.088 1.38-.14 1.945.018.347.344.487.48.628.615zM324.749 185.247c-1.596.959-3.577 1.8-5.819 2.57 1.638-.943 3.535-1.815 5.819-2.57zM345.682 180.02c-.953.77-2.309 1.554-4.172 2.169-.62-.305-.733-.44-.845-.575 0 0 .063-.2.13-.28a56.757 56.757 0 0 1 4.887-1.314zM312.87 188.047c.47.323.595.75.72 1.179-1.38.225-2.762.45-4.506.608.906-.605 2.173-1.143 3.785-1.787zM266.759 195.62c-1.866.583-4.004.98-6.562 1.289-.42-.09-.353-.504.057-.746 1.491-.503 2.572-.764 3.654-1.024.86.099 1.72.197 2.85.481zM332.742 183.127c-.637 2.222-1.822 3.674-3.982 1.23 1.278-.57 2.45-.959 3.982-1.23z"/><path fill="#103238" d="M199.517 508.935c.573 1.283.956 2.782 1.247 4.75-.54-1.2-.99-2.867-1.247-4.75z"/><path fill="#1D525E" d="M355.7 177.016c-.8.522-1.993 1.052-3.391 1.36.863-.597 1.931-.975 3.392-1.36zM273.742 194.67c-.904.562-2.08.901-3.629 1.18.87-.507 2.114-.955 3.629-1.18zM202.432 206.747c-.146 1.203-.6 2.492-1.296 4.026.167-1.15.577-2.545 1.296-4.026zM282.8 193.522c-1.181.563-2.737.985-4.655 1.349-.363-.059-.206-.506.162-.781 1.087-.456 1.807-.636 2.526-.816a13.83 13.83 0 0 1 1.968.248z"/><path fill="#103238" d="M201.235 536.042c.53.621.953 1.581 1.337 2.864-.507-.626-.975-1.575-1.337-2.864zM203.565 552.87c.534.66.897 1.653 1.205 2.968-.495-.664-.935-1.65-1.205-2.968z"/><path fill="#17505B" d="M824.257 534.825c-.234-.698-.24-1.575-.06-2.671.219.684.254 1.588.06 2.67z"/><path fill="#2E869C" d="M200.919 522.377c.147.542.209 1.458.068 2.525-.186-.616-.17-1.383-.068-2.525z"/><path fill="#17505B" d="M813.133 199.466c-.71-.12-1.548-.535-2.332-1.184.77.14 1.487.513 2.332 1.184z"/><path fill="#1D525E" d="M207.91 201.658c-.36.709-1.017 1.36-1.943 2.105.369-.659 1.007-1.411 1.944-2.105z"/><path fill="#103238" d="M200.197 528.083c.487.31.944.924 1.355 1.845-.492-.308-.938-.924-1.355-1.845zM202.324 546.374c.475.195.872.638 1.237 1.317-.46-.199-.887-.633-1.237-1.317zM207.374 574.376c.489.195.892.633 1.243 1.313-.477-.195-.903-.632-1.243-1.313zM204.497 559.265c.481.29.834.786 1.177 1.6-.441-.254-.873-.823-1.177-1.6zM205.339 565.34c.493.266.882.748 1.254 1.553-.464-.23-.91-.782-1.254-1.552z"/><path fill="#29788B" d="M263.54 195.083c-.714.316-1.795.577-3.21.884.723-.283 1.782-.612 3.21-.884z"/><path fill="#103238" d="M206.334 570.356c.542.233.978.687 1.395 1.473-.512-.196-1.007-.724-1.395-1.473z"/><path fill="#1D525E" d="M360.714 175.174c.103.6-.18 1.133-.65 1.658-.036-.58.113-1.153.65-1.658zM373.762 171.046c.232.421.18.885-.036 1.421-.307-.064-.447-.199-.749-.674-.16-.34-.06-.6-.06-.6.188-.035.375-.07.845-.147z"/><path fill="#29788B" d="M304.612 189.071c-.4.273-1.11.498-2.104.756.408-.246 1.1-.524 2.104-.756zM299.564 190.124c-.374.289-1.068.518-2.029.818.392-.246 1.05-.562 2.029-.818zM293.545 191.165c-.362.266-1.035.469-1.957.76.383-.216 1.015-.52 1.957-.76zM280.524 193.2c-.41.254-1.13.434-2.121.673.422-.21 1.117-.479 2.121-.673zM253.544 196.136c-.418.11-1.176.176-2.154.168.457-.12 1.136-.166 2.154-.168zM372.63 171.14c.287.053.187.313.142.445-.405.182-.765.233-1.391.344.143-.242.552-.543 1.249-.79z"/><path fill="#17505B" d="M822.291 206.996c-.409-.083-.744-.428-1.105-1.022.376.087.777.423 1.105 1.022z"/><path fill="#1D525E" d="M200.313 213.687c-.018.046-.063-.02-.084-.049-.022-.028.102.004.084.05z"/><path fill="#17505B" d="M816.662 200.983c-.246.137-.398.057-.742-.194.15-.122.493-.072.742.194z"/><path fill="#103238" d="M201.232 534.28c.14-.007.211.31.12.446-.09.135-.39-.102-.39-.102s.132-.339.27-.345zM199.6 306.451c.055.038-.017.007.018-.014.034-.021-.075-.023-.019.014z"/><path fill="#17505B" d="M825.871 506.448c.025.036-.003.066.004.086.007.02-.028-.122-.004-.086z"/><path d="M650.497 213.764c.213-.08.426-.16 1.05.017 4.754 1.33 9.098 2.401 13.442 3.473.409-.007.818-.013 1.678.316 1.785.987 3.118 1.637 4.451 2.287.504-.168 1.008-.336 1.786-.386.273.117.159.525.159.525 2.418.44 4.837.882 7.743 1.685 4.107 1.29 7.726 2.22 11.345 3.147.572-.157 1.143-.315 1.951-.352.138.256.039.392.048.846.982.406 1.856.493 3.114.666 4.525.734 8.666 1.382 12.954 2.35 1.306.391 2.464.464 3.995.592 2.49.216 4.605.375 6.721.535.423-.072.846-.144 1.837.055 7.76 1.213 14.95 2.154 22.14 3.094.72-.102 1.439-.204 2.721-.018 2.473.51 4.382.733 6.291.955.735-.114 1.47-.229 2.851-.08 5.16.454 9.675.644 14.189.834 1.041-.035 2.082-.07 3.767.192 4.23.662 7.817 1.028 11.699 1.706.382 2.303.544 4.294.544 6.286.037 88.479.059 176.958.013 265.796.078 1.774.225 3.19.371 4.607.095 4.655.19 9.31-.042 14.546-.45 1.896-.576 3.213-.701 4.53.009 1.331.018 2.663-.268 4.427a21.491 21.491 0 0 0-1.015 2.48c.081 2.005.162 4.01-.027 6.5-.434 1.183-.598 1.88-.763 2.578-.28 3-.561 5.999-1.163 9.46-.431 1.163-.542 1.864-.652 2.565-.017.7-.033 1.4-.428 2.562-1.207 4.102-2.034 7.741-2.862 11.38.054.41.108.818-.076 1.623a16.767 16.767 0 0 0-.67 2.442c.016.405.032.81-.282 1.685-1.596 4.035-2.864 7.6-4.132 11.165.137.433.273.866.086 1.78-.844 1.892-1.364 3.301-1.883 4.71-.821 1.298-1.642 2.595-2.462 4.485-.005.762-.01.93-.014 1.1-4.845 10.707-9.292 21.62-14.653 32.064-4.928 9.601-10.311 19.063-16.446 27.927-8.298 11.989-17.246 23.558-26.412 34.905-6.478 8.02-13.66 15.49-20.748 22.996-7.366 7.8-14.583 15.82-22.616 22.89-11.05 9.727-22.636 18.872-34.303 27.863-13.98 10.774-28.264 21.154-42.46 31.647-8.011 5.922-16.01 11.87-24.2 17.54-6.233 4.315-12.79 8.157-19.142 12.303-10.14 6.617-20.326 13.17-30.286 20.05-3.582 2.473-6.515 2.567-10.074.226-15.897-10.456-32.045-20.539-47.78-31.231-16.456-11.184-32.61-22.818-48.767-34.435-8.947-6.434-17.774-13.056-26.377-19.94-5.46-4.37-10.472-9.31-15.572-14.114-14.243-13.42-28.66-26.668-42.538-40.456-7.208-7.16-13.748-15.065-20.003-23.09-7.538-9.671-14.455-19.826-21.64-29.772-8.53-11.808-14.41-25.078-20.895-38.01-1.298-2.588-2.304-5.323-3.747-8.511-1.055-1.202-1.808-1.884-2.561-2.565-.073-.632-.146-1.264.046-2.386.039-.957-.187-1.423-.413-1.89-.127-.12-.253-.24-.459-.919-.614-.776-1.15-.995-1.686-1.213-.367-1.024-.734-2.048-1.159-3.429-.058-.356-.107-.276.198-.393.1-.804-.105-1.49-.291-2.493-.573-.76-1.163-1.204-1.753-1.647.094-.245.188-.49.53-1.323-.344-.954-.937-1.322-1.53-1.69-.317-1.378-.635-2.757-1.106-4.482-.154-.345-.144-.225.126-.216.087-.344-.096-.698-.473-.992-.194.06-.503.323-.503.323.092-.526.184-1.052.408-2.233-.171-.818-.475-.982-.778-1.146-.399-1.806-.798-3.612-1.065-5.986-.232-.703-.596-.839-.96-.974-.2-.801-.401-1.602-.72-2.758-.118-.355-.19-.256.122-.336.103-.728-.106-1.377-.359-2.337-.587-1.157-1.13-2.003-1.672-2.848.043-.442.086-.884.378-1.94-.634-2.756-1.518-4.899-2.402-7.041-.02-.421-.04-.842.136-1.796-.266-1.416-.729-2.3-1.19-3.183-.022-.42-.044-.842.151-1.82-.185-1.79-.587-3.023-.989-4.257 0-.416 0-.833.224-1.889-.643-4.773-1.51-8.907-2.377-13.04.041-.44.082-.88.372-1.968-.28-3.117-.81-5.585-1.34-8.053a16.887 16.887 0 0 1 .152-2.837c.28-2.187.37-3.684.451-5.64.06-8.257.206-16.057.147-23.856-.018-2.365-.604-4.725-.93-7.087-.097-.305-.195-.61.206-1.537.572-25.914.703-51.207.68-76.499-.007-6.066-.53-12.132-.844-18.504-.047-.51-.065-.715.303-1.117.46-8.015.612-15.83.559-23.645-.016-2.352-.604-4.7-.838-7.385-.24-2.165-.571-3.993-.903-5.822-.021-.707-.043-1.414.165-2.629.101-1.462-.026-2.417-.153-3.373-.02-1.34-.041-2.68.172-4.574.097-1.51-.039-2.468-.175-3.426-.025-1.341-.05-2.682.187-4.629.117-2.196-.029-3.785-.174-5.375-.021-.704-.042-1.408.17-2.615.096-1.464-.04-2.424-.174-3.384-.024-1.339-.048-2.678.163-4.569.105-1.512-.025-2.473-.154-3.434-.023-1.337-.047-2.675.177-4.596.107-1.856-.034-3.13-.174-4.402-.023-1.018-.046-2.036.19-3.611.11-1.835-.036-3.114-.182-4.391-.023-1.017-.047-2.034.186-3.609.106-1.835-.044-3.113-.194-4.391-.024-1.017-.048-2.034.198-3.63.11-2.176-.052-3.771-.213-5.366-.023-1.02-.046-2.038.132-3.553.093-1.147-.016-1.798-.124-2.45-.025-1.987-.05-3.975.072-6.456.217-.618.37-.777.337-.86-.098-.244-.272-.458-.416-.683-.017-1.66-.035-3.322.15-5.512.092-1.184-.019-1.838-.13-2.493-.019-1.657-.038-3.314.104-5.449.239-.607.41-.778.374-.858-.111-.252-.3-.47-.46-.7-.023-2.639-.046-5.277.15-8.462.105-1.21-.01-1.874-.126-2.538-.016-.393-.032-.786.414-1.477 4.08-.778 7.697-1.259 11.315-1.74.646-.03 1.292-.061 2.735.076 4.959-.322 9.12-.81 13.283-1.298.18.004.362.008.863.196.321.185.694.275.694.275l.282-.271c9.82-1.012 19.649-1.953 29.459-3.055 10.121-1.137 20.343-1.837 30.308-3.805 12.833-2.535 25.54-5.84 38.137-9.395 7.845-2.213 15.38-5.518 23.066-8.302 10.2-3.696 20.675-6.774 30.55-11.195 11.254-5.04 22.11-11.025 32.895-17.037 12.473-6.951 24.853-14.103 36.939-21.7 7.567-4.757 14.592-10.397 21.704-15.847 2.589-1.984 4.37-3.51 7.628-.606 5.24 4.672 10.88 8.961 16.692 12.91 6.839 4.644 14.092 8.675 21.06 13.137 2.305 1.476 4.075 3.842 6.452 5.138 4.72 2.572 9.796 4.492 14.522 7.056 2.973 1.614 5.352 4.384 8.385 5.812 10.377 4.886 20.925 9.408 32.102 14.086.916.058 1.138.098 1.36.138.527.391 1.055.783 2.007 1.606 3.348 1.38 6.272 2.33 9.197 3.279.242-.107.483-.214 1.15-.103 2.1.887 3.775 1.558 5.57 2.506.69.392 1.262.506 2.096.664.438.049.615.054.887.348.672.386 1.247.482 2.16.693 1.482.415 2.626.716 3.854 1.31.658.389 1.234.484 2.048.756 1.283.355 2.328.535 3.373.714m61.51 131.73c-5.066-5.067-10.29-9.988-15.157-15.24-5.985-6.461-12.286-11.79-21.98-9.588-.468.106-1.03-.172-1.486-.048-2.568.699-5.53.886-7.578 2.344-3.163 2.252-5.836 5.262-8.47 8.175-7.4 8.184-14.546 16.599-22.035 24.698-6.133 6.634-12.715 12.85-18.912 19.426-6.607 7.01-12.986 14.235-19.486 21.346-1.457 1.594-3.09 3.032-4.497 4.667-4.338 5.041-8.418 10.317-12.944 15.18-6.556 7.045-13.415 13.808-20.142 20.694-.233.238-.442.498-.663.748-5.792 6.532-11.474 13.166-17.405 19.57-6.397 6.908-13.148 13.49-19.517 20.423-6.026 6.56-11.585 13.55-17.661 20.06-6.865 7.354-14.156 14.31-21.103 21.59-2.989 3.132-5.58 6.645-8.693 10.396-2.994-3.083-5.19-5.353-7.394-7.612-13.546-13.88-27.038-27.81-40.662-41.612-7.606-7.705-15.456-15.17-23.153-22.786-8.882-8.788-17.404-17.971-26.671-26.33-7.423-6.694-20.21-5.488-27.168 1.68-11.743 12.1-23.096 24.605-35.283 36.237-6.687 6.382-10.356 12.975-9.458 22.399.441 4.639 2.004 8.556 4.798 11.728 6.626 7.522 13.73 14.623 20.658 21.879 7.178 7.518 14.368 15.025 21.566 22.525 8.596 8.957 17.119 17.986 25.825 26.835C403.04 601 428.818 627.05 454.57 653.127c4.514 4.57 9.464 8.175 16.346 8.05 5.072-.091 10.704 1.565 14.706-2.573 10.21-10.556 20.104-21.42 30.038-32.239 10.408-11.335 20.713-22.766 31.07-34.148 6.81-7.483 13.54-15.042 20.477-22.404 6.329-6.718 13.083-13.042 19.292-19.865 5.712-6.276 10.714-13.202 16.46-19.445 5.754-6.25 12.11-11.94 18.07-18.005 3.56-3.62 6.935-7.428 10.275-11.254 7.153-8.194 14.103-16.568 21.379-24.65 5.401-6 11.236-11.606 16.778-17.482a280.354 280.354 0 0 0 10.144-11.372c4.046-4.787 7.672-9.955 11.971-14.492 4.007-4.228 8.587-7.73 12.258-12.51 6.427-8.365 13.98-15.897 21.354-23.494 5.674-5.845 11.526-11.018 10.348-20.66-.457-3.74-.885-6.919-3.338-9.591-6.49-7.069-13.1-14.027-20.191-21.499z"/><path fill="#318FA6" d="M823.637 215.592c.226 41.403.342 83.182.43 124.961.113 53.098.203 106.196.272 159.683-.45-1.862-1.232-4.112-1.234-6.363-.08-90.818-.093-181.635-.087-272.452 0-1.818.324-3.636.619-5.83z"/><path fill="#0F353E" d="M787.643 512.786c-.432-1.31-.58-2.727-.47-4.865.464-2.362.852-4.002.852-5.643.015-88.749-.003-177.498-.018-266.247 0 0 .459.001.688.488.252 35.143.273 69.8.295 104.455l.102 158.949a180.032 180.032 0 0 0-.111 5.157c.013 2.894-.003 4.93-.018 6.965-.345.212-.69.424-1.32.741z"/><path fill="#256572" d="M788.041 235.83c-.02 88.95-.001 177.7-.016 266.448 0 1.64-.388 3.281-.782 5.285-.211-88.116-.233-176.595-.27-265.074 0-1.992-.162-3.983-.363-6.494.424-.603.96-.687 1.497-.77 0 0-.031.405-.066.606z"/><path fill="#318FA6" d="M789.216 499.536c-.158-52.596-.192-105.58-.226-158.562l-.066-104.431c.357 1.451 1.029 3.366 1.03 5.281.047 83.797.038 167.595.002 251.392-.001 1.978-.403 3.956-.74 6.32z"/><path fill="#0A2328" d="M238.028 387.963c.018.204.036.409.075 1.38-.013 1.759-.071 2.752-.073 3.746-.068 29.628-.131 59.255-.385 88.883h-.573c-.007-43.374-.014-86.75.07-130.592.422 1.362.754 3.19 1.008 5.82-.092 10.789-.107 20.776-.122 30.763z"/><path fill="#318FA6" d="M237.835 481.972c.064-29.628.127-59.255.195-88.883.002-.994.06-1.987.1-3.44.294 5.605.818 11.671.824 17.737.024 25.292-.107 50.585-.553 76.036-.372.16-.325.16-.37-.256-.096-.676-.146-.935-.196-1.194z"/><path fill="#0F353E" d="M720.667 229.173c-1.849.132-3.965-.027-6.718-.436a39.64 39.64 0 0 0-3.879-.719c-4.14-.648-8.281-1.296-13.02-2.251a20.74 20.74 0 0 0-3.008-.763c.099-.136.198-.272.505-.551 8.756 1.38 17.305 2.905 26.12 4.72zM744.593 232.362a351.723 351.723 0 0 1-21.499-2.842c6.896.682 14.039 1.636 21.499 2.842zM238.86 516.823c-.09 1.498-.178 2.995-.449 4.824-.617-3.577-1.387-7.482-1.416-11.393-.061-8.087.272-16.176.757-24.058.578 10.347.842 20.487 1.107 30.627z"/><path fill="#2E869C" d="M238.852 516.366a6215.05 6215.05 0 0 1-.754-30.49c.032-.526-.02-.503-.025-.479.322 2.387.908 4.747.926 7.112.06 7.799-.087 15.6-.147 23.857z"/><path fill="#103238" d="M770.61 234.092c-4.161.023-8.675-.167-13.462-.612 4.187-.036 8.648.181 13.462.612z"/><path fill="#0A2328" d="M264.671 234.333c-3.776.611-7.938 1.1-12.576 1.472 3.746-.609 7.968-1.102 12.576-1.472z"/><path fill="#0F353E" d="M239.137 535.3c.947 3.696 1.814 7.83 2.51 12.295-.977-3.732-1.784-7.794-2.51-12.295zM664.708 217.007c-4.063-.825-8.407-1.896-12.834-3.325 4.128.788 8.34 1.934 12.834 3.325z"/><path fill="#103238" d="M787.84 234.88c-.27.428-.806.512-1.524.803a89.455 89.455 0 0 1-11.196-1.164 89.43 89.43 0 0 1 12.72.362z"/><path fill="#0A2328" d="M248.682 235.482c-3.26.677-6.878 1.158-10.908 1.645 1.458-.7 3.279-1.685 5.213-2.03 1.713-.307 3.554.098 5.695.385z"/><path fill="#0F353E" d="M692.003 224.5c-3.47-.6-7.09-1.528-10.779-2.87 3.496.572 7.063 1.557 10.779 2.87zM774.605 590.646c.939-3.376 2.207-6.94 3.772-10.673-.95 3.383-2.196 6.933-3.772 10.673zM779.71 573.647a79.372 79.372 0 0 1 2.555-10.758c-.53 3.42-1.406 6.952-2.556 10.758zM629.275 206.525c-2.84-.598-5.765-1.548-8.91-2.637 3.643-2.49 6.168.146 8.91 2.637zM238.159 525.27c.62 2.04 1.15 4.508 1.521 7.306-.643-2.072-1.127-4.475-1.521-7.306z"/><path fill="#318FA6" d="M824.01 508.357c.045 4.583-.063 9.553-.195 14.974-.002-4.563.02-9.575.196-14.974z"/><path fill="#0F353E" d="M243.202 561.237c.944 1.753 1.828 3.896 2.558 6.333-.976-1.785-1.797-3.864-2.558-6.333zM635.96 209.001c-1.676-.67-3.351-1.34-5.081-2.37 2.195.375 4.445 1.107 6.903 2.112.208.272.246.23-.099.243-.804.015-1.264.015-1.724.015zM753.599 233.328c-1.585 0-3.494-.221-5.6-.718 1.627-.018 3.45.239 5.6.718z"/><path fill="#0A2328" d="M237.162 327.332c.237 1.165.383 2.754.3 4.55-.283-1.238-.337-2.681-.3-4.55zM237.154 279.335c.254 1.169.415 2.764.34 4.56-.3-1.246-.366-2.69-.34-4.56z"/><path fill="#0F353E" d="M644.992 212c-1.144-.3-2.288-.6-3.76-1.205-.327-.304-.345-.682-.212-.843.133-.162.394-.489.394-.489 1.787.572 3.574 1.144 5.556 2.022.194.306-.02.564-.346.567a67.552 67.552 0 0 1-1.632-.052zM786.815 531.658c-.076-1.007.05-2.324.46-3.77.103 1.067-.078 2.264-.46 3.77z"/><path fill="#0A2328" d="M237.171 304.32c.231.86.372 2.133.297 3.589-.273-.937-.33-2.057-.297-3.59zM237.178 296.317c.238.865.385 2.144.307 3.598-.282-.944-.34-2.064-.307-3.598zM237.17 288.318c.242.865.392 2.143.32 3.598-.286-.943-.349-2.064-.32-3.598z"/><path fill="#0F353E" d="M772.735 597.133c.263-1.217.783-2.626 1.627-4.175-.241 1.235-.806 2.608-1.627 4.175zM241.284 550.156c.488.87.89 2.104 1.1 3.579-.525-.91-.855-2.062-1.1-3.579zM671.034 219.523c-1.249-.316-2.582-.966-4.062-1.925 1.228.325 2.603.958 4.062 1.925zM245.243 570.196c.586.478 1.128 1.324 1.713 2.832.045 1.13.047 1.598.05 2.066 0 0 .071-.1.12-.064-.609-1.465-1.268-2.966-1.883-4.834z"/><path fill="#318FA6" d="M789.089 511.704c-.11-1.694-.095-3.73-.04-6.198.08 1.664.123 3.76.04 6.198z"/><path fill="#0A2328" d="M237.164 321.302c.22.566.356 1.526.291 2.638-.259-.646-.318-1.445-.29-2.638zM237.17 313.299c.218.567.348 1.528.278 2.64-.256-.648-.312-1.447-.278-2.64z"/><path fill="#0F353E" d="M242.157 556.21c.512.542.975 1.426 1.275 2.528-.55-.582-.937-1.384-1.275-2.527z"/><path fill="#0A2328" d="M237.157 337.304c.22.565.356 1.523.293 2.632-.259-.645-.318-1.442-.293-2.632zM237.155 345.303c.216.564.343 1.52.274 2.629-.252-.643-.307-1.44-.274-2.629z"/><path fill="#0F353E" d="M258.798 611.486c.738.392 1.49 1.074 2.222 2.09-.75-.378-1.478-1.09-2.222-2.09zM253.231 597.177c.625.093 1.215.537 1.763 1.679a34.398 34.398 0 0 0 .011 2.228s.05-.08.09-.055c-.607-1.15-1.253-2.326-1.864-3.852zM650.35 213.459c-.898.126-1.943-.054-3.202-.615-.215-.38-.198-.795-.198-.795l.324-.39c1.049.41 1.988.952 3.075 1.8zM784.76 547.727c-.054-.472.11-1.17.53-1.922.066.528-.122 1.112-.53 1.922z"/><path fill="#0A2328" d="M237.23 239.26c.196.299.311.963.247 1.735-.229-.384-.279-.877-.248-1.735z"/><path fill="#0F353E" d="M782.919 559.74c-.083-.463.028-1.164.397-1.92.105.524-.05 1.103-.397 1.92zM785.56 538.657c.011-.464.251-1.147.75-1.864-.002.526-.262 1.086-.75 1.864z"/><path fill="#0A2328" d="M237.19 257.265c.19.292.3.946.244 1.716-.22-.374-.27-.863-.244-1.716zM237.175 273.268c.188.29.297.94.24 1.707-.218-.371-.27-.859-.24-1.707z"/><path fill="#0F353E" d="M778.893 577.748c-.059-.445.085-1.127.459-1.895.068.495-.094 1.077-.459 1.895zM252.308 594.118c.551.064 1.144.432 1.654 1.03-.592-.089-1.103-.407-1.654-1.03zM258.284 607.108c.358.28.584.746.707 1.41-.348-.277-.594-.75-.707-1.41zM770.056 603.093c-.048-.352-.044-.521.009-.938.047-.248.491-.184.712-.17.22.012.206-.001.206-.001-.291.43-.582.861-.927 1.109zM638.967 210.002c-.177-.005-.354-.01-.753-.29-.223-.274-.186-.74-.186-.74l-.058.064c.918.06 1.855.098 3.118.282.326.145.065.472-.387.614-.88.117-1.307.093-1.734.07zM256.345 605.063c.462-.056.998.163 1.567.68-.475.065-.984-.171-1.567-.68z"/><path fill="#0A2328" d="M237.195 265.203c.197-.07.37.143.469.386.034.084-.12.243-.302.436-.15-.13-.184-.327-.167-.822z"/><path fill="#1D525E" d="M341.169 182.223c-.214.238-.595.272-.976.306.064-.238.127-.475.331-.814.253.034.366.17.645.508z"/><path fill="#0A2328" d="M237.232 250.197c.214-.071.403.146.514.398.036.08-.135.251-.336.446-.16-.137-.196-.339-.178-.844z"/><path fill="#0F353E" d="M678.128 220.667c-.276-.028-.421-.171-.566-.315.232.067.465.133.566.315zM673.298 219.415c.366-.137.61-.1.855-.063-.246.215-.491.43-.913.645-.177-.001-.063-.409.058-.582zM618.274 201.823c-.341.128-.563.088-1.117-.015.191-.093.713-.123 1.117.015z"/><path fill="#1D525E" d="M350.423 179.429c.075-.052.108.145.108.145s-.182-.094-.108-.145zM336.43 183.532c-.04-.066.04.065 0 0z"/><path fill="#0F353E" d="M771 602.001c.004.004.258-.296.258-.296s-.054.303-.165.29c-.11-.011-.096.002-.093.006zM251.066 588.98c.06-.005-.413.083-.413.083s-.35-.286-.347-.45c.004-.166.313-.429.51-.228.198.375.199.548.2.722 0 0-.01-.12.05-.126zM250.112 585.225c.131.007.435.17.745.61-.147.002-.34-.24-.745-.61zM248.226 578.261c.053-.018.417.118.763.473-.163.04-.308-.14-.763-.473z"/><path fill="#0A2328" d="M266.712 234.565c.184.09-.098.362-.098.362s-.373-.09-.428-.218c-.056-.128.341-.235.526-.144z"/><path fill="#0F353E" d="M237.645 481.972c.24.26.29.518.374 1.172-.264.093-.563-.208-.904-.84-.043-.331.339-.332.53-.332z"/><path fill="#28778A" d="M712.27 345.729c6.828 7.237 13.438 14.195 19.928 21.264 2.453 2.672 2.881 5.85 3.338 9.59 1.178 9.643-4.674 14.816-10.348 20.661-7.374 7.597-14.927 15.129-21.354 23.494-3.671 4.78-8.25 8.282-12.258 12.51-4.3 4.537-7.925 9.705-11.97 14.492a280.354 280.354 0 0 1-10.145 11.372c-5.542 5.876-11.377 11.483-16.778 17.482-7.276 8.082-14.226 16.456-21.379 24.65-3.34 3.826-6.716 7.634-10.275 11.254-5.96 6.064-12.316 11.756-18.07 18.005-5.746 6.243-10.748 13.169-16.46 19.445-6.21 6.823-12.963 13.147-19.292 19.865-6.938 7.362-13.667 14.92-20.477 22.404-10.357 11.382-20.662 22.813-31.07 34.148-9.934 10.82-19.828 21.683-30.038 32.239-4.002 4.138-9.634 2.482-14.706 2.573-6.882.125-11.832-3.48-16.346-8.05-25.752-26.076-51.53-52.126-77.234-78.25-8.706-8.848-17.23-17.877-25.825-26.834-7.198-7.5-14.388-15.007-21.566-22.525-6.927-7.256-14.032-14.357-20.658-21.88-2.794-3.17-4.357-7.088-4.798-11.727-.898-9.424 2.771-16.017 9.458-22.399 12.187-11.632 23.54-24.137 35.283-36.237 6.958-7.168 19.745-8.374 27.168-1.68 9.267 8.359 17.79 17.542 26.671 26.33 7.697 7.616 15.547 15.08 23.153 22.786 13.624 13.802 27.116 27.733 40.662 41.612 2.205 2.26 4.4 4.529 7.394 7.612 3.113-3.751 5.704-7.264 8.693-10.396 6.947-7.28 14.238-14.236 21.103-21.59 6.076-6.51 11.635-13.5 17.661-20.06 6.369-6.934 13.12-13.515 19.517-20.423 5.93-6.404 11.613-13.038 17.405-19.57.22-.25.43-.51.663-.748 6.727-6.886 13.586-13.649 20.142-20.693 4.526-4.864 8.606-10.14 12.944-15.181 1.407-1.635 3.04-3.073 4.497-4.667 6.5-7.111 12.88-14.336 19.486-21.346 6.197-6.576 12.779-12.792 18.912-19.426 7.489-8.1 14.636-16.514 22.035-24.698 2.634-2.913 5.307-5.923 8.47-8.175 2.048-1.458 5.01-1.645 7.578-2.344.457-.124 1.018.154 1.486.048 9.694-2.202 15.995 3.127 21.98 9.588 4.866 5.252 10.09 10.173 15.42 15.475M482.852 576.564c-10.286 2.433-19.407 1.384-27.043-7.157-8.386-9.38-17.47-18.131-26.126-27.275-4.983-5.264-9.638-10.84-14.585-16.14-7.76-8.313-15.46-16.695-23.52-24.711-8.89-8.842-18.158-17.305-27.345-26.013-3.631 3.571-7.373 6.91-10.619 10.676-.844.98-.877 3.953-.035 4.888a843.113 843.113 0 0 0 23.3 24.896c14.594 14.96 29.351 29.761 44.016 44.653 7.012 7.12 13.83 14.438 20.983 21.414 10.51 10.25 21.24 20.275 32.339 30.838 1.55-1.924 3.529-4.678 5.807-7.157 8.934-9.722 17.952-19.367 26.96-29.021 5.009-5.369 10.101-10.66 15.082-16.054 7.221-7.82 14.382-15.694 21.556-23.557 6.804-7.458 13.593-14.93 20.386-22.399 10.168-11.178 20.318-22.373 30.505-33.534 7.375-8.08 14.807-16.107 22.193-24.175 6.95-7.59 13.861-15.216 20.81-22.806 7.488-8.18 14.945-16.387 22.515-24.489 8.679-9.288 17.467-18.475 26.889-28.426l-11.05-11.752c-11.062 11.754-21.898 23.276-32.754 34.779-.68.72-1.6 1.215-2.266 1.944-6.842 7.478-13.653 14.984-20.477 22.477-.56.615-1.189 1.17-1.734 1.797-5.562 6.404-10.986 12.933-16.706 19.192-4.997 5.467-10.467 10.5-15.469 15.964-6.396 6.985-12.492 14.244-18.808 21.304-1.424 1.592-3.399 2.691-4.822 4.283-6.191 6.923-12.226 13.987-18.429 20.9-1.427 1.59-3.525 2.585-4.923 4.195-5.46 6.285-10.508 12.943-16.186 19.018-7.13 7.63-14.741 14.808-22.103 22.223-.927.934-1.488 2.23-2.41 3.17-5.095 5.193-10.25 10.328-15.93 16.055z"/><path fill="#318FA6" d="M238.414 387.765c-.371-9.79-.356-19.776-.356-30.229.311 1.885.899 4.232.915 6.584.053 7.814-.1 15.63-.56 23.645z"/><path fill="#29788B" d="M710.218 228.338c.933-.163 2.013-.007 3.358.343-.894.121-2.052.048-3.358-.343zM694.15 225.322c.695-.166 1.498-.015 2.516.359-.66.134-1.534.047-2.516-.359zM247.317 575.014c-.314-.388-.316-.856-.317-1.675.21.298.42.947.317 1.675zM255.31 600.967c-.322-.393-.34-.903-.333-1.794.228.304.433.99.333 1.794zM637.683 208.986c.345-.014.308.452.27.683-.612.116-1.184.002-1.875-.39.341-.278.8-.278 1.605-.293zM646.624 212.052c.326-.003.31.411.285.617-.6.11-1.175.014-1.833-.375.352-.275.787-.257 1.548-.242zM639.062 210.291c.332-.266.76-.242 1.506-.198.32.02.337.398.327.587-.586.093-1.161-.003-1.833-.389zM251.286 589.116c-.271-.183-.272-.356-.276-.79.18.092.363.446.276.79z"/><path fill="#000101" d="M483.125 576.278c5.407-5.441 10.562-10.576 15.657-15.77.922-.94 1.483-2.235 2.41-3.169 7.362-7.415 14.973-14.593 22.103-22.223 5.678-6.075 10.727-12.733 16.186-19.018 1.398-1.61 3.496-2.605 4.923-4.196 6.203-6.912 12.238-13.976 18.429-20.899 1.423-1.592 3.398-2.691 4.822-4.283 6.316-7.06 12.412-14.319 18.808-21.304 5.002-5.463 10.472-10.497 15.469-15.964 5.72-6.259 11.144-12.788 16.706-19.192.545-.627 1.173-1.182 1.734-1.797 6.824-7.493 13.635-15 20.477-22.477.667-.73 1.587-1.224 2.266-1.944 10.856-11.503 21.692-23.025 32.755-34.78l11.049 11.753c-9.422 9.951-18.21 19.138-26.889 28.426-7.57 8.102-15.027 16.31-22.515 24.489-6.949 7.59-13.86 15.215-20.81 22.806-7.386 8.068-14.818 16.095-22.193 24.175-10.187 11.161-20.337 22.356-30.505 33.534-6.793 7.469-13.582 14.94-20.386 22.399-7.174 7.863-14.335 15.738-21.556 23.557-4.98 5.394-10.073 10.685-15.082 16.054-9.008 9.654-18.026 19.299-26.96 29.02-2.278 2.48-4.257 5.234-5.807 7.158-11.1-10.563-21.83-20.587-32.339-30.838-7.152-6.976-13.97-14.293-20.983-21.414-14.665-14.892-29.422-29.693-44.016-44.653a843.113 843.113 0 0 1-23.3-24.896c-.842-.935-.809-3.909.035-4.888 3.246-3.766 6.988-7.105 10.619-10.676 9.187 8.708 18.455 17.17 27.345 26.013 8.06 8.016 15.76 16.398 23.52 24.712 4.947 5.3 9.602 10.875 14.585 16.14 8.655 9.143 17.74 17.894 26.126 27.274 7.636 8.541 16.757 9.59 27.317 6.87z"/></svg>