<svg xmlns="http://www.w3.org/2000/svg" xml:space="preserve" viewBox="0 0 1024 1024"><path d="M676 1025H1V1h1024v1024H676m223.091-334.39s-.019-.328.798-.432c1.166-.022 2.353.088 3.495-.088 10.81-1.66 19.933-5.145 24.813-16.533 2.797-6.527 3.073-13.365 1.806-19.114-1.444-6.553-3.93-13.936-10.091-18.639a33.997 33.997 0 0 1-5.072-4.772c-5.86-6.784-11.58-13.689-17.419-20.491-3.064-3.57-6.31-6.985-9.396-10.537-4.18-4.812-8.204-9.761-12.449-14.514-3.432-3.844-7.245-7.353-10.612-11.25-3.618-4.189-6.716-8.833-10.4-12.957-4.213-4.715-8.866-9.031-13.24-13.605-2.974-3.11-5.908-6.27-8.664-9.57-5.904-7.074-11.603-14.319-17.534-21.369-4.72-5.61-9.642-11.05-14.504-16.538-5.02-5.667-10.118-11.266-15.107-16.96-6.959-7.944-13.835-15.96-20.771-23.923-4.703-5.4-9.45-10.763-14.173-16.145-4.719-5.375-9.34-10.838-14.172-16.11-6.425-7.008-13.033-13.849-19.52-20.802-3-3.217-5.997-6.446-8.82-9.816-5.42-6.464-10.581-13.148-16.105-19.52-3.786-4.367-8.223-8.173-11.984-12.56-8.02-9.354-15.719-18.982-23.686-28.382-5.186-6.118-10.627-12.02-15.928-18.041-4.57-5.192-9.079-10.436-13.656-15.62-5.42-6.141-10.885-12.243-16.33-18.362-5.333-5.995-10.654-12-16.001-17.984-5.66-6.334-11.355-12.638-17.016-18.973-5.706-6.386-10.807-13.466-17.228-19.024-8.35-7.226-14.298-17.91-26.866-20.434-.763-.196-1.525-.393-2.848-.752-.385.027-.771.054-1.434-.403a95.44 95.44 0 0 1-2.715-.536c-1.027.021-2.053.042-3.796-.2-2.883-2.762-6.38-2.916-10.073-2.48-1.286.152-2.669.187-3.911-.117-2.72-.666-3.981.709-5.584 2.327-9.452.34-17.853 3.239-24.656 10.077-5.857 5.888-11.864 11.633-17.575 17.658-5.315 5.607-10.327 11.5-15.468 17.272-.32.359-.607.747-.901 1.129-2.885 3.747-5.566 7.677-8.703 11.199-4.016 4.509-8.644 8.481-12.564 13.064-5.243 6.128-9.881 12.774-15.123 18.903-3.565 4.168-7.78 7.773-11.592 11.738-3.363 3.497-6.666 7.062-9.824 10.745-3.828 4.463-7.372 9.17-11.233 13.603-3.378 3.88-7.11 7.45-10.53 11.296-3.925 4.411-7.627 9.02-11.522 13.458-3.424 3.902-7.022 7.65-10.466 11.534-4.394 4.955-8.698 9.991-13.071 14.966-.986 1.12-2.2 2.047-3.13 3.207-2.952 3.687-5.64 7.6-8.766 11.129-4.08 4.607-8.527 8.887-12.727 13.391-2.29 2.456-4.471 5.024-6.568 7.648-3.368 4.216-6.405 8.716-9.99 12.734-3.761 4.216-8.07 7.94-12.01 12.004-2.801 2.888-5.501 5.891-8.043 9.009-3.502 4.295-6.608 8.925-10.261 13.08-3.744 4.258-8.01 8.054-11.922 12.17a192.422 192.422 0 0 0-8.647 9.752c-3.474 4.192-6.618 8.666-10.21 12.75-3.639 4.134-7.873 7.75-11.447 11.935-5.178 6.063-9.747 12.655-15.031 18.617-6.697 7.556-13.882 14.676-20.792 22.045-2.866 3.057-5.62 6.224-8.325 9.426-4.016 4.752-7.873 9.64-11.929 14.357-3.45 4.013-7.143 7.816-10.625 11.803-3.832 4.389-7.424 8.992-11.344 13.298-3.937 4.325-8.206 8.345-12.222 12.6-2.743 2.905-5.354 5.942-7.934 8.995-4.405 5.212-8.874 10.38-13.05 15.773-2.139 2.764-3.701 5.975-5.916 9.58-2.5 3.31-2.575 7.175-3.246 11.108-1.312 7.688 1.805 13.715 5.607 19.567 1.63 2.509 4.475 4.228 6.856 7.001 5.184 4.572 11.542 5.156 17.993 5.636 0 0 .054.325.458 1.065 1.821.098 3.642.282 5.464.283 71.47.019 142.94.026 214.409.025 182.59-.004 365.18-.01 547.77-.063 1.647 0 3.294-.664 5-1.34z"/><path fill="#478A93" d="M523.182 205.916c1.027-.02 2.053-.041 3.707.199 1.207.427 1.786.593 2.365.76.386-.028.772-.055 1.642.202a27.07 27.07 0 0 0 2.637.989c12.294 2.004 18.242 12.687 26.592 19.913 6.421 5.558 11.522 12.638 17.228 19.024 5.66 6.335 11.355 12.64 17.016 18.973 5.347 5.984 10.668 11.99 16.002 17.984 5.444 6.12 10.909 12.22 16.33 18.361 4.576 5.185 9.086 10.43 13.655 15.62 5.3 6.022 10.742 11.924 15.928 18.042 7.967 9.4 15.666 19.028 23.686 28.382 3.761 4.387 8.198 8.193 11.984 12.56 5.524 6.372 10.686 13.056 16.104 19.52 2.824 3.37 5.821 6.6 8.822 9.816 6.486 6.953 13.094 13.794 19.519 20.803 4.831 5.271 9.453 10.734 14.172 16.11 4.724 5.381 9.47 10.744 14.173 16.144 6.936 7.964 13.812 15.98 20.771 23.923 4.989 5.694 10.087 11.293 15.107 16.96 4.862 5.489 9.784 10.928 14.504 16.538 5.93 7.05 11.63 14.295 17.534 21.368 2.756 3.302 5.69 6.462 8.664 9.571 4.374 4.574 9.027 8.89 13.24 13.605 3.684 4.124 6.782 8.768 10.4 12.957 3.367 3.897 7.18 7.406 10.612 11.25 4.245 4.753 8.269 9.702 12.449 14.514 3.086 3.552 6.332 6.966 9.396 10.537 5.839 6.802 11.56 13.707 17.42 20.491a33.997 33.997 0 0 0 5.07 4.772c6.163 4.703 8.648 12.086 10.092 18.639 1.267 5.75.99 12.587-1.806 19.114-4.88 11.388-14.004 14.873-24.813 16.533-1.142.176-2.329.066-4.37.056-6.928-.115-12.98-.198-19.164-.501-1.033-.069-1.934.083-3.21.303-1.136.025-1.895-.019-2.887-.352-4.495-2.197-8.692-2.667-13.112.342-1.136.028-1.896-.013-2.848-.32-2.053-.09-3.915.085-6.114.322-.79.02-1.242-.023-1.932-.355-9.391-.453-18.546-.63-27.702-.736-.34-.004-.686.673-1.366 1.095-.79.02-1.242-.02-1.928-.35-4.82-2.115-9.36-2.86-14.17.35-2.49.02-4.544-.026-6.727-.294-1.033-.075-1.935.073-3.29.286-3.495.02-6.538-.025-9.787-.342-2.39-.088-4.576.096-7.225.346-5.498.027-10.532-.012-15.77-.327-2.39-.095-4.578.086-7.231.33-6.165.026-11.865-.013-17.792-.34-3.84-2.164-7.381-2.639-11.158.336-1.817.022-3.217-.024-4.749-.292-1.032-.073-1.934.076-3.252.293-1.816.019-3.217-.03-4.852-.363-4.495-2.17-8.691-2.653-13.196.353-6.5.029-12.533-.01-18.744-.31-1.716-.083-3.255.094-5.13.33-.788.02-1.24-.02-1.926-.352-9.727-.458-19.22-.635-28.715-.743-.337-.004-.682.678-1.48 1.107-4.163.02-7.867-.025-11.798-.359-3.842-2.16-7.384-2.647-11.12.337-1.135.024-1.895-.017-2.845-.324-2.053-.09-3.916.087-6.155.33-1.136.02-1.896-.026-2.786-.294-1.034-.071-1.936.08-3.285.299-3.159.025-5.87-.019-8.677-.245-.689-.064-1.282.055-2.213.234-.79.017-1.242-.026-1.852-.311-1.376-.077-2.593.09-4.259.322-3.16.02-5.87-.024-8.678-.25-.69-.06-1.282.062-2.316.253-2.823.025-5.205-.019-7.742-.309-1.375-.084-2.596.08-4.244.306-2.152.02-3.877-.027-5.732-.297-1.032-.075-1.936.074-3.297.289-4.164.02-7.869-.025-11.672-.249-.687-.064-1.278.05-2.328.235-4.497.037-8.534.004-12.782-.31-2.871-2.132-5.415-2.343-8.212.324-3.494.026-6.536-.015-9.77-.323-2.054-.089-3.917.09-6.156.33-1.136.017-1.895-.028-2.847-.339-2.053-.087-3.914.091-6.24.338-8.166.02-15.867-.03-23.666-.258-.688-.058-1.279.064-2.331.258-5.165.028-9.867-.018-14.698-.288-1.034-.07-1.939.084-3.259.303-1.815.015-3.214-.034-4.826-.361-2.877-2.108-5.421-2.324-8.221.351-7.832.021-15.199-.026-22.757-.34-2.053-.09-3.915.087-6.177.328-1.477.026-2.553-.013-3.758-.277-1.033-.076-1.938.074-3.22.286-1.135.018-1.894-.026-2.89-.36-1.456-.713-2.674-1.492-3.899-1.502-11.815-.094-23.631-.122-35.444.023-1.47.018-2.927 1.151-4.766 1.832-1.135.022-1.895-.02-2.878-.346-3.523-2.124-6.735-2.543-10.183.363-2.489.013-4.542-.039-6.788-.36-1.57-.64-2.944-1.33-4.322-1.337-24.86-.135-49.722-.23-74.583-.177-1.957.004-3.912 1.16-6.32 1.847-3.494.032-6.536-.003-9.706-.264-1.032-.085-1.937.055-3.242.264-1.478.025-2.556-.018-3.826-.326-2.054-.085-3.915.095-6.231.34-3.829.023-7.202-.02-10.81-.354-.797-.627-1.355-1.246-1.924-1.255-7.305-.117-14.612-.213-21.917-.122-.971.012-1.929 1.08-3.32 1.728-2.153.023-3.88-.023-5.842-.358-1.792-.72-3.346-1.513-4.904-1.522-16.158-.09-32.317-.114-48.474.027-1.807.016-3.606 1.161-5.403 1.894.006.111.06.327.06.327-6.486-.152-12.844-.736-18.113-5.912-.728-1.532-1.272-2.552-2.03-3.374-8.168-8.86-11.1-18.85-6.87-30.519.41-1.13.123-2.51.16-3.776 1.823-3.008 3.385-6.22 5.525-8.983 4.175-5.393 8.644-10.56 13.049-15.773 2.58-3.053 5.19-6.09 7.934-8.995 4.016-4.255 8.285-8.275 12.222-12.6 3.92-4.306 7.512-8.91 11.344-13.298 3.482-3.987 7.175-7.79 10.625-11.803 4.056-4.717 7.913-9.605 11.929-14.357 2.705-3.202 5.459-6.37 8.325-9.426 6.91-7.369 14.095-14.49 20.792-22.045 5.284-5.962 9.853-12.554 15.031-18.617 3.574-4.185 7.808-7.8 11.446-11.936 3.593-4.083 6.737-8.557 10.211-12.749a192.422 192.422 0 0 1 8.647-9.751c3.912-4.117 8.178-7.913 11.922-12.171 3.653-4.155 6.759-8.785 10.26-13.08a140.639 140.639 0 0 1 8.043-9.01c3.941-4.063 8.25-7.787 12.012-12.003 3.584-4.018 6.621-8.518 9.99-12.734 2.096-2.624 4.277-5.192 6.567-7.648 4.2-4.504 8.647-8.784 12.727-13.391 3.126-3.529 5.814-7.442 8.767-11.129.93-1.16 2.143-2.087 3.129-3.207 4.373-4.975 8.677-10.01 13.07-14.966 3.445-3.884 7.043-7.632 10.467-11.534 3.895-4.439 7.597-9.047 11.521-13.458 3.421-3.846 7.153-7.417 10.531-11.296 3.86-4.433 7.405-9.14 11.233-13.603 3.158-3.683 6.46-7.248 9.824-10.745 3.812-3.965 8.027-7.57 11.592-11.738 5.242-6.13 9.88-12.775 15.123-18.903 3.92-4.583 8.548-8.555 12.564-13.064 3.137-3.522 5.818-7.452 8.703-11.199.294-.382.581-.77.901-1.13 5.141-5.77 10.153-11.664 15.468-17.27 5.711-6.026 11.718-11.77 17.575-17.659 6.803-6.838 15.204-9.737 25.406-9.714 7.012.298 13.273.234 19.534.17m368.63 453.016c1.686-.016 3.372-.032 5.124-.063 0 0-.05.008-.585-.625-6.788-.127-13.577-.253-20.363-.737 0 0-.003-.357.926-.499h19.14c-.484-1.42-.55-2.527-1.129-3.169a1078.254 1078.254 0 0 0-14.358-15.565c-3.437-3.661-7.795-6.756-10.259-10.97-4.475-7.653-12.381-12.054-16.816-19.912-3.296-5.84-9.386-10.18-14.52-14.873-2.399-2.194-4.531-4.031-6.453-7.04-5.169-8.088-12.078-15.091-18.504-22.341-4.393-4.957-9.284-9.472-13.685-14.422-5.95-6.692-11.646-13.611-17.444-20.44-.523-.616-.98-1.286-1.485-1.919-3.27-4.095-5.8-9.41-10.005-11.967-5.162-3.137-6.765-8.717-11.222-12.23-3.987-3.145-6.352-8.265-9.816-12.174-5.91-6.673-12.2-13.008-18.186-19.616-7.525-8.304-14.903-16.74-22.35-25.115a28.242 28.242 0 0 0-1.392-1.43c-1.806-1.762-3.608-3.53-5.437-5.267-.417-.396-1.378-.726-1.349-1.011.661-6.563-6.029-8.263-8.79-12.554-4.913-7.634-12.32-13.664-18.68-20.368-.57-.601-1.15-1.199-1.668-1.843-3.37-4.19-6.647-8.458-10.106-12.573-4.018-4.78-8.215-9.41-12.29-14.144-2.731-3.174-5.255-6.536-8.105-9.597-3.857-4.142-7.993-8.024-11.902-12.12a138.023 138.023 0 0 1-7.22-8.2c-3.588-4.411-6.817-9.135-10.612-13.354-4.3-4.781-9.131-9.08-13.59-13.726-2.885-3.006-5.625-6.17-8.234-9.419-3.154-3.927-5.827-8.271-9.205-11.981-4.588-5.038-9.724-9.572-14.476-14.466-2.787-2.87-5.375-5.947-7.89-9.06-3.383-4.186-6.402-8.68-9.958-12.703-3.924-4.44-8.268-8.51-12.451-12.718-2.065-2.077-4.398-3.928-6.23-6.19-4.76-5.878-12.18-7.404-18.161-6.742-7.183.796-15.537 2.245-20.43 9.474-1.26 1.862-2.51 3.771-4.038 5.406-4.088 4.377-8.367 8.576-12.487 12.924-2.998 3.165-5.948 6.384-8.771 9.704-5.675 6.674-11.173 13.5-16.893 20.134-3.31 3.839-7.006 7.342-10.353 11.151-4.2 4.78-8.137 9.793-12.346 14.565-3.326 3.771-7.072 7.178-10.31 11.018-5.494 6.515-10.616 13.343-16.115 19.853-5.102 6.04-10.416 11.905-15.775 17.718-6.35 6.888-12.887 13.603-19.267 20.465-2.95 3.173-5.77 6.474-8.558 9.792-3.678 4.377-7.168 8.914-10.926 13.219-3.17 3.632-6.71 6.941-9.903 10.556-4.43 5.015-8.628 10.235-13.042 15.265-2.854 3.251-6.053 6.204-8.853 9.499-3.885 4.571-7.374 9.486-11.344 13.978-3.852 4.36-8.318 8.18-12.12 12.579-5.607 6.486-10.754 13.369-16.297 19.912-6.869 8.107-13.83 16.142-20.962 24.017-6.572 7.257-13.426 14.26-20.151 21.379a26.26 26.26 0 0 0-1.31 1.502c-3.169 3.912-5.91 8.301-9.612 11.617-3.913 3.503-5.524 8.595-10.125 11.792-4.374 3.04-7.138 8.34-10.797 12.479-3.207 3.627-6.856 6.87-9.988 10.556-5.863 6.899-11.336 14.132-17.275 20.961-3.759 4.322-8.147 8.09-12.104 12.248-3.108 3.266-6.062 6.686-8.952 10.149-3.872 4.64-7.538 9.455-11.438 14.072-3.606 4.267-7.404 8.371-11.858 13.38 7.79 0 14.565 0 21.336.359 0 0 .002.36-.927.509-1.997.01-4-.072-5.992.05-4.707.289-9.408.674-13.74 1.533 1.54-.156 3.082-.311 5.298-.622.458.049.915.097 1.836.731.89.395 1.777 1.122 2.672 1.132 8.819.09 17.64.126 26.458-.015 1.13-.018 2.244-1.13 4.165-1.881 1.078.049 2.157.097 3.68.745 1.722.433 3.443 1.24 5.166 1.244 27.325.074 54.651.08 81.976-.041 1.795-.008 3.585-1.168 6.177-1.936 1.08.048 2.159.096 3.688.742 1.725.426 3.449 1.222 5.174 1.225 51.322.065 102.645.07 153.968-.03 1.791-.003 3.58-1.173 6.17-1.945 1.08.048 2.158.096 3.685.744 1.724.428 3.447 1.228 5.172 1.23 48.325.068 96.65.075 144.975-.024 1.79-.004 3.58-1.177 6.121-1.946.762.047 1.523.094 2.732.742 1.89.429 3.773 1.184 5.672 1.228 6.662.153 13.33.061 19.996.061 61.825 0 123.65.02 185.474-.082 2.459-.004 4.915-1.176 8.244-1.95 2.055.048 4.111.096 6.617.742 1.724.428 3.445 1.22 5.171 1.229 18.327.092 36.654.112 54.98-.021 1.792-.013 3.576-1.183 6.192-1.974z"/><path fill="#121B16" d="M336.983 689.87c2.053.052 4.106.104 7.046.138 3.91-.054 6.933-.09 9.956-.126.76.042 1.519.084 3.12.112 15.187-.047 29.533-.08 43.88-.113a68.45 68.45 0 0 0 3.023.119c1.49-.046 2.234-.078 2.978-.11 1.077.04 2.153.078 4.054.1l5.945-.11c7.366.048 14.733.095 23.005.124 3.269-.053 5.631-.089 7.994-.124 1.4.05 2.798.1 4.983.132 1.53-.054 2.274-.09 3.018-.127 4.702.046 9.404.092 14.896.107a89.892 89.892 0 0 0 2.102-.123c7.701.05 15.402.1 23.992.128 2.596-.055 4.302-.088 6.009-.12.76.045 1.518.09 3.079.123 2.508-.046 4.215-.08 5.922-.113 3.043.041 6.085.082 10.02.106 3.255-.042 5.618-.068 7.982-.093 4.037.033 8.074.066 12.897.074 1.224-.05 1.662-.075 2.1-.1 3.705.044 7.41.09 11.943.117 1.57-.049 2.314-.08 3.057-.113 1.726.046 3.45.092 5.999.122 1.882-.046 2.943-.077 4.003-.108 2.382.043 4.764.087 7.915.105a82.617 82.617 0 0 0 2.084-.115c2.711.045 5.423.09 8.977.116 1.903-.054 2.962-.09 4.022-.126.452.042.905.085 2.021.115 1.103-.041 1.542-.07 1.98-.099 2.712.044 5.424.088 8.953.112 1.56-.056 2.303-.09 3.046-.125.76.045 1.52.091 3.08.121l5.92-.113c.76.04 1.52.08 3.11.105 4.185-.044 7.538-.07 10.892-.097 3.704.046 7.408.092 12.036.119 10.603-.052 20.283-.086 29.964-.12.452.04.904.08 2.104.11 2.13-.047 3.513-.084 4.894-.12 6.035.04 12.069.079 19.028.098 4.94-.051 8.955-.083 12.97-.115 1.401.048 2.802.096 4.988.125 1.528-.052 2.27-.085 3.013-.119 1.4.046 2.801.092 5.072.118 4.224-.046 7.577-.07 10.93-.096 5.7.039 11.4.078 18 .101l7-.104c5.035.04 10.07.08 16 .101l6.998-.123c3.043.045 6.086.09 9.951.12 1.564-.05 2.307-.081 3.05-.113 2.053.045 4.107.09 7.058.118 5.245-.048 9.594-.078 13.943-.108.452.04.905.081 2.16.112 10.147-.048 19.493-.084 28.839-.12.453.042.905.084 2.12.116 2.467-.043 4.174-.075 5.88-.107.76.04 1.521.082 3.117.103 4.852-.047 8.868-.074 12.884-.102.76.044 1.52.088 3.024.113 1.488-.057 2.23-.095 2.974-.132 6.052.082 12.103.165 18.622.332.467.084.486.413-.01.565-2.494.18-4.493.23-6.492.23-255.353-.007-510.705-.017-766.058-.027 0 0-.054-.325-.036-.49.017-.163-.037-.379.425-.429 19.825-.09 39.187-.13 58.55-.17 1.726.045 3.452.09 6.07.115 9.572-.049 18.251-.077 26.93-.106 3.374.043 6.747.085 11 .11 2.587-.052 4.293-.088 6-.123 1.077.043 2.155.086 4.003.109 1.512-.042 2.256-.064 3-.086 3.042.035 6.084.07 10.044.087 28.929-.049 56.94-.08 84.952-.113z"/><path fill="#487D83" d="M126.247 691.336c255.15-.36 510.503-.35 765.856-.344 1.999 0 3.998-.05 6.463-.067-1.18.362-2.827 1.025-4.474 1.026-182.59.053-365.18.059-547.77.063-71.47.001-142.94-.006-214.41-.025-1.82 0-3.642-.185-5.665-.653z"/><path fill="#509FA8" d="M98.977 647.03c.16.967.446 2.349.036 3.478-4.23 11.67-1.298 21.66 6.87 30.519.758.822 1.302 1.842 1.987 3.027-2.253-1.822-5.098-3.541-6.728-6.05-3.802-5.852-6.919-11.88-5.607-19.567.671-3.933.746-7.798 3.442-11.407z"/><path fill="#487D83" d="M522.824 205.785c-5.903.196-12.164.26-18.78.28.457-2.3 1.718-3.674 4.438-3.008 1.242.304 2.625.27 3.911.117 3.692-.436 7.19-.282 10.431 2.611zM533.396 207.805c-.58.026-1.297-.209-2.22-.646.558-.007 1.32.19 2.22.646zM529.115 206.632c-.44.076-1.02-.09-1.849-.43.403-.052 1.057.068 1.85.43z"/><path d="M151.015 657.153h-21.339c4.454-5.008 8.252-9.112 11.858-13.38 3.9-4.616 7.566-9.43 11.438-14.071 2.89-3.463 5.844-6.883 8.952-10.149 3.957-4.157 8.345-7.926 12.104-12.248 5.939-6.83 11.412-14.062 17.275-20.961 3.132-3.686 6.78-6.929 9.988-10.556 3.66-4.14 6.423-9.44 10.797-12.479 4.6-3.197 6.212-8.289 10.125-11.792 3.702-3.316 6.443-7.705 9.613-11.617a26.26 26.26 0 0 1 1.309-1.502c6.725-7.12 13.579-14.122 20.151-21.379 7.132-7.875 14.093-15.91 20.962-24.017 5.543-6.543 10.69-13.426 16.297-19.912 3.802-4.399 8.268-8.22 12.12-12.579 3.97-4.492 7.459-9.407 11.344-13.978 2.8-3.295 6-6.248 8.853-9.5 4.414-5.03 8.612-10.25 13.042-15.264 3.193-3.615 6.732-6.924 9.903-10.556 3.758-4.305 7.248-8.842 10.926-13.219 2.789-3.318 5.608-6.619 8.558-9.792 6.38-6.862 12.917-13.577 19.267-20.465 5.36-5.813 10.673-11.679 15.775-17.718 5.5-6.51 10.621-13.338 16.115-19.853 3.238-3.84 6.984-7.247 10.31-11.018 4.21-4.772 8.146-9.785 12.346-14.565 3.347-3.809 7.043-7.312 10.353-11.151 5.72-6.635 11.218-13.46 16.893-20.134 2.823-3.32 5.773-6.539 8.771-9.704 4.12-4.348 8.399-8.547 12.487-12.924 1.527-1.635 2.778-3.544 4.039-5.406 4.892-7.23 13.246-8.678 20.429-9.474 5.98-.662 13.4.864 18.161 6.742 1.832 2.262 4.165 4.113 6.23 6.19 4.183 4.209 8.527 8.278 12.45 12.718 3.557 4.024 6.576 8.517 9.958 12.702 2.516 3.114 5.104 6.19 7.89 9.06 4.753 4.895 9.889 9.429 14.477 14.467 3.378 3.71 6.051 8.054 9.205 11.981 2.61 3.25 5.349 6.413 8.234 9.42 4.459 4.644 9.29 8.944 13.59 13.725 3.795 4.22 7.024 8.943 10.612 13.354a138.023 138.023 0 0 0 7.22 8.2c3.909 4.096 8.045 7.978 11.902 12.12 2.85 3.06 5.374 6.423 8.106 9.597 4.074 4.733 8.271 9.363 12.29 14.144 3.458 4.115 6.734 8.383 10.105 12.573.518.644 1.098 1.242 1.669 1.843 6.36 6.704 13.766 12.734 18.679 20.368 2.761 4.29 9.451 5.991 8.79 12.554-.029.285.932.615 1.349 1.011 1.83 1.738 3.631 3.505 5.437 5.268.476.464.951.933 1.393 1.43 7.446 8.374 14.824 16.81 22.349 25.114 5.986 6.608 12.275 12.943 18.186 19.616 3.464 3.91 5.829 9.03 9.816 12.173 4.457 3.514 6.06 9.094 11.222 12.231 4.206 2.557 6.735 7.872 10.005 11.967.504.633.962 1.303 1.485 1.92 5.798 6.828 11.494 13.747 17.444 20.44 4.4 4.95 9.292 9.464 13.685 14.42 6.426 7.25 13.335 14.254 18.504 22.343 1.922 3.008 4.054 4.845 6.454 7.039 5.133 4.693 11.223 9.033 14.52 14.873 4.434 7.858 12.34 12.259 16.815 19.912 2.464 4.214 6.822 7.309 10.259 10.97 4.831 5.147 9.63 10.325 14.358 15.565.58.642.645 1.748 1.129 3.17-6.582 0-12.86 0-20.058.012-2.084 0-3.25-.022-4.416-.022-202.38-.001-404.76-.01-607.14.005-37.809.003-75.617.096-113.425.148m566.312-92.302c-1.294 2.277-3.424 4.456-3.706 6.853-.58 4.922-.408 9.975-.11 14.949.378 6.334 4.066 11.04 9.529 13.454 6.567 2.901 13.218 3.678 20.526.132 5.62-2.727 9.255-6.316 10.95-11.793 2.276-7.36 1.401-14.75-2.504-21.413-2.804-4.786-8.166-7.681-12.904-8.288-4.502-.576-10.106-2.02-14.685 1.728-1.961 1.605-4.539 2.456-7.096 4.378m-95.624-97.755c-.85.454-1.652 1.058-2.555 1.336-6.71 2.066-12.88 3.887-15.943 11.886-2.534 6.616-3.61 12.376.067 18.395 2.125 3.478 4.287 8.124 7.558 9.432 4.951 1.98 10.997 2.436 16.361 1.776 4.013-.494 8.828-2.885 11.239-6.01 3.554-4.608 6.901-10.36 4.837-16.786-1.583-4.932-2.985-10.697-6.449-14.034-3.463-3.337-9.389-4.117-15.115-5.995M389.394 563.78c.617-1.608 1.323-3.188 1.836-4.829 3.496-11.173.086-22.668-12.949-26.616-8.059-2.442-19.765 1.542-24.174 8.003-2.491 3.65-2.156 18.242 1.204 21.618 3.567 3.584 7.558 7.996 12.083 9.099 7.86 1.915 15.711-.074 22-7.275M491.47 359.56c-6.104-.998-11.615 1.523-15.718 5.082-4.865 4.22-5.954 10.734-4.964 17.285.772 5.114 2.286 9.727 6.68 13.079 7.955 6.067 20.742 5.047 28.028-1.515 5.32-4.79 6.18-14.641 3.021-23.276-2.839-7.763-8.35-10.754-17.047-10.656m14.381 184.063c-6.002-.847-9.349 3.192-12.257 7.247-3.753 5.232-4.658 11.567-2.245 17.349 3.415 8.182 9.145 13.552 19.289 12.131 7.566-1.06 14.386-3.843 15.98-12.718 1.275-7.09 1.497-13.69-4.571-19.512-4.649-4.46-9.724-4.654-16.196-4.497z"/><path fill="#040809" d="M875.986 657.865c6.788.127 13.577.253 20.672.755.306.374.212.265.212.265-1.686.016-3.372.032-5.938.08-22.558.067-44.236.101-65.913.135a402.543 402.543 0 0 0-7.068-.117c-20.526.02-40.15-.002-59.776.008-53.052.029-106.104.07-159.157.107-.761-.046-1.522-.093-3.125-.116-52.52.055-104.197.085-155.875.115-1.079-.047-2.158-.095-4.102-.117-55.542.059-110.22.092-164.897.125-1.08-.047-2.159-.095-4.104-.119-31.543.053-62.22.081-92.898.11-1.078-.049-2.157-.097-4.1-.122-11.542.068-22.218.111-32.894.154-.457-.048-.914-.096-2.123-.124-2.14.044-3.53.066-4.919.088 4.704-.346 9.405-.731 14.112-1.02 1.991-.122 3.995-.04 6.91-.066 2.25-.006 3.583.013 4.916.013 203.38 0 406.76.005 610.14-.01 36.642-.003 73.285-.094 109.927-.144z"/><path fill="#4D95A0" d="M875.987 657.686c-36.643.229-73.286.32-109.928.323-203.38.015-406.76.01-610.14.01-1.333 0-2.666-.019-4.452-.088-.453-.059-.455-.418-.453-.598 37.81-.232 75.617-.325 113.426-.328 202.38-.014 404.76-.006 607.14-.005 1.166 0 2.332.023 3.952.093.453.058.456.415.455.593z"/><path fill="#509FA8" d="M599.242 659.4c52.829-.338 105.88-.38 158.933-.409 19.625-.01 39.25.011 59.34.065-1.992.675-4.448 1.847-6.907 1.851-61.824.102-123.65.081-185.474.082-6.666 0-13.334.092-19.996-.061-1.9-.044-3.782-.8-5.896-1.529zM271.244 659.404c54.452-.332 109.13-.365 164.272-.352-1.325.674-3.114 1.844-4.905 1.848-51.323.1-102.646.094-153.968.029-1.725-.003-3.45-.799-5.399-1.525zM440.242 659.398c51.454-.331 103.131-.361 155.274-.345-1.324.674-3.112 1.847-4.903 1.851-48.325.1-96.65.092-144.975.024-1.725-.002-3.448-.802-5.396-1.53zM174.24 659.395c30.455-.328 61.132-.356 92.275-.337-1.326.672-3.116 1.832-4.91 1.84-27.326.12-54.652.115-81.977.041-1.723-.005-3.444-.81-5.388-1.544z"/><path fill="#4D95A0" d="M336.79 689.602c-27.818.3-55.83.332-84.307.315 1.49-.67 3.445-1.826 5.402-1.83 24.86-.053 49.722.042 74.583.177 1.378.007 2.752.697 4.322 1.338z"/><path fill="#509FA8" d="M825.244 659.4c21.452-.334 43.13-.368 65.273-.356-1.321.68-3.105 1.85-4.896 1.863-18.327.133-36.654.113-54.98.02-1.727-.008-3.448-.8-5.397-1.527z"/><path fill="#4D95A0" d="M184.747 689.587c-19.126.33-38.488.37-58.318.35 1.334-.684 3.133-1.83 4.94-1.845 16.157-.141 32.316-.118 48.474-.027 1.558.009 3.112.803 4.904 1.522zM400.749 689.591c-14.11.323-28.457.356-43.268.339.997-.667 2.454-1.8 3.924-1.818 11.813-.145 23.63-.117 35.444-.023 1.225.01 2.443.79 3.9 1.502z"/><path fill="#509FA8" d="M137.255 659.421c10.444-.336 21.12-.38 32.262-.374-.656.654-1.77 1.766-2.9 1.784-8.818.141-17.64.105-26.458.015-.895-.01-1.782-.737-2.904-1.425z"/><path fill="#4D95A0" d="M673.752 689.598c-9.447.326-19.127.36-29.272.345-.125-.41.22-1.092.557-1.088 9.495.108 18.988.285 28.715.743zM849.747 689.585c-9.11.326-18.455.362-28.266.348-.122-.41.225-1.088.564-1.084 9.156.106 18.31.283 27.702.736zM217.75 689.594c-8.445.32-17.124.35-26.269.33.499-.626 1.457-1.695 2.428-1.707 7.305-.09 14.612.005 21.917.122.569.01 1.127.628 1.925 1.255zM818.751 689.594c-4.115.319-8.464.35-13.274.331 3.914-3.19 8.455-2.446 13.274-.331zM873.753 689.596c-3.784.317-7.8.344-12.276.323 3.584-2.99 7.781-2.52 12.276-.323zM712.748 689.577c-3.78.318-7.796.35-12.27.334 3.579-2.987 7.775-2.505 12.27-.334zM736.759 689.603c-3.127.313-6.48.338-10.288.316 2.907-2.955 6.447-2.48 10.288-.316zM631.759 689.603c-3.127.315-6.48.341-10.288.32 2.904-2.967 6.446-2.48 10.288-.32zM353.76 689.598c-2.798.32-5.822.356-9.295.345 2.561-2.888 5.773-2.469 9.296-.345zM447.771 689.603c-2.15.312-4.512.348-7.316.333 1.895-2.657 4.44-2.441 7.316-.333zM529.776 689.62c-2.153.305-4.516.331-7.32.307 1.905-2.65 4.449-2.44 7.32-.307zM784.777 689.594c-1.827.307-3.86.343-6.327.329 1.751-.233 3.936-.417 6.327-.329zM761.783 689.613c-1.832.305-3.866.335-6.334.315 1.755-.23 3.943-.41 6.334-.315zM617.794 689.616c-1.516.3-3.223.332-5.354.314a27.057 27.057 0 0 1 5.354-.314zM857.793 689.618c-1.515.298-3.222.33-5.353.311 1.438-.226 3.3-.402 5.353-.311zM234.79 689.608c-1.513.3-3.22.336-5.35.323a27.258 27.258 0 0 1 5.35-.323zM416.793 689.614c-1.515.298-3.222.329-5.353.312 1.438-.226 3.3-.402 5.353-.312zM502.791 689.611c-1.514.298-3.22.331-5.35.317a27.326 27.326 0 0 1 5.35-.317zM511.794 689.62c-1.516.3-3.223.334-5.355.317 1.438-.227 3.3-.406 5.355-.317zM680.808 689.62c-1.205.296-2.587.333-4.381.32a18.209 18.209 0 0 1 4.38-.32z"/><path fill="#509FA8" d="M130.167 659.349c1.203-.28 2.592-.301 4.395-.267a18.415 18.415 0 0 1-4.395.267z"/><path fill="#4D95A0" d="M569.831 689.645c-.905.278-1.966.309-3.421.29.825-.21 2.046-.374 3.421-.29zM592.826 689.629c-.902.279-1.961.315-3.416.303.823-.213 2.04-.38 3.416-.303zM559.855 689.654c-.614.256-1.357.288-2.47.272.534-.198 1.438-.347 2.47-.272zM241.86 689.67c-.617.248-1.36.27-2.473.244.535-.189 1.44-.33 2.472-.244zM608.853 689.652c-.612.257-1.355.292-2.468.279.532-.2 1.434-.35 2.468-.279zM720.852 689.647c-.611.256-1.354.289-2.466.274.532-.198 1.434-.347 2.466-.274zM879.85 689.645c-.61.258-1.353.296-2.465.284.531-.2 1.432-.353 2.465-.284zM455.856 689.66c-.615.262-1.359.298-2.473.287.534-.202 1.439-.357 2.473-.286zM797.854 689.65c-.613.255-1.356.286-2.468.27.533-.197 1.435-.345 2.468-.27zM406.858 689.665c-.616.257-1.36.289-2.474.272.536-.198 1.44-.348 2.474-.272zM472.885 689.69c-.34.21-.777.24-1.542.228.263-.163.854-.285 1.542-.227zM544.886 689.694c-.34.205-.778.23-1.542.21.264-.16.855-.274 1.542-.21zM596.89 689.706c-.343.21-.782.24-1.547.221.266-.166.86-.285 1.548-.221zM579.889 689.7c-.343.212-.78.241-1.547.228.265-.165.858-.287 1.547-.227z"/><path fill="#509FA8" d="M896.925 658.936c-.039-.058.011-.066-.022-.059-.033.008.061.117.022.059z"/><path fill="#478A93" d="M717.456 564.487c2.428-1.558 5.006-2.41 6.967-4.014 4.58-3.748 10.183-2.304 14.685-1.728 4.738.607 10.1 3.502 12.904 8.288 3.905 6.663 4.78 14.052 2.503 21.413-1.694 5.477-5.328 9.066-10.949 11.793-7.308 3.546-13.96 2.77-20.526-.132-5.463-2.414-9.15-7.12-9.53-13.454-.297-4.974-.47-10.027.11-14.95.283-2.396 2.413-4.575 3.836-7.216zM622.143 467.084c5.286 1.89 11.212 2.67 14.675 6.007 3.464 3.337 4.866 9.102 6.45 14.034 2.063 6.426-1.284 12.178-4.838 16.786-2.411 3.125-7.226 5.516-11.239 6.01-5.364.66-11.41.205-16.361-1.776-3.27-1.308-5.433-5.954-7.558-9.432-3.677-6.019-2.601-11.78-.067-18.395 3.064-7.999 9.233-9.82 15.943-11.886.903-.278 1.706-.882 2.995-1.348zM389.058 563.934c-5.953 7.047-13.805 9.036-21.664 7.12-4.525-1.102-8.516-5.514-12.083-9.098-3.36-3.376-3.695-17.967-1.204-21.618 4.409-6.46 16.115-10.445 24.174-8.003 13.035 3.948 16.445 15.443 12.949 26.616-.513 1.64-1.219 3.22-2.172 4.983zM491.922 359.565c8.244-.104 13.755 2.887 16.594 10.65 3.16 8.635 2.298 18.485-3.02 23.276-7.287 6.562-20.074 7.582-28.029 1.515-4.394-3.352-5.908-7.965-6.68-13.079-.99-6.55.1-13.065 4.964-17.285 4.103-3.559 9.614-6.08 16.17-5.077zM506.298 543.625c6.024-.16 11.099.033 15.748 4.494 6.068 5.822 5.846 12.421 4.572 19.512-1.595 8.875-8.415 11.658-15.981 12.718-10.144 1.421-15.874-3.949-19.289-12.131-2.413-5.782-1.508-12.117 2.245-17.35 2.908-4.054 6.255-8.093 12.705-7.243z"/></svg>