<svg xmlns="http://www.w3.org/2000/svg" xml:space="preserve" id="Layer_1" x="0" y="0" style="enable-background:new 0 0 841.9 595.3" version="1.1" viewBox="25 200 790 90"><style>.st0{fill:teal}.st1{fill:none;stroke:teal;stroke-width:4;stroke-miterlimit:10}</style><switch><g><g id="XMLID_00000135649464218517068640000007294177886410440600_"><path d="M816.5 271.5v12.9H718v-41c0-6.4.9-12.1 2.7-17.1 1.8-5 4.4-9.2 7.9-12.7s7.7-6.1 12.7-7.9c5-1.8 10.8-2.7 17.2-2.7h57.9v12.8H759c-5.1 0-9.5.5-13.1 1.5-3.6 1-6.5 2.6-8.7 4.8s-3.8 5.1-4.8 8.7c-1 3.6-1.5 7.9-1.5 13.1v27.5h85.6zM707.1 271.5v12.9h-98.5v-41c0-6.3.9-12 2.7-17 1.8-5 4.4-9.2 7.8-12.7 3.4-3.5 7.7-6.1 12.7-8 5-1.8 10.8-2.8 17.3-2.8H707v12.8h-57.5c-4.6 0-8.6.4-11.9 1.2-3.3.8-6 2.1-8.3 3.8-2.2 1.7-3.9 3.9-5.1 6.6-1.2 2.7-2 6-2.6 9.8h85.3V250h-85.6v21.3h85.8zM599.1 203.1v47.2h-85.6v34.2h-12.8v-41c0-6.4.9-12.1 2.7-17.1s4.4-9.2 7.9-12.7 7.7-6.1 12.7-7.9c5-1.8 10.7-2.7 17.2-2.7h57.9zm-12.7 34.2v-21.4h-44.1c-4.9 0-9.1.3-12.4.9-3.3.6-6.1 1.7-8.3 3.2-2.2 1.6-3.8 3.7-5 6.5-1.2 2.8-2 6.4-2.5 10.8h72.3zM404.4 237.3h85.1c-.5 8.9-1.6 16.4-3.4 22.4-1.8 6-4.3 10.9-7.5 14.5-3.3 3.7-7.3 6.3-12.2 7.9-4.9 1.6-10.7 2.4-17.5 2.4h-58v-12.9h57.6c4.6 0 8.4-.3 11.5-1 3.1-.6 5.7-1.8 7.8-3.4 2.1-1.6 3.7-3.8 4.9-6.6 1.2-2.8 2.2-6.2 3-10.3h-85.3c.5-8.8 1.7-16.1 3.6-22.2 1.9-6 4.6-10.9 7.9-14.6 3.4-3.7 7.4-6.4 12.2-8 4.8-1.6 10.2-2.4 16.2-2.4h58.9v12.8h-59.5c-4.1 0-7.5.5-10.4 1.5-2.9 1-5.3 2.4-7.3 4.3-2 1.8-3.6 4.1-4.7 6.7-1.4 2.7-2.3 5.6-2.9 8.9zM378.5 203.1v81.4h-12.9v-68.6h-19c-5.1 0-9.5.5-13.1 1.5-3.6 1-6.5 2.6-8.8 4.8-2.2 2.2-3.9 5.1-4.8 8.7-1 3.6-1.5 7.9-1.5 13.1v40.3h-12.9v-68.5h-19c-5.1 0-9.5.5-13 1.5s-6.4 2.6-8.6 4.8c-2.2 2.2-3.8 5.1-4.8 8.7-1 3.6-1.5 7.9-1.5 13.1v40.4h-12.9v-44.7c0-5.4 1-10.4 2.9-14.9s4.6-8.4 8.1-11.6c3.5-3.2 7.8-5.7 12.8-7.5 5-1.8 10.6-2.7 16.7-2.7h32.3v8.4c1.7-1.6 3.8-2.9 6.1-4s4.7-1.9 7.2-2.6c2.5-.7 4.9-1.1 7.4-1.4 2.5-.3 4.7-.4 6.8-.4h32.5zM233.8 203.1v41c0 6.3-.9 12-2.7 16.9-1.8 5-4.4 9.2-7.8 12.7-3.4 3.5-7.7 6.1-12.7 8-5 1.9-10.8 2.8-17.2 2.8h-58v-41c0-6.3.9-12 2.7-17 1.8-5 4.4-9.2 7.9-12.7 3.4-3.5 7.7-6.1 12.7-8 5-1.8 10.8-2.8 17.2-2.8h57.9zm-12.7 40.4v-27.6h-44.8c-5.1 0-9.5.5-13.1 1.5-3.6 1-6.5 2.6-8.8 4.8-2.2 2.2-3.9 5.1-4.8 8.7-1 3.6-1.5 7.9-1.5 13.1v27.5h44.8c5.2 0 9.6-.5 13.2-1.5 3.5-1 6.4-2.6 8.7-4.8 2.2-2.2 3.9-5.1 4.8-8.6 1-3.5 1.5-7.9 1.5-13.1zM125.3 271.5v12.9H26.9v-41c0-6.4.9-12.1 2.7-17.1s4.4-9.2 7.9-12.7c3.4-3.5 7.7-6.1 12.7-7.9 5-1.8 10.8-2.7 17.2-2.7h57.9v12.8H67.8c-5.1 0-9.5.5-13.1 1.5-3.6 1-6.5 2.6-8.7 4.8s-3.8 5.1-4.8 8.7c-1 3.6-1.5 7.9-1.5 13.1v27.5h85.6z" class="st0"/><path d="M125.3 284.5H26.9v-41c0-6.4.9-12.1 2.7-17.1s4.4-9.2 7.9-12.7c3.4-3.5 7.7-6.1 12.7-7.9 5-1.8 10.8-2.7 17.2-2.7h57.9v12.8H67.8c-5.1 0-9.5.5-13.1 1.5-3.6 1-6.5 2.6-8.7 4.8s-3.8 5.1-4.8 8.7c-1 3.6-1.5 7.9-1.5 13.1v27.5h85.6v13zM233.8 203.1v41c0 6.3-.9 12-2.7 16.9-1.8 5-4.4 9.2-7.8 12.7-3.4 3.5-7.7 6.1-12.7 8-5 1.9-10.8 2.8-17.2 2.8h-58v-41c0-6.3.9-12 2.7-17 1.8-5 4.4-9.2 7.9-12.7 3.4-3.5 7.7-6.1 12.7-8 5-1.8 10.8-2.8 17.2-2.8h57.9z" class="st1"/><path d="M221.1 215.9h-44.8c-5.1 0-9.5.5-13.1 1.5-3.6 1-6.5 2.6-8.8 4.8-2.2 2.2-3.9 5.1-4.8 8.7-1 3.6-1.5 7.9-1.5 13.1v27.5h44.8c5.2 0 9.6-.5 13.2-1.5 3.5-1 6.4-2.6 8.7-4.8 2.2-2.2 3.9-5.1 4.8-8.6 1-3.6 1.5-7.9 1.5-13.2v-27.5zM378.5 284.5h-12.9v-68.6h-19c-5.1 0-9.5.5-13.1 1.5-3.6 1-6.5 2.6-8.8 4.8-2.2 2.2-3.9 5.1-4.8 8.7-1 3.6-1.5 7.9-1.5 13.1v40.3h-12.9v-68.5h-19c-5.1 0-9.5.5-13 1.5s-6.4 2.6-8.6 4.8c-2.2 2.2-3.8 5.1-4.8 8.7-1 3.6-1.5 7.9-1.5 13.1v40.4h-12.9v-44.7c0-5.4 1-10.4 2.9-14.9s4.6-8.4 8.1-11.6c3.5-3.2 7.8-5.7 12.8-7.5 5-1.8 10.6-2.7 16.7-2.7h32.3v8.4c1.7-1.6 3.8-2.9 6.1-4s4.7-1.9 7.2-2.6c2.5-.7 4.9-1.1 7.4-1.4 2.5-.3 4.7-.4 6.8-.4h32.6v81.6zM489.5 237.3c-.5 8.9-1.6 16.4-3.4 22.4-1.8 6-4.3 10.9-7.5 14.5-3.3 3.7-7.3 6.3-12.2 7.9-4.9 1.6-10.7 2.4-17.5 2.4h-58v-12.9h57.6c4.6 0 8.4-.3 11.5-1 3.1-.6 5.7-1.8 7.8-3.4 2.1-1.6 3.7-3.8 4.9-6.6 1.2-2.8 2.2-6.2 3-10.3h-85.3c.5-8.8 1.7-16.1 3.6-22.2 1.9-6 4.6-10.9 7.9-14.6 3.4-3.7 7.4-6.4 12.2-8 4.8-1.6 10.2-2.4 16.2-2.4h58.9v12.8h-59.5c-4.1 0-7.5.5-10.4 1.5-2.9 1-5.3 2.4-7.3 4.3-2 1.8-3.6 4.1-4.7 6.7-1.2 2.6-2.1 5.6-2.7 8.9h84.9zM599.1 250.2h-85.6v34.2h-12.8v-41c0-6.4.9-12.1 2.7-17.1s4.4-9.2 7.9-12.7 7.7-6.1 12.7-7.9c5-1.8 10.7-2.7 17.2-2.7h58v47.2z" class="st1"/><path d="M586.4 237.3v-21.4h-44.1c-4.9 0-9.1.3-12.4.9-3.3.6-6.1 1.7-8.3 3.2-2.2 1.6-3.8 3.7-5 6.5-1.2 2.8-2 6.4-2.5 10.8h72.3zM707.1 284.5h-98.5v-41c0-6.3.9-12 2.7-17 1.8-5 4.4-9.2 7.8-12.7 3.4-3.5 7.7-6.1 12.7-8 5-1.8 10.8-2.8 17.3-2.8H707v12.8h-57.5c-4.6 0-8.6.4-11.9 1.2-3.3.8-6 2.1-8.3 3.8-2.2 1.7-3.9 3.9-5.1 6.6-1.2 2.7-2 6-2.6 9.8h85.3v12.9h-85.6v21.3h85.6v13.1zM816.5 284.5H718v-41c0-6.4.9-12.1 2.7-17.1 1.8-5 4.4-9.2 7.9-12.7s7.7-6.1 12.7-7.9c5-1.8 10.8-2.7 17.2-2.7h57.9v12.8H759c-5.1 0-9.5.5-13.1 1.5-3.6 1-6.5 2.6-8.7 4.8s-3.8 5.1-4.8 8.7c-1 3.6-1.5 7.9-1.5 13.1v27.5h85.6v13z" class="st1"/></g></g></switch></svg>